<?xml version="1.0" encoding="UTF-8" standalone="no"?>
<!-- Created with Inkscape (http://www.inkscape.org/) -->

<svg
   xmlns:dc="http://purl.org/dc/elements/1.1/"
   xmlns:cc="http://creativecommons.org/ns#"
   xmlns:rdf="http://www.w3.org/1999/02/22-rdf-syntax-ns#"
   xmlns:svg="http://www.w3.org/2000/svg"
   xmlns="http://www.w3.org/2000/svg"
   xmlns:sodipodi="http://sodipodi.sourceforge.net/DTD/sodipodi-0.dtd"
   xmlns:inkscape="http://www.inkscape.org/namespaces/inkscape"
   id="svg2"
   version="1.1"
   inkscape:version="0.48.4 r9939"
   width="18"
   height="18"
   sodipodi:docname="pharmacy-18.png">
  <metadata
     id="metadata8">
    <rdf:RDF>
      <cc:Work
         rdf:about="">
        <dc:format>image/svg+xml</dc:format>
        <dc:type
           rdf:resource="http://purl.org/dc/dcmitype/StillImage" />
        <dc:title></dc:title>
      </cc:Work>
    </rdf:RDF>
  </metadata>
  <defs
     id="defs6" />
  <sodipodi:namedview
     pagecolor="#ffffff"
     bordercolor="#666666"
     borderopacity="1"
     objecttolerance="10"
     gridtolerance="10"
     guidetolerance="10"
     inkscape:pageopacity="0"
     inkscape:pageshadow="2"
     inkscape:window-width="640"
     inkscape:window-height="480"
     id="namedview4"
     showgrid="false"
     inkscape:zoom="13.111111"
     inkscape:cx="11.127926"
     inkscape:cy="9"
     inkscape:window-x="0"
     inkscape:window-y="0"
     inkscape:window-maximized="0"
     inkscape:current-layer="layer1" />
  <g
     inkscape:label="Layer 1"
     inkscape:groupmode="layer"
     transform="translate(-0.15254201,-1034.1312)"
     id="layer1">
    <g
       inkscape:export-xdpi="89.996864"
       inkscape:export-ydpi="89.996864"
       inkscape:label="hospital-18"
       transform="translate(-263.69492,-88.152542)"
       style="display:inline"
       id="hospital-18">
      <g
         transform="translate(261,115)"
         style="display:inline"
         id="g8231-5-8">
        <path
           inkscape:connector-curvature="0"
           sodipodi:nodetypes="sscsssscsssscsssscsss"
           d="m 11,1009.36 c -0.554,0 -1,0.446 -1,1 l 0,3 -3,0 c -0.554,0 -1,0.446 -1,1 l 0,3 c 0,0.554 0.474429,1.1752 1,1 l 3,0 0,3 c 0,0.554 0.446,1 1,1 l 3,0 c 0.554,0 1,-0.446 1,-1 l 0,-3 3,0 c 0.554,0 1,-0.446 1,-1 l 0,-3 c 0,-0.554 -0.446,-1 -1,-1 l -3,0 0,-3 c 0,-0.554 -0.446,-1 -1,-1 z"
           style="opacity:0.3;color:#000000;fill:none;stroke:#ffffff;stroke-width:2;stroke-linecap:butt;stroke-linejoin:miter;stroke-miterlimit:4;stroke-opacity:1;stroke-dasharray:none;stroke-dashoffset:0;marker-start:none;marker-mid:none;marker-end:none;visibility:visible;display:inline;overflow:visible;enable-background:accumulate"
           id="path14521" />
        <path
           inkscape:connector-curvature="0"
           sodipodi:nodetypes="sscsssscsssscsssscsss"
           d="m 11,1009.36 c -0.554,0 -1,0.446 -1,1 l 0,3 -3,0 c -0.554,0 -1,0.446 -1,1 l 0,3 c 0,0.554 0.474429,1.1752 1,1 l 3,0 0,3 c 0,0.554 0.446,1 1,1 l 3,0 c 0.554,0 1,-0.446 1,-1 l 0,-3 3,0 c 0.554,0 1,-0.446 1,-1 l 0,-3 c 0,-0.554 -0.446,-1 -1,-1 l -3,0 0,-3 c 0,-0.554 -0.446,-1 -1,-1 z"
           style="color:#000000;fill:#444444;fill-opacity:1;stroke:none;stroke-width:2;marker-start:none;marker-mid:none;marker-end:none;visibility:visible;display:inline;overflow:visible;enable-background:accumulate"
           id="rect8206-4-3" />
      </g>
      <rect
         height="18"
         width="18"
         y="1122.36"
         x="264"
         style="opacity:0.5;color:#000000;fill:none;stroke:none;stroke-width:2;marker-start:none;marker-mid:none;marker-end:none;visibility:visible;display:inline;overflow:visible;enable-background:accumulate"
         id="rect22302" />
    </g>
    <path
       style="opacity:0.17720002;fill:#ff00ff;fill-opacity:1;stroke:#000000;stroke-width:0.00762712;stroke-miterlimit:4;stroke-opacity:1;stroke-dasharray:none"
       d="M 7.9404255,15.019534 C 7.6847148,14.966777 7.2683012,14.516704 7.2112421,14.231409 7.1840626,14.095511 7.1618247,13.319333 7.1618247,12.506568 l 0,-1.477754 -1.6991309,0 c -1.8779235,0 -1.9163272,-0.0087 -2.142621,-0.485582 C 3.2167511,10.325497 3.1957231,9.9955175 3.1957231,8.591889 c 0,-1.8300014 0.026001,-1.9687428 0.4282534,-2.2851546 0.191274,-0.150456 0.2945484,-0.1592768 1.864835,-0.1592768 l 1.6623475,0 L 7.17556,4.4849497 C 7.2025376,2.6468418 7.2247672,2.5555841 7.718935,2.254271 7.9409974,2.1188709 8.1119944,2.1056296 9.6418283,2.1053699 12.156039,2.104943 12.119452,2.0692048 12.119452,4.5255049 l 0,1.6219527 1.64713,0 c 2.414023,0 2.318972,-0.1008827 2.318972,2.461228 0,2.4975404 0.07551,2.4201284 -2.36062,2.4201284 l -1.605482,0 -3.05e-4,1.620762 c -2.29e-4,1.471954 -0.01393,1.643142 -0.148901,1.864501 -0.302675,0.496401 -0.391781,0.517764 -2.2116111,0.530246 -0.9038921,0.0062 -1.7220953,-0.005 -1.8182292,-0.02479 l 1.98e-5,0 z"
       id="path3040"
       inkscape:connector-curvature="0"
       transform="translate(0.15254201,1034.1312)" />
    <path
       style="opacity:0.17720002;fill:#ff00ff;fill-opacity:1;stroke:#000000;stroke-width:0.00762712;stroke-miterlimit:4;stroke-opacity:1;stroke-dasharray:none"
       d="M 7.7719942,14.871418 C 7.2990391,14.575164 7.2796035,14.494977 7.2380959,12.668644 L 7.1999603,10.990678 5.4197758,10.952542 C 3.0783532,10.902384 3.2484763,11.108174 3.286474,8.371992 L 3.31013,6.6685601 3.5592147,6.4461445 3.8082993,6.2237288 l 1.634126,0 c 1.1169943,0 1.6507159,-0.026843 1.6865502,-0.084824 0.028833,-0.046653 0.075755,-0.8190529 0.104271,-1.7164432 0.073659,-2.3180499 -0.00911,-2.2385343 2.3311208,-2.2395556 0.8813107,-3.847e-4 1.7306597,0.035116 1.8884337,0.078931 0.515672,0.1432073 0.547298,0.2612762 0.59038,2.2040375 l 0.03813,1.719719 1.716102,0.038136 c 1.152847,0.025619 1.769794,0.068899 1.87969,0.1318646 0.284153,0.162808 0.332174,0.488298 0.332174,2.2514646 0,1.7569323 -0.05494,2.0916193 -0.368179,2.2426663 -0.07017,0.03384 -0.899829,0.07939 -1.843685,0.101239 l -1.716102,0.03972 -0.03813,1.733614 -0.03814,1.733613 -0.197734,0.197557 c -0.287832,0.287574 -0.621367,0.335838 -2.3192149,0.335604 -1.2522085,-1.53e-4 -1.5595756,-0.0216 -1.7161017,-0.119648 l 0,0 z"
       id="path3042"
       inkscape:connector-curvature="0"
       transform="translate(0.15254201,1034.1312)" />
    <path
       style="opacity:0.17720002;fill:#ff00ff;fill-opacity:1;stroke:#000000;stroke-width:0.00762712;stroke-miterlimit:4;stroke-opacity:1;stroke-dasharray:none"
       d="M 7.754844,14.799753 C 7.6405385,14.737721 7.5076445,14.613402 7.4595239,14.523488 7.3677513,14.352009 7.2482213,12.757666 7.2418394,11.619915 l -0.00374,-0.667373 -0.7817796,-0.0066 C 6.0263375,10.942285 5.2330007,10.91543 4.6933457,10.886246 3.7450401,10.834963 3.7060568,10.826095 3.5302101,10.621661 3.3492785,10.411315 3.3482654,10.399836 3.3482654,8.5600165 l 0,-1.8501213 0.2097458,-0.1979053 C 3.7666007,6.3151755 3.7770704,6.3137833 5.4571842,6.25945 L 7.1466114,6.2048155 7.1894264,5.8138484 C 7.2129748,5.5988166 7.2535633,4.9080508 7.2796232,4.2788136 7.338439,2.8586612 7.3982667,2.6032094 7.7186673,2.4041871 7.947085,2.2623016 8.0782236,2.2539974 9.7715318,2.274191 c 2.0152032,0.024033 1.9982472,0.019595 2.1188972,0.554543 0.03566,0.1581174 0.08946,0.9866757 0.119552,1.8412405 l 0.05471,1.5537543 0.694752,0.00416 c 1.526609,0.00914 2.876977,0.1241981 3.009337,0.2564079 0.180432,0.1802278 0.233987,3.6197463 0.06274,4.0295913 -0.13701,0.327912 -0.190108,0.337454 -2.273388,0.408523 l -1.497755,0.05109 -0.05551,1.738705 c -0.07393,2.315543 0.04667,2.208311 -2.4781369,2.203381 -1.2312836,-0.0024 -1.6082817,-0.02705 -1.7718911,-0.115837 l 0,0 z"
       id="path3044"
       inkscape:connector-curvature="0"
       transform="translate(0.15254201,1034.1312)" />
    <path
       style="opacity:0.17720002;fill:#ff00ff;fill-opacity:1;stroke:#000000;stroke-width:0.00762712;stroke-miterlimit:4;stroke-opacity:1;stroke-dasharray:none"
       d="M 7.8074818,14.769799 C 7.7221271,14.735201 7.610859,14.656971 7.5602193,14.595954 7.43378,14.443604 7.3172797,13.246743 7.3156888,12.083781 7.3149642,11.55236 7.293534,11.063271 7.2680713,10.996916 7.2285905,10.89403 7.0405325,10.875695 5.990529,10.872355 5.3133433,10.870204 4.5227243,10.842172 4.2335979,10.810069 3.4341333,10.721301 3.4542967,10.773442 3.3870371,8.6209422 L 3.3306637,6.8168313 3.528801,6.618694 C 3.7523066,6.3951884 4.2745839,6.3132404 5.5298737,6.3047153 c 0.3818761,-0.00259 0.9058758,-0.026827 1.1644438,-0.053853 0.3957146,-0.04136 0.475504,-0.074558 0.5041169,-0.2097458 0.018696,-0.088334 0.070498,-0.8074212 0.1151158,-1.5979705 0.085132,-1.5084112 0.1683699,-1.8777337 0.458155,-2.0328219 0.1159749,-0.062068 0.7077422,-0.080933 1.9869056,-0.063343 1.5924672,0.021899 1.8380612,0.04139 1.9514302,0.1548664 0.105061,0.1051598 0.142413,0.365897 0.196668,1.3728813 0.03684,0.683687 0.09119,1.5004826 0.120791,1.8151012 l 0.05382,0.5720339 1.525424,0.046213 c 0.838983,0.025417 1.666821,0.0856 1.83964,0.1337388 0.281905,0.078526 0.319073,0.1169092 0.361448,0.3732784 0.08073,0.4883863 0.05488,3.4111189 -0.03238,3.6614299 -0.05294,0.151865 -0.149691,0.250354 -0.27743,0.282414 -0.107878,0.02708 -0.915618,0.07942 -1.794977,0.116326 -0.87936,0.0369 -1.61558,0.08384 -1.636046,0.104308 -0.02047,0.02047 -0.06724,0.730531 -0.103931,1.577923 -0.0367,0.847392 -0.105185,1.657263 -0.152198,1.799714 -0.148401,0.44966 -0.312721,0.485774 -2.1855109,0.480328 -0.9144772,-0.0027 -1.7325215,-0.03314 -1.8178763,-0.06774 z"
       id="path3046"
       inkscape:connector-curvature="0"
       transform="translate(0.15254201,1034.1312)" />
    <path
       style="opacity:0.17720002;fill:#ff00ff;fill-opacity:1;stroke:#000000;stroke-width:0.00762712;stroke-miterlimit:4;stroke-opacity:1;stroke-dasharray:none"
       d="M 7.7008934,14.632627 C 7.4957704,14.465959 7.424511,13.974293 7.3554455,12.249153 7.327735,11.556992 7.2807665,10.966004 7.251071,10.935847 7.2213755,10.905691 6.4598037,10.851429 5.5586892,10.815266 4.6066909,10.777061 3.85208,10.713003 3.7574625,10.662363 3.5241976,10.537517 3.4938854,10.341155 3.4254907,8.5118644 L 3.3641797,6.8720339 3.5481167,6.703036 C 3.8138005,6.4589308 4.1358569,6.4020103 5.6937529,6.3238142 6.4594066,6.2853835 7.1179128,6.2214012 7.1571001,6.1816312 7.1962873,6.1418612 7.2826758,5.4070231 7.3490746,4.5486577 7.436324,3.4207468 7.5064098,2.9131688 7.6018291,2.7181492 L 7.7338586,2.4483051 9.5367564,2.427877 c 1.0382246,-0.011764 1.8856536,0.011036 1.9980156,0.053756 0.240547,0.091456 0.244827,0.1152144 0.390891,2.170047 0.06229,0.8762629 0.122791,1.6008559 0.134451,1.6102069 0.01166,0.00935 0.771261,0.054455 1.687998,0.1002316 1.279044,0.063868 1.709317,0.1110905 1.849577,0.2029921 l 0.18278,0.1197622 0,1.8584362 c 0,1.658725 -0.01434,1.875465 -0.133475,2.016897 -0.121846,0.144657 -0.282066,0.16829 -1.839095,0.271274 -0.938091,0.06205 -1.722135,0.129327 -1.742321,0.149512 -0.02018,0.02018 -0.08551,0.759153 -0.145157,1.642151 -0.05965,0.882997 -0.141622,1.692683 -0.182159,1.799301 -0.04054,0.106618 -0.162357,0.227558 -0.270713,0.268754 -0.108355,0.0412 -0.96322,0.0749 -1.8996975,0.0749 -1.5081795,0 -1.7214524,-0.01525 -1.8669581,-0.133475 z"
       id="path3048"
       inkscape:connector-curvature="0"
       transform="translate(0.15254201,1034.1312)" />
    <path
       style="opacity:0.17720002;fill:#ff00ff;fill-opacity:1;stroke:#000000;stroke-width:0.00762712;stroke-miterlimit:4;stroke-opacity:1;stroke-dasharray:none"
       d="M 7.8024801,14.631459 C 7.5999972,14.496258 7.5206077,14.138298 7.4533042,13.057057 7.4138947,12.423939 7.3579312,11.682839 7.328941,11.410169 L 7.276231,10.914407 6.8186039,10.862097 C 6.5669095,10.83333 5.7784956,10.775254 5.0665735,10.733042 4.0141904,10.670642 3.7550338,10.632856 3.6805215,10.530955 3.5576844,10.362965 3.4925766,9.5736727 3.4762198,8.0542373 L 3.4626722,6.7957627 3.7888506,6.6311186 C 4.0238278,6.5125098 4.322389,6.4528997 4.8566472,6.4179243 6.2102072,6.3293132 7.1066801,6.2331107 7.1701317,6.1696591 7.2046046,6.1351863 7.3021911,5.4124661 7.3869907,4.5636144 7.4717903,3.7147625 7.5913555,2.9001409 7.6526912,2.753344 l 0.1115193,-0.2669033 1.867088,0 c 2.0108425,0 2.1042505,0.017979 2.1087055,0.4058717 0.0039,0.3373777 0.282802,3.3364647 0.313123,3.3667869 0.01727,0.01727 0.772375,0.08124 1.678011,0.1421567 0.905637,0.060916 1.720062,0.1500669 1.809835,0.1981121 0.159903,0.085577 0.163225,0.125029 0.163225,1.9387377 0,1.3619443 -0.0252,1.8852452 -0.09534,1.9794722 -0.0778,0.104519 -0.409172,0.155531 -1.800767,0.277209 -0.937984,0.08202 -1.722085,0.165777 -1.742446,0.186137 -0.03039,0.03039 -0.32228,2.989596 -0.326337,3.308483 -6.87e-4,0.05244 -0.06986,0.163983 -0.153755,0.247881 -0.143868,0.143867 -0.253392,0.152476 -1.9258479,0.151375 -0.9753178,-6.1e-4 -1.8110695,-0.02638 -1.857226,-0.0572 z"
       id="path3050"
       inkscape:connector-curvature="0"
       transform="translate(0.15254201,1034.1312)" />
    <path
       style="opacity:0.17720002;fill:#ff00ff;fill-opacity:1;stroke:#000000;stroke-width:0.00762712;stroke-miterlimit:4;stroke-opacity:1;stroke-dasharray:none"
       d="M 7.7080746,14.403814 C 7.5881933,14.098758 7.5505547,13.813334 7.4303267,12.297584 7.3708832,11.548162 7.3064844,10.919236 7.2872182,10.899969 7.2679521,10.880703 6.6054798,10.815862 5.8150577,10.755877 3.6462378,10.591286 3.7465539,10.613393 3.6590188,10.280759 3.61826,10.125876 3.5609208,9.2872821 3.5315984,8.4172181 L 3.478285,6.8352837 3.8179585,6.6850299 C 4.033943,6.5894897 4.4893627,6.5041057 5.0686267,6.4505493 6.4210618,6.3255084 7.1692638,6.2417135 7.1990218,6.2119555 7.2135864,6.1973908 7.3141896,5.4818994 7.4225846,4.6219745 7.5309794,3.7620495 7.6478117,2.9555085 7.6822118,2.829661 l 0.062545,-0.2288135 1.8631948,-0.018649 c 1.0247574,-0.010257 1.9104734,0.011634 1.9682574,0.048647 0.0694,0.044454 0.126797,0.3226065 0.169098,0.8194962 0.151676,1.7816966 0.248856,2.6940747 0.294886,2.7685536 0.02711,0.043862 0.682408,0.1335029 1.456222,0.1992029 0.773814,0.0657 1.561384,0.1440088 1.750156,0.1740193 l 0.34322,0.054565 0.02038,1.8755551 c 0.01694,1.5591004 0.0018,1.8909674 -0.08968,1.9668984 -0.06053,0.05024 -0.853857,0.172663 -1.762941,0.272056 -0.909084,0.09939 -1.67032,0.198154 -1.691636,0.21947 -0.05107,0.05107 -0.231628,1.614661 -0.298385,2.583925 -0.07683,1.115544 0.05998,1.048973 -2.1557686,1.048973 l -1.8212551,0 -0.082426,-0.209745 0,0 z"
       id="path3052"
       inkscape:connector-curvature="0"
       transform="translate(0.15254201,1034.1312)" />
    <path
       style="opacity:0.17720002;fill:#ff00ff;fill-opacity:1;stroke:#000000;stroke-width:0.00762712;stroke-miterlimit:4;stroke-opacity:1;stroke-dasharray:none"
       d="M 7.7012635,14.251271 C 7.6591278,14.093962 7.5720984,13.398941 7.5078649,12.70678 7.3348652,10.842586 7.3457471,10.887916 7.0601652,10.841827 6.9273068,10.820386 6.2038247,10.749978 5.4524273,10.685364 4.7010299,10.620751 4.0089829,10.548493 3.9145453,10.524791 3.6987832,10.470639 3.673715,10.36146 3.6187304,9.2364407 3.5941276,8.7330508 3.5551448,7.9916987 3.5321019,7.5889914 L 3.4902058,6.8567963 3.7052526,6.7708592 C 4.0631718,6.6278274 4.5520696,6.5433004 5.7416013,6.4187889 6.365775,6.353455 6.9149275,6.2994744 6.9619402,6.2988321 7.1903863,6.295711 7.2472592,6.1014086 7.4650656,4.5799392 7.5908641,3.7011846 7.7120399,2.9049788 7.7343453,2.8105932 l 0.040555,-0.1716101 1.8970581,0 1.8970576,0 0.04275,0.1716101 c 0.02351,0.094386 0.11551,0.8910674 0.204437,1.7704038 0.08893,0.8793366 0.175954,1.6218804 0.193394,1.6500976 0.04069,0.065837 0.407392,0.1168502 1.864091,0.2593223 0.650212,0.063594 1.294346,0.1342377 1.431409,0.1569865 l 0.249206,0.041362 -0.02039,1.8806304 -0.02039,1.8806302 -0.272485,0.05658 c -0.149866,0.03112 -0.918604,0.141786 -1.708307,0.24593 -0.822113,0.108418 -1.459524,0.227702 -1.491274,0.279075 -0.06243,0.101013 -0.10759,0.452104 -0.269433,2.094664 -0.09732,0.987723 -0.134555,1.162308 -0.272454,1.277543 -0.142103,0.118747 -0.356231,0.133474 -1.9407099,0.133474 l -1.7809835,0 -0.07661,-0.286017 0,0 z"
       id="path3054"
       inkscape:connector-curvature="0"
       transform="translate(0.15254201,1034.1312)" />
    <path
       style="opacity:0.17720002;fill:#ff00ff;fill-opacity:1;stroke:#000000;stroke-width:0.00762712;stroke-miterlimit:4;stroke-opacity:1;stroke-dasharray:none"
       d="M 7.7848554,14.377583 C 7.7470773,14.27665 7.6414601,13.507627 7.5501504,12.668644 7.3616543,10.936681 7.3538433,10.898499 7.1769911,10.844542 7.1057258,10.822799 6.3438163,10.733641 5.4838586,10.646413 4.5524084,10.551933 3.8820278,10.449878 3.8256323,10.393975 3.7630412,10.33193 3.6957514,9.7322852 3.6270371,8.6242192 3.5355626,7.1491308 3.536684,6.937279 3.6363953,6.8562913 3.798237,6.7248399 4.3486854,6.6241845 5.8176063,6.4574333 6.5255319,6.3770701 7.1350497,6.2810124 7.1720902,6.2439719 7.2091307,6.2069314 7.3274656,5.6294908 7.4350567,4.9607704 7.5426478,4.29205 7.6713048,3.504661 7.7209609,3.2110169 l 0.090284,-0.5338983 1.8508906,-0.020428 c 1.4411615,-0.015906 1.8581115,9.781e-4 1.8835125,0.076271 0.01794,0.053185 0.122693,0.8687124 0.23278,1.812284 0.110088,0.9435717 0.21094,1.7263645 0.224115,1.7395396 0.02205,0.022051 0.571435,0.091522 2.701815,0.3416535 l 0.792533,0.093053 -0.01559,1.8289918 c -0.0086,1.0059455 -0.0294,1.8427945 -0.04627,1.8596645 -0.01687,0.01687 -0.77276,0.14238 -1.679755,0.278909 -0.906995,0.136528 -1.679781,0.278933 -1.717301,0.316453 -0.03752,0.03752 -0.15333,0.787391 -0.257354,1.666378 -0.215093,1.817493 -0.202118,1.790991 -0.877019,1.791362 -0.23319,1.53e-4 -1.0148492,0.02265 -1.7370208,0.05004 l -1.3130393,0.04981 -0.068687,-0.183516 0,0 z"
       id="path3056"
       inkscape:connector-curvature="0"
       transform="translate(0.15254201,1034.1312)" />
    <path
       style="opacity:0.17720002;fill:#ff00ff;fill-opacity:1;stroke:#000000;stroke-width:0.00762712;stroke-miterlimit:4;stroke-opacity:1;stroke-dasharray:none"
       d="M 7.8162691,14.314041 C 7.7952669,14.206106 7.6879222,13.4321 7.577725,12.594027 7.3767571,11.065622 7.3121177,10.800556 7.1400734,10.799352 6.7405354,10.796555 4.0000078,10.408525 3.9218864,10.34369 3.8672105,10.298313 3.8020638,10.116424 3.777116,9.9394915 3.6956039,9.3614009 3.5758983,7.0782648 3.620946,6.9608724 3.6771847,6.8143167 4.094917,6.7211248 5.5601298,6.5282599 7.1326133,6.3212752 7.1600829,6.3145118 7.2356604,6.1157281 7.2712388,6.0221497 7.4073891,5.3131466 7.5382167,4.5401656 7.6690442,3.7671847 7.7950526,3.0403602 7.8182353,2.925 l 0.04215,-0.2097458 1.8244482,0 c 1.0034465,0 1.8244485,0.011046 1.8244485,0.024547 0,0.1859735 0.465087,3.5168106 0.495269,3.5469924 0.03124,0.031239 3.078563,0.4486629 3.41363,0.4676005 0.07029,0.00397 0.07262,0.7320067 0.0076,2.3803686 l -0.04959,1.2574303 -1.113543,0.173903 c -1.054756,0.164722 -2.238283,0.381226 -2.274001,0.415986 -0.009,0.0088 -0.106165,0.683575 -0.21589,1.499561 -0.109725,0.815986 -0.239647,1.568468 -0.288713,1.672181 -0.117206,0.247743 -0.342017,0.281286 -2.1644731,0.322959 l -1.4651257,0.0335 -0.038186,-0.196243 0,0 z"
       id="path3058"
       inkscape:connector-curvature="0"
       transform="translate(0.15254201,1034.1312)" />
    <path
       style="opacity:0.17720002000000001;fill:none;fill-opacity:1;stroke:#000000;stroke-width:0.00762712000000000;stroke-miterlimit:4;stroke-opacity:1;stroke-dasharray:none"
       d="M 7.6365886,12.783357 C 7.502882,11.847971 7.3460857,11.010313 7.2881524,10.921896 7.196504,10.782023 7.0352946,10.743802 6.0473219,10.627704 4.2712381,10.418996 3.9579415,10.351414 3.8868835,10.161672 3.816738,9.9743665 3.6533502,8.0644417 3.6533502,7.4317805 c 0,-0.2609768 0.03921,-0.4592035 0.1009718,-0.510461 C 3.8098566,6.8752299 4.6017281,6.7198338 5.5140367,6.5759946 6.4263452,6.4321555 7.1902045,6.297044 7.2115018,6.2757467 7.2584719,6.2287766 7.5524379,4.7369724 7.736514,3.6114407 l 0.1340938,-0.8199153 1.8104519,0 1.8104523,0 0.05462,0.5148305 c 0.107095,1.0093564 0.411661,2.9386953 0.472893,2.9956349 0.03426,0.031856 0.812346,0.1549938 1.729084,0.2736389 l 1.666797,0.2157181 -0.02697,1.7310303 c -0.01483,0.9520666 -0.05159,1.7556539 -0.08169,1.7857499 -0.0301,0.03009 -0.733702,0.170705 -1.563559,0.312465 -0.829858,0.141762 -1.568815,0.276731 -1.642129,0.299932 -0.159218,0.05039 -0.155376,0.03401 -0.392305,1.671848 -0.103162,0.713135 -0.221771,1.386168 -0.263575,1.495629 -0.1,0.261825 -0.237421,0.284874 -2.0620031,0.345839 l -1.5029865,0.05022 -0.2431028,-1.700703 0,0 z"
       id="path3060"
       inkscape:connector-curvature="0"
       transform="translate(0.15254201,1034.1312)" />
  </g>
</svg>
