<?xml version="1.0" encoding="UTF-8" standalone="no"?>
<!-- Created with Inkscape (http://www.inkscape.org/) -->

<svg
   xmlns:dc="http://purl.org/dc/elements/1.1/"
   xmlns:cc="http://creativecommons.org/ns#"
   xmlns:rdf="http://www.w3.org/1999/02/22-rdf-syntax-ns#"
   xmlns:svg="http://www.w3.org/2000/svg"
   xmlns="http://www.w3.org/2000/svg"
   xmlns:xlink="http://www.w3.org/1999/xlink"
   xmlns:sodipodi="http://sodipodi.sourceforge.net/DTD/sodipodi-0.dtd"
   xmlns:inkscape="http://www.inkscape.org/namespaces/inkscape"
   id="svg2"
   version="1.1"
   inkscape:version="0.48.4 r9939"
   width="18"
   height="18"
   sodipodi:docname="muslim-18.png">
  <metadata
     id="metadata8">
    <rdf:RDF>
      <cc:Work
         rdf:about="">
        <dc:format>image/svg+xml</dc:format>
        <dc:type
           rdf:resource="http://purl.org/dc/dcmitype/StillImage" />
        <dc:title></dc:title>
      </cc:Work>
    </rdf:RDF>
  </metadata>
  <defs
     id="defs6" />
  <sodipodi:namedview
     pagecolor="#ffffff"
     bordercolor="#666666"
     borderopacity="1"
     objecttolerance="10"
     gridtolerance="10"
     guidetolerance="10"
     inkscape:pageopacity="0"
     inkscape:pageshadow="2"
     inkscape:window-width="640"
     inkscape:window-height="480"
     id="namedview4"
     showgrid="false"
     inkscape:zoom="13.111111"
     inkscape:cx="9"
     inkscape:cy="9"
     inkscape:window-x="0"
     inkscape:window-y="0"
     inkscape:window-maximized="0"
     inkscape:current-layer="svg2" />
  <image
     width="18"
     height="18"
     xlink:href="file:///C:/Users/katrina.EARTHLINE-JKT/Documents/MapBox/project/aleppo_poi/poi/muslim-18.png"
     id="image10"
     x="0"
     y="0" />
  <rect
     style="opacity:0.17720002000000001;fill:none;stroke:#000000;stroke-width:0.10000000000000001;stroke-miterlimit:4;stroke-opacity:1;stroke-dasharray:none"
     id="rect2987"
     width="18.228813"
     height="18.076271"
     x="0"
     y="0" />
  <path
     style="opacity:0.17720002;fill:none;stroke:#000000;stroke-width:0.00762712;stroke-miterlimit:4;stroke-opacity:1;stroke-dasharray:none"
     d="m 0.07627119,9.0457627 0,-8.9237288 9.03813561,0 9.0381352,0 0,8.9237288 0,8.9237293 -9.0381352,0 -9.03813561,0 0,-8.9237293 z m 14.03389781,5.5296613 0,-0.495763 0.495763,0 0.495763,0 0,-0.533898 0,-0.533899 -2.516949,0 -2.516949,0 0,-0.495762 0,-0.495763 -0.4957631,0 -0.4957627,0 0,-0.495763 0,-0.495762 -0.4957627,0 -0.4957627,0 0,-1.9830513 0,-1.9830508 0.4957627,0 0.4957627,0 0,-0.4957627 0,-0.4957628 0.4957627,0 0.4957631,0 0,-0.4957627 0,-0.4957627 1.487288,0 1.487288,0 0,0.9533898 0,0.9533899 -0.495763,0 -0.495763,0 0,0.5338983 0,0.5338983 -0.991525,0 -0.991525,0 0,0.4957627 0,0.4957627 0.991525,0 0.991525,0 0,0.4957627 0,0.4957626 -0.495762,0 -0.495763,0 0,1.029661 0,1.029661 1.029661,0 1.029661,0 0,-0.533898 0,-0.533898 0.457627,0 0.457627,0 0,0.533898 0,0.533898 1.029661,0 1.029661,0 0,-1.029661 0,-1.029661 -0.495762,0 -0.495763,0 0,-0.4957626 0,-0.4957627 0.991525,0 0.991526,0 0,-0.4957627 0,-0.4957627 -0.991526,0 -0.991525,0 0,-0.5338983 0,-0.5338983 -0.495763,0 -0.495763,0 0,-0.9533899 0,-0.9533898 0.495763,0 0.495763,0 0,-0.5338983 0,-0.5338983 -0.495763,0 -0.495763,0 0,-0.4957627 0,-0.4957627 -4.004237,0 -4.0042371,0 0,0.4957627 0,0.4957627 -0.5338983,0 -0.5338983,0 0,0.5338983 0,0.5338983 -0.4957627,0 -0.4957627,0 0,3.9661017 0,3.9661013 0.4957627,0 0.4957627,0 0,0.533899 0,0.533898 0.5338983,0 0.5338983,0 0,0.453987 0,0.453989 0.4766949,0.02708 c 0.2621822,0.01489 2.064089,0.03369 4.0042372,0.04178 l 3.527542,0.0147 0,-0.495762 z"
     id="path2989"
     inkscape:connector-curvature="0" />
  <path
     style="opacity:0.17720002;fill:none;stroke:#000000;stroke-width:0.00762712;stroke-miterlimit:4;stroke-opacity:1;stroke-dasharray:none"
     d="m 0.15254237,9.0457627 0,-8.84745762 8.96186443,0 8.9618642,0 0,8.84745762 0,8.8474573 -8.9618642,0 -8.96186443,0 0,-8.8474573 z M 14.17092,14.636174 l 0.02262,-0.473147 0.473148,-0.02262 0.473148,-0.02262 0,-0.572034 0,-0.572034 -2.49427,-0.02011 -2.494268,-0.02011 -0.02268,-0.475657 -0.02268,-0.475658 -0.4731473,-0.02262 -0.4731476,-0.02262 -0.022615,-0.473147 -0.022615,-0.473148 -0.4766949,-0.02271 -0.476695,-0.02271 0,-1.8995013 0,-1.8995007 0.476695,-0.022707 0.4766949,-0.022707 0.022615,-0.4731476 0.022615,-0.4731475 0.4731476,-0.022615 0.4731473,-0.022615 0.02271,-0.4766949 0.02271,-0.4766949 1.407378,0 1.407378,0 0,0.8734792 0,0.8734792 -0.476695,0.022707 -0.476695,0.022707 -0.0225,0.5125774 -0.0225,0.5125775 -0.969025,0.021321 -0.969024,0.021321 0,0.5338983 0,0.5338983 0.972458,0.021347 0.972457,0.021346 0,0.4135736 0,0.4135737 -0.476695,0.022707 -0.476695,0.022707 0,1.0677967 0,1.067797 1.067797,0 1.067797,0 0.02255,-0.514831 0.02255,-0.51483 0.374386,0 0.374386,0 0.02255,0.51483 0.02255,0.514831 1.067796,0 1.067797,0 0,-1.067797 0,-1.0677967 -0.476695,-0.022707 -0.476695,-0.022707 0,-0.4135737 0,-0.4135736 0.972458,-0.021346 0.972457,-0.021347 0,-0.5338983 0,-0.5338983 -0.969024,-0.021321 -0.969024,-0.021321 -0.0225,-0.5125775 -0.0225,-0.5125774 -0.476695,-0.022707 -0.476695,-0.022707 0,-0.8698398 0,-0.8698397 0.476695,-0.022707 0.476695,-0.022707 0,-0.5720339 0,-0.5720339 -0.473148,-0.022615 -0.473148,-0.022615 -0.02262,-0.4731476 -0.02262,-0.4731475 -4.042373,0 -4.0423727,0 -0.022619,0.473291 -0.022619,0.4732911 -0.5112794,0.022472 -0.5112794,0.022472 -0.022472,0.5112794 -0.022472,0.5112794 -0.4732911,0.022619 -0.473291,0.022619 0,4.0042373 0,4.0042377 0.473291,0.02262 0.4732911,0.02262 0.022472,0.511279 0.022472,0.51128 0.5148305,0.02255 0.5148305,0.02255 0,0.416007 c 0,0.228803 0.00858,0.423777 0.019068,0.433274 0.017295,0.01566 7.2062175,0.107633 7.8368645,0.10026 l 0.266949,-0.0031 0.02262,-0.473148 0,-2e-6 z"
     id="path2991"
     inkscape:connector-curvature="0" />
  <path
     style="opacity:0.17720002;fill:none;stroke:#000000;stroke-width:0.00762712;stroke-miterlimit:4;stroke-opacity:1;stroke-dasharray:none"
     d="m 0.22881356,9.0457627 0,-8.77118643 8.88559324,0 8.8855932,0 0,8.77118643 0,8.7711863 -8.8855932,0 -8.88559324,0 0,-8.7711863 z M 14.186441,14.77155 c 0,-0.24004 0.04332,-0.419229 0.119855,-0.495763 0.07653,-0.07653 0.255722,-0.119855 0.495762,-0.119855 l 0.375908,0 0,-0.604492 0,-0.604494 -2.443528,-0.02474 c -2.7431833,-0.02778 -2.587187,0.0093 -2.589202,-0.615846 l -0.0012,-0.362288 -0.3759081,0 c -0.4888487,0 -0.6156175,-0.126769 -0.6156175,-0.615618 l 0,-0.375908 -0.3369821,0 c -0.6158464,0 -0.5782722,0.123896 -0.5782722,-1.9067793 0,-2.0306754 -0.037574,-1.9067796 0.5782722,-1.9067796 l 0.3369821,0 0,-0.375908 c 0,-0.4888484 0.1267688,-0.6156175 0.6156175,-0.6156175 l 0.3759081,0 0,-0.3369823 c 0,-0.605314 -0.06637,-0.5782719 1.419177,-0.5782719 l 1.326586,0 0,0.7926873 c 0,0.8896723 0.0029,0.8852788 -0.578273,0.8852788 l -0.336982,0 -0.0012,0.4004237 c -0.0018,0.6189804 -0.01248,0.6255488 -1.063705,0.6546928 l -0.9181786,0.025456 0,0.5656462 0,0.5656462 0.7817796,0.00104 c 1.080941,0.00144 1.125,0.017857 1.125,0.4191857 0,0.3722209 -0.06427,0.41876 -0.578272,0.41876 l -0.336982,0 0,1.1059319 0,1.105932 1.105932,0 1.105932,0 0,-0.375117 c 0,-0.542658 0.04563,-0.616408 0.381356,-0.616408 0.335729,0 0.381356,0.07375 0.381356,0.616408 l 0,0.375117 1.105932,0 1.105933,0 0,-1.105932 0,-1.1059319 -0.336983,0 c -0.513818,0 -0.578272,-0.046603 -0.578272,-0.4181178 0,-0.3035723 0.01607,-0.328741 0.238348,-0.3731957 0.131091,-0.026218 0.560116,-0.047669 0.95339,-0.047669 l 0.715042,0 0,-0.5656462 0,-0.5656462 -0.918178,-0.025456 c -1.051228,-0.029144 -1.0619,-0.035712 -1.063705,-0.6546928 l -0.0012,-0.4004237 -0.336982,0 c -0.580555,0 -0.578272,0.00346 -0.578272,-0.8771187 0,-0.8805816 -0.0023,-0.8771186 0.578272,-0.8771186 l 0.336982,0 0,-0.6101695 0,-0.6101695 -0.375908,0 c -0.488849,0 -0.615617,-0.1267691 -0.615617,-0.6156174 l 0,-0.375908 -4.080509,0 -4.0805083,0 0,0.375908 c 0,0.4993242 -0.1234972,0.6156174 -0.653753,0.6156174 l -0.4140436,0 0,0.4140436 c 0,0.5302558 -0.1162932,0.653753 -0.6156174,0.653753 l -0.375908,0 0,4.0423729 0,4.0423731 0.375908,0 c 0.4993242,0 0.6156174,0.123497 0.6156174,0.653753 l 0,0.414043 0.4004237,0.0012 c 0.2202331,6.1e-4 0.4410914,0.02703 0.4907963,0.05864 0.049705,0.03161 0.1141233,0.236509 0.143152,0.455339 l 0.05278,0.397872 2.2593901,0.02137 c 1.2426651,0.01175 3.0745388,0.02942 4.0708308,0.03926 l 1.811441,0.01789 0,-0.375908 0,0 z"
     id="path2993"
     inkscape:connector-curvature="0" />
  <path
     style="opacity:0.17720002;fill:none;stroke:#000000;stroke-width:0.00762712;stroke-miterlimit:4;stroke-opacity:1;stroke-dasharray:none"
     d="m 0.30508475,9.0457627 0,-8.69491524 8.80932205,0 8.8093222,0 0,8.69491524 0,8.6949153 -8.8093222,0 -8.80932205,0 0,-8.6949153 z M 14.247415,14.790665 c 0.01256,-0.216425 0.06491,-0.428421 0.116343,-0.471102 0.05143,-0.04268 0.264244,-0.08838 0.472924,-0.101549 l 0.37942,-0.02395 0.02196,-0.617544 0.02196,-0.617544 -0.74654,-0.04943 c -0.410597,-0.02719 -1.432981,-0.05367 -2.271964,-0.05885 -0.838983,-0.0052 -1.628389,-0.03127 -1.754237,-0.05797 -0.214207,-0.04545 -0.231248,-0.0753 -0.266949,-0.46767 l -0.03814,-0.419123 -0.3942133,-0.02284 C 9.571172,11.870532 9.3588544,11.818178 9.3161731,11.76675 9.2734917,11.715323 9.2277946,11.502506 9.2146241,11.293826 l -0.023946,-0.379419 -0.4194916,-0.03814 -0.4194915,-0.03813 0,-1.7923733 0,-1.7923729 0.4194915,-0.038136 0.4194916,-0.038136 0.022839,-0.394214 C 9.2260777,6.566087 9.2784318,6.3537697 9.3298599,6.3110884 9.3812873,6.2684071 9.5941037,6.2227102 9.802784,6.2095396 l 0.379419,-0.023946 0.03814,-0.4194915 0.03814,-0.4194915 1.280327,-0.020925 1.280326,-0.020925 -0.02185,0.7455009 -0.02185,0.7455008 -0.419492,0.038136 -0.419491,0.038136 -0.02215,0.4194915 c -0.02811,0.532367 -0.127904,0.6101695 -0.782628,0.6101695 -0.279771,0 -0.669272,0.022012 -0.865555,0.048916 l -0.3568802,0.048916 0.022082,0.5803216 0.022082,0.5803215 0.9152542,0.038136 0.915254,0.038136 0,0.3050847 0,0.3050848 -0.419491,0.038136 -0.419492,0.038136 0,1.1440671 0,1.144068 1.144068,0 1.144068,0 0.03814,-0.457627 0.03814,-0.457627 0.266949,0 0.266949,0 0.03814,0.457627 0.03814,0.457627 1.144067,0 1.144068,0 0,-1.144068 0,-1.1440671 -0.419491,-0.038136 -0.419492,-0.038136 0,-0.3050848 0,-0.3050847 0.915254,-0.038136 0.915255,-0.038136 0.02208,-0.5803215 0.02208,-0.5803216 -0.35688,-0.048916 c -0.196284,-0.026904 -0.585784,-0.048916 -0.865555,-0.048916 -0.654724,0 -0.754518,-0.077802 -0.782629,-0.6101695 l -0.02215,-0.4194915 -0.419492,-0.038136 -0.419491,-0.038136 0,-0.7627119 0,-0.7627118 0.419491,-0.038136 0.419492,-0.038136 0,-0.6483051 0,-0.6483051 -0.394214,-0.022838 C 14.60507,3.8620582 14.392753,3.8097037 14.350071,3.7582759 14.30739,3.7068482 14.261693,3.4940322 14.248522,3.2853515 l -0.02395,-0.3794193 -4.118644,0 -4.1186439,0 -0.022838,0.394214 C 5.9518887,3.5169639 5.8993652,3.7294214 5.8477309,3.7722741 5.7960966,3.8151268 5.5661196,3.8608237 5.336671,3.8738229 L 4.9194915,3.8974576 4.8958568,4.3146371 C 4.8828576,4.5440857 4.8371607,4.7740627 4.794308,4.825697 4.7514553,4.8773313 4.5389978,4.9298548 4.3221801,4.9424159 l -0.394214,0.022838 0,4.0805085 0,4.0805086 0.394214,0.02284 c 0.2168177,0.01256 0.4292752,0.06508 0.4721279,0.116718 0.042853,0.05163 0.08855,0.281612 0.1015488,0.51106 l 0.023635,0.41718 0.4561984,0.03814 c 0.4961324,0.04147 0.4480759,-0.01014 0.6391887,0.686441 l 0.052314,0.190678 3.9642851,0.03978 c 2.180357,0.02188 4.015768,0.03872 4.078691,0.03742 0.08357,-0.0017 0.120562,-0.108412 0.137246,-0.395859 l 0,0 z"
     id="path2995"
     inkscape:connector-curvature="0" />
  <path
     style="opacity:0.17720002;fill:none;stroke:#000000;stroke-width:0.00762712;stroke-miterlimit:4;stroke-opacity:1;stroke-dasharray:none"
     d="m 0.38135593,9.0457627 0,-8.61864406 8.73305087,0 8.7330512,0 0,8.61864406 0,8.6186443 -8.7330512,0 -8.73305087,0 0,-8.6186443 z M 14.296769,14.768991 c 0.08642,-0.448053 0.1717,-0.512388 0.701511,-0.529185 l 0.239805,-0.0076 0.03234,-0.629237 c 0.01779,-0.346081 0.0198,-0.645161 0.0045,-0.664622 -0.01533,-0.01946 -1.133132,-0.07471 -2.48401,-0.122784 -1.350877,-0.04807 -2.462252,-0.09221 -2.46972,-0.09809 -0.0075,-0.0059 -0.03662,-0.195085 -0.06478,-0.420456 l -0.0512,-0.409764 -0.3870104,-0.04584 C 9.6053255,11.816204 9.4018889,11.766296 9.3661002,11.730507 9.3303114,11.694718 9.2804034,11.491282 9.2551935,11.278426 l -0.045835,-0.38701 -0.4097647,-0.0512 -0.4097631,-0.05119 0,-1.7432613 0,-1.7432609 L 8.7995954,7.2513068 9.20936,7.2001098 9.255195,6.8130995 C 9.2804049,6.6002424 9.330313,6.3968059 9.3661017,6.3610169 9.4018904,6.325228 9.605327,6.2753201 9.8181831,6.2501105 l 0.3870099,-0.045836 0.0512,-0.4097646 0.0512,-0.4097645 1.132342,0 c 0.622788,0 1.178051,-0.017628 1.233919,-0.039174 0.08119,-0.031312 0.09672,0.1054829 0.07739,0.6815922 l -0.02419,0.7207665 -0.404645,0.050557 -0.404644,0.050557 -0.04598,0.3882462 c -0.02529,0.2135355 -0.08973,0.4309487 -0.143201,0.4831405 -0.05552,0.05419 -0.465671,0.1247214 -0.9562,0.1644316 -0.472439,0.038246 -0.8697851,0.08342 -0.8829914,0.1003883 -0.013207,0.016968 -0.00922,0.2932688 0.00886,0.6140013 l 0.032876,0.5831504 0.9073204,0.054515 0.907319,0.054516 0,0.2530327 c 0,0.2495059 -0.0059,0.2537634 -0.419492,0.3054447 l -0.419491,0.052412 0,1.1734142 0,1.173416 1.174714,0 1.174715,0 0.05311,-0.457628 c 0.05082,-0.437874 0.06234,-0.457627 0.266949,-0.457627 0.204606,0 0.216128,0.01975 0.266949,0.457627 l 0.05311,0.457628 1.174715,0 1.174715,0 0,-1.176715 0,-1.1767158 -0.419492,-0.052412 C 15.41388,9.7917849 15.40678,9.7866717 15.40678,9.5411654 l 0,-0.2497324 0.907319,-0.054516 0.907319,-0.054515 0.03288,-0.5831504 c 0.01808,-0.3207325 0.02207,-0.5970333 0.0089,-0.6140013 C 17.249988,7.9682823 16.852645,7.9231073 16.380206,7.884862 15.889677,7.845152 15.479525,7.7746206 15.424007,7.7204304 15.370537,7.6682384 15.306095,7.4508254 15.280805,7.2372899 l -0.04598,-0.3882462 -0.409765,-0.051197 -0.409765,-0.051197 0,-0.7135999 0,-0.7135998 0.419492,-0.052412 0.419491,-0.052412 0,-0.6670285 0,-0.6670286 -0.394583,-0.046733 C 14.642633,3.8081344 14.435789,3.7578229 14.4,3.7220339 14.364211,3.6862449 14.3139,3.4794006 14.288196,3.2623799 l -0.04673,-0.3945833 -4.135532,0 -4.1355317,0 -0.045381,0.383173 c -0.02496,0.2107451 -0.065108,0.4150912 -0.089218,0.4541026 -0.02411,0.039011 -0.2447412,0.093659 -0.4902907,0.12144 l -0.4464538,0.050511 -0.05051,0.4464538 c -0.027781,0.2455495 -0.082429,0.4661803 -0.12144,0.4902907 -0.039011,0.02411 -0.2433575,0.064258 -0.4541027,0.089218 l -0.3831729,0.045381 0,4.0973963 0,4.097396 0.3831729,0.04538 c 0.2107452,0.02496 0.4150913,0.06511 0.4541027,0.08922 0.039011,0.02411 0.09372,0.245274 0.1215741,0.491475 l 0.050644,0.447639 0.4051694,0.05062 c 0.4621907,0.05775 0.5204817,0.108262 0.6397709,0.554436 l 0.086298,0.322778 1.8088709,0.02243 c 0.994879,0.01234 2.8366969,0.02154 4.0929279,0.02044 l 2.284057,-0.002 0.08035,-0.416603 0,-2e-6 z"
     id="path2997"
     inkscape:connector-curvature="0" />
  <path
     style="opacity:0.17720002;fill:none;stroke:#000000;stroke-width:0.00762712;stroke-miterlimit:4;stroke-opacity:1;stroke-dasharray:none"
     d="m 0.45762712,9.0457627 0,-8.54237287 8.65677968,0 8.6567792,0 0,8.54237287 0,8.5423733 -8.6567792,0 -8.65677968,0 0,-8.5423733 z M 14.305952,14.937712 c 0.08557,-0.48799 0.219544,-0.629237 0.596844,-0.629237 0.323795,0 0.332579,-0.0066 0.378758,-0.286017 0.06569,-0.39743 0.06069,-1.071036 -0.0082,-1.111135 -0.03146,-0.0183 -1.138347,-0.07721 -2.459746,-0.130917 -1.547501,-0.06289 -2.422485,-0.1273 -2.458578,-0.180974 -0.03082,-0.04583 -0.05656,-0.192426 -0.0572,-0.325764 -0.0015,-0.312971 -0.175868,-0.482143 -0.4969305,-0.482143 -0.3210628,0 -0.4954226,-0.169171 -0.4969305,-0.482143 -0.00169,-0.35122 -0.09725,-0.453776 -0.4690441,-0.503393 l -0.3306356,-0.04413 0,-1.7161013 0,-1.7161017 0.3306356,-0.044125 C 9.2066667,7.2359192 9.3022246,7.1333631 9.303917,6.7821429 9.3054249,6.4691718 9.4797847,6.3 9.8008475,6.3 10.126679,6.3 10.29661,6.1297447 10.29661,5.8032906 c 0,-0.1413499 0.02574,-0.2726732 0.0572,-0.2918296 0.03146,-0.019156 0.580614,-0.059899 1.220339,-0.090539 l 1.163135,-0.055709 -8.39e-4,0.4101898 c -4.57e-4,0.2256044 -0.02211,0.5388974 -0.04812,0.6962068 -0.04496,0.2720011 -0.06147,0.2860169 -0.336932,0.2860169 -0.324945,0 -0.528843,0.1560242 -0.530408,0.4058717 -0.0019,0.3094918 -0.09108,0.5041301 -0.255076,0.5569722 -0.08986,0.028953 -0.506596,0.09052 -0.926087,0.1368145 l -0.7627124,0.084173 0.00368,0.5876122 c 0.00202,0.323187 0.029292,0.6132242 0.060595,0.6445266 0.031302,0.031303 0.4243494,0.080652 0.8734374,0.1096658 0.449088,0.029013 0.827384,0.056088 0.840658,0.060167 0.01327,0.00408 0.01327,0.101803 0,0.2171631 -0.01968,0.1710504 -0.06635,0.2136043 -0.252947,0.2306601 -0.62202,0.056853 -0.578382,-0.045121 -0.554893,1.2966993 l 0.021,1.199335 1.199335,0.02099 c 1.352107,0.02367 1.203337,0.09283 1.316676,-0.612097 0.0345,-0.214588 0.08235,-0.286017 0.191616,-0.286017 0.109261,0 0.157115,0.07143 0.191616,0.286017 0.113339,0.704926 -0.03543,0.635766 1.316677,0.612097 l 1.199334,-0.02099 0.02113,-1.17643 c 0.02273,-1.2658461 0.01313,-1.2989752 -0.377177,-1.3012153 -0.320269,-0.00184 -0.444797,-0.079186 -0.444797,-0.2762771 0,-0.1003844 0.0086,-0.1846884 0.01907,-0.1873419 0.01049,-0.00265 0.387282,-0.030508 0.837322,-0.061899 0.450041,-0.031391 0.843087,-0.081907 0.873439,-0.1122575 0.03035,-0.030351 0.05684,-0.319609 0.05886,-0.642796 L 17.275441,7.941458 16.512729,7.857285 C 16.093217,7.8109905 15.676478,7.7494239 15.586621,7.720471 15.425595,7.6685861 15.334705,7.4758581 15.330378,7.1771186 15.326618,6.9174828 15.203814,6.8094603 14.860293,6.7636162 l -0.330632,-0.044125 0,-0.6864407 0,-0.6864406 0.228814,-0.020914 c 0.59216,-0.054125 0.572033,-0.026754 0.572033,-0.7779305 l 0,-0.6815315 -0.286016,-0.045986 C 14.359698,3.7101466 14.411888,3.7623354 14.301786,3.0775424 l -0.04599,-0.286017 -4.147263,0 -4.1472631,0 -0.040008,0.2097458 C 5.78115,3.7358426 5.8014996,3.6993864 5.5050643,3.7468908 4.8274924,3.8554731 4.877507,3.8054585 4.7689247,4.4830304 4.7214203,4.7794657 4.7578765,4.7591161 4.0233051,4.8992312 l -0.2097458,0.040008 0,4.1065237 0,4.1065241 0.2097458,0.04001 c 0.7352226,0.140239 0.6981877,0.119511 0.7436606,0.4162 0.093074,0.607259 0.1285721,0.656532 0.5125643,0.711461 0.4584892,0.06558 0.4888135,0.08746 0.5935802,0.42814 0.048196,0.156725 0.1011057,0.327857 0.1175774,0.380294 0.023473,0.07472 0.920285,0.09534 4.1475304,0.09534 l 4.117581,0 0.05015,-0.286017 0,0 z"
     id="path2999"
     inkscape:connector-curvature="0" />
  <path
     style="opacity:0.17720002;fill:none;stroke:#000000;stroke-width:0.00762712;stroke-miterlimit:4;stroke-opacity:1;stroke-dasharray:none"
     d="m 0.53389831,9.0457627 0,-8.46610168 8.58050849,0 8.5805082,0 0,8.46610168 0,8.4661013 -8.5805082,0 -8.58050849,0 0,-8.4661013 z M 14.291868,15.204661 c 0.180617,-0.706639 0.228145,-0.775759 0.581013,-0.84496 0.188772,-0.03702 0.368437,-0.106593 0.399256,-0.154607 0.03082,-0.04801 0.05656,-0.370454 0.0572,-0.716535 l 0.0012,-0.629237 -0.209745,-4.58e-4 c -0.492498,-0.0011 -4.346418,-0.231493 -4.532237,-0.270899 -0.166118,-0.03523 -0.2131,-0.098 -0.253844,-0.339159 C 10.276391,11.903778 10.201743,11.829177 9.8389831,11.753417 9.4761572,11.677644 9.4015769,11.603064 9.3432203,11.257655 9.2840842,10.90763 9.2098945,10.837123 8.8283898,10.768381 l -0.2860169,-0.05157 0,-1.6710533 0,-1.6710539 0.2860169,-0.051537 C 9.2098945,7.2544297 9.2840842,7.1839228 9.3432203,6.8338983 9.4015769,6.4884888 9.4761572,6.4139087 9.8389831,6.3381356 10.201399,6.2624483 10.276396,6.1877409 10.334355,5.8446823 l 0.04967,-0.2939937 0.738073,-0.045994 c 0.405939,-0.025296 0.919658,-0.063097 1.141596,-0.084002 l 0.403525,-0.038009 -0.02217,0.6302681 -0.02217,0.630268 -0.34322,0.082383 c -0.356548,0.085582 -0.530503,0.2859877 -0.532774,0.6137862 -6.1e-4,0.089249 -0.05144,0.2040291 -0.112936,0.2550664 -0.0912,0.075693 -1.338883,0.3001448 -1.699629,0.3057559 -0.1132489,0.00176 -0.1342563,1.0422398 -0.024542,1.215576 0.074539,0.1177642 0.649957,0.2206883 1.283017,0.2294916 0.367007,0.0051 0.400423,0.020414 0.400423,0.1834627 0,0.1515554 -0.05364,0.1882571 -0.362288,0.2478813 l -0.362288,0.069987 -0.02097,1.2413052 -0.02097,1.241306 1.240841,-0.02097 1.240842,-0.02097 0.08083,-0.381356 c 0.0501,-0.236373 0.121211,-0.381356 0.187047,-0.381356 0.06584,0 0.136947,0.144983 0.187047,0.381356 l 0.08083,0.381356 1.240841,0.02097 1.240842,0.02097 -0.02097,-1.237734 -0.02097,-1.2377337 -0.34322,-0.083175 C 15.676891,9.7066573 15.5918,9.6484506 15.573069,9.5191252 c -0.02244,-0.1549297 0.0078,-0.1687203 0.381356,-0.1738464 0.637676,-0.00875 1.21353,-0.1113293 1.288321,-0.2294916 0.109715,-0.1733362 0.08871,-1.2138146 -0.02454,-1.215576 C 16.876078,7.8948906 15.612209,7.6721524 15.528109,7.6023553 15.471847,7.5556625 15.404678,7.3852765 15.378845,7.2237199 15.323373,6.876823 15.237113,6.7950462 14.853814,6.7259804 l -0.286017,-0.051537 0,-0.632066 0,-0.632066 0.361683,-0.069986 0.361682,-0.069986 0.0606,-0.4194915 C 15.385092,4.6201275 15.402522,4.2946903 15.390502,4.127654 15.368833,3.8265755 15.365349,3.8234087 14.987288,3.7611619 14.511824,3.6828779 14.439276,3.610373 14.360495,3.1347458 L 14.29733,2.7533898 10.124857,2.7336715 5.9523853,2.7139532 5.9047161,2.9243495 C 5.7366847,3.6659856 5.7664066,3.629562 5.2078643,3.7783255 4.9174156,3.8556844 4.8777183,3.8953817 4.8003594,4.1858304 4.6756153,4.6541903 4.6261708,4.7242593 4.3793124,4.782506 4.2569194,4.8113849 4.0623941,4.8563907 3.9470339,4.882519 l -0.2097458,0.047506 0,4.1157378 0,4.1157382 0.2097458,0.04751 c 0.7389146,0.167359 0.6842509,0.12209 0.8671404,0.718113 0.098983,0.322578 0.1276481,0.348731 0.4766134,0.434855 0.4430286,0.109339 0.434181,0.10168 0.5829015,0.504531 l 0.117798,0.319088 1.9046801,0.04015 c 4.1201237,0.08685 6.3700107,0.07943 6.3957007,-0.02108 z"
     id="path3001"
     inkscape:connector-curvature="0" />
</svg>
