<?xml version="1.0" encoding="UTF-8" standalone="no"?>
<!-- Created with Inkscape (http://www.inkscape.org/) -->

<svg
   xmlns:dc="http://purl.org/dc/elements/1.1/"
   xmlns:cc="http://creativecommons.org/ns#"
   xmlns:rdf="http://www.w3.org/1999/02/22-rdf-syntax-ns#"
   xmlns:svg="http://www.w3.org/2000/svg"
   xmlns="http://www.w3.org/2000/svg"
   xmlns:xlink="http://www.w3.org/1999/xlink"
   xmlns:sodipodi="http://sodipodi.sourceforge.net/DTD/sodipodi-0.dtd"
   xmlns:inkscape="http://www.inkscape.org/namespaces/inkscape"
   id="svg2"
   version="1.1"
   inkscape:version="0.48.4 r9939"
   width="18"
   height="18"
   sodipodi:docname="pharmacy-18.png">
  <metadata
     id="metadata8">
    <rdf:RDF>
      <cc:Work
         rdf:about="">
        <dc:format>image/svg+xml</dc:format>
        <dc:type
           rdf:resource="http://purl.org/dc/dcmitype/StillImage" />
        <dc:title></dc:title>
      </cc:Work>
    </rdf:RDF>
  </metadata>
  <defs
     id="defs6" />
  <sodipodi:namedview
     pagecolor="#ffffff"
     bordercolor="#666666"
     borderopacity="1"
     objecttolerance="10"
     gridtolerance="10"
     guidetolerance="10"
     inkscape:pageopacity="0"
     inkscape:pageshadow="2"
     inkscape:window-width="640"
     inkscape:window-height="480"
     id="namedview4"
     showgrid="false"
     inkscape:zoom="13.111111"
     inkscape:cx="9"
     inkscape:cy="9"
     inkscape:window-x="0"
     inkscape:window-y="0"
     inkscape:window-maximized="0"
     inkscape:current-layer="svg2" />
  <image
     width="18"
     height="18"
     xlink:href="file:///C:/Users/katrina.EARTHLINE-JKT/Documents/MapBox/project/aleppo_poi/poi/pharmacy-18.png"
     id="image10"
     x="0"
     y="0" />
  <path
     style="opacity:0.17720002;fill:#800080;fill-opacity:1;stroke:#000000;stroke-width:0.00762712;stroke-miterlimit:4;stroke-opacity:1;stroke-dasharray:none"
     d="m 4.0423729,12.058475 0,-4.0042377 0.5338983,0 0.5338983,0 0,-0.4957627 0,-0.4957627 0.4957627,0 0.4957627,0 0,-0.4957627 0,-0.4957628 2.9745763,0 2.9745758,0 0,0.4957628 0,0.4957627 0.495763,0 0.495763,0 0,0.4957627 0,0.4957627 0.495763,0 0.495762,0 0,4.0042377 0,4.004237 -4.9957624,0 -4.9957627,0 0,-4.004237 z m 6.0254241,1.029661 0,-0.991526 0.991525,0 0.991525,0 0,-1.029661 0,-1.029661 -0.991525,0 -0.991525,0 0,-0.9915253 0,-0.9915254 -1.0296614,0 -1.029661,0 0,0.9915254 0,0.9915253 -0.9915254,0 -0.9915255,0 0,1.029661 0,1.029661 0.9915255,0 0.9915254,0 0,0.991526 0,0.991525 1.029661,0 1.0296614,0 0,-0.991525 z"
     id="path2987"
     inkscape:connector-curvature="0" />
  <path
     style="opacity:0.17720002;fill:#800080;fill-opacity:1;stroke:#000000;stroke-width:0.00762712;stroke-miterlimit:4;stroke-opacity:1;stroke-dasharray:none"
     d="m 4.0775568,15.96793 c -0.0202,-0.05274 -0.0278,-1.84632 -0.016888,-3.985727 l 0.019839,-3.8898301 0.5112794,-0.022472 0.5112794,-0.022472 0.022619,-0.4732911 0.022619,-0.473291 0.4731475,-0.022615 0.4731476,-0.022615 0.022615,-0.4731475 0.022615,-0.4731476 2.9364407,0 2.9364406,0 0.02262,0.4731476 0.02262,0.4731475 0.473148,0.022615 0.473147,0.022615 0.02262,0.4731475 0.02262,0.4731475 0.473147,0.022615 0.473148,0.022615 0,3.9661022 0,3.966101 -4.9407394,0.01963 C 5.1429695,16.05974 4.1066373,16.043896 4.0775568,15.96793 l 0,0 z m 6.0070292,-2.860727 0.02135,-0.972457 0.972458,-0.02135 0.972457,-0.02135 0,-1.025104 0,-1.025103 -0.972457,-0.02135 -0.972458,-0.021346 -0.02135,-0.9724576 -0.02135,-0.9724576 -1.0251034,0 -1.0251035,0 -0.021347,0.9724576 -0.021346,0.9724576 -0.9724576,0.021346 -0.9724577,0.02135 0,1.025103 0,1.025104 0.9724577,0.02135 0.9724576,0.02135 0.021346,0.972457 0.021347,0.972458 1.0251035,0 1.0251034,0 0.02135,-0.972458 z"
     id="path2989"
     inkscape:connector-curvature="0" />
  <path
     style="opacity:0.17720002;fill:#800080;fill-opacity:1;stroke:#000000;stroke-width:0.00762712;stroke-miterlimit:4;stroke-opacity:1;stroke-dasharray:none"
     d="m 4.1694915,15.935593 c -0.027966,-0.02797 -0.050847,-1.79555 -0.050847,-3.927966 l 0,-3.8771185 0.4140435,0 c 0.5302558,0 0.6537531,-0.1162932 0.6537531,-0.6156175 l 0,-0.3759079 0.3759079,0 c 0.4888484,0 0.6156175,-0.1267692 0.6156175,-0.6156175 l 0,-0.375908 2.8983051,0 2.8983044,0 0,0.375908 c 0,0.4888483 0.126769,0.6156175 0.615618,0.6156175 l 0.375908,0 0,0.3759079 c 0,0.4888484 0.126769,0.6156175 0.615617,0.6156175 l 0.375908,0 0,3.9279665 0,3.927966 -4.8686435,0 c -2.6777543,0 -4.8915255,-0.02288 -4.9194916,-0.05085 z m 5.9265035,-2.027542 c 0.02529,-0.09439 0.04646,-0.523411 0.04703,-0.95339 l 10e-4,-0.78178 0.781779,-10e-4 c 1.214881,-0.0016 1.125,0.08666 1.125,-1.104891 0,-1.1915468 0.08988,-1.1032722 -1.125,-1.1048906 l -0.781779,-0.00104 -10e-4,-0.7817796 c -0.0016,-1.2148813 0.08666,-1.125 -1.1048904,-1.125 -1.191547,0 -1.1032723,-0.089881 -1.1048907,1.125 l -0.00104,0.7817796 -0.7817797,0.00104 c -1.2148813,0.00162 -1.125,-0.086656 -1.125,1.1048906 0,1.191547 -0.089881,1.103272 1.125,1.104891 l 0.7817797,10e-4 0.00104,0.78178 c 0.00162,1.214881 -0.086656,1.125 1.1048907,1.125 0.9848724,0 1.0130964,-0.0046 1.0578594,-0.17161 z"
     id="path2991"
     inkscape:connector-curvature="0" />
  <path
     style="opacity:0.17720002;fill:#800080;fill-opacity:1;stroke:#000000;stroke-width:0.00762712;stroke-miterlimit:4;stroke-opacity:1;stroke-dasharray:none"
     d="M 5.7012712,15.927625 4.1949153,15.906945 4.1943412,15.698811 C 4.1940255,15.584338 4.1713661,13.83464 4.143987,11.810593 l -0.04978,-3.6800845 0.4262622,0 c 0.5435461,0 0.6659717,-0.1131689 0.6659717,-0.6156175 l 0,-0.3759079 0.3759079,0 c 0.4888484,0 0.6156175,-0.1267692 0.6156175,-0.6156175 l 0,-0.375908 2.8983051,0 2.8983046,0 0,0.375908 c 0,0.4888483 0.126769,0.6156175 0.615618,0.6156175 l 0.375908,0 0,0.3759079 c 0,0.4888484 0.126769,0.6156175 0.615617,0.6156175 l 0.375908,0 0,3.9339815 0,3.933982 -3.375,-0.02508 c -1.8562497,-0.0138 -4.0528599,-0.03439 -4.8813556,-0.04576 z m 4.4260768,-2.820422 0.02142,-0.934322 0.855703,-0.0012 c 0.470637,-6.4e-4 0.899832,-0.02917 0.953766,-0.06339 0.07158,-0.04542 0.09806,-0.326655 0.09806,-1.041376 0,-0.714721 -0.02648,-0.995959 -0.09806,-1.041376 -0.05393,-0.034221 -0.484185,-0.062746 -0.956113,-0.063388 l -0.858051,-0.00117 -0.0012,-0.8580508 c -6.43e-4,-0.471928 -0.02917,-0.9021791 -0.06339,-0.9561138 -0.04542,-0.07158 -0.3266556,-0.098063 -1.0413764,-0.098063 -0.7147208,0 -0.9959593,0.026483 -1.0413761,0.098063 -0.034221,0.053935 -0.062746,0.4841858 -0.063388,0.9561138 l -0.00117,0.8580508 -0.8580509,0.00117 c -0.4719279,6.407e-4 -0.9021791,0.029167 -0.9561137,0.063388 -0.07158,0.04542 -0.098063,0.326655 -0.098063,1.041376 0,0.714721 0.026483,0.995959 0.098063,1.041376 0.053935,0.03422 0.4841858,0.06275 0.9561137,0.06339 l 0.8580509,0.0012 0,0.832745 c 0,0.45801 0.021195,0.887978 0.047099,0.955484 0.04067,0.105984 0.1890356,0.11985 1.0868644,0.101577 l 1.0397651,-0.02116 0.02142,-0.934322 z"
     id="path2993"
     inkscape:connector-curvature="0" />
  <path
     style="opacity:0.17720002;fill:#800080;fill-opacity:1;stroke:#000000;stroke-width:0.00762712;stroke-miterlimit:4;stroke-opacity:1;stroke-dasharray:none"
     d="M 8.1610169,15.912307 4.2330508,15.872034 4.1836172,12.058475 C 4.1564287,9.9610169 4.1498738,8.2191737 4.1690507,8.1877119 4.1882276,8.15625 4.3649219,8.1299829 4.5617047,8.1293405 5.053002,8.1277368 5.1364548,8.0543104 5.1839139,7.5818859 L 5.2245763,7.1771186 5.6203202,7.1373069 C 5.8379794,7.1154104 6.0431573,7.0704021 6.0762712,7.0372882 6.1093851,7.0041743 6.1543935,6.7989963 6.17629,6.5813371 l 0.039812,-0.3957439 2.8601695,0 2.8601695,0 0.03981,0.3957439 c 0.0219,0.2176592 0.0669,0.4228372 0.100018,0.4559511 0.03311,0.033114 0.238292,0.078122 0.455951,0.1000187 l 0.395744,0.039812 0.03981,0.395744 c 0.0219,0.2176591 0.0669,0.4228371 0.100018,0.455951 0.03311,0.033114 0.238292,0.078122 0.455952,0.1000187 l 0.395744,0.039812 0,3.8898304 0,3.88983 -0.915255,0.0021 c -0.50339,0.0012 -2.682839,-0.01599 -4.8432198,-0.03814 l 0,2e-6 z M 10.145236,13.22161 c 6.4e-4,-0.471928 0.02767,-0.899761 0.06007,-0.95074 0.03919,-0.06168 0.351367,-0.09995 0.933154,-0.114407 l 0.874255,-0.02172 0.04676,-0.533899 c 0.02572,-0.293644 0.02572,-0.774152 0,-1.067796 L 12.012712,9.9991525 11.097458,9.9610169 10.182203,9.9228814 10.144068,9.0076271 10.105932,8.0923729 9.5720339,8.0456103 c -0.2936441,-0.025719 -0.7741525,-0.025719 -1.0677966,0 L 7.970339,8.0923729 7.9322034,9.0076271 7.8940678,9.9228814 6.9788136,9.9610169 6.0635593,9.9991525 6.0167968,10.533051 c -0.025719,0.293644 -0.025719,0.774152 0,1.067796 l 0.046762,0.533899 0.9152543,0.03814 0.9152542,0.03814 0.020157,0.838983 c 0.011086,0.461441 0.035751,0.881886 0.05481,0.934322 0.025477,0.0701 0.3180195,0.09534 1.104843,0.09534 l 1.0701907,0 0.0012,-0.858051 z"
     id="path2995"
     inkscape:connector-curvature="0" />
  <path
     style="opacity:0.17720002;fill:#800080;fill-opacity:1;stroke:#000000;stroke-width:0.00762712;stroke-miterlimit:4;stroke-opacity:1;stroke-dasharray:none"
     d="M 5.9422759,15.85308 4.2955688,15.830992 4.245242,13.875157 C 4.217562,12.799449 4.194915,11.086471 4.194915,10.06854 l 0,-1.8507839 0.421656,-0.052683 C 5.0811511,8.1070282 5.1380947,8.0485145 5.2217872,7.5431702 5.2731456,7.2330623 5.2857889,7.2211403 5.6157793,7.1716552 6.0445908,7.1073509 6.1464897,7.0045698 6.2115482,6.570728 l 0.052036,-0.3469992 2.8126872,0 2.8126866,0 0.05204,0.3469992 c 0.06512,0.4342411 0.166904,0.5366149 0.597773,0.6012278 0.337612,0.050628 0.343734,0.05675 0.394362,0.3943616 0.06461,0.430869 0.166987,0.5326548 0.601228,0.5977732 l 0.346999,0.052036 0,3.8470214 0,3.847021 -3.146187,-0.0175 c -1.7304019,-0.0096 -3.887204,-0.02744 -4.7928929,-0.03959 l 0,0 z m 4.2362081,-2.678444 0.05402,-0.905024 0.462734,-0.04837 c 0.254504,-0.0266 0.658967,-0.04837 0.898807,-0.04837 l 0.436071,0 0.0485,-0.353865 c 0.06147,-0.448497 0.06198,-1.0519 0.0013,-1.494877 L 12.032651,9.9795309 11.132809,9.9258238 10.232968,9.8721168 10.179261,8.9722753 10.125554,8.0724338 9.7809453,8.0252 C 9.3409937,7.964898 8.7352775,7.964898 8.2953259,8.0252 L 7.9507173,8.072434 7.8970103,8.9722755 7.8433033,9.872117 6.9434618,9.925824 6.0436204,9.979531 5.9963864,10.324139 c -0.060302,0.439952 -0.060302,1.045668 0,1.48562 l 0.047234,0.344608 0.8950553,0.05342 0.8950554,0.05342 0.051228,0.843461 c 0.028176,0.463903 0.069519,0.873054 0.091873,0.909225 0.022355,0.03617 0.5147177,0.06576 1.0941402,0.06576 l 1.0534957,0 0.05402,-0.905025 0,0 z"
     id="path2997"
     inkscape:connector-curvature="0" />
  <path
     style="opacity:0.17720002;fill:#800080;fill-opacity:1;stroke:#000000;stroke-width:0.00762712;stroke-miterlimit:4;stroke-opacity:1;stroke-dasharray:none"
     d="M 8.8748222,15.85463 4.3640512,15.832696 4.31999,15.013381 C 4.295756,14.562759 4.266281,12.856065 4.25449,11.220728 L 4.2330508,8.2473878 4.5997302,8.1946427 C 5.0601524,8.1284132 5.1619801,8.0433847 5.2245763,7.6728814 5.2826999,7.3288506 5.3400927,7.2743461 5.7751866,7.1499811 6.0632839,7.0676327 6.1061295,7.0243009 6.1843209,6.7362035 6.2323566,6.5592153 6.2839872,6.3710751 6.2990556,6.3181142 c 0.02155,-0.07574 0.6161437,-0.092019 2.7858345,-0.076271 l 2.7584369,0.020021 0.09228,0.3635229 c 0.113046,0.4453115 0.107316,0.4395284 0.545831,0.5508718 0.339418,0.086182 0.361203,0.1079663 0.447385,0.4473848 0.111343,0.4385122 0.105557,0.4327801 0.550871,0.5458498 l 0.363523,0.092302 0,3.8051195 0,3.805119 -0.228813,0.0023 c -0.125848,0.0012 -2.258661,-0.0076 -4.7395848,-0.01967 l 0,0 z m 1.2433888,-1.794037 c 0.03268,-0.05244 0.07283,-0.438559 0.08924,-0.858051 0.0164,-0.419491 0.06024,-0.800437 0.09742,-0.846547 0.03718,-0.04611 0.433634,-0.104564 0.881011,-0.129898 0.540074,-0.03058 0.834497,-0.0793 0.876159,-0.144979 0.08485,-0.133755 0.08022,-1.901821 -0.0053,-2.036966 -0.049,-0.077353 -0.294595,-0.1176146 -0.874905,-0.1434237 C 10.720989,9.8802323 10.345903,9.8282323 10.307083,9.7794572 10.269704,9.732493 10.222792,9.3388376 10.202833,8.9046675 10.177033,8.3434061 10.135744,8.0957646 10.059968,8.0477846 9.9206074,7.9595449 8.1548574,7.9600598 8.0153389,8.0483795 7.9379856,8.0973474 7.8977239,8.3429386 7.8719148,8.9232486 7.8514188,9.3840945 7.7994188,9.7591802 7.7506436,9.7980006 7.7036794,9.8353795 7.3100241,9.8822918 6.8758539,9.9022502 6.3145925,9.9280509 6.066951,9.9693394 6.018971,10.045116 c -0.08824,0.13936 -0.087725,1.90511 5.949e-4,2.044628 0.049029,0.07745 0.2957599,0.117669 0.8817374,0.14373 0.9190799,0.04088 0.9539222,0.06736 0.9552905,0.726151 3.661e-4,0.175553 0.022139,0.497967 0.048388,0.716476 l 0.047725,0.39729 0.5427135,0.02611 c 1.2948815,0.06231 1.5637227,0.05586 1.6227887,-0.03891 l 2e-6,10e-7 z"
     id="path2999"
     inkscape:connector-curvature="0" />
  <path
     style="opacity:0.17720002;fill:#800080;fill-opacity:1;stroke:#000000;stroke-width:0.00762712;stroke-miterlimit:4;stroke-opacity:1;stroke-dasharray:none"
     d="m 4.6017878,15.780917 c -0.090839,-0.01772 -0.1821435,-0.07646 -0.2028994,-0.130553 -0.020756,-0.05409 -0.062918,-1.73138 -0.093694,-3.727314 L 4.249239,8.2940803 4.5462297,8.2418693 C 4.9841156,8.1648887 5.1703602,8.0158493 5.2642104,7.667316 5.3331005,7.411478 5.3979466,7.3366441 5.6294933,7.2457714 6.0931415,7.0638083 6.1351581,7.023047 6.239354,6.6541325 L 6.3393749,6.3 l 2.7383897,0 2.7383894,0 0.08667,0.3241525 c 0.11431,0.4275406 0.167741,0.4824807 0.566986,0.5830119 0.310414,0.078163 0.345161,0.1116213 0.424642,0.4088975 0.114313,0.4275505 0.167569,0.4820793 0.56972,0.5833421 l 0.340914,0.085843 0,3.774326 0,3.774325 -4.5190681,-0.01039 c -2.4854872,-0.0057 -4.5933904,-0.02488 -4.6842291,-0.04259 z m 5.5730872,-1.872866 c 0.02075,-0.136335 0.0652,-0.539619 0.09879,-0.896187 l 0.06108,-0.648305 0.572034,-0.06034 c 0.314618,-0.03319 0.709322,-0.08483 0.877118,-0.114748 l 0.305085,-0.05441 0,-1.0646 0,-1.064601 -0.228814,-0.056309 C 11.734321,9.917581 11.339618,9.864813 10.98305,9.8312895 L 10.334746,9.770339 10.273793,9.1220339 C 10.240269,8.7654661 10.187502,8.3707627 10.156532,8.2449153 l -0.05631,-0.2288136 -1.0620874,0 -1.0620873,0 -0.056309,0.2288136 C 7.8887693,8.3707627 7.8360017,8.7654661 7.8024778,9.1220339 L 7.7415254,9.770339 7.0932203,9.8312914 C 6.7366525,9.8648153 6.3419492,9.9175372 6.2161017,9.9484513 l -0.2288136,0.056208 -0.021227,1.047042 -0.021227,1.047043 0.1978024,0.0752 c 0.1087914,0.04136 0.3585978,0.0767 0.5551255,0.07853 0.3492132,0.0032 0.982121,0.10029 1.0415285,0.159698 0.01642,0.01642 0.062006,0.384912 0.1013037,0.818873 0.047418,0.523631 0.1069078,0.811476 0.1768687,0.855785 0.05798,0.03672 0.5586303,0.06729 1.1125557,0.06793 l 1.0071374,0.0012 0.03772,-0.247881 z"
     id="path3001"
     inkscape:connector-curvature="0" />
  <path
     style="opacity:0.17720002;fill:#800080;fill-opacity:1;stroke:#000000;stroke-width:0.00762712;stroke-miterlimit:4;stroke-opacity:1;stroke-dasharray:none"
     d="m 8.7330508,15.760239 -4.2711864,-0.04075 -0.047847,-1.334746 c -0.026316,-0.73411 -0.068735,-2.40731 -0.094266,-3.718221 -0.045866,-2.3550687 -0.044585,-2.3834742 0.1074999,-2.3834742 0.3481898,0 0.6791416,-0.2169596 0.8418663,-0.551896 C 5.3867736,7.4889834 5.525849,7.3487236 5.7839272,7.2119608 6.069731,7.0605055 6.1616408,6.958767 6.2632721,6.6813559 l 0.1257408,-0.3432203 2.6798911,-0.020045 2.679891,-0.020045 0.07355,0.2107232 c 0.157575,0.4514903 0.27668,0.5914433 0.607266,0.7135607 0.280279,0.1035341 0.353102,0.1736626 0.437034,0.4208683 0.121532,0.3579419 0.326802,0.5420852 0.677651,0.607905 l 0.262221,0.049193 -0.01978,3.7477342 -0.01978,3.747734 -0.381356,0.0026 c -0.209746,0.0014 -2.30339,-0.01572 -4.6525422,-0.03814 l 0,-4e-6 z m 1.5464222,-2.477 c 0.0535,-0.459007 0.107318,-0.844606 0.1196,-0.856889 0.01228,-0.01228 0.294571,-0.0576 0.627307,-0.100709 0.332737,-0.04311 0.716523,-0.09667 0.852857,-0.119025 l 0.247882,-0.04065 0,-1.096416 0,-1.0964157 -0.209746,-0.04195 c -0.11536,-0.02307 -0.501426,-0.080084 -0.857925,-0.1266941 -0.356498,-0.046611 -0.654013,-0.09058 -0.661143,-0.09771 -0.0071,-0.00713 -0.0511,-0.3046447 -0.09771,-0.6611431 C 10.253984,8.6891382 10.196971,8.303072 10.173898,8.1877119 l -0.04195,-0.2097458 -1.0938114,0 -1.0938119,0 -0.04195,0.2097458 C 7.8793006,8.303072 7.8222871,8.6891382 7.7756766,9.0456366 7.7290661,9.402135 7.6851532,9.6994258 7.6780922,9.7062829 7.671031,9.7131396 7.2937679,9.7700643 6.8397291,9.8327816 6.3856902,9.8954989 6.0020504,9.9589665 5.9871962,9.9738207 c -0.048205,0.048204 -0.063104,2.1231533 -0.015587,2.1706703 0.025341,0.02534 0.4143993,0.09406 0.8645737,0.152709 0.4501745,0.05865 0.8300315,0.118167 0.8441268,0.132263 0.014095,0.01409 0.061731,0.331092 0.1058563,0.704438 0.1304535,1.10376 0.034244,1.029861 1.3084935,1.005062 l 1.0875435,-0.02117 0.09727,-0.834558 z"
     id="path3003"
     inkscape:connector-curvature="0" />
  <path
     style="opacity:0.17720002;fill:#800080;fill-opacity:1;stroke:#000000;stroke-width:0.00762712;stroke-miterlimit:4;stroke-opacity:1;stroke-dasharray:none"
     d="M 4.8336837,15.696504 4.5190623,15.673517 4.4725892,15.010063 C 4.447029,14.645164 4.4067027,13.316949 4.3829752,12.058475 4.3592477,10.8 4.3255652,9.5453645 4.3081252,9.2703955 4.2616982,8.5384033 4.3343884,8.3390186 4.6772404,8.2579361 4.8517056,8.2166761 5.0238573,8.1038573 5.1298264,7.961336 5.2984859,7.7345005 5.7462255,7.2766424 6.0843348,6.9852565 6.1796596,6.9031047 6.2783354,6.7324754 6.3036144,6.6060804 l 0.045962,-0.2298092 2.5774484,0 c 1.4175962,0 2.6245422,-0.018071 2.6821012,-0.040159 0.06988,-0.026817 0.158077,0.086294 0.265457,0.3404565 0.131811,0.3119858 0.222994,0.4108288 0.505698,0.548177 0.250549,0.121726 0.380735,0.2470455 0.475921,0.4581305 0.16461,0.3650391 0.306645,0.4928798 0.643798,0.5794572 0.177238,0.045513 0.264813,0.111776 0.260593,0.197176 -0.0035,0.070744 -0.01208,1.7464866 -0.01907,3.7238716 l -0.01271,3.595246 -4.2902546,-0.02957 c -2.3596398,-0.01626 -4.4318338,-0.03991 -4.6048756,-0.05256 z m 5.4667823,-2.343963 c 0.05237,-0.441865 0.132986,-0.827987 0.179153,-0.85805 0.04617,-0.03006 0.427161,-0.106765 0.846652,-0.170449 l 0.762712,-0.115788 0.02107,-1.117842 C 12.129219,10.073933 12.118846,9.9691989 11.99565,9.935397 11.921135,9.914952 11.568432,9.8554462 11.211864,9.8031619 10.855297,9.7508776 10.52608,9.6706204 10.480272,9.6248125 10.434464,9.5790046 10.354207,9.2497881 10.301923,8.8932203 10.249639,8.5366525 10.190419,8.1848517 10.170324,8.1114407 10.137688,7.992212 10.016848,7.9779661 9.0381356,7.9779661 c -0.9787128,0 -1.0995523,0.014246 -1.1321889,0.1334746 -0.020095,0.073411 -0.079314,0.4252118 -0.1315984,0.7817796 -0.052284,0.3565678 -0.1325414,0.6859956 -0.1783494,0.7320618 -0.045808,0.046066 -0.3750243,0.1250876 -0.7315921,0.1756033 -1.0126279,0.143461 -0.9152543,0.00876 -0.9152543,1.2660636 0,1.257535 -0.096976,1.123599 0.9152543,1.264074 0.3565678,0.04948 0.6856077,0.119505 0.7311999,0.155604 0.045592,0.0361 0.1281392,0.366396 0.183438,0.733994 0.1510014,1.003784 0.053598,0.935311 1.3305031,0.935311 l 1.0957062,0 0.09521,-0.803391 0,0 z"
     id="path3005"
     inkscape:connector-curvature="0" />
  <path
     style="opacity:0.17720002;fill:#800080;fill-opacity:1;stroke:#000000;stroke-width:0.00762712;stroke-miterlimit:4;stroke-opacity:1;stroke-dasharray:none"
     d="M 6.6355932,15.681356 4.5381356,15.64322 4.4902405,14.804237 c -0.026342,-0.46144 -0.07278,-2.060009 -0.1031941,-3.552375 -0.050563,-2.4810146 -0.044362,-2.7243285 0.072411,-2.8411012 0.07024,-0.070241 0.1782544,-0.12771 0.2400312,-0.12771 0.1678134,0 1.4740006,-1.343537 1.6004801,-1.6462451 l 0.1096828,-0.2625079 2.6475253,0.020055 2.6475252,0.020054 0.181031,0.3282194 c 0.09957,0.1805207 0.311301,0.4104557 0.470521,0.5109667 0.15922,0.1005111 0.387313,0.3303548 0.506872,0.5107637 0.136633,0.2061705 0.337793,0.3839468 0.541535,0.4785848 l 0.324153,0.1505684 0,3.6891012 0,3.6891 -2.497882,-0.02611 c -1.3738343,-0.01436 -3.4417369,-0.04327 -4.5953386,-0.06425 z m 3.6116098,-1.658898 c 0.02043,-0.07341 0.06062,-0.356568 0.0893,-0.629238 0.06966,-0.662085 0.09099,-0.771561 0.164652,-0.845227 0.03442,-0.03442 0.415203,-0.121141 0.84619,-0.192718 l 0.783613,-0.13014 -0.02099,-1.148014 L 12.088983,9.9291074 11.288136,9.773452 10.487288,9.6177966 10.33155,8.8169492 10.175812,8.0161017 l -1.1390121,0 -1.1390124,0 -0.140179,0.7627119 C 7.68051,9.1983051 7.5903717,9.5690471 7.5573012,9.6026847 7.5242307,9.6363223 7.208932,9.7108947 6.8566373,9.7684012 5.9243784,9.9205778 5.965129,9.8873129 5.9361143,10.519829 c -0.013804,0.300916 -0.012823,0.794814 0.00218,1.097552 0.031151,0.628627 -0.03224,0.577683 0.9291683,0.746715 0.3495153,0.06145 0.6653402,0.141587 0.7018333,0.17808 0.036493,0.03649 0.1153627,0.347097 0.1752659,0.69023 0.1712174,0.980758 0.08648,0.923526 1.3673898,0.923526 0.9808204,0 1.1020764,-0.01426 1.1352534,-0.133474 l -10e-7,0 z"
     id="path3007"
     inkscape:connector-curvature="0" />
  <path
     style="opacity:0.17720002;fill:#800080;fill-opacity:1;stroke:#000000;stroke-width:0.00762712;stroke-miterlimit:4;stroke-opacity:1;stroke-dasharray:none"
     d="m 6.1016949,3.5161017 0,-1.4872881 2.9745763,0 2.9745758,0 0,1.4872881 0,1.4872881 -2.9745758,0 -2.9745763,0 0,-1.4872881 z"
     id="path3009"
     inkscape:connector-curvature="0" />
  <path
     style="opacity:0.17720002;fill:#800080;fill-opacity:1;stroke:#000000;stroke-width:0.00762712;stroke-miterlimit:4;stroke-opacity:1;stroke-dasharray:none"
     d="M 6.1359582,4.906395 C 6.1151036,4.8520487 6.1074434,4.1909409 6.1189356,3.4372664 l 0.020895,-1.3703172 2.9364407,0 2.9364407,0 0,1.4491525 0,1.4491525 -2.9194181,0.019976 C 6.7590319,5.0012024 6.1662756,4.985401 6.1359582,4.906395 z"
     id="path3011"
     inkscape:connector-curvature="0" />
  <path
     style="opacity:0.17720002;fill:#800080;fill-opacity:1;stroke:#000000;stroke-width:0.00762712;stroke-miterlimit:4;stroke-opacity:1;stroke-dasharray:none"
     d="m 6.1779661,3.5161017 0,-1.411017 2.8983051,0 2.8983048,0 0,1.411017 0,1.4110169 -2.8983048,0 -2.8983051,0 0,-1.4110169 z"
     id="path3013"
     inkscape:connector-curvature="0" />
  <path
     style="opacity:0.17720002;fill:#800080;fill-opacity:1;stroke:#000000;stroke-width:0.00762712;stroke-miterlimit:4;stroke-opacity:1;stroke-dasharray:none"
     d="M 6.2288136,4.8762712 C 6.2008475,4.8483051 6.1779661,4.2133475 6.1779661,3.4652542 l 0,-1.3601695 2.8983051,0 2.8983048,0 0,1.411017 0,1.4110169 -2.8474573,0 c -1.5661018,0 -2.870339,-0.022881 -2.8983051,-0.050847 z"
     id="path3015"
     inkscape:connector-curvature="0" />
  <path
     style="opacity:0.17720002;fill:#800080;fill-opacity:1;stroke:#000000;stroke-width:0.00762712;stroke-miterlimit:4;stroke-opacity:1;stroke-dasharray:none"
     d="M 7.5785753,4.8708342 6.2715574,4.8473197 6.215758,3.5462229 C 6.1822284,2.7643992 6.188285,2.2167997 6.2309337,2.174151 6.2728937,2.132191 7.453636,2.111361 9.1191747,2.123198 l 2.8172663,0.020022 0,1.3728814 0,1.3728814 -1.525424,0.00268 c -0.8389831,0.00148 -2.1135819,-0.0079 -2.8324417,-0.020832 l 0,3e-7 z"
     id="path3017"
     inkscape:connector-curvature="0" />
  <path
     style="opacity:0.17720002;fill:#800080;fill-opacity:1;stroke:#000000;stroke-width:0.00762712;stroke-miterlimit:4;stroke-opacity:1;stroke-dasharray:none"
     d="M 6.3019068,4.6125 C 6.2756886,4.4814089 6.2542373,3.8807733 6.2542373,3.2777542 l 0,-1.0963983 2.8220339,0 2.8220338,0 0,1.3347458 0,1.3347458 -2.7743643,0 -2.7743644,0 L 6.3019068,4.6125 z"
     id="path3019"
     inkscape:connector-curvature="0" />
  <path
     style="opacity:0.17720002;fill:#800080;fill-opacity:1;stroke:#000000;stroke-width:0.00762712;stroke-miterlimit:4;stroke-opacity:1;stroke-dasharray:none"
     d="M 6.3821048,4.794602 C 6.362931,4.7626133 6.3348975,4.1701271 6.3198081,3.4779661 l -0.027435,-1.2584746 2.7838983,0 2.7838976,0 0,1.2966102 0,1.2966102 -2.7216009,0.020026 C 7.641687,4.8437517 6.4012786,4.8265909 6.3821048,4.794602 l 0,0 z"
     id="path3021"
     inkscape:connector-curvature="0" />
  <path
     style="opacity:0.17720002;fill:#800080;fill-opacity:1;stroke:#000000;stroke-width:0.00762712;stroke-miterlimit:4;stroke-opacity:1;stroke-dasharray:none"
     d="M 6.3802347,3.9618638 C 6.3528853,3.5148721 6.3305085,2.9485585 6.3305085,2.7033893 l 0,-0.4457622 2.7457627,0 2.7457628,0 0,1.2584746 0,1.2584746 -2.6960365,0 -2.6960365,0 -0.049726,-0.8127125 z"
     id="path3023"
     inkscape:connector-curvature="0" />
  <path
     style="opacity:0.17720002;fill:#800080;fill-opacity:1;stroke:#000000;stroke-width:0.00762712;stroke-miterlimit:4;stroke-opacity:1;stroke-dasharray:none"
     d="M 6.4548608,4.4132681 C 6.4313352,4.2134707 6.4023123,3.6552966 6.3903655,3.1728814 l -0.021721,-0.8771187 2.7076271,0 2.7076264,0 0,1.220339 0,1.220339 -2.6431311,0.020048 -2.6431318,0.020048 -0.042774,-0.3632681 z"
     id="path3025"
     inkscape:connector-curvature="0" />
  <path
     style="opacity:0.17720002;fill:#800080;fill-opacity:1;stroke:#000000;stroke-width:0.00762712;stroke-miterlimit:4;stroke-opacity:1;stroke-dasharray:none"
     d="M 6.5334078,4.7180798 C 6.5106687,4.681287 6.4677849,4.1297946 6.4381106,3.4925411 l -0.053953,-1.1586428 2.6808027,0 2.6808027,0 0,1.1822034 0,1.1822034 -2.4725755,0 c -1.3599164,0 -2.5233939,0.019501 -2.5855054,0.043335 -0.062111,0.023834 -0.1315347,0.013232 -0.1542739,-0.023561 z"
     id="path3027"
     inkscape:connector-curvature="0" />
</svg>
