<?xml version="1.0" encoding="UTF-8" standalone="no"?>
<!-- Created with Inkscape (http://www.inkscape.org/) -->

<svg
   xmlns:dc="http://purl.org/dc/elements/1.1/"
   xmlns:cc="http://creativecommons.org/ns#"
   xmlns:rdf="http://www.w3.org/1999/02/22-rdf-syntax-ns#"
   xmlns:svg="http://www.w3.org/2000/svg"
   xmlns="http://www.w3.org/2000/svg"
   xmlns:sodipodi="http://sodipodi.sourceforge.net/DTD/sodipodi-0.dtd"
   xmlns:inkscape="http://www.inkscape.org/namespaces/inkscape"
   width="18"
   height="18"
   id="svg4619"
   version="1.1"
   inkscape:version="0.48.4 r9939"
   sodipodi:docname="airport-18.svg">
  <defs
     id="defs4621" />
  <sodipodi:namedview
     id="base"
     pagecolor="#ffffff"
     bordercolor="#666666"
     borderopacity="1.0"
     inkscape:pageopacity="0.0"
     inkscape:pageshadow="2"
     inkscape:zoom="16"
     inkscape:cx="5.9619453"
     inkscape:cy="1.948034"
     inkscape:document-units="px"
     inkscape:current-layer="layer1"
     showgrid="true"
     showguides="true"
     inkscape:guide-bbox="true"
     inkscape:window-width="1008"
     inkscape:window-height="662"
     inkscape:window-x="76"
     inkscape:window-y="40"
     inkscape:window-maximized="0"
     inkscape:snap-bbox="true"
     inkscape:object-paths="true"
     inkscape:snap-nodes="false">
    <inkscape:grid
       type="xygrid"
       id="grid4627"
       empspacing="5"
       visible="true"
       enabled="true"
       snapvisiblegridlinesonly="true" />
    <sodipodi:guide
       orientation="0,1"
       position="7,18"
       id="guide4659" />
    <sodipodi:guide
       orientation="1,0"
       position="18,9"
       id="guide4661" />
    <sodipodi:guide
       orientation="0,1"
       position="16,17"
       id="guide4663" />
    <sodipodi:guide
       orientation="1,0"
       position="17,14"
       id="guide4665" />
    <sodipodi:guide
       orientation="1,0"
       position="0,16"
       id="guide4667" />
    <sodipodi:guide
       orientation="0,1"
       position="8,0"
       id="guide4669" />
    <sodipodi:guide
       orientation="1,0"
       position="2,10"
       id="guide4671" />
    <sodipodi:guide
       orientation="0,1"
       position="12,2"
       id="guide4673" />
  </sodipodi:namedview>
  <metadata
     id="metadata4624">
    <rdf:RDF>
      <cc:Work
         rdf:about="">
        <dc:format>image/svg+xml</dc:format>
        <dc:type
           rdf:resource="http://purl.org/dc/dcmitype/StillImage" />
        <dc:title />
      </cc:Work>
    </rdf:RDF>
  </metadata>
  <g
     inkscape:label="Layer 1"
     inkscape:groupmode="layer"
     id="layer1"
     transform="translate(0,-1034.3622)">
    <g
       transform="translate(-108,-16)"
       style="display:inline"
       id="airport-18"
       inkscape:label="airport-18"
       inkscape:export-xdpi="89.996864"
       inkscape:export-ydpi="89.996864">
      <g
         id="g21737">
        <path
           sodipodi:nodetypes="cccccccccccccssscc"
           id="path14268"
           d="m 124.5,1060.3622 0,1 -5.5,-1 0,3 2,1.2222 0,0.7778 -6,0 0,-0.7778 2,-1.2222 0,-3 -5.5,1 0,-1 5.5,-3 c 0,0 0,-1.7036 0,-3 0,-0.7777 0.22222,-2 1,-2 0.77777,0 1,1.2223 1,2 0,1.2964 0,3 0,3 z"
           style="opacity:0.3;color:#000000;fill:none;stroke:#ffffff;stroke-width:2;stroke-linecap:round;stroke-linejoin:round;stroke-miterlimit:4;stroke-opacity:1;stroke-dasharray:none;stroke-dashoffset:0;marker:none;visibility:visible;display:inline;overflow:visible;enable-background:accumulate"
           inkscape:export-xdpi="90"
           inkscape:export-ydpi="90"
           inkscape:connector-curvature="0" />
        <path
           inkscape:connector-curvature="0"
           inkscape:export-ydpi="90"
           inkscape:export-xdpi="90"
           style="fill:#444444;fill-opacity:1;stroke:none;display:inline"
           d="m 124.5,1060.3622 0,1 -5.5,-1 0,3 2,1.2222 0,0.7778 -6,0 0,-0.7778 2,-1.2222 0,-3 -5.5,1 0,-1 5.5,-3 c 0,0 0,-1.7036 0,-3 0,-0.7777 0.22222,-2 1,-2 0.77777,0 1,1.2223 1,2 0,1.2964 0,3 0,3 z"
           id="path7712-0"
           sodipodi:nodetypes="cccccccccccccssscc" />
      </g>
      <rect
         y="1050.3622"
         x="107.99998"
         height="18.000031"
         width="18.000017"
         id="rect22077-6"
         style="opacity:0.5;color:#000000;fill:none;stroke:none;stroke-width:2;marker:none;visibility:visible;display:inline;overflow:visible;enable-background:accumulate" />
    </g>
    <path
       style="opacity:0.17720002;fill:#0000ff;fill-opacity:1;stroke:#000000;stroke-width:0.00625;stroke-miterlimit:4;stroke-opacity:1;stroke-dasharray:none"
       d="m 6.9994453,14.624575 0,-0.364891 1,-0.608169 1,-0.60817 0,-1.526939 c 0,-1.180482 -0.017726,-1.5266863 -0.078125,-1.5258219 -0.042969,6.25e-4 -1.281567,0.2209029 -2.7524405,0.4895289 l -2.6743156,0.488411 0.018066,-0.472926 0.018066,-0.472926 2.734375,-1.4908148 2.734375,-1.4908146 0.00111,-1.4164133 c 0.00174,-2.2151294 0.1175585,-2.9371655 0.5387078,-3.3583148 0.3011868,-0.301187 0.619176,-0.301187 0.920364,0 0.42115,0.4211493 0.53697,1.1431854 0.538708,3.3583148 l 0.0011,1.4164133 2.734375,1.4908146 2.734375,1.4908148 0.01807,0.472926 0.01807,0.472926 -2.674316,-0.488411 C 12.359137,10.211487 11.120539,9.9911991 11.07757,9.9905841 11.01717,9.9897216 10.99944,10.335924 10.99944,11.516406 l 0,1.526939 1,0.60817 1,0.608169 0,0.364891 0,0.364891 -2.9999997,0 -3,0 0,-0.364891 0,0 z"
       id="path3025"
       inkscape:connector-curvature="0"
       transform="translate(0,1034.3622)" />
    <path
       style="opacity:0.17720002;fill:#0000ff;fill-opacity:1;stroke:#000000;stroke-width:0.00625;stroke-miterlimit:4;stroke-opacity:1;stroke-dasharray:none"
       d="M 7.0119513,14.631845 7.0306953,14.274225 8.0144686,13.67872 8.998242,13.083216 8.9988436,11.528289 8.9994453,9.9733622 8.68263,10.015389 c -0.1742485,0.02311 -1.4017851,0.238264 -2.7278593,0.478109 -1.3260742,0.239845 -2.4155631,0.428463 -2.4210865,0.41915 -0.00552,-0.0093 0.00561,-0.213456 0.024734,-0.453653 l 0.034777,-0.43672 2.6964683,-1.4695296 2.6964683,-1.4695294 0.042542,-1.53125 c 0.023398,-0.8421875 0.067942,-1.7703125 0.098987,-2.0625 0.072493,-0.6822993 0.2984872,-1.1533476 0.6374096,-1.3285778 0.23191,-0.1199027 0.2368396,-0.1199027 0.4687496,0 0.338923,0.1752302 0.564917,0.6462785 0.63741,1.3285778 0.03104,0.2921875 0.07559,1.2203125 0.09899,2.0625 l 0.04254,1.53125 2.696469,1.4695294 2.696468,1.4695296 0.03478,0.43672 c 0.01913,0.240197 0.03026,0.44434 0.02473,0.453653 -0.0055,0.0093 -1.095013,-0.179305 -2.421087,-0.41915 -1.326074,-0.239845 -2.553611,-0.454994 -2.727859,-0.478109 l -0.316816,-0.042027 6.25e-4,1.554927 6.25e-4,1.554927 0.983774,0.595504 0.983773,0.595505 0.01874,0.35762 0.0187,0.357621 -3.0062376,0 -3.006238,0 0.018744,-0.357621 0,0 z"
       id="path3027"
       inkscape:connector-curvature="0"
       transform="translate(0,1034.3622)" />
    <path
       style="opacity:0.17720002;fill:#0000ff;fill-opacity:1;stroke:#000000;stroke-width:0.00625;stroke-miterlimit:4;stroke-opacity:1;stroke-dasharray:none"
       d="m 7.0547027,14.96139 c -0.015442,-0.01544 -0.013098,-0.176041 0.00521,-0.356887 l 0.033284,-0.328812 0.9375,-0.570809 0.9375,-0.57081 0.016683,-1.60501 0.016683,-1.6050085 -0.1416831,0.031908 c -0.2185369,0.049215 -5.1909833,0.9085045 -5.2572429,0.9085045 -0.071055,0 -0.00145,-0.751744 0.076859,-0.830049 0.029849,-0.02985 1.2320179,-0.6963243 2.6714861,-1.4810561 L 8.9681953,7.1265754 9.0123114,6.6048957 C 9.0365753,6.3179719 9.0823892,5.436341 9.1141202,4.645716 9.1798525,3.0078959 9.2621039,2.6559278 9.66095,2.3057363 c 0.2736965,-0.2403089 0.403294,-0.2403089 0.676991,0 0.398846,0.3501915 0.481097,0.7021596 0.546829,2.3399797 0.03173,0.790625 0.07755,1.6722559 0.101809,1.9591797 l 0.04412,0.5216797 2.617215,1.426785 c 1.439468,0.7847318 2.641637,1.4512076 2.671487,1.4810566 0.07831,0.07831 0.147913,0.830049 0.07686,0.830049 -0.06626,0 -5.038706,-0.859289 -5.257243,-0.908505 l -0.141683,-0.031908 0.01668,1.605009 0.01668,1.60501 0.9375,0.57081 0.9375,0.570809 0.03329,0.328812 c 0.01831,0.180846 0.02065,0.341445 0.0052,0.356887 -0.01544,0.01544 -1.340574,0.02808 -2.9447407,0.02808 -1.6041667,0 -2.9293008,-0.01263 -2.9447426,-0.02808 z"
       id="path3029"
       inkscape:connector-curvature="0"
       transform="translate(0,1034.3622)" />
    <path
       style="opacity:0.17720002;fill:#0000ff;fill-opacity:1;stroke:#000000;stroke-width:0.00625;stroke-miterlimit:4;stroke-opacity:1;stroke-dasharray:none"
       d="m 7.0892184,14.599974 c 0.023857,-0.179846 0.048574,-0.329704 0.054927,-0.333019 0.00635,-0.0033 0.4254956,-0.256915 0.9314291,-0.563553 l 0.9198793,-0.557524 0.017621,-1.586215 C 9.025425,10.447882 9.0101139,9.9655654 8.961884,9.9470941 8.9240377,9.9325997 7.7517118,10.119016 6.3567152,10.361353 4.9617186,10.60369 3.7762775,10.801966 3.7224015,10.801966 c -0.075362,0 -0.097956,-0.06933 -0.097956,-0.300554 0,-0.165305 0.035156,-0.345095 0.078125,-0.399533 0.069401,-0.08793 2.003492,-1.1755924 4.421875,-2.4867115 0.4640625,-0.2515901 0.8521979,-0.4639004 0.8625232,-0.4718006 0.010325,-0.0079 0.058478,-0.7418535 0.107007,-1.6310075 0.1400971,-2.566897 0.1628697,-2.7048641 0.5098552,-3.0889356 0.2983908,-0.3302828 0.4928381,-0.3302828 0.7912291,0 0.346985,0.3840715 0.369758,0.5220386 0.509855,3.0889356 0.04853,0.889154 0.09668,1.6231073 0.107007,1.6310075 0.01032,0.0079 0.398461,0.2202105 0.862523,0.4718006 2.418383,1.3111191 4.352474,2.3987855 4.421875,2.4867115 0.04297,0.05444 0.07813,0.234228 0.07813,0.399533 0,0.231228 -0.02259,0.300554 -0.09796,0.300554 -0.05388,0 -1.239317,-0.198276 -2.634314,-0.440613 -1.394996,-0.242337 -2.567322,-0.4287533 -2.605168,-0.4142589 -0.04823,0.018471 -0.06354,0.5007879 -0.05119,1.6125689 l 0.01762,1.586215 0.919879,0.557524 c 0.505934,0.306638 0.925077,0.560237 0.931429,0.563553 0.0064,0.0033 0.03107,0.153173 0.05493,0.333019 l 0.04338,0.326992 -2.9536035,0 -2.9536038,0 0.043377,-0.326992 0,0 z"
       id="path3031"
       inkscape:connector-curvature="0"
       transform="translate(0,1034.3622)" />
    <path
       style="opacity:0.17720002;fill:#0000ff;fill-opacity:1;stroke:#000000;stroke-width:0.00625;stroke-miterlimit:4;stroke-opacity:1;stroke-dasharray:none"
       d="m 7.098875,14.723841 c 0.018593,-0.111719 0.045601,-0.259375 0.060019,-0.328125 0.017245,-0.08223 0.3309974,-0.308232 0.9170298,-0.660547 L 8.9667394,13.199623 9.017752,12.895345 C 9.0760441,12.547647 9.0518878,10.020731 8.9896792,9.9587297 8.9509086,9.9200885 7.7881584,10.095133 4.9868034,10.561337 4.3095379,10.674047 3.7354449,10.746299 3.7110411,10.721895 3.6466545,10.657508 3.6727385,10.238142 3.7466706,10.149059 3.839559,10.037135 4.8556468,9.4507335 6.9994453,8.2718262 8.0478828,7.6952745 8.931266,7.2001544 8.9625192,7.1715593 8.9937723,7.1429642 9.0687454,6.3352373 9.129126,5.3766105 9.279712,2.9858466 9.3172415,2.7803637 9.670704,2.411341 c 0.405869,-0.4237367 0.916349,0.023622 1.045065,0.9158434 0.02432,0.1685576 0.09361,1.0907993 0.153996,2.0494261 0.06038,0.9586268 0.135353,1.7663537 0.166607,1.7949488 0.03125,0.028595 0.914636,0.5237152 1.963073,1.1002669 2.143799,1.1789073 3.159887,1.7653088 3.252775,1.8772328 0.07393,0.08908 0.100016,0.508449 0.03563,0.572836 -0.0244,0.0244 -0.598497,-0.04785 -1.275763,-0.160558 -2.801355,-0.466204 -3.964105,-0.6412485 -4.002875,-0.6026073 -0.06221,0.062001 -0.08636,2.5889173 -0.02807,2.9366153 l 0.05101,0.304278 0.890816,0.535546 c 0.586032,0.352315 0.899785,0.578314 0.91703,0.660547 0.01442,0.06875 0.04143,0.216406 0.06002,0.328125 l 0.03381,0.203125 -2.9343747,0 -2.934375,0 0.033805,-0.203125 z"
       id="path3033"
       inkscape:connector-curvature="0"
       transform="translate(0,1034.3622)" />
  </g>
</svg>
