<?xml version="1.0" encoding="UTF-8" standalone="no"?>
<!-- Created with Inkscape (http://www.inkscape.org/) -->

<svg
   xmlns:dc="http://purl.org/dc/elements/1.1/"
   xmlns:cc="http://creativecommons.org/ns#"
   xmlns:rdf="http://www.w3.org/1999/02/22-rdf-syntax-ns#"
   xmlns:svg="http://www.w3.org/2000/svg"
   xmlns="http://www.w3.org/2000/svg"
   xmlns:sodipodi="http://sodipodi.sourceforge.net/DTD/sodipodi-0.dtd"
   xmlns:inkscape="http://www.inkscape.org/namespaces/inkscape"
   width="12"
   height="12"
   id="svg4764"
   version="1.1"
   inkscape:version="0.48.4 r9939"
   sodipodi:docname="bus-12.svg">
  <defs
     id="defs4766" />
  <sodipodi:namedview
     id="base"
     pagecolor="#ffffff"
     bordercolor="#666666"
     borderopacity="1.0"
     inkscape:pageopacity="0.0"
     inkscape:pageshadow="2"
     inkscape:zoom="22.627417"
     inkscape:cx="8.7068106"
     inkscape:cy="4.7770366"
     inkscape:document-units="px"
     inkscape:current-layer="layer1"
     showgrid="true"
     showguides="true"
     inkscape:guide-bbox="true"
     inkscape:window-width="957"
     inkscape:window-height="704"
     inkscape:window-x="182"
     inkscape:window-y="9"
     inkscape:window-maximized="0">
    <inkscape:grid
       type="xygrid"
       id="grid4772"
       empspacing="5"
       visible="true"
       enabled="true"
       snapvisiblegridlinesonly="true" />
    <sodipodi:guide
       orientation="0,1"
       position="2,12"
       id="guide4789" />
    <sodipodi:guide
       orientation="1,0"
       position="12,10"
       id="guide4791" />
    <sodipodi:guide
       orientation="0,1"
       position="10,0"
       id="guide4793" />
    <sodipodi:guide
       orientation="1,0"
       position="0,9"
       id="guide4795" />
    <sodipodi:guide
       orientation="0,1"
       position="5,11"
       id="guide4797" />
    <sodipodi:guide
       orientation="1,0"
       position="11,7"
       id="guide4799" />
    <sodipodi:guide
       orientation="0,1"
       position="9,2"
       id="guide4801" />
    <sodipodi:guide
       orientation="1,0"
       position="2,5"
       id="guide4803" />
  </sodipodi:namedview>
  <metadata
     id="metadata4769">
    <rdf:RDF>
      <cc:Work
         rdf:about="">
        <dc:format>image/svg+xml</dc:format>
        <dc:type
           rdf:resource="http://purl.org/dc/dcmitype/StillImage" />
        <dc:title />
      </cc:Work>
    </rdf:RDF>
  </metadata>
  <g
     inkscape:label="Layer 1"
     inkscape:groupmode="layer"
     id="layer1"
     transform="translate(0,-1040.3622)">
    <g
       style="display:inline"
       id="bus-12"
       transform="translate(-126,-106)"
       inkscape:label="bus-12"
       inkscape:export-xdpi="89.996864"
       inkscape:export-ydpi="89.996864">
      <g
         id="g21794">
        <path
           style="opacity:0.3;color:#000000;fill:#ffffff;stroke:#ffffff;stroke-width:2;stroke-linecap:round;stroke-linejoin:round;stroke-miterlimit:4;stroke-opacity:1;stroke-dasharray:none;stroke-dashoffset:0;marker:none;visibility:visible;display:inline;overflow:visible;enable-background:accumulate"
           d="m 131,1147.3622 0,1 -1.5,0 c -0.25,0 -0.5,0.25 -0.5,0.5 l 0,3 0,2.5 0,0.5 0,0.5 1,0 0,1 1,0 0,-1 3,0 0,1 1,0 0,-1 1,0 0,-0.5 0,-0.5 0,-2.5 0,-3 c 0,-0.25 -0.25,-0.5 -0.5,-0.5 l -1.5,0 0,-1 -3,0 z"
           id="path8451"
           inkscape:connector-curvature="0" />
        <path
           sodipodi:nodetypes="ccccccccccccccccccccccccccccccssssssssss"
           style="color:#000000;fill:#444444;fill-opacity:1;fill-rule:nonzero;stroke:none;stroke-width:2;marker:none;visibility:visible;display:inline;overflow:visible;enable-background:accumulate"
           d="m 131,1147.3622 0,1 -1.5,0 c -0.25,0 -0.5,0.25 -0.5,0.5 l 0,3 0,2.5 0,0.5 0,0.5 1,0 0,1 1,0 0,-1 3,0 0,1 1,0 0,-1 1,0 0,-0.5 0,-0.5 0,-2.5 0,-3 c 0,-0.25 -0.25,-0.5 -0.5,-0.5 l -1.5,0 0,-1 z m -1,2 5,0 0,3 -5,0 z m 0.5,4 c 0.277,0 0.5,0.223 0.5,0.5 0,0.277 -0.223,0.5 -0.5,0.5 -0.277,0 -0.5,-0.223 -0.5,-0.5 0,-0.277 0.223,-0.5 0.5,-0.5 z m 4,0 c 0.277,0 0.5,0.223 0.5,0.5 0,0.277 -0.223,0.5 -0.5,0.5 -0.277,0 -0.5,-0.223 -0.5,-0.5 0,-0.277 0.223,-0.5 0.5,-0.5 z"
           id="path8522-6-8-5"
           inkscape:connector-curvature="0" />
      </g>
      <rect
         y="1146.3622"
         x="126"
         height="12.000007"
         width="11.999998"
         id="rect22174"
         style="opacity:0.5;color:#000000;fill:none;stroke:none;stroke-width:2;marker:none;visibility:visible;display:inline;overflow:visible;enable-background:accumulate" />
    </g>
    <path
       style="opacity:0.17720002;fill:#008080;fill-opacity:1;stroke:#000000;stroke-width:0.00441942;stroke-miterlimit:4;stroke-opacity:1;stroke-dasharray:none"
       d="m 4.0399058,9.4724468 0,-0.508233 -0.508233,0 -0.508233,0 0,-3.2526412 c 0,-3.566125 -0.00835,-3.4509556 0.2616495,-3.610446 0.1076455,-0.063588 0.2529061,-0.075398 0.9273635,-0.075398 l 0.7997249,0 0,-0.508233 0,-0.508233 1.4805048,0 1.4805048,0 0,0.508233 0,0.508233 0.7976898,0 c 0.8617595,0 0.9776799,0.024803 1.1181939,0.2392542 0.06603,0.1007743 0.072854,0.4197397 0.072854,3.4052103 l 0,3.2940207 -0.4861359,0 -0.4861359,0 0,0.508233 0,0.508233 -0.4861359,0 -0.4861359,0 0,-0.508233 0,-0.508233 -1.524699,0 -1.524699,0 0,0.508233 0,0.508233 -0.4640388,0 -0.4640389,0 0,-0.508233 z M 4.7726754,7.9408465 C 4.898823,7.8801842 5.0121777,7.6752457 5.0121777,7.5078413 c 0,-0.4736498 -0.5670971,-0.6947095 -0.8914453,-0.3474935 -0.1014086,0.1085581 -0.1250207,0.1740441 -0.1250207,0.3467324 0,0.4095846 0.3828173,0.6233049 0.7769637,0.4337663 z M 8.8128766,7.9060396 C 9.1912468,7.6415932 8.9742057,6.9995817 8.5064355,6.9995817 c -0.3244683,0 -0.5091425,0.1846742 -0.5091425,0.5091426 0,0.4158636 0.4649594,0.6423702 0.8155836,0.3973153 z m 0.2209709,-3.4054373 0,-1.5026019 -2.5190679,0 -2.5190679,0 0,1.5026019 0,1.5026019 2.5190679,0 2.5190679,0 0,-1.5026019 z"
       id="path2996"
       inkscape:connector-curvature="0"
       transform="translate(0,1040.3622)" />
    <path
       style="opacity:0.17720002;fill:#008080;fill-opacity:1;stroke:#000000;stroke-width:0.00441942;stroke-miterlimit:4;stroke-opacity:1;stroke-dasharray:none"
       d="M 4.0708621,9.9527107 C 4.0538362,9.9356844 4.0399058,9.7069588 4.0399058,9.4444313 l 0,-0.4773227 -0.4971844,-0.012496 -0.4971845,-0.012496 0.00943,-3.0935922 c 0.00519,-1.7014757 0.02147,-3.1974854 0.036183,-3.324466 0.048817,-0.4213315 0.059075,-0.4259304 1.0539449,-0.4724808 l 0.864322,-0.040442 0.012428,-0.4898881 0.012428,-0.4898881 1.4584077,0 1.4584077,0 0.012439,0.4911378 0.012439,0.4911377 0.8051529,0.031712 c 0.850801,0.03351 0.9922096,0.065793 1.0773324,0.2459488 0.037998,0.08042 0.055969,0.991301 0.066694,3.3804517 l 0.01468,3.2703689 -0.4736537,0.012529 -0.4736537,0.012529 -0.012482,0.4957035 -0.012482,0.495704 -0.4640388,0 -0.4640388,0 -0.012496,-0.4971845 -0.012496,-0.4971845 -1.5218043,0 -1.5218042,0 L 4.95838,9.4613973 4.945884,9.9585818 4.52385,9.9711238 c -0.2321187,0.0069 -0.4359643,-0.00139 -0.4529903,-0.018414 l 0,0 z M 4.7233997,7.9733266 c 0.1784878,-0.074577 0.288778,-0.2654174 0.288778,-0.4996863 0,-0.1978786 -0.087309,-0.3399001 -0.2656532,-0.4321254 C 4.5119063,6.9201891 4.2146612,6.9919079 4.0646857,7.2060278 3.9617106,7.3530454 3.9753393,7.6889578 4.090204,7.8349846 4.2492139,8.0371328 4.460308,8.0832534 4.7233997,7.9733266 z M 8.8118403,7.9117813 C 9.0695537,7.7212076 9.0908796,7.3792627 8.8594834,7.1478665 8.7017415,6.9901242 8.5404461,6.950421 8.3225582,7.015702 8.1224664,7.075651 8.0176595,7.2119935 7.9895736,7.4488796 7.9649049,7.6569444 8.0397278,7.8039639 8.2389963,7.93897 8.4162405,8.0590544 8.6261558,8.0490913 8.8118403,7.9117813 l 0,0 z m 0.2220072,-3.411179 0,-1.5026019 -2.5190679,0 -2.5190679,0 0,1.5026019 0,1.5026019 2.5190679,0 2.5190679,0 0,-1.5026019 z"
       id="path2998"
       inkscape:connector-curvature="0"
       transform="translate(0,1040.3622)" />
    <path
       style="opacity:0.17720002;fill:#008080;fill-opacity:1;stroke:#000000;stroke-width:0.00441942;stroke-miterlimit:4;stroke-opacity:1;stroke-dasharray:none"
       d="M 4.0841,9.4550781 C 4.0841,9.0568661 4.072019,8.9690345 4.014194,8.9468451 3.975746,8.9320909 3.7437716,8.9200197 3.4986956,8.9200197 l -0.4455929,0 0.029592,-3.2151262 c 0.016275,-1.7683194 0.04569,-3.2747883 0.065365,-3.3477086 0.020149,-0.074675 0.084008,-0.1560389 0.1462104,-0.1862873 0.06116,-0.029742 0.4582608,-0.072362 0.8899538,-0.095518 0.4287342,-0.022997 0.8003588,-0.054694 0.8258325,-0.070437 0.027507,-0.017 0.046316,-0.2160156 0.046316,-0.4900553 l 0,-0.4614307 1.4363107,0 1.4363106,0 0,0.4614307 c 0,0.2811697 0.018544,0.4728914 0.047469,0.4907679 0.026108,0.016136 0.3944197,0.046245 0.8184708,0.066909 0.8505474,0.041448 0.9871626,0.078773 1.0417729,0.2846204 0.019345,0.07292 0.048742,1.5793892 0.065326,3.3477086 l 0.030152,3.2151262 -0.4403296,0 c -0.2835524,0 -0.459211,0.018882 -0.4933621,0.053033 -0.034383,0.034383 -0.053033,0.213114 -0.053033,0.508233 l 0,0.4552 -0.4419417,0 -0.4419417,0 0,-0.4383271 c 0,-0.2410801 -0.012071,-0.469785 -0.026826,-0.508233 -0.023739,-0.061864 -0.2011334,-0.069906 -1.5420677,-0.069906 -1.3409342,0 -1.5183283,0.00804 -1.5420678,0.069906 -0.014754,0.038448 -0.026825,0.2671529 -0.026825,0.508233 l 0,0.4383271 -0.4198446,0 -0.4198447,0 0,-0.4814076 z M 4.888019,7.8643402 C 4.9887961,7.7515509 5.0121777,7.6840319 5.0121777,7.5058061 5.0121777,7.1911511 4.8522001,7.0168024 4.5355635,6.9863778 4.3205358,6.9657166 4.2982125,6.9734957 4.1514892,7.120219 4.0188681,7.25284 3.9957117,7.305907 3.9957117,7.4772103 c 0,0.3945748 0.1814401,0.5740832 0.5498024,0.5439494 C 4.7224235,8.0066879 4.7874225,7.9769271 4.888019,7.8643402 z M 8.7418482,7.9691308 C 9.0782268,7.8095085 9.1266142,7.3833083 8.8383497,7.1191336 8.3690394,6.6890425 7.6819923,7.3297356 8.0911168,7.8159524 8.2800849,8.0405282 8.4881683,8.0895099 8.7418482,7.9691308 z m 0.3140964,-3.4685285 0,-1.524699 -2.541165,0 -2.541165,0 -0.011658,1.4801906 c -0.00641,0.8141049 -0.002,1.5053543 0.0098,1.5361099 0.017031,0.044381 0.5437878,0.053565 2.5528227,0.044508 l 2.5313644,-0.011411 0,-1.524699 z"
       id="path3000"
       inkscape:connector-curvature="0"
       transform="translate(0,1040.3622)" />
    <path
       style="opacity:0.17720002;fill:#008080;fill-opacity:1;stroke:#000000;stroke-width:0.00441942;stroke-miterlimit:4;stroke-opacity:1;stroke-dasharray:none"
       d="M 4.106173,9.882974 C 4.0948014,9.8516386 4.0802111,9.6271265 4.0737501,9.3840585 L 4.0620029,8.9421168 3.5648185,8.9296209 3.067634,8.917125 3.0687972,8.5318733 C 3.0748456,6.5286044 3.1606121,2.3648952 3.1972379,2.2964593 3.2574735,2.183908 3.3419699,2.1671351 4.223823,2.0926781 4.6412567,2.0574332 4.9985709,2.0128188 5.0178548,1.993535 5.0371385,1.9742512 5.0586656,1.7598166 5.0656926,1.5170137 l 0.012776,-0.4414599 1.4142136,0 1.4142136,0 0.012777,0.4414599 c 0.00703,0.2428029 0.029194,0.4578779 0.049261,0.4779444 0.020067,0.020066 0.3937223,0.064339 0.8303466,0.098383 0.8657166,0.067502 0.9225287,0.0792 0.9891492,0.2036819 0.03633,0.067883 0.1202015,4.1823433 0.1280248,6.2804913 l 0.00128,0.3425049 -0.4365306,0 c -0.3052943,0 -0.4509313,0.017352 -0.4844318,0.057718 -0.026346,0.031745 -0.05364,0.2554781 -0.060654,0.4971845 l -0.012752,0.4394664 -0.4198447,0 -0.4198447,0 -0.022097,-0.4861359 -0.022097,-0.4861359 -1.5467961,0 -1.5467961,0 -0.022097,0.4861359 -0.022097,0.4861359 -0.3874217,0.01278 C 4.2288341,9.9365838 4.121406,9.9249497 4.106173,9.882974 l 0,0 z M 4.8619175,7.885876 C 4.9887978,7.7589959 5.0121777,7.7043078 5.0121777,7.534402 c 0,-0.3732486 -0.177744,-0.558926 -0.535045,-0.558926 -0.1537867,0 -0.2176971,0.026893 -0.335686,0.1412521 -0.1323166,0.1282462 -0.145735,0.1651815 -0.145735,0.401147 0,0.228327 0.015691,0.2755865 0.1291829,0.389078 0.1095097,0.1095096 0.1640254,0.1291831 0.3579729,0.1291831 0.2012668,0 0.2468658,-0.018076 0.37905,-0.1502602 z M 8.7643143,7.972104 C 8.9387284,7.8819109 9.0338475,7.716067 9.0338475,7.5021619 9.0338475,7.3478946 9.0064895,7.2912726 8.8622702,7.1470533 8.7114554,6.9962389 8.665463,6.975476 8.4822003,6.975476 c -0.1781838,0 -0.230336,0.021843 -0.3587528,0.1502602 -0.1256759,0.1256759 -0.1500039,0.1817141 -0.1486939,0.3425049 0.00188,0.2312831 0.071005,0.3675214 0.2444817,0.4818782 0.1541082,0.1015887 0.3739914,0.1104572 0.545079,0.021984 z m 0.3137274,-3.4715014 0,-1.5467961 -2.5632621,0 -2.5632621,0 0,1.5173333 c 0,0.8345333 0.013258,1.5305917 0.029463,1.5467959 0.016204,0.016205 1.1696724,0.029463 2.5632621,0.029463 l 2.5337993,0 0,-1.5467961 z"
       id="path3002"
       inkscape:connector-curvature="0"
       transform="translate(0,1040.3622)" />
    <path
       style="opacity:0.17720002;fill:#008080;fill-opacity:1;stroke:#000000;stroke-width:0.00441942;stroke-miterlimit:4;stroke-opacity:1;stroke-dasharray:none"
       d="M 4.1124928,9.6206436 C 4.0968768,9.4712373 4.0841,9.2524761 4.0841,9.1345077 l 0,-0.214488 -0.4529903,-6.766e-4 C 3.3819651,8.9189895 3.1570025,8.9040554 3.1311929,8.8861974 3.0833167,8.8530712 3.1130222,5.3806153 3.1792107,3.2731168 3.206408,2.4071311 3.2192656,2.2838087 3.2860847,2.2480482 c 0.041777,-0.022358 0.4506027,-0.081577 0.9085026,-0.1315971 0.4578999,-0.05002 0.8387848,-0.097186 0.8464109,-0.1048117 0.00763,-0.00763 0.027138,-0.2163934 0.04336,-0.4639271 l 0.029494,-0.4500614 1.3791555,0 1.3791554,0 0.031133,0.4520253 c 0.017123,0.2486139 0.037154,0.4580458 0.044512,0.4654042 0.00736,0.00736 0.3982611,0.0526 0.8686732,0.1005363 0.5140304,0.052382 0.8772212,0.1091458 0.9102488,0.1422657 0.057899,0.05806 0.1312276,2.5765035 0.1547318,5.314215 l 0.011383,1.3258252 -0.4253742,0.012599 c -0.2775112,0.00822 -0.4416572,0.032219 -0.4722174,0.069042 -0.025764,0.031043 -0.060386,0.2491067 -0.076939,0.4845851 l -0.030095,0.4281426 -0.3874993,0 -0.3874999,0 -0.031508,-0.4861359 -0.031508,-0.4861359 -1.5575216,0 -1.5575218,0 -0.031508,0.4861359 -0.031508,0.4861359 -0.3656298,0 -0.3656297,0 -0.028393,-0.2716479 0,0 z M 4.8664427,7.8948841 c 0.1323165,-0.1282462 0.145735,-0.1651815 0.145735,-0.401147 0,-0.228327 -0.015691,-0.2755864 -0.129183,-0.389078 C 4.7716956,6.9933601 4.7203381,6.975476 4.512018,6.975476 c -0.2058273,0 -0.2622104,0.019072 -0.3790501,0.1282166 -0.097228,0.090825 -0.1386219,0.1713766 -0.1419392,0.2762136 -0.010587,0.3345839 0.010287,0.4141865 0.1402127,0.534696 0.1079416,0.1001188 0.1714194,0.121534 0.360248,0.121534 0.1979526,0 0.2490966,-0.019267 0.3749533,-0.1412521 z M 8.8835873,7.885876 C 9.0138456,7.7556177 9.0336517,7.7070836 9.0323771,7.5212741 9.0301365,7.1947317 8.8030836,6.975476 8.4671673,6.975476 c -0.1610874,0 -0.218603,0.025143 -0.3437198,0.1502602 -0.1279443,0.1279444 -0.1502602,0.1808841 -0.1502602,0.3564587 0,0.1134094 0.021157,0.2457302 0.047015,0.2940464 0.076223,0.1424246 0.3111141,0.2595493 0.5208804,0.2597296 0.1598208,1.326e-4 0.2175874,-0.025177 0.3425049,-0.1500949 l 0,0 z m 0.1944544,-3.3852737 0,-1.5467961 -2.5632621,0 -2.5632621,0 0,1.5467961 0,1.5467961 2.5632621,0 2.5632621,0 0,-1.5467961 z"
       id="path3004"
       inkscape:connector-curvature="0"
       transform="translate(0,1040.3622)" />
  </g>
</svg>
