<?xml version="1.0" encoding="UTF-8" standalone="no"?>
<!-- Created with Inkscape (http://www.inkscape.org/) -->

<svg
   xmlns:dc="http://purl.org/dc/elements/1.1/"
   xmlns:cc="http://creativecommons.org/ns#"
   xmlns:rdf="http://www.w3.org/1999/02/22-rdf-syntax-ns#"
   xmlns:svg="http://www.w3.org/2000/svg"
   xmlns="http://www.w3.org/2000/svg"
   xmlns:sodipodi="http://sodipodi.sourceforge.net/DTD/sodipodi-0.dtd"
   xmlns:inkscape="http://www.inkscape.org/namespaces/inkscape"
   width="12"
   height="12"
   id="svg4764"
   version="1.1"
   inkscape:version="0.48.4 r9939"
   sodipodi:docname="cafe-12.svg">
  <defs
     id="defs4766" />
  <sodipodi:namedview
     id="base"
     pagecolor="#ffffff"
     bordercolor="#666666"
     borderopacity="1.0"
     inkscape:pageopacity="0.0"
     inkscape:pageshadow="2"
     inkscape:zoom="11.313709"
     inkscape:cx="5.6084938"
     inkscape:cy="5.0524314"
     inkscape:document-units="px"
     inkscape:current-layer="layer1"
     showgrid="true"
     showguides="true"
     inkscape:guide-bbox="true"
     inkscape:window-width="957"
     inkscape:window-height="704"
     inkscape:window-x="115"
     inkscape:window-y="-12"
     inkscape:window-maximized="0"
     inkscape:snap-bbox="true"
     inkscape:snap-nodes="false">
    <inkscape:grid
       type="xygrid"
       id="grid4772"
       empspacing="5"
       visible="true"
       enabled="true"
       snapvisiblegridlinesonly="true"
       spacingx="1px"
       spacingy="1px" />
    <sodipodi:guide
       orientation="0,1"
       position="2,12"
       id="guide4789" />
    <sodipodi:guide
       orientation="1,0"
       position="12,10"
       id="guide4791" />
    <sodipodi:guide
       orientation="0,1"
       position="10,0"
       id="guide4793" />
    <sodipodi:guide
       orientation="1,0"
       position="0,9"
       id="guide4795" />
    <sodipodi:guide
       orientation="0,1"
       position="5,11"
       id="guide4797" />
    <sodipodi:guide
       orientation="1,0"
       position="11,7"
       id="guide4799" />
    <sodipodi:guide
       orientation="0,1"
       position="9,2"
       id="guide4801" />
    <sodipodi:guide
       orientation="1,0"
       position="2,5"
       id="guide4803" />
  </sodipodi:namedview>
  <metadata
     id="metadata4769">
    <rdf:RDF>
      <cc:Work
         rdf:about="">
        <dc:format>image/svg+xml</dc:format>
        <dc:type
           rdf:resource="http://purl.org/dc/dcmitype/StillImage" />
        <dc:title />
      </cc:Work>
    </rdf:RDF>
  </metadata>
  <g
     inkscape:label="Layer 1"
     inkscape:groupmode="layer"
     id="layer1"
     transform="translate(0,-1040.3622)">
    <g
       style="display:inline"
       id="cafe-12"
       inkscape:label="cafe-12"
       transform="translate(-360,-33.999983)"
       inkscape:export-xdpi="89.996864"
       inkscape:export-ydpi="89.996864">
      <g
         id="g21598">
        <path
           style="opacity:0.3;color:#000000;fill:#ffffff;fill-opacity:1;fill-rule:nonzero;stroke:#ffffff;stroke-width:2;stroke-linecap:butt;stroke-linejoin:round;stroke-miterlimit:4;stroke-opacity:1;stroke-dasharray:none;stroke-dashoffset:0;marker:none;visibility:visible;display:inline;overflow:visible;enable-background:accumulate"
           d="m 363.5,1076.3622 c -0.27701,0 -0.5,0.223 -0.5,0.5 l 0,4.5 c 0,0.277 0.22299,0.5 0.5,0.5 l 5,0 c 0.277,0 0.5,-0.223 0.5,-0.5 l 0,-0.5 0.25,0 c 0.25,0 0.25,-0.25 0.25,-0.25 l 0,-0.25 0.5,0 c 0.5,0 1,-0.5 1,-1 l 0,-0.5 0,-1 c 0,-0.25 -0.25,-0.5 -0.5,-0.5 l -1.5,0 0,-0.5 c 0,-0.277 -0.223,-0.5 -0.5,-0.5 z m 5.5,1.5 1.25,0 c 0.25,0 0.25,0.25 0.25,0.25 l 0,1.25 c 0,0.25 -0.25,0.5 -0.5,0.5 l -0.5,0 -0.5,0 z m -7,4.5 1.5,1.5 5,0 1.5,-1.5 z"
           id="path14854"
           inkscape:connector-curvature="0"
           sodipodi:nodetypes="sssssscsccsscsscssscccsscccccccc" />
        <path
           sodipodi:nodetypes="sssssscsccsscsscssscccsscccccccc"
           inkscape:connector-curvature="0"
           id="rect9826-2-1-5"
           d="m 363.5,1076.3622 c -0.27701,0 -0.5,0.223 -0.5,0.5 l 0,4.5 c 0,0.277 0.22299,0.5 0.5,0.5 l 5,0 c 0.277,0 0.5,-0.223 0.5,-0.5 l 0,-0.5 0.25,0 c 0.25,0 0.25,-0.25 0.25,-0.25 l 0,-0.25 0.5,0 c 0.5,0 1,-0.5 1,-1 l 0,-0.5 0,-1 c 0,-0.25 -0.25,-0.5 -0.5,-0.5 l -1.5,0 0,-0.5 c 0,-0.277 -0.223,-0.5 -0.5,-0.5 z m 5.5,1.5 1.25,0 c 0.25,0 0.25,0.25 0.25,0.25 l 0,1.25 c 0,0.25 -0.25,0.5 -0.5,0.5 l -0.5,0 -0.5,0 z m -7,4.5 2,1 4,0 2,-1 z"
           style="color:#000000;fill:#444444;fill-opacity:1;fill-rule:nonzero;stroke:none;stroke-width:2;marker:none;visibility:visible;display:inline;overflow:visible;enable-background:accumulate" />
      </g>
      <rect
         style="opacity:0.5;color:#000000;fill:none;stroke:none;stroke-width:2;marker:none;visibility:visible;display:inline;overflow:visible;enable-background:accumulate"
         id="rect22292-9"
         width="11.999998"
         height="12.000007"
         x="360"
         y="1074.3622" />
    </g>
    <path
       style="opacity:0.17720002;fill:#803300;fill-opacity:1;stroke:#000000;stroke-width:0.00883883;stroke-miterlimit:4;stroke-opacity:1;stroke-dasharray:none"
       d="M 3.1866532,7.3187996 C 3.1092576,7.2414041 3.0805872,6.550242 3.0805872,4.7618512 c 0,-2.1102239 0.019306,-2.4701883 0.1388959,-2.5897785 0.1200664,-0.1200664 0.4966584,-0.138896 2.7779194,-0.138896 2.9560487,0 2.9168154,-0.0083 2.9168154,0.6167492 l 0,0.3389573 0.8911301,0.03038 c 1.129976,0.038522 1.141802,0.051416 1.141802,1.2449054 0,1.250567 -0.269345,1.6580955 -1.0958737,1.6580955 -0.3651886,0 -0.3970964,0.018337 -0.4229545,0.243068 -0.021967,0.190916 -0.08012,0.2490687 -0.271036,0.2710359 -0.2224847,0.0256 -0.2430679,0.059656 -0.2430679,0.402167 0,0.2058094 -0.04773,0.4219286 -0.1060661,0.4802649 C 8.7302778,7.3966739 7.983194,7.424866 5.9974025,7.424866 4.011611,7.424866 3.2645274,7.396674 3.1866532,7.3187999 z M 10.36473,5.3984868 c 0.121912,-0.1011784 0.142185,-0.2706409 0.121327,-1.0141893 l -0.02504,-0.8927131 -0.7733981,-0.025538 -0.773398,-0.025538 0,1.0051758 c 0,0.5528467 0.029831,1.0354145 0.066291,1.0723728 0.1076504,0.1091212 1.2249571,0.012608 1.3842211,-0.1195695 l 0,0 z"
       id="path2996"
       inkscape:connector-curvature="0"
       transform="translate(0,1040.3622)" />
    <path
       style="opacity:0.17720002;fill:#803300;fill-opacity:1;stroke:#000000;stroke-width:0.00883883;stroke-miterlimit:4;stroke-opacity:1;stroke-dasharray:none"
       d="M 4.4965127,7.355867 C 3.8411708,7.3422245 3.2712404,7.2973208 3.2300007,7.2560811 3.1162875,7.1423679 3.1349665,2.4016273 3.2496723,2.2634153 3.3674304,2.1215254 6.0571121,2.0279585 7.6580467,2.1100595 c 1.1838076,0.060709 1.2523438,0.093252 1.2548177,0.5958152 0.00131,0.2654512 0.017385,0.2768761 0.4653923,0.330688 0.2552213,0.030656 0.6254793,0.056083 0.8227953,0.056506 0.613059,0.00131 0.675578,0.104515 0.672943,1.1108475 -0.0034,1.2989449 -0.156924,1.5648754 -0.9658203,1.6729789 C 9.5218075,5.9285302 9.4350756,5.9734234 9.3922822,6.143926 9.3633598,6.2591623 9.251911,6.3712062 9.1376951,6.3998726 8.9757856,6.4405093 8.9222595,6.5328173 8.8740019,6.8546224 8.8407004,7.0766925 8.7665199,7.2728435 8.7091562,7.2905138 8.5455545,7.3409095 5.813782,7.383289 4.4965127,7.355867 l 0,0 z M 10.361784,5.4009314 c 0.115446,-0.095812 0.143424,-0.2979619 0.143424,-1.0362863 l 0,-0.9172549 -0.7954951,0 -0.795495,0 0,1.0017345 c 0,0.5509541 0.029831,1.0319733 0.066291,1.0689316 0.1065638,0.1080198 1.2241811,0.013252 1.3812751,-0.1171249 z"
       id="path2998"
       inkscape:connector-curvature="0"
       transform="translate(0,1040.3622)" />
    <path
       style="opacity:0.17720002;fill:#803300;fill-opacity:1;stroke:#000000;stroke-width:0.00883883;stroke-miterlimit:4;stroke-opacity:1;stroke-dasharray:none"
       d="M 3.6405562,7.2721274 3.2724477,7.2386617 3.2080737,6.4699773 C 3.120407,5.4231559 3.2335883,2.3676628 3.3629938,2.2876859 3.6492108,2.110794 8.2422968,2.0781193 8.6607257,2.2499984 c 0.081735,0.033575 0.1680061,0.2077855 0.1990566,0.4019647 0.053196,0.3326704 0.067094,0.3441958 0.4744631,0.3934829 1.4843056,0.179584 1.3837486,0.1419773 1.4692776,0.5494886 0.04254,0.2026834 0.0492,0.668845 0.0148,1.0359147 C 10.73971,5.4698147 10.579537,5.695942 9.9715283,5.8263366 9.430253,5.9424194 8.9679445,6.3667607 8.8317636,6.8724981 l -0.09395,0.3489044 -0.8619724,0.05708 c -0.8790926,0.058214 -3.5694583,0.054177 -4.2352848,-0.00636 l 0,-1e-7 z M 10.4192,5.3911088 c 0.04582,-0.072467 0.08391,-0.536626 0.08465,-1.0314653 l 0.0014,-0.8997076 -0.795698,-0.02837 -0.795698,-0.02837 2.029e-4,1.0921162 2.03e-4,1.0921162 0.7108404,-0.032281 C 10.131655,5.5321417 10.359834,5.4850089 10.4192,5.3911088 l 0,0 z"
       id="path3000"
       inkscape:connector-curvature="0"
       transform="translate(0,1040.3622)" />
    <path
       style="opacity:0.17720002;fill:#803300;fill-opacity:1;stroke:#000000;stroke-width:0.00883883;stroke-miterlimit:4;stroke-opacity:1;stroke-dasharray:none"
       d="m 3.3030268,7.1620771 c -0.07081,-0.1145735 -0.065263,-3.7074174 0.00671,-4.343542 0.055785,-0.4930773 0.061318,-0.5011834 0.3777733,-0.5535209 0.4180646,-0.069142 4.5921556,-0.068736 4.8503828,4.716e-4 0.137054,0.036732 0.2266483,0.1587863 0.2904296,0.3956517 0.1015677,0.3771939 0.081398,0.3681428 1.138125,0.5107428 0.3599625,0.048575 0.6874955,0.1403803 0.7278505,0.2040113 0.04035,0.063631 0.07392,0.4537782 0.07459,0.8669937 0.0017,1.0378277 -0.141681,1.3112049 -0.8120102,1.5484373 C 9.3533962,6.0048949 8.979883,6.3393606 8.8267773,6.8032755 8.7552303,7.020065 8.6454308,7.1636161 8.5268072,7.1954543 8.1941915,7.2847275 3.359738,7.2538378 3.3030268,7.1620771 l 0,0 z M 10.350528,5.4670877 c 0.132789,-0.069857 0.15468,-0.2168985 0.15468,-1.0389706 l 0,-0.957597 -0.331456,-0.054786 C 9.6549482,3.3299808 8.9304497,3.349619 8.8677091,3.4511351 c -0.031318,0.050673 -0.029086,0.5588429 0.00496,1.1292658 l 0.061901,1.0371323 0.6306393,-0.034536 c 0.346852,-0.018995 0.7002456,-0.071154 0.7853186,-0.1159096 z"
       id="path3002"
       inkscape:connector-curvature="0"
       transform="translate(0,1040.3622)" />
    <path
       style="opacity:0.17720002;fill:#803300;fill-opacity:1;stroke:#000000;stroke-width:0.00883883;stroke-miterlimit:4;stroke-opacity:1;stroke-dasharray:none"
       d="M 4.2193486,7.1787395 3.3693722,7.1535841 3.3095549,6.6484094 C 3.22181,5.9073784 3.350886,2.4925031 3.4703893,2.3933242 3.5919568,2.2924321 6.4098991,2.2256994 7.7134185,2.2928435 l 0.9647152,0.049692 0.099074,0.2952304 c 0.1255761,0.3742044 0.2352665,0.4323199 1.0426311,0.5524005 0.3625702,0.053926 0.7080792,0.1282433 0.7677952,0.1651503 0.135429,0.083699 0.150424,1.5389426 0.01917,1.85984 -0.06971,0.1704206 -0.09167,-0.00612 -0.09599,-0.7717141 C 10.5043,3.2898121 10.543856,3.3310267 9.4868933,3.3765989 L 8.8700237,3.403196 8.8420674,4.0661086 c -0.015376,0.3646019 -0.00203,0.8760839 0.029666,1.1366266 L 8.9293558,5.6764493 9.6067965,5.6247484 10.284237,5.5730475 9.8268863,5.7946612 C 9.3623162,6.019773 8.9869746,6.3866754 8.7250572,6.8717168 L 8.5800907,7.1401783 7.2224553,7.1957159 C 6.4757559,7.2262616 5.6858336,7.2405978 5.4670725,7.2275741 5.2483113,7.2145505 4.6868356,7.1925749 4.2193486,7.1787395 z"
       id="path3004"
       inkscape:connector-curvature="0"
       transform="translate(0,1040.3622)" />
    <path
       style="opacity:0.17720002;fill:#803300;fill-opacity:1;stroke:#000000;stroke-width:0.00883883;stroke-miterlimit:4;stroke-opacity:1;stroke-dasharray:none"
       d="M 3.3756524,7.021741 C 3.2735779,6.7557391 3.3956201,2.5666719 3.5087397,2.4535522 3.6314185,2.3308735 7.3583006,2.2381814 8.1568134,2.337949 8.6029124,2.393685 8.6522612,2.42334 8.7992223,2.7239829 8.949815,3.0320554 8.9942126,3.0568028 9.6213246,3.1822252 L 10.284237,3.3148077 9.5524196,3.3405217 8.820602,3.3662357 8.845313,4.4895703 8.870024,5.6129048 9.4445482,5.6570988 10.019072,5.7012928 9.7327647,5.8221062 C 9.4140319,5.9566021 8.9099856,6.4754094 8.6959774,6.8892555 l -0.1398525,0.2704451 -2.5637663,0 c -2.2417772,0 -2.570415,-0.017327 -2.6167062,-0.1379596 z"
       id="path3006"
       inkscape:connector-curvature="0"
       transform="translate(0,1040.3622)" />
    <path
       style="opacity:0.17720002;fill:#803300;fill-opacity:1;stroke:#000000;stroke-width:0.00883883;stroke-miterlimit:4;stroke-opacity:1;stroke-dasharray:none"
       d="m 3.0805872,8.4855258 -0.8396893,-0.432962 3.7565046,0 3.7565046,0 -0.8396892,0.432962 -0.8396893,0.432962 -2.0771261,0 -2.0771261,0 -0.8396892,-0.432962 z"
       id="path3008"
       inkscape:connector-curvature="0"
       transform="translate(0,1040.3622)" />
    <path
       style="opacity:0.17720002;fill:#803300;fill-opacity:1;stroke:#000000;stroke-width:0.00883883;stroke-miterlimit:4;stroke-opacity:1;stroke-dasharray:none"
       d="M 3.1689755,8.4855258 2.5060629,8.140721 l 3.4913396,0 3.4913396,0 -0.6629126,0.3448048 -0.6629126,0.3448047 -2.1655144,0 -2.1655144,0 -0.6629126,-0.3448047 z"
       id="path3010"
       inkscape:connector-curvature="0"
       transform="translate(0,1040.3622)" />
    <path
       style="opacity:0.17720002;fill:#803300;fill-opacity:1;stroke:#000000;stroke-width:0.00883883;stroke-miterlimit:4;stroke-opacity:1;stroke-dasharray:none"
       d="M 3.2573639,8.4855258 2.771228,8.2287006 l 3.2261745,0 3.2261746,0 -0.4861359,0.2568252 -0.4861359,0.2568251 -2.2539028,0 -2.2539028,0 -0.4861358,-0.2568251 z"
       id="path3012"
       inkscape:connector-curvature="0"
       transform="translate(0,1040.3622)" />
    <path
       style="opacity:0.17720002;fill:#803300;fill-opacity:1;stroke:#000000;stroke-width:0.00883883;stroke-miterlimit:4;stroke-opacity:1;stroke-dasharray:none"
       d="M 3.301558,8.5035074 2.8596163,8.2645549 4.4285094,8.2404183 c 0.8628912,-0.013275 2.274895,-0.013275 3.1377862,0 L 9.1351887,8.2645549 8.6740883,8.5076229 8.2129878,8.7506908 5.9782438,8.7465753 3.7434997,8.7424598 3.301558,8.5035074 z"
       id="path3014"
       inkscape:connector-curvature="0"
       transform="translate(0,1040.3622)" />
    <path
       style="opacity:0.17720002;fill:#803300;fill-opacity:1;stroke:#000000;stroke-width:0.00883883;stroke-miterlimit:4;stroke-opacity:1;stroke-dasharray:none"
       d="m 4.826257,8.6846297 c 0.64413,-0.015102 1.698161,-0.015102 2.3422911,0 0.64413,0.015102 0.1171145,0.027458 -1.1711456,0.027458 -1.2882601,0 -1.8152756,-0.012356 -1.1711455,-0.027458 z"
       id="path3016"
       inkscape:connector-curvature="0"
       transform="translate(0,1040.3622)" />
    <path
       style="opacity:0.17720002;fill:#803300;fill-opacity:1;stroke:#000000;stroke-width:0.00883883;stroke-miterlimit:4;stroke-opacity:1;stroke-dasharray:none"
       d="m 5.2681987,8.684931 c 0.4010621,-0.016378 1.0573455,-0.016378 1.4584076,0 0.4010622,0.016378 0.07292,0.029778 -0.7292038,0.029778 -0.8021242,0 -1.1302659,-0.0134 -0.7292038,-0.029778 z"
       id="path3018"
       inkscape:connector-curvature="0"
       transform="translate(0,1040.3622)" />
    <path
       style="opacity:0.17720002;fill:#803300;fill-opacity:1;stroke:#000000;stroke-width:0.00883883;stroke-miterlimit:4;stroke-opacity:1;stroke-dasharray:none"
       d="m 5.5333637,8.6855272 c 0.2552214,-0.017855 0.6728563,-0.017855 0.9280776,0 0.2552214,0.017855 0.046404,0.032463 -0.4640388,0.032463 -0.5104427,0 -0.7192601,-0.014608 -0.4640388,-0.032463 z"
       id="path3020"
       inkscape:connector-curvature="0"
       transform="translate(0,1040.3622)" />
    <path
       style="opacity:0.17720002;fill:#803300;fill-opacity:1;stroke:#000000;stroke-width:0.00883883;stroke-miterlimit:4;stroke-opacity:1;stroke-dasharray:none"
       d="m 5.5333637,8.6855272 c 0.2552214,-0.017855 0.6728563,-0.017855 0.9280776,0 0.2552214,0.017855 0.046404,0.032463 -0.4640388,0.032463 -0.5104427,0 -0.7192601,-0.014608 -0.4640388,-0.032463 z"
       id="path3022"
       inkscape:connector-curvature="0"
       transform="translate(0,1040.3622)" />
    <path
       style="opacity:0.17720002;fill:#803300;fill-opacity:1;stroke:#000000;stroke-width:0.00883883;stroke-miterlimit:4;stroke-opacity:1;stroke-dasharray:none"
       d=""
       id="path3024"
       inkscape:connector-curvature="0"
       transform="translate(0,1040.3622)" />
    <path
       style="opacity:0.17720002;fill:#803300;fill-opacity:1;stroke:#000000;stroke-width:0.00883883;stroke-miterlimit:4;stroke-opacity:1;stroke-dasharray:none"
       d="m 3.3457522,8.4855258 -0.3093592,-0.169367 2.9610095,0 2.9610095,0 -0.3093592,0.169367 c -0.2828497,0.1548537 -0.5100737,0.169367 -2.6516503,0.169367 -2.1415765,0 -2.3688006,-0.014513 -2.6516503,-0.169367 z"
       id="path3026"
       inkscape:connector-curvature="0"
       transform="translate(0,1040.3622)" />
    <path
       style="opacity:0.17720002;fill:#803300;fill-opacity:1;stroke:#000000;stroke-width:0.00883883;stroke-miterlimit:4;stroke-opacity:1;stroke-dasharray:none"
       d="M 3.4341405,8.5041632 C 3.12732,8.3541842 3.1365681,8.352744 4.5610919,8.3286567 c 0.7899708,-0.013358 2.0826504,-0.013358 2.8726212,0 L 8.8700237,8.3529433 8.5414063,8.5076229 C 8.25482,8.6425186 7.9269723,8.66186 5.9781444,8.6588428 4.05355,8.6558631 3.7005771,8.6344018 3.4341405,8.5041632 z"
       id="path3028"
       inkscape:connector-curvature="0"
       transform="translate(0,1040.3622)" />
    <path
       style="opacity:0.17720002;fill:#803300;fill-opacity:1;stroke:#000000;stroke-width:0.00883883;stroke-miterlimit:4;stroke-opacity:1;stroke-dasharray:none"
       d="m 5.0081026,8.5962356 c 0.5983044,-0.015314 1.5528985,-0.015267 2.1213203,1.052e-4 0.5684217,0.015372 0.0789,0.027902 -1.0878262,0.027844 C 4.8748705,8.624127 4.4097982,8.6115498 5.0081026,8.5962358 z"
       id="path3030"
       inkscape:connector-curvature="0"
       transform="translate(0,1040.3622)" />
    <path
       style="opacity:0.17720002;fill:#803300;fill-opacity:1;stroke:#000000;stroke-width:0.00883883;stroke-miterlimit:4;stroke-opacity:1;stroke-dasharray:none"
       d="m 5.4048211,8.5965299 c 0.3789772,-0.016608 0.9755985,-0.016507 1.3258251,2.252e-4 0.3502266,0.016732 0.040154,0.030321 -0.6890495,0.030197 C 5.3123928,8.6268285 5.0258438,8.6131384 5.4048211,8.5965299 z"
       id="path3032"
       inkscape:connector-curvature="0"
       transform="translate(0,1040.3622)" />
    <path
       style="opacity:0.17720002;fill:#803300;fill-opacity:1;stroke:#000000;stroke-width:0.00883883;stroke-miterlimit:4;stroke-opacity:1;stroke-dasharray:none"
       d="M 4.2153752,7.097187 3.4498138,7.0646584 3.3884303,6.6183471 C 3.3285515,6.1829767 3.389062,3.9941696 3.4887732,2.9887048 l 0.04987,-0.5028796 0.5001757,-0.062942 c 0.6773301,-0.085236 4.0661103,-0.096628 4.3580838,-0.014651 0.1299264,0.036479 0.3135962,0.200625 0.4129956,0.3690944 0.1400437,0.2373565 0.2622699,0.3213296 0.561509,0.3857741 l 0.3824996,0.082375 -0.4640388,0.06815 -0.4640388,0.06815 0,1.1376614 0,1.1376613 0.4419417,0 c 0.243068,0 0.4419417,0.013835 0.4419417,0.030744 0,0.016909 -0.2104743,0.2456139 -0.4677206,0.508233 -0.2572462,0.2626192 -0.53052,0.5769262 -0.6072749,0.6984602 l -0.1395545,0.2209709 -1.7571131,0.0071 c -0.9664121,0.00391 -2.1016157,-0.00753 -2.5226744,-0.025424 l 0,-10e-8 z"
       id="path3034"
       inkscape:connector-curvature="0"
       transform="translate(0,1040.3622)" />
    <path
       style="opacity:0.17720002;fill:#803300;fill-opacity:1;stroke:#000000;stroke-width:0.00883883;stroke-miterlimit:4;stroke-opacity:1;stroke-dasharray:none"
       d="M 3.463804,6.9327357 C 3.3609805,6.6647822 3.4857979,2.6532751 3.6005306,2.5384733 3.6779041,2.4610532 4.3636224,2.4223197 6.0482849,2.4002094 l 2.34027,-0.030715 0.3337812,0.3651514 c 0.1835797,0.2008333 0.4510092,0.4001663 0.5942878,0.4429623 l 0.2605065,0.077811 -0.2358389,0.0076 c -0.5140016,0.016558 -0.515462,0.020112 -0.515462,1.2544906 0,1.1225158 0.00298,1.13961 0.1988738,1.1407988 0.1093806,6.629e-4 0.2877804,0.025037 0.3964442,0.054162 0.1846218,0.049485 0.1628985,0.090793 -0.3314563,0.6302946 -0.2909647,0.3175366 -0.5290267,0.6113617 -0.5290267,0.6529445 0,0.041583 -1.1348288,0.075605 -2.5218419,0.075605 -2.2085803,0 -2.5284474,-0.017214 -2.5750186,-0.1385766 z"
       id="path3036"
       inkscape:connector-curvature="0"
       transform="translate(0,1040.3622)" />
    <path
       style="opacity:0.17720002;fill:#803300;fill-opacity:1;stroke:#000000;stroke-width:0.00883883;stroke-miterlimit:4;stroke-opacity:1;stroke-dasharray:none"
       d="M 4.0797581,7.0059944 3.5321329,6.9747379 3.4721253,6.5745785 C 3.4117182,6.1717549 3.4871252,3.6354959 3.5801257,2.9420667 3.6122064,2.702867 3.6820941,2.5542236 3.7751965,2.5271726 3.8549905,2.5039883 4.9046081,2.457374 6.1076801,2.4235851 l 2.1874036,-0.061434 0.4383629,0.4100372 c 0.2410997,0.2255205 0.4897854,0.4147432 0.5526351,0.4204949 0.06285,0.00575 -0.00505,0.035917 -0.150893,0.067034 l -0.265165,0.056576 -0.024851,1.1413875 c -0.02637,1.2111369 -0.00378,1.2837022 0.4005016,1.2864535 0.1093806,7.425e-4 0.1988738,0.022697 0.1988738,0.048783 0,0.026086 -0.2013332,0.298672 -0.4474073,0.6057463 L 8.5497333,6.9569799 7.6934125,7.0136888 c -0.8484613,0.056188 -2.558189,0.052548 -3.6136544,-0.00769 l 0,-2e-7 z"
       id="path3038"
       inkscape:connector-curvature="0"
       transform="translate(0,1040.3622)" />
    <path
       style="opacity:0.17720002;fill:#803300;fill-opacity:1;stroke:#000000;stroke-width:0.00883883;stroke-miterlimit:4;stroke-opacity:1;stroke-dasharray:none"
       d="M 3.5534153,6.8730033 C 3.4755977,6.7470917 3.4929046,4.0358572 3.5768746,3.1979607 3.623082,2.7368786 3.6657281,2.6270497 3.8207693,2.5698448 3.9241118,2.5317149 4.9724509,2.4768002 6.1504118,2.4478122 L 8.2921589,2.3951068 8.772694,2.8107631 C 9.2060461,3.1856067 9.2344159,3.23115 9.0616264,3.2745985 8.8769624,3.3210329 8.8700237,3.3658457 8.8700237,4.5120353 l 0,1.1892577 0.2500144,0.028638 c 0.3071405,0.035182 0.2815068,0.1227305 -0.2263133,0.77294 l -0.374926,0.4800526 -2.4487244,0 c -1.8569259,0 -2.4651425,-0.026565 -2.5166591,-0.1099206 z"
       id="path3040"
       inkscape:connector-curvature="0"
       transform="translate(0,1040.3622)" />
    <path
       style="opacity:0.17720002;fill:#803300;fill-opacity:1;stroke:#000000;stroke-width:0.00883883;stroke-miterlimit:4;stroke-opacity:1;stroke-dasharray:none"
       d="M 3.6249015,6.8731644 C 3.4313499,6.6796129 3.5422455,2.8619882 3.7473782,2.6568554 3.8405476,2.5636861 7.7753398,2.3793952 8.1484753,2.4507246 c 0.1140745,0.021807 0.3827519,0.1922271 0.5970608,0.378712 0.3603704,0.313583 0.3778181,0.3479469 0.2321737,0.4572726 -0.1393146,0.1045743 -0.1546072,0.2505215 -0.1325825,1.2653124 0.023169,1.0674907 0.037165,1.1493076 0.2016731,1.1788638 0.3270201,0.058754 0.3110683,0.153832 -0.1144098,0.6819182 L 8.5086528,6.9387298 6.1179634,6.9571334 C 4.4023828,6.97034 3.698365,6.946628 3.6249015,6.8731644 l 0,0 z"
       id="path3042"
       inkscape:connector-curvature="0"
       transform="translate(0,1040.3622)" />
    <path
       style="opacity:0.17720002;fill:#803300;fill-opacity:1;stroke:#000000;stroke-width:0.00883883;stroke-miterlimit:4;stroke-opacity:1;stroke-dasharray:none"
       d="M 3.6302403,6.739856 C 3.5556917,6.5583123 3.5758442,3.6636445 3.6554682,3.1161637 3.6894295,2.8826517 3.7715452,2.7078416 3.8727062,2.6537019 3.9621571,2.6058292 4.9904765,2.5398354 6.1578605,2.507049 L 8.2803767,2.4474373 8.6627423,2.811258 C 8.967061,3.100817 9.0227289,3.1974578 8.9354688,3.2847179 8.8596074,3.3605793 8.8258295,3.743586 8.8258295,4.5279157 l 0,1.1335585 0.2262896,0.086035 c 0.2509552,0.095413 0.2502855,0.097804 -0.2036798,0.7271817 l -0.3028306,0.4198446 -2.4259256,0 c -2.2272828,0 -2.4311266,-0.012666 -2.4894428,-0.1546796 z"
       id="path3044"
       inkscape:connector-curvature="0"
       transform="translate(0,1040.3622)" />
    <path
       style="opacity:0.17720002;fill:#803300;fill-opacity:1;stroke:#000000;stroke-width:0.00883883;stroke-miterlimit:4;stroke-opacity:1;stroke-dasharray:none"
       d="m 5.0030336,8.9498733 c 0.5469029,-0.015508 1.4418349,-0.015508 1.9887378,0 0.5469029,0.015508 0.099437,0.028196 -0.9943689,0.028196 -1.0938057,0 -1.5412717,-0.012688 -0.9943689,-0.028196 z"
       id="path3046"
       inkscape:connector-curvature="0"
       transform="translate(0,1040.3622)" />
    <path
       style="opacity:0.17720002;fill:#803300;fill-opacity:1;stroke:#000000;stroke-width:0.00883883;stroke-miterlimit:4;stroke-opacity:1;stroke-dasharray:none"
       d="m 5.4007812,8.9503114 c 0.3281417,-0.017006 0.8651009,-0.017006 1.1932426,0 0.3281418,0.017006 0.059662,0.030921 -0.5966213,0.030921 -0.6562834,0 -0.924763,-0.013914 -0.5966213,-0.030921 z"
       id="path3048"
       inkscape:connector-curvature="0"
       transform="translate(0,1040.3622)" />
    <path
       style="opacity:0.17720002;fill:#803300;fill-opacity:1;stroke:#000000;stroke-width:0.00883883;stroke-miterlimit:4;stroke-opacity:1;stroke-dasharray:none"
       d="m 4.8704511,8.7730346 c 0.6198233,-0.015194 1.6340795,-0.015194 2.2539028,0 0.6198233,0.015194 0.1126951,0.027625 -1.1269514,0.027625 -1.2396465,0 -1.7467746,-0.012431 -1.1269514,-0.027625 z"
       id="path3050"
       inkscape:connector-curvature="0"
       transform="translate(0,1040.3622)" />
    <path
       style="opacity:0.17720002;fill:#803300;fill-opacity:1;stroke:#000000;stroke-width:0.00883883;stroke-miterlimit:4;stroke-opacity:1;stroke-dasharray:none"
       d="m 5.3607838,8.7732515 c 0.4033704,-0.016415 1.0397664,-0.016324 1.4142136,2.034e-4 0.374447,0.016527 0.044417,0.029957 -0.7334007,0.029846 C 5.2637793,8.8031886 4.9574135,8.7896666 5.3607838,8.7732515 z"
       id="path3052"
       inkscape:connector-curvature="0"
       transform="translate(0,1040.3622)" />
    <path
       style="opacity:0.17720002;fill:#803300;fill-opacity:1;stroke:#000000;stroke-width:0.00883883;stroke-miterlimit:4;stroke-opacity:1;stroke-dasharray:none"
       d="m 6.7708005,8.7767006 c 0.1093806,-0.021068 0.288367,-0.021068 0.3977476,0 0.1093805,0.021068 0.019887,0.038305 -0.1988738,0.038305 -0.2187612,0 -0.3082544,-0.017237 -0.1988738,-0.038305 z"
       id="path3054"
       inkscape:connector-curvature="0"
       transform="translate(0,1040.3622)" />
    <path
       style="opacity:0.17720002;fill:#803300;fill-opacity:1;stroke:#000000;stroke-width:0.00883883;stroke-miterlimit:4;stroke-opacity:1;stroke-dasharray:none"
       d="m 6.9917714,8.6897625 c 0.085074,-0.022232 0.2242854,-0.022232 0.3093592,0 0.085074,0.022232 0.015468,0.040422 -0.1546796,0.040422 -0.1701476,0 -0.2397534,-0.01819 -0.1546796,-0.040422 z"
       id="path3056"
       inkscape:connector-curvature="0"
       transform="translate(0,1040.3622)" />
  </g>
</svg>
