<?xml version="1.0" encoding="UTF-8" standalone="no"?>
<!-- Created with Inkscape (http://www.inkscape.org/) -->

<svg
   xmlns:dc="http://purl.org/dc/elements/1.1/"
   xmlns:cc="http://creativecommons.org/ns#"
   xmlns:rdf="http://www.w3.org/1999/02/22-rdf-syntax-ns#"
   xmlns:svg="http://www.w3.org/2000/svg"
   xmlns="http://www.w3.org/2000/svg"
   xmlns:sodipodi="http://sodipodi.sourceforge.net/DTD/sodipodi-0.dtd"
   xmlns:inkscape="http://www.inkscape.org/namespaces/inkscape"
   width="12"
   height="12"
   id="svg4764"
   version="1.1"
   inkscape:version="0.48.4 r9939"
   sodipodi:docname="religious-christian-12.svg">
  <defs
     id="defs4766" />
  <sodipodi:namedview
     id="base"
     pagecolor="#ffffff"
     bordercolor="#666666"
     borderopacity="1.0"
     inkscape:pageopacity="0.0"
     inkscape:pageshadow="2"
     inkscape:zoom="22.627417"
     inkscape:cx="8.7068106"
     inkscape:cy="4.7770366"
     inkscape:document-units="px"
     inkscape:current-layer="layer1"
     showgrid="true"
     showguides="true"
     inkscape:guide-bbox="true"
     inkscape:window-width="957"
     inkscape:window-height="704"
     inkscape:window-x="153"
     inkscape:window-y="22"
     inkscape:window-maximized="0">
    <inkscape:grid
       type="xygrid"
       id="grid4772"
       empspacing="5"
       visible="true"
       enabled="true"
       snapvisiblegridlinesonly="true" />
    <sodipodi:guide
       orientation="0,1"
       position="2,12"
       id="guide4789" />
    <sodipodi:guide
       orientation="1,0"
       position="12,10"
       id="guide4791" />
    <sodipodi:guide
       orientation="0,1"
       position="10,0"
       id="guide4793" />
    <sodipodi:guide
       orientation="1,0"
       position="0,9"
       id="guide4795" />
    <sodipodi:guide
       orientation="0,1"
       position="5,11"
       id="guide4797" />
    <sodipodi:guide
       orientation="1,0"
       position="11,7"
       id="guide4799" />
    <sodipodi:guide
       orientation="0,1"
       position="9,2"
       id="guide4801" />
    <sodipodi:guide
       orientation="1,0"
       position="2,5"
       id="guide4803" />
  </sodipodi:namedview>
  <metadata
     id="metadata4769">
    <rdf:RDF>
      <cc:Work
         rdf:about="">
        <dc:format>image/svg+xml</dc:format>
        <dc:type
           rdf:resource="http://purl.org/dc/dcmitype/StillImage" />
        <dc:title />
      </cc:Work>
    </rdf:RDF>
  </metadata>
  <g
     inkscape:label="Layer 1"
     inkscape:groupmode="layer"
     id="layer1"
     transform="translate(0,-1040.3622)">
    <g
       style="display:inline"
       id="religious-christian-12"
       inkscape:label="religious-christian-12"
       transform="translate(-48,-10)"
       inkscape:export-xdpi="89.996864"
       inkscape:export-ydpi="89.996864">
      <g
         id="g21868">
        <path
           sodipodi:nodetypes="cscccccccccccssc"
           id="path16951"
           d="m 54.25,1051.3622 c -0.461667,0 -0.745042,0.3717 -0.75,0.8333 l 0,2.1667 -3,0 0,1.5 3,0 0,5.5 0.666667,0 0.833333,0 0,-5.5 3,0 0,-1.4996 -3,0 0,-2.1667 c 0,-0.4616 -0.288333,-0.8333 -0.75,-0.8333 z"
           style="opacity:0.3;color:#000000;fill:#ffffff;fill-opacity:1;fill-rule:nonzero;stroke:#ffffff;stroke-width:2;stroke-linecap:butt;stroke-linejoin:round;stroke-miterlimit:4;stroke-opacity:1;stroke-dasharray:none;stroke-dashoffset:0;marker:none;visibility:visible;display:inline;overflow:visible;enable-background:accumulate"
           inkscape:connector-curvature="0" />
        <path
           inkscape:connector-curvature="0"
           style="color:#000000;fill:#444444;fill-opacity:1;fill-rule:nonzero;stroke:none;stroke-width:2;marker:none;visibility:visible;display:inline;overflow:visible;enable-background:accumulate"
           d="m 54.25,1051.3622 c -0.461667,0 -0.745042,0.3717 -0.75,0.8333 l 0,2.1667 -3,0 0,1.5 3,0 0,5.5 0.666667,0 0.833333,0 0,-5.5 3,0 0,-1.4996 -3,0 0,-2.1667 c 0,-0.4616 -0.288333,-0.8333 -0.75,-0.8333 z"
           id="rect7432-3-5"
           sodipodi:nodetypes="cscccccccccccssc" />
      </g>
      <rect
         style="opacity:0.5;color:#000000;fill:none;stroke:none;stroke-width:2;marker:none;visibility:visible;display:inline;overflow:visible;enable-background:accumulate"
         id="rect22079-8"
         width="11.999998"
         height="12.000007"
         x="48"
         y="1050.3622" />
    </g>
    <path
       style="opacity:0.17720002;fill:#800080;fill-opacity:1;stroke:#000000;stroke-width:0.00441942;stroke-miterlimit:4;stroke-opacity:1;stroke-dasharray:none"
       d="M 5.5317938,8.2460585 5.5204107,5.4949712 4.0288573,5.4833349 2.5373039,5.4716986 l 0,-0.7286162 0,-0.728616 1.5026019,0 1.502602,0 0,-1.2083888 c 0,-1.1793326 0.00247,-1.2130584 0.1026971,-1.402592 0.2582852,-0.4884246 0.9386751,-0.49747333 1.2113279,-0.01611 0.095568,0.168724 0.098758,0.2136419 0.099462,1.4007023 l 7.27e-4,1.2263883 1.5026019,0 1.5026019,0 0,0.728616 0,0.7286162 -1.4915533,0.011636 -1.4915534,0.011636 -0.011383,2.7510873 -0.011383,2.7510873 -0.7064377,0 -0.7064376,0 -0.011383,-2.7510873 z"
       id="path2996"
       inkscape:connector-curvature="0"
       transform="translate(0,1040.3622)" />
    <path
       style="opacity:0.17720002;fill:#800080;fill-opacity:1;stroke:#000000;stroke-width:0.00441942;stroke-miterlimit:4;stroke-opacity:1;stroke-dasharray:none"
       d="M 5.573076,10.968789 C 5.5562635,10.951976 5.5425078,9.7087818 5.5425078,8.2061353 l 0,-2.7320856 -1.4915534,-0.011636 -1.4915534,-0.011636 0,-0.7071068 0,-0.7071067 1.4857869,-0.011629 1.4857869,-0.011629 0.032098,-1.2258074 c 0.03617,-1.381294 0.053973,-1.4586881 0.377361,-1.6404423 0.3055032,-0.17170237 0.6640317,-0.084492 0.8643065,0.2102391 0.1000395,0.1472217 0.1077973,0.1983842 0.1079339,0.7118392 8.84e-5,0.3042692 0.013127,0.8661821 0.028992,1.2486954 l 0.028845,0.6954787 1.4846582,0.011628 1.4846581,0.011628 0,0.7071067 0,0.7071068 -1.4912188,0.011636 -1.4912192,0.011636 -0.011383,2.7504996 -0.011383,2.7505 -0.66549,0.01215 C 5.903114,10.9939 5.5898878,10.9856 5.5730753,10.96879 z"
       id="path2998"
       inkscape:connector-curvature="0"
       transform="translate(0,1040.3622)" />
    <path
       style="opacity:0.17720002;fill:#800080;fill-opacity:1;stroke:#000000;stroke-width:0.00441942;stroke-miterlimit:4;stroke-opacity:1;stroke-dasharray:none"
       d="M 5.5718574,9.0636507 C 5.555777,8.0245352 5.542595,6.7942879 5.5425641,6.3297678 L 5.5425078,5.4851857 5.3104883,5.457317 C 5.1828777,5.4419892 4.5166505,5.4292754 3.8299835,5.4290641 l -1.2484854,-3.842e-4 0,-0.6850097 0,-0.6850096 1.4741141,0 1.4741142,0 L 5.5579,3.7603499 C 5.573396,3.596279 5.58656,3.1935596 5.587154,2.8654179 5.588344,2.2061295 5.651038,1.4903362 5.7186512,1.3639998 5.7923582,1.2262769 6.0470162,1.0976509 6.2459775,1.0976509 c 0.2278437,0 0.4090528,0.089738 0.5331608,0.2640322 0.087826,0.1233405 0.096041,0.2011734 0.1155157,1.0944726 0.011531,0.5289292 0.031911,1.1058728 0.045287,1.2820971 l 0.024322,0.3204078 1.4767342,0 1.4767342,0 0,0.6813505 0,0.6813506 -1.4547732,0.014708 c -0.8001254,0.00809 -1.4713244,0.031267 -1.4915534,0.051506 -0.020229,0.020239 -0.04261,1.258228 -0.049736,2.7510873 l -0.012956,2.71429 -0.6538092,0 -0.6538092,0 -0.029237,-1.8893015 0,0 z"
       id="path3000"
       inkscape:connector-curvature="0"
       transform="translate(0,1040.3622)" />
    <path
       style="opacity:0.17720002;fill:#800080;fill-opacity:1;stroke:#000000;stroke-width:0.00441942;stroke-miterlimit:4;stroke-opacity:1;stroke-dasharray:none"
       d="m 5.6156505,10.349343 c -0.015922,-0.331985 -0.028949,-1.5650025 -0.028949,-2.740039 0,-1.1750365 -0.00497,-2.1404638 -0.011049,-2.1453942 C 5.5695767,5.4589794 4.8983777,5.4440639 4.0841,5.4307642 l -1.4805048,-0.024181 0,-0.6629127 0,-0.6629126 1.467565,-0.011642 1.4675651,-0.011642 0.020898,-0.1430376 C 5.5711173,3.8357653 5.6009223,3.2841579 5.6258563,2.6886414 5.6507903,2.0931249 5.6883513,1.546222 5.7093243,1.4733016 5.7671283,1.2723241 5.992826,1.1418453 6.282667,1.1418453 c 0.2133066,0 0.2575618,0.01661 0.3857227,0.1447709 0.1754644,0.1754644 0.1862878,0.254887 0.2241863,1.6450931 0.014578,0.5347495 0.03623,1.0068082 0.048116,1.0490194 0.019876,0.070586 0.1393469,0.077682 1.4882764,0.088388 l 1.4666663,0.011641 0.01223,0.6518641 c 0.011227,0.5983698 0.00579,0.6522118 -0.066291,0.6561013 -0.043187,0.00233 -0.6983515,0.017246 -1.4559223,0.033146 -0.7575703,0.0159 -1.3939664,0.045466 -1.4142135,0.065702 -0.020247,0.020237 -0.048926,1.2532543 -0.06373,2.7400387 -0.014805,1.4867848 -0.02972,2.7082162 -0.033146,2.7142932 -0.00343,0.0061 -0.2815679,0.01105 -0.6180947,0.01105 l -0.6118669,0 -0.028949,-0.603609 0,0 z"
       id="path3002"
       inkscape:connector-curvature="0"
       transform="translate(0,1040.3622)" />
    <path
       style="opacity:0.17720002;fill:#800080;fill-opacity:1;stroke:#000000;stroke-width:0.00441942;stroke-miterlimit:4;stroke-opacity:1;stroke-dasharray:none"
       d="m 5.6598521,10.754125 c -0.015926,-0.116192 -0.028956,-0.583085 -0.028956,-1.0375403 0,-0.4544557 -0.013175,-1.6051483 -0.029278,-2.5570939 L 5.5723407,5.4286799 5.0602398,5.4285715 C 4.7785843,5.4285119 4.1155884,5.4154011 3.5869156,5.3994364 l -0.9612233,-0.029027 0,-0.6315099 0,-0.63151 1.4341625,-0.013316 c 0.8813221,-0.00818 1.4500688,-0.030352 1.4754261,-0.05751 0.022695,-0.024307 0.072664,-0.6084107 0.1110425,-1.2980087 0.074761,-1.3433249 0.091714,-1.423037 0.3212174,-1.510294 0.061078,-0.023222 0.2156704,-0.042221 0.3435384,-0.042221 0.2660899,0 0.395699,0.098437 0.4697988,0.3568078 0.023659,0.082495 0.064347,0.6673852 0.090417,1.2997564 0.02607,0.6323712 0.063116,1.1658747 0.082323,1.1855633 0.019207,0.019689 0.6840469,0.047686 1.4774203,0.062217 l 1.4424978,0.02642 0,0.6268045 0,0.6268045 -1.326383,0.03035 C 7.8176433,5.4174552 7.1639036,5.4424862 7.094399,5.4563871 6.9756152,5.4801438 6.9664476,5.4979838 6.9417276,5.7534815 6.927263,5.9029824 6.9017551,7.1240789 6.8850434,8.4670294 l -0.030385,2.4417276 -0.1588909,2.21e-4 c -0.08739,1.33e-4 -0.3497064,0.01287 -0.5829252,0.02831 l -0.4240343,0.02808 -0.028956,-0.211257 0,8e-6 z"
       id="path3004"
       inkscape:connector-curvature="0"
       transform="translate(0,1040.3622)" />
    <path
       style="opacity:0.17720002;fill:#800080;fill-opacity:1;stroke:#000000;stroke-width:0.00441942;stroke-miterlimit:4;stroke-opacity:1;stroke-dasharray:none"
       d="M 5.6958763,10.867313 C 5.6824665,10.832365 5.6537929,9.6023808 5.632157,8.1340152 5.610521,6.6656497 5.5832949,5.4547356 5.5716543,5.4430951 5.5600137,5.4314545 4.8973821,5.4048814 4.0991395,5.3840437 3.3008969,5.363206 2.6428175,5.3448372 2.6367408,5.3432243 2.6306641,5.3416113 2.6256923,5.071812 2.6256923,4.7436702 c 0,-0.3281417 0.00497,-0.5992133 0.011049,-0.6023813 0.00608,-0.00317 0.651454,-0.018084 1.4341717,-0.033146 0.851759,-0.016391 1.4407533,-0.045129 1.4670354,-0.07158 0.024152,-0.024307 0.075395,-0.5115476 0.1138737,-1.0827573 0.093495,-1.3879053 0.1076613,-1.4932637 0.2178061,-1.6198227 0.078859,-0.090611 0.1343701,-0.1070493 0.3712223,-0.109929 0.2993649,-0.00364 0.4227067,0.06111 0.499637,0.2622906 0.021333,0.055788 0.069608,0.6423098 0.1072779,1.3033826 0.03767,0.6610729 0.086081,1.2195413 0.1075809,1.2410408 0.030277,0.030277 1.6079142,0.095073 2.7745599,0.1139557 l 0.1436311,0.00232 0,0.5921713 0,0.5921713 -0.5413786,0.02563 C 9.0343999,5.3711185 8.404823,5.3948315 7.9330983,5.4097175 7.4613733,5.4246035 7.0496648,5.4466649 7.0181901,5.4587429 6.9259924,5.4941225 6.91439,5.7191484 6.868412,8.3636376 6.8443612,9.7469492 6.819589,10.883455 6.8133625,10.889206 c -0.00623,0.0058 -0.2547222,0.01747 -0.5522129,0.02605 -0.4399665,0.01269 -0.5454415,0.0037 -0.5652733,-0.04795 l 0,0 z"
       id="path3006"
       inkscape:connector-curvature="0"
       transform="translate(0,1040.3622)" />
    <path
       style="opacity:0.17720002;fill:#800080;fill-opacity:1;stroke:#000000;stroke-width:0.00441942;stroke-miterlimit:4;stroke-opacity:1;stroke-dasharray:none"
       d="M 5.747652,10.874709 C 5.7317426,10.848967 5.6896936,9.620382 5.6542099,8.1445202 5.6187261,6.668658 5.5810194,5.4524602 5.5704171,5.4418579 5.5440778,5.4155186 3.8294283,5.3433805 3.189168,5.3416749 l -0.5192815,-0.00138 0,-0.5966214 0,-0.5966213 0.651864,-0.00304 C 4.3275333,4.1393062 5.4932638,4.081388 5.5409042,4.0337476 5.5645086,4.0101432 5.6243387,3.4939923 5.67386,2.8867455 5.7819818,1.5609206 5.7938204,1.4781033 5.892676,1.3560217 c 0.063259,-0.078121 0.126588,-0.096102 0.3491217,-0.099126 0.2336516,-0.00317 0.2872193,0.011768 0.3812702,0.1063559 0.1063394,0.1069461 0.1120606,0.146182 0.2028981,1.3914536 0.05141,0.7047723 0.098168,1.2860987 0.1039055,1.2918364 0.02297,0.02297 1.808427,0.099323 2.3359954,0.099895 l 0.5634757,6.116e-4 0,0.5736823 c 0,0.5596991 -0.00242,0.5741567 -0.099437,0.5931487 -0.05469,0.010707 -0.685947,0.041743 -1.4027924,0.068971 -0.7181258,0.027276 -1.322767,0.068915 -1.3465857,0.092734 -0.053838,0.053838 -0.098966,1.1164974 -0.1486486,3.5003109 -0.021158,1.0151565 -0.04842,1.8556909 -0.060583,1.8678549 -0.048632,0.04863 -0.9950314,0.07725 -1.0236437,0.03096 z"
       id="path3008"
       inkscape:connector-curvature="0"
       transform="translate(0,1040.3622)" />
    <path
       style="opacity:0.17720002;fill:#800080;fill-opacity:1;stroke:#000000;stroke-width:0.00441942;stroke-miterlimit:4;stroke-opacity:1;stroke-dasharray:none"
       d="M 5.7452019,10.324634 C 5.7301628,10.026079 5.6886789,8.8093128 5.6530155,7.6207101 5.6173522,6.4321069 5.5792671,5.4507079 5.568382,5.4398228 5.5287943,5.4002351 4.3506389,5.3440717 3.5206243,5.3422049 l -0.8507378,-0.00191 0,-0.5966214 0,-0.5966213 0.9833203,-0.00215 C 4.7235256,4.1425673 5.4775248,4.097127 5.5436794,4.0309724 5.5668,4.0078518 5.6359517,3.4626922 5.6973499,2.8195066 5.7587481,2.1763209 5.8202067,1.5954125 5.8339244,1.528599 5.8693285,1.3561601 6.0107903,1.2744276 6.2738414,1.2744276 c 0.1803972,0 0.2453071,0.021051 0.3243521,0.1051904 0.091315,0.0972 0.106951,0.2004293 0.205846,1.3589709 0.058864,0.6895792 0.1073538,1.2672649 0.1077561,1.283746 0.00138,0.056584 0.4900428,0.090909 1.6918035,0.1188382 l 1.2036464,0.027973 -0.012364,0.5500599 c -0.0068,0.302533 -0.016799,0.5544955 -0.022221,0.5599168 -0.00542,0.00542 -0.6261042,0.042078 -1.3792958,0.08146 -0.7531911,0.039382 -1.3878274,0.089992 -1.4103024,0.1124671 -0.062455,0.062455 -0.1011483,0.7998446 -0.1610864,3.0698637 -0.030144,1.1416191 -0.06824,2.1260444 -0.08466,2.1876114 -0.029279,0.109786 -0.038853,0.112182 -0.4973117,0.124439 l -0.4674584,0.0125 -0.027344,-0.542828 0,0 z"
       id="path3010"
       inkscape:connector-curvature="0"
       transform="translate(0,1040.3622)" />
    <path
       style="opacity:0.17720002;fill:#800080;fill-opacity:1;stroke:#000000;stroke-width:0.00441942;stroke-miterlimit:4;stroke-opacity:1;stroke-dasharray:none"
       d="M 5.7901563,10.681017 C 5.7768378,10.57536 5.7354106,9.5442624 5.6980959,8.3896896 5.6055458,5.5260545 5.5992359,5.4389007 5.4816568,5.400165 5.430051,5.3831638 4.7912068,5.3577654 4.0620029,5.3437241 L 2.7361777,5.3181945 2.7238464,4.7326217 2.7115151,4.1470489 3.8287008,4.1456029 C 4.7870905,4.1443625 5.5111587,4.1050876 5.5643063,4.0514602 5.5724261,4.043267 5.6411017,3.4797169 5.7169186,2.7991266 5.7927354,2.1185363 5.8654054,1.5268657 5.8784073,1.484303 5.9128727,1.3714785 6.053267,1.3112561 6.2818258,1.3112561 c 0.3379752,0 0.3609494,0.048677 0.4544233,0.9628096 0.044442,0.4346243 0.095108,1.004796 0.1125913,1.2670484 0.02555,0.3832653 0.046617,0.4847592 0.1073707,0.5172734 0.065002,0.034788 1.9925511,0.1322186 2.6251792,0.1326934 l 0.216087,1.635e-4 -0.022499,0.5098362 c -0.012374,0.2804099 -0.033337,0.5206746 -0.046584,0.5339215 -0.013247,0.013247 -0.6268992,0.062761 -1.3636717,0.1100306 -0.736773,0.04727 -1.3570861,0.1034446 -1.3784739,0.1248324 -0.069931,0.06993 -0.111611,0.7429012 -0.183573,2.9640187 -0.038982,1.2031863 -0.08031,2.2323582 -0.09184,2.2870482 -0.019537,0.09267 -0.044213,0.09948 -0.3626261,0.10004 -0.1879145,3.54e-4 -0.3849021,0.0122 -0.4377502,0.02638 -0.085593,0.02296 -0.098732,0.0048 -0.1203029,-0.166331 l 0,0 z"
       id="path3012"
       inkscape:connector-curvature="0"
       transform="translate(0,1040.3622)" />
    <path
       style="opacity:0.17720002;fill:#800080;fill-opacity:1;stroke:#000000;stroke-width:0.00441942;stroke-miterlimit:4;stroke-opacity:1;stroke-dasharray:none"
       d="M 5.8080499,10.727598 C 5.8092988,10.376185 5.6221694,5.9304973 5.5961675,5.693845 L 5.5646048,5.4065829 5.2110515,5.3738557 C 5.0165971,5.3558558 4.3872037,5.3288347 3.8123995,5.313809 L 2.7673009,5.2864894 2.749096,4.7499148 C 2.739083,4.4547987 2.738034,4.2040724 2.746766,4.1927451 2.755496,4.1814181 3.378178,4.1605241 4.130504,4.1463141 4.9239756,4.1313271 5.5164824,4.1023651 5.5415038,4.0773441 5.5652278,4.0536201 5.6552386,3.4594047 5.741528,2.7568651 5.827818,2.0543256 5.9189204,1.4548166 5.9439789,1.4246229 c 0.07366,-0.088755 0.373879,-0.1204807 0.5122982,-0.054138 0.1637509,0.078484 0.2033563,0.2729019 0.3225417,1.5833211 0.056858,0.6251372 0.1154664,1.0593608 0.1472307,1.0908088 0.057969,0.057392 1.4921776,0.1466281 2.3566085,0.1466281 l 0.5091284,0 -0.027807,0.4087961 C 9.7241088,5.1861805 9.7193986,5.200151 9.5527728,5.2264576 9.4739715,5.2388986 8.8628673,5.2908732 8.1947632,5.3419566 7.5266591,5.39304 6.972867,5.4419971 6.9641139,5.4507502 6.9162126,5.4986515 6.8606023,6.4006645 6.7789437,8.4542604 6.7287219,9.7172675 6.681548,10.756721 6.6741129,10.764155 c -0.00744,0.0074 -0.2054257,0.02612 -0.4399792,0.04153 l -0.4264609,0.02801 3.756e-4,-0.106102 1.5e-6,0 z"
       id="path3014"
       inkscape:connector-curvature="0"
       transform="translate(0,1040.3622)" />
  </g>
</svg>
