<?xml version="1.0" encoding="UTF-8" standalone="no"?>
<!-- Created with Inkscape (http://www.inkscape.org/) -->

<svg
   xmlns:dc="http://purl.org/dc/elements/1.1/"
   xmlns:cc="http://creativecommons.org/ns#"
   xmlns:rdf="http://www.w3.org/1999/02/22-rdf-syntax-ns#"
   xmlns:svg="http://www.w3.org/2000/svg"
   xmlns="http://www.w3.org/2000/svg"
   xmlns:sodipodi="http://sodipodi.sourceforge.net/DTD/sodipodi-0.dtd"
   xmlns:inkscape="http://www.inkscape.org/namespaces/inkscape"
   width="12"
   height="12"
   id="svg4764"
   version="1.1"
   inkscape:version="0.48.4 r9939"
   sodipodi:docname="fast-food-12.svg">
  <defs
     id="defs4766" />
  <sodipodi:namedview
     id="base"
     pagecolor="#ffffff"
     bordercolor="#666666"
     borderopacity="1.0"
     inkscape:pageopacity="0.0"
     inkscape:pageshadow="2"
     inkscape:zoom="11.313709"
     inkscape:cx="5.6084938"
     inkscape:cy="5.0524314"
     inkscape:document-units="px"
     inkscape:current-layer="layer1"
     showgrid="true"
     showguides="true"
     inkscape:guide-bbox="true"
     inkscape:window-width="957"
     inkscape:window-height="704"
     inkscape:window-x="60"
     inkscape:window-y="-16"
     inkscape:window-maximized="0"
     inkscape:snap-bbox="true"
     inkscape:snap-nodes="false">
    <inkscape:grid
       type="xygrid"
       id="grid4772"
       empspacing="5"
       visible="true"
       enabled="true"
       snapvisiblegridlinesonly="true"
       spacingx="1px"
       spacingy="1px" />
    <sodipodi:guide
       orientation="0,1"
       position="2,12"
       id="guide4789" />
    <sodipodi:guide
       orientation="1,0"
       position="12,10"
       id="guide4791" />
    <sodipodi:guide
       orientation="0,1"
       position="10,0"
       id="guide4793" />
    <sodipodi:guide
       orientation="1,0"
       position="0,9"
       id="guide4795" />
    <sodipodi:guide
       orientation="0,1"
       position="5,11"
       id="guide4797" />
    <sodipodi:guide
       orientation="1,0"
       position="11,7"
       id="guide4799" />
    <sodipodi:guide
       orientation="0,1"
       position="9,2"
       id="guide4801" />
    <sodipodi:guide
       orientation="1,0"
       position="2,5"
       id="guide4803" />
  </sodipodi:namedview>
  <metadata
     id="metadata4769">
    <rdf:RDF>
      <cc:Work
         rdf:about="">
        <dc:format>image/svg+xml</dc:format>
        <dc:type
           rdf:resource="http://purl.org/dc/dcmitype/StillImage" />
        <dc:title />
      </cc:Work>
    </rdf:RDF>
  </metadata>
  <g
     inkscape:label="Layer 1"
     inkscape:groupmode="layer"
     id="layer1"
     transform="translate(0,-1040.3622)">
    <g
       style="display:inline"
       id="fast-food-12"
       inkscape:label="fast-food-12"
       transform="translate(-360,-81.999983)"
       inkscape:export-xdpi="89.996864"
       inkscape:export-ydpi="89.996864">
      <g
         id="g21578">
        <path
           sodipodi:nodetypes="ssccsssccccccsscc"
           style="opacity:0.3;color:#000000;fill:none;stroke:#ffffff;stroke-width:2;stroke-linecap:round;stroke-linejoin:round;stroke-miterlimit:4;stroke-opacity:1;stroke-dasharray:none;stroke-dashoffset:0;marker:none;visibility:visible;display:inline;overflow:visible;enable-background:accumulate"
           d="m 365.5,1125.3622 c -1.42105,0 -3.1488,0.8723 -3.05264,2.0526 l 0,1.1974 8.05264,0 0,-1.1974 c 0,-1.1842 -1.57895,-2.0526 -3,-2.0526 z m -3.5,4 0,1 9,0 0,-1 z m 0.49996,1.75 c 0,0.4737 0.52632,1.25 1,1.25 l 6,0 c 0.47368,0 1,-0.7763 1,-1.25 z"
           id="path5504"
           inkscape:connector-curvature="0" />
        <path
           inkscape:connector-curvature="0"
           id="rect13326-2-5-2-3-1"
           d="m 365.5,1125.3622 c -1.42105,0 -3.1488,0.8723 -3.05264,2.0526 l 0,1.1974 8.05264,0 0,-1.1974 c 0,-1.1842 -1.57895,-2.0526 -3,-2.0526 z m -3.5,4 0,1 9,0 0,-1 z m 0.49996,1.75 c 0,0.4737 0.52632,1.25 1,1.25 l 6,0 c 0.47368,0 1,-0.7763 1,-1.25 z"
           style="color:#000000;fill:#444444;fill-opacity:1;stroke:none;stroke-width:2;marker:none;visibility:visible;display:inline;overflow:visible;enable-background:accumulate"
           sodipodi:nodetypes="ssccsssccccccsscc" />
      </g>
      <rect
         y="1122.3622"
         x="360"
         height="12.000007"
         width="11.999998"
         id="rect22304-2"
         style="opacity:0.5;color:#000000;fill:none;stroke:none;stroke-width:2;marker:none;visibility:visible;display:inline;overflow:visible;enable-background:accumulate" />
    </g>
    <path
       style="opacity:0.17720002;fill:#d45500;fill-opacity:1;stroke:#000000;stroke-width:0.00883883;stroke-miterlimit:4;stroke-opacity:1;stroke-dasharray:none"
       d="m 2.4826171,5.3934909 c 0.031264,-0.5483267 0.093527,-0.8675905 0.2012655,-1.0320197 0.6066344,-0.9258411 1.805312,-1.352521 3.7996558,-1.352521 1.6520969,0 2.6382892,0.2596592 3.3459134,0.8809616 0.4936822,0.4334587 0.5873682,0.6793814 0.5873682,1.5418268 l 0,0.7556902 -3.9897358,0 -3.9897354,0 0.045268,-0.7939379 z"
       id="path2996"
       inkscape:connector-curvature="0"
       transform="translate(0,1040.3622)" />
    <path
       style="opacity:0.17720002;fill:#d45500;fill-opacity:1;stroke:#000000;stroke-width:0.00883883;stroke-miterlimit:4;stroke-opacity:1;stroke-dasharray:none"
       d="M 2.5151218,5.5033284 C 2.5815416,4.6126786 2.8167944,4.1297721 3.3699777,3.7485547 4.120551,3.231309 4.5931069,3.1386952 6.4835384,3.1383434 8.0039096,3.1380606 8.218246,3.157157 8.7472829,3.3400328 c 0.6192652,0.2140657 1.238811,0.6740078 1.4450121,1.0727571 0.06881,0.133057 0.136892,0.5734396 0.152362,0.9854974 l 0.02797,0.7449474 -3.9543284,0.023006 -3.954328,0.023006 0.051152,-0.6859189 z"
       id="path2998"
       inkscape:connector-curvature="0"
       transform="translate(0,1040.3622)" />
    <path
       style="opacity:0.17720002;fill:#d45500;fill-opacity:1;stroke:#000000;stroke-width:0.00883883;stroke-miterlimit:4;stroke-opacity:1;stroke-dasharray:none"
       d="M 2.5740312,5.5357044 C 2.6431617,4.6216405 2.8706612,4.1691529 3.4602493,3.7730507 4.2195033,3.2629623 4.4246825,3.2264193 6.5294429,3.2264193 l 1.9020597,0 0.5728139,0.2820841 c 0.8221377,0.4048644 1.1311315,0.7554024 1.2372845,1.403638 0.04719,0.2881926 0.08604,0.6731419 0.08632,0.8554428 l 5.12e-4,0.3314563 -3.5576305,9.728e-4 c -1.9566969,5.35e-4 -3.712997,0.026635 -3.902889,0.057999 l -0.3452582,0.057026 0.051378,-0.6793338 z"
       id="path3000"
       inkscape:connector-curvature="0"
       transform="translate(0,1040.3622)" />
    <path
       style="opacity:0.17720002;fill:#d45500;fill-opacity:1;stroke:#000000;stroke-width:0.00883883;stroke-miterlimit:4;stroke-opacity:1;stroke-dasharray:none"
       d="M 2.5529492,6.0990405 C 2.584476,5.5953129 2.7541587,4.7119829 2.8579505,4.5112715 3.058566,4.123324 3.4175862,3.8111933 3.9644706,3.5492675 4.4368938,3.3230044 4.5061842,3.3155486 6.4209208,3.2849501 l 1.9703145,-0.031487 0.492238,0.2408297 c 0.9739599,0.4765142 1.2961897,0.9436107 1.3887867,2.0131518 0.03034,0.3504187 0.01124,0.5253542 -0.06018,0.5513831 -0.14876,0.05421 -7.6624739,0.09366 -7.6591288,0.040212 z"
       id="path3002"
       inkscape:connector-curvature="0"
       transform="translate(0,1040.3622)" />
    <path
       style="opacity:0.17720002;fill:#d45500;fill-opacity:1;stroke:#000000;stroke-width:0.00883883;stroke-miterlimit:4;stroke-opacity:1;stroke-dasharray:none"
       d="M 2.6738964,5.5908075 C 2.8039376,4.4817032 3.096773,4.0228181 3.9327529,3.6181271 4.3265768,3.4274802 4.5259774,3.4043454 6.3414295,3.3386672 8.2407598,3.2699546 8.3360094,3.2744545 8.6987004,3.4500301 9.7243584,3.9465426 10.103642,4.4410207 10.203047,5.4112727 l 0.05846,0.5705564 -2.0137514,0.058606 c -1.1075633,0.032233 -2.8281823,0.058606 -3.8235978,0.058606 l -1.8098462,0 0.05959,-0.508233 z"
       id="path3004"
       inkscape:connector-curvature="0"
       transform="translate(0,1040.3622)" />
    <path
       style="opacity:0.17720002;fill:#d45500;fill-opacity:1;stroke:#000000;stroke-width:0.00883883;stroke-miterlimit:4;stroke-opacity:1;stroke-dasharray:none"
       d="M 2.6386455,6.0631819 C 2.6386455,5.8281638 2.925599,4.633914 3.0310811,4.429934 3.2051356,4.0933497 3.8102183,3.6725164 4.3158897,3.5363532 4.5497538,3.4733802 5.4786252,3.4261859 6.6543599,3.4175397 L 8.6048587,3.403196 9.0468004,3.6744521 c 0.6192535,0.380087 0.9840776,0.8867742 1.0580876,1.4695299 0.03275,0.2579075 0.07803,0.5347064 0.100615,0.615109 0.0354,0.1260454 -0.07203,0.1530371 -0.7797915,0.1959105 -1.073297,0.065017 -6.787066,0.1560893 -6.787066,0.1081804 z"
       id="path3006"
       inkscape:connector-curvature="0"
       transform="translate(0,1040.3622)" />
    <path
       style="opacity:0.17720002;fill:#d45500;fill-opacity:1;stroke:#000000;stroke-width:0.00883883;stroke-miterlimit:4;stroke-opacity:1;stroke-dasharray:none"
       d="M 2.760091,5.6495935 C 2.8538605,5.0429226 3.0846035,4.3953632 3.2856447,4.1746745 3.3862491,4.0642382 3.6792214,3.8708151 3.9366941,3.7448454 4.3891872,3.5234612 4.4740522,3.5142348 6.4769597,3.468673 L 8.5490929,3.421537 8.9798217,3.6979349 c 0.74312,0.4768588 1.0029532,0.8694615 1.1273623,1.7034208 0.06043,0.405093 0.05928,0.4074615 -0.225966,0.4645105 -0.1576889,0.031538 -1.8380229,0.083583 -3.7340756,0.1156557 L 2.6997736,6.0398357 2.760091,5.6495935 z"
       id="path3008"
       inkscape:connector-curvature="0"
       transform="translate(0,1040.3622)" />
    <path
       style="opacity:0.17720002;fill:#d45500;fill-opacity:1;stroke:#000000;stroke-width:0.00883883;stroke-miterlimit:4;stroke-opacity:1;stroke-dasharray:none"
       d="M 2.7553005,5.867568 C 2.7814474,5.7761167 2.8529514,5.4673328 2.9141983,5.1813816 3.0626404,4.4883309 3.2983162,4.1623386 3.8757863,3.8512907 4.3534621,3.5939959 4.3703064,3.5917897 6.4163496,3.5185401 8.7179998,3.4361396 8.6511769,3.4240595 9.3628863,4.0512089 9.7790249,4.417905 10.063266,5.0335073 10.063266,5.5680725 l 0,0.2442271 -1.7898636,0.054474 C 2.2338912,6.0505831 2.7029939,6.0505156 2.7553005,5.8675688 l 0,-8e-7 z"
       id="path3010"
       inkscape:connector-curvature="0"
       transform="translate(0,1040.3622)" />
    <path
       style="opacity:0.17720002;fill:#d45500;fill-opacity:1;stroke:#000000;stroke-width:0.00883883;stroke-miterlimit:4;stroke-opacity:1;stroke-dasharray:none"
       d="M 2.8471451,5.6531637 C 3.0491208,4.6432851 3.2693139,4.2585436 3.8350553,3.926997 4.1986713,3.7139039 4.3783551,3.6772474 5.3652934,3.6148199 c 1.5550038,-0.09836 3.0528489,-0.095248 3.3215213,0.0069 0.6195066,0.235536 1.1865608,1.0189195 1.3214533,1.825584 l 0.04621,0.2763424 -0.5038393,0.052403 C 9.2735281,5.8048721 7.6385672,5.8555667 5.9173934,5.8887052 l -3.129407,0.060252 0.059159,-0.2957935 z"
       id="path3012"
       inkscape:connector-curvature="0"
       transform="translate(0,1040.3622)" />
    <path
       style="opacity:0.17720002;fill:#d45500;fill-opacity:1;stroke:#000000;stroke-width:0.00883883;stroke-miterlimit:4;stroke-opacity:1;stroke-dasharray:none"
       d="M 2.8430242,5.7792932 C 2.8688451,5.6877794 2.9543138,5.3826333 3.0329545,5.1011905 3.2028058,4.49332 3.6863702,3.9546048 4.2017992,3.7990384 4.3911212,3.7418974 5.4620485,3.6760391 6.6438304,3.6488619 L 8.748666,3.6004575 9.2174297,4.0844294 C 9.6821354,4.5642116 10.050443,5.3326899 9.9460561,5.6047175 9.9110627,5.695909 9.434746,5.7353771 7.8386377,5.7793401 6.7044244,5.8105807 5.1058518,5.8607879 4.2862543,5.8909115 2.8557621,5.9434881 2.7979573,5.9390176 2.8430242,5.7792932 z"
       id="path3014"
       inkscape:connector-curvature="0"
       transform="translate(0,1040.3622)" />
    <path
       style="opacity:0.17720002;fill:#d45500;fill-opacity:1;stroke:#000000;stroke-width:0.00883883;stroke-miterlimit:4;stroke-opacity:1;stroke-dasharray:none"
       d="m 2.019927,7.513254 0,-0.4419417 4.4636114,0 4.4636116,0 0,0.4419417 0,0.4419417 -4.4636116,0 -4.4636114,0 0,-0.4419417 z"
       id="path3016"
       inkscape:connector-curvature="0"
       transform="translate(0,1040.3622)" />
    <path
       style="opacity:0.17720002;fill:#d45500;fill-opacity:1;stroke:#000000;stroke-width:0.00883883;stroke-miterlimit:4;stroke-opacity:1;stroke-dasharray:none"
       d="M 2.0554366,7.831854 C 2.0290559,7.7631069 2.0202178,7.5738048 2.0357964,7.4111828 l 0.028325,-0.2956763 4.4194172,0 4.4194174,0 0,0.3977475 0,0.3977475 -4.3997772,0.022924 C 2.7774212,7.953337 2.0960537,7.9377003 2.0554366,7.831854 z"
       id="path3018"
       inkscape:connector-curvature="0"
       transform="translate(0,1040.3622)" />
    <path
       style="opacity:0.17720002;fill:#d45500;fill-opacity:1;stroke:#000000;stroke-width:0.00883883;stroke-miterlimit:4;stroke-opacity:1;stroke-dasharray:none"
       d="M 2.167241,7.8078818 C 2.1348319,7.7754728 2.1083154,7.6163737 2.1083154,7.4543284 l 0,-0.2946278 4.375223,0 4.3752226,0 0,0.3535534 0,0.3535534 -4.316297,0 c -2.3739637,0 -4.342814,-0.026516 -4.375223,-0.058926 z"
       id="path3020"
       inkscape:connector-curvature="0"
       transform="translate(0,1040.3622)" />
    <path
       style="opacity:0.17720002;fill:#d45500;fill-opacity:1;stroke:#000000;stroke-width:0.00883883;stroke-miterlimit:4;stroke-opacity:1;stroke-dasharray:none"
       d="m 7.0359656,7.8005421 3.7344074,-0.024042 0,-0.2642058 0,-0.2642057 -4.2806871,0 -4.2806872,0 -0.038305,0.1988737 c -0.032843,0.170514 -0.040021,0.1642118 -0.050342,-0.044194 l -0.012037,-0.243068 4.375223,0 4.3752223,0 0,0.3535534 0,0.3535534 L 7.0801597,7.8456955 3.301558,7.8245837 7.0359656,7.8005421 z"
       id="path3022"
       inkscape:connector-curvature="0"
       transform="translate(0,1040.3622)" />
    <path
       style="opacity:0.17720002;fill:#d45500;fill-opacity:1;stroke:#000000;stroke-width:0.00883883;stroke-miterlimit:4;stroke-opacity:1;stroke-dasharray:none"
       d="M 5.0512677,7.8010349 C 5.4302449,7.7844264 6.0268662,7.7845277 6.3770929,7.80126 6.7273195,7.8179923 6.4172471,7.8315811 5.6880433,7.8314572 4.9588395,7.8313334 4.6722904,7.8176433 5.0512677,7.8010349 z"
       id="path3024"
       inkscape:connector-curvature="0"
       transform="translate(0,1040.3622)" />
    <path
       style="opacity:0.17720002;fill:#d45500;fill-opacity:1;stroke:#000000;stroke-width:0.00883883;stroke-miterlimit:4;stroke-opacity:1;stroke-dasharray:none"
       d="M 5.3539201,7.8022193 C 5.559061,7.7836821 5.9170338,7.7834618 6.1494152,7.8017295 6.3817965,7.8199973 6.213954,7.8351641 5.7764317,7.8354334 5.3389094,7.8357028 5.1487791,7.8207564 5.3539201,7.8022193 z"
       id="path3026"
       inkscape:connector-curvature="0"
       transform="translate(0,1040.3622)" />
    <path
       style="opacity:0.17720002;fill:#d45500;fill-opacity:1;stroke:#000000;stroke-width:0.00883883;stroke-miterlimit:4;stroke-opacity:1;stroke-dasharray:none"
       d="m 5.5775579,7.8034988 c 0.1336873,-0.020252 0.3524485,-0.020252 0.4861359,0 0.1336873,0.020252 0.024307,0.036822 -0.243068,0.036822 -0.2673747,0 -0.3767553,-0.01657 -0.2430679,-0.036822 z"
       id="path3028"
       inkscape:connector-curvature="0"
       transform="translate(0,1040.3622)" />
    <path
       style="opacity:0.17720002;fill:#d45500;fill-opacity:1;stroke:#000000;stroke-width:0.00883883;stroke-miterlimit:4;stroke-opacity:1;stroke-dasharray:none"
       d="m 5.5775579,7.8034988 c 0.1336873,-0.020252 0.3524485,-0.020252 0.4861359,0 0.1336873,0.020252 0.024307,0.036822 -0.243068,0.036822 -0.2673747,0 -0.3767553,-0.01657 -0.2430679,-0.036822 z"
       id="path3030"
       inkscape:connector-curvature="0"
       transform="translate(0,1040.3622)" />
    <path
       style="opacity:0.17720002;fill:#d45500;fill-opacity:1;stroke:#000000;stroke-width:0.00883883;stroke-miterlimit:4;stroke-opacity:1;stroke-dasharray:none"
       d="m 5.6649157,7.8060775 c 0.084507,-0.022123 0.243606,-0.022926 0.3535534,-0.00178 0.1099473,0.021142 0.040805,0.039243 -0.1536491,0.040224 -0.1944544,9.811e-4 -0.2844113,-0.016317 -0.1999043,-0.03844 z"
       id="path3032"
       inkscape:connector-curvature="0"
       transform="translate(0,1040.3622)" />
    <path
       style="opacity:0.17720002;fill:#d45500;fill-opacity:1;stroke:#000000;stroke-width:0.00883883;stroke-miterlimit:4;stroke-opacity:1;stroke-dasharray:none"
       d="m 5.7101404,7.8082695 c 0.060767,-0.02452 0.1602039,-0.02452 0.2209709,0 0.060767,0.02452 0.011048,0.044582 -0.1104855,0.044582 -0.1215339,0 -0.1712524,-0.020062 -0.1104854,-0.044582 z"
       id="path3034"
       inkscape:connector-curvature="0"
       transform="translate(0,1040.3622)" />
    <path
       style="opacity:0.17720002;fill:#d45500;fill-opacity:1;stroke:#000000;stroke-width:0.00883883;stroke-miterlimit:4;stroke-opacity:1;stroke-dasharray:none"
       d="m 5.756176,7.8134061 c 0.029371,-0.029371 0.1056056,-0.032511 0.169411,-0.00698 0.07051,0.028216 0.049566,0.04916 -0.053401,0.053401 -0.093176,0.00384 -0.1453804,-0.017053 -0.1160097,-0.046423 z"
       id="path3036"
       inkscape:connector-curvature="0"
       transform="translate(0,1040.3622)" />
    <path
       style="opacity:0.17720002;fill:#d45500;fill-opacity:1;stroke:#000000;stroke-width:0.00883883;stroke-miterlimit:4;stroke-opacity:1;stroke-dasharray:none"
       d="M 3.1953637,9.8167521 C 2.9222177,9.6484457 2.7281103,9.3658611 2.5996925,8.9495646 l -0.061348,-0.1988738 3.9392376,0 c 3.4987237,0 3.9392379,0.015317 3.9392379,0.1369719 0,0.208036 -0.220867,0.5886207 -0.4847549,0.8352999 L 9.6956794,9.9439335 6.587007,9.9675229 C 3.6247156,9.9900016 3.4650102,9.9829021 3.1953637,9.8167521 z"
       id="path3038"
       inkscape:connector-curvature="0"
       transform="translate(0,1040.3622)" />
    <path
       style="opacity:0.17720002;fill:#d45500;fill-opacity:1;stroke:#000000;stroke-width:0.00883883;stroke-miterlimit:4;stroke-opacity:1;stroke-dasharray:none"
       d="M 3.1344754,9.7147965 C 2.9254846,9.5504043 2.6386455,9.0375546 2.6386455,8.8282848 c 0,-0.092411 1.5854212,-0.098311 5.1044268,-0.018997 2.4283037,0.054731 2.5853587,0.068129 2.5853587,0.2205533 0,0.089255 -0.14384,0.3214958 -0.319644,0.5160902 l -0.3196442,0.353808 -3.1597754,0 c -3.0724443,0 -3.1662736,-0.00511 -3.394892,-0.1849428 z"
       id="path3040"
       inkscape:connector-curvature="0"
       transform="translate(0,1040.3622)" />
    <path
       style="opacity:0.17720002;fill:#d45500;fill-opacity:1;stroke:#000000;stroke-width:0.00883883;stroke-miterlimit:4;stroke-opacity:1;stroke-dasharray:none"
       d="M 4.7510865,9.81555 C 3.6670561,9.7797971 3.2441941,9.7342076 3.1321712,9.6410118 2.9683548,9.5047272 2.7270338,9.0823175 2.7270338,8.9318569 c 0,-0.062707 0.8522787,-0.092662 2.6295532,-0.092419 3.216982,4.385e-4 4.883456,0.074894 4.883456,0.218185 0,0.056581 -0.127836,0.2692041 -0.2840801,0.4724956 L 9.6718828,9.8997393 7.9451281,9.8818413 C 6.995413,9.8719974 5.5580942,9.8421663 4.7510865,9.81555 z"
       id="path3042"
       inkscape:connector-curvature="0"
       transform="translate(0,1040.3622)" />
    <path
       style="opacity:0.17720002;fill:#d45500;fill-opacity:1;stroke:#000000;stroke-width:0.00883883;stroke-miterlimit:4;stroke-opacity:1;stroke-dasharray:none"
       d="M 6.5123433,9.8107444 C 3.8280888,9.7593674 3.4187871,9.7332337 3.2158525,9.6002659 2.9772837,9.4439496 2.7467676,9.0550476 2.8383801,8.9634351 c 0.07017,-0.07017 6.1677818,-0.054206 6.8050416,0.017815 0.2795281,0.031592 0.5082333,0.086109 0.5082333,0.1211491 0,0.071409 -0.519275,0.8059043 -0.5529819,0.7821728 C 9.5868251,9.876232 8.1979762,9.843008 6.5123433,9.810744 z"
       id="path3044"
       inkscape:connector-curvature="0"
       transform="translate(0,1040.3622)" />
    <path
       style="opacity:0.17720002;fill:#d45500;fill-opacity:1;stroke:#000000;stroke-width:0.00883883;stroke-miterlimit:4;stroke-opacity:1;stroke-dasharray:none"
       d="M 4.9185458,9.726867 C 3.4270868,9.6752619 3.3429873,9.6627914 3.1286818,9.4614619 2.7443278,9.1003801 2.8264689,9.0404603 3.8014769,8.9706752 4.8638681,8.8946357 9.812431,9.0038464 9.979363,9.1070161 10.06858,9.1621553 10.039842,9.2508517 9.8536776,9.4949256 L 9.6123282,9.8113509 8.0479333,9.7961837 C 7.1875161,9.7878416 5.7792917,9.7566492 4.9185458,9.726867 l 0,0 z"
       id="path3046"
       inkscape:connector-curvature="0"
       transform="translate(0,1040.3622)" />
    <path
       style="opacity:0.17720002;fill:#d45500;fill-opacity:1;stroke:#000000;stroke-width:0.00883883;stroke-miterlimit:4;stroke-opacity:1;stroke-dasharray:none"
       d="M 6.3642939,9.7190458 C 3.7329746,9.6610365 3.4867741,9.6423953 3.2762748,9.4852349 2.9357001,9.2309591 2.9429635,9.1214911 3.3049153,9.0535885 3.6965852,8.9801108 9.8607971,9.0490888 9.9395387,9.1278305 9.9700658,9.1583576 9.9077119,9.324638 9.8009746,9.4973426 9.6665273,9.714883 9.5480245,9.8068548 9.415242,9.7967159 9.3098262,9.7886666 7.9368996,9.753715 6.3642939,9.7190458 z"
       id="path3048"
       inkscape:connector-curvature="0"
       transform="translate(0,1040.3622)" />
    <path
       style="opacity:0.17720002;fill:#d45500;fill-opacity:1;stroke:#000000;stroke-width:0.00883883;stroke-miterlimit:4;stroke-opacity:1;stroke-dasharray:none"
       d="m 5.356587,9.6582442 c 0.2066078,-0.018609 0.5446932,-0.018609 0.7513009,0 0.2066078,0.018609 0.037565,0.033834 -0.3756504,0.033834 -0.4132155,0 -0.5822582,-0.015225 -0.3756505,-0.033834 z"
       id="path3050"
       inkscape:connector-curvature="0"
       transform="translate(0,1040.3622)" />
    <path
       style="opacity:0.17720002;fill:#d45500;fill-opacity:1;stroke:#000000;stroke-width:0.00883883;stroke-miterlimit:4;stroke-opacity:1;stroke-dasharray:none"
       d="m 6.1981177,9.6695613 c 0.029371,-0.029371 0.1056057,-0.032511 0.169411,-0.00698 0.07051,0.028216 0.049566,0.04916 -0.053401,0.053401 -0.093176,0.00384 -0.1453804,-0.017053 -0.1160097,-0.046423 z"
       id="path3052"
       inkscape:connector-curvature="0"
       transform="translate(0,1040.3622)" />
    <path
       style="opacity:0.17720002;fill:#d45500;fill-opacity:1;stroke:#000000;stroke-width:0.00883883;stroke-miterlimit:4;stroke-opacity:1;stroke-dasharray:none"
       d="m 5.5333637,9.6590229 c 0.1579942,-0.019607 0.4165301,-0.019607 0.5745242,0 0.1579942,0.019607 0.028726,0.035649 -0.2872621,0.035649 -0.3159883,0 -0.4452563,-0.016042 -0.2872621,-0.035649 z"
       id="path3054"
       inkscape:connector-curvature="0"
       transform="translate(0,1040.3622)" />
    <path
       style="opacity:0.17720002;fill:#d45500;fill-opacity:1;stroke:#000000;stroke-width:0.00883883;stroke-miterlimit:4;stroke-opacity:1;stroke-dasharray:none"
       d="m 2.2128476,7.5362036 0.02805,-0.2439205 4.2426405,0 4.2426409,0 0,0.2209709 0,0.2209709 -4.2706912,0.02295 -4.2706908,0.02295 0.02805,-0.2439204 z"
       id="path3056"
       inkscape:connector-curvature="0"
       transform="translate(0,1040.3622)" />
    <path
       style="opacity:0.17720002;fill:#d45500;fill-opacity:1;stroke:#000000;stroke-width:0.00883883;stroke-miterlimit:4;stroke-opacity:1;stroke-dasharray:none"
       d="m 6.7045093,7.7774475 -3.3145629,-0.048403 3.6902422,0.00259 3.6902424,0.00259 -2.9e-5,-0.2447105 -2.9e-5,-0.2447104 -4.3310504,0.02374 c -2.3820778,0.013057 -4.3310408,-0.00609 -4.3310289,-0.042552 1.19e-5,-0.03646 1.968872,-0.066291 4.3752447,-0.066291 l 4.3752226,0 0,0.3535534 0,0.3535534 -0.419844,-0.020479 C 10.208002,7.8350657 8.5275189,7.8040691 6.7045093,7.7774475 z"
       id="path3058"
       inkscape:connector-curvature="0"
       transform="translate(0,1040.3622)" />
    <path
       style="opacity:0.17720002;fill:#d45500;fill-opacity:1;stroke:#000000;stroke-width:0.00883883;stroke-miterlimit:4;stroke-opacity:1;stroke-dasharray:none"
       d="M 7.676781,7.778419 5.6880433,7.729111 8.2071111,7.718381 C 9.5925984,7.712481 10.626742,7.739497 10.505208,7.778419 10.383674,7.817341 10.145026,7.844358 9.974878,7.838457 9.8047304,7.832557 8.7705868,7.805539 7.676781,7.778419 z"
       id="path3060"
       inkscape:connector-curvature="0"
       transform="translate(0,1040.3622)" />
    <path
       style="opacity:0.17720002;fill:#d45500;fill-opacity:1;stroke:#000000;stroke-width:0.00883883;stroke-miterlimit:4;stroke-opacity:1;stroke-dasharray:none"
       d="m 6.8591889,7.7144793 c 0.1579941,-0.019607 0.41653,-0.019607 0.5745242,0 0.1579942,0.019607 0.028726,0.035649 -0.2872621,0.035649 -0.3159883,0 -0.4452563,-0.016042 -0.2872621,-0.035649 z"
       id="path3062"
       inkscape:connector-curvature="0"
       transform="translate(0,1040.3622)" />
    <path
       style="opacity:0.17720002;fill:#d45500;fill-opacity:1;stroke:#000000;stroke-width:0.00883883;stroke-miterlimit:4;stroke-opacity:1;stroke-dasharray:none"
       d="m 6.8149947,7.7151105 c 0.1336874,-0.020252 0.3524485,-0.020252 0.4861359,0 0.1336874,0.020252 0.024307,0.036822 -0.243068,0.036822 -0.2673747,0 -0.3767553,-0.01657 -0.2430679,-0.036822 z"
       id="path3064"
       inkscape:connector-curvature="0"
       transform="translate(0,1040.3622)" />
    <path
       style="opacity:0.17720002;fill:#d45500;fill-opacity:1;stroke:#000000;stroke-width:0.00883883;stroke-miterlimit:4;stroke-opacity:1;stroke-dasharray:none"
       d="m 6.9907408,7.7176892 c 0.084507,-0.022123 0.2436061,-0.022926 0.3535534,-0.00178 0.1099474,0.021142 0.040805,0.039243 -0.153649,0.040224 -0.1944544,9.81e-4 -0.2844113,-0.016317 -0.1999044,-0.03844 z"
       id="path3066"
       inkscape:connector-curvature="0"
       transform="translate(0,1040.3622)" />
    <path
       style="opacity:0.17720002;fill:#d45500;fill-opacity:1;stroke:#000000;stroke-width:0.00883883;stroke-miterlimit:4;stroke-opacity:1;stroke-dasharray:none"
       d="m 2.2611402,7.5695778 0.04456,-0.2331005 4.1881423,0 c 4.1292165,0 4.1881425,0.00249 4.1881425,0.1767767 0,0.1738559 -0.05893,0.1767767 -3.5663923,0.1767767 -1.9615157,0 -3.8662317,0.025346 -4.2327023,0.056324 l -0.6663102,0.056324 0.04456,-0.2331006 z"
       id="path3068"
       inkscape:connector-curvature="0"
       transform="translate(0,1040.3622)" />
    <path
       style="opacity:0.17720002;fill:#d45500;fill-opacity:1;stroke:#000000;stroke-width:0.00883883;stroke-miterlimit:4;stroke-opacity:1;stroke-dasharray:none"
       d="m 2.2850446,7.5353511 4.75e-5,-0.1988738 3.7883623,0 c 3.6773943,0 4.6085306,0.036859 4.6085306,0.1824307 0,0.1342476 -0.9530233,0.1740242 -4.6625329,0.1946013 l -3.7344549,0.020716 4.74e-5,-0.1988738 z"
       id="path3070"
       inkscape:connector-curvature="0"
       transform="translate(0,1040.3622)" />
    <path
       style="opacity:0.17720002;fill:#d45500;fill-opacity:1;stroke:#000000;stroke-width:0.00883883;stroke-miterlimit:4;stroke-opacity:1;stroke-dasharray:none"
       d="M 2.2996148,7.5498942 C 2.3317454,7.3855589 2.451357,7.3815621 6.4410515,7.4115096 c 2.2595929,0.016961 4.1249235,0.046792 4.1451795,0.066291 0.02026,0.019499 0.01651,0.055773 -0.0083,0.080608 C 10.55307,7.5832437 8.6728501,7.6295628 6.3996393,7.66134 2.3593337,7.7178195 2.2672715,7.7153171 2.2996148,7.5498942 z"
       id="path3072"
       inkscape:connector-curvature="0"
       transform="translate(0,1040.3622)" />
    <path
       style="opacity:0.17720002;fill:#d45500;fill-opacity:1;stroke:#000000;stroke-width:0.00883883;stroke-miterlimit:4;stroke-opacity:1;stroke-dasharray:none"
       d="m 7.0359656,7.6260909 c 0.1579941,-0.019607 0.41653,-0.019607 0.5745242,0 0.1579942,0.019607 0.028726,0.035649 -0.2872621,0.035649 -0.3159884,0 -0.4452563,-0.016042 -0.2872621,-0.035649 z"
       id="path3074"
       inkscape:connector-curvature="0"
       transform="translate(0,1040.3622)" />
    <path
       style="opacity:0.17720002;fill:#d45500;fill-opacity:1;stroke:#000000;stroke-width:0.00883883;stroke-miterlimit:4;stroke-opacity:1;stroke-dasharray:none"
       d="m 7.1243539,7.6276521 c 0.1093806,-0.021068 0.288367,-0.021068 0.3977475,0 0.1093806,0.021068 0.019887,0.038305 -0.1988737,0.038305 -0.2187612,0 -0.3082544,-0.017237 -0.1988738,-0.038305 z"
       id="path3076"
       inkscape:connector-curvature="0"
       transform="translate(0,1040.3622)" />
    <path
       style="opacity:0.17720002;fill:#d45500;fill-opacity:1;stroke:#000000;stroke-width:0.00883883;stroke-miterlimit:4;stroke-opacity:1;stroke-dasharray:none"
       d="m 7.21106,7.6320535 c 0.059842,-0.024212 0.1791661,-0.025685 0.2651651,-0.00328 0.085999,0.02241 0.037038,0.04222 -0.1088033,0.044021 -0.1458407,0.0018 -0.2162035,-0.016534 -0.1563618,-0.040746 z"
       id="path3078"
       inkscape:connector-curvature="0"
       transform="translate(0,1040.3622)" />
    <path
       style="opacity:0.17720002;fill:#d45500;fill-opacity:1;stroke:#000000;stroke-width:0.00883883;stroke-miterlimit:4;stroke-opacity:1;stroke-dasharray:none"
       d="m 7.2127422,7.6314928 c 0.060767,-0.02452 0.1602039,-0.02452 0.2209709,0 0.060767,0.02452 0.011048,0.044582 -0.1104854,0.044582 -0.121534,0 -0.1712524,-0.020062 -0.1104855,-0.044582 z"
       id="path3080"
       inkscape:connector-curvature="0"
       transform="translate(0,1040.3622)" />
    <path
       style="opacity:0.17720002;fill:#d45500;fill-opacity:1;stroke:#000000;stroke-width:0.00883883;stroke-miterlimit:4;stroke-opacity:1;stroke-dasharray:none"
       d="m 7.2569364,9.7469628 c 0.182301,-0.019069 0.4806116,-0.019069 0.6629126,0 0.1823009,0.019069 0.033146,0.034671 -0.3314563,0.034671 -0.3646019,0 -0.5137572,-0.015602 -0.3314563,-0.034671 z"
       id="path3082"
       inkscape:connector-curvature="0"
       transform="translate(0,1040.3622)" />
    <path
       style="opacity:0.17720002;fill:#d45500;fill-opacity:1;stroke:#000000;stroke-width:0.00883883;stroke-miterlimit:4;stroke-opacity:1;stroke-dasharray:none"
       d="m 7.3453248,9.7480424 c 0.1336873,-0.020252 0.3524485,-0.020252 0.4861358,0 0.1336874,0.020252 0.024307,0.036822 -0.2430679,0.036822 -0.2673747,0 -0.3767553,-0.01657 -0.2430679,-0.036822 z"
       id="path3084"
       inkscape:connector-curvature="0"
       transform="translate(0,1040.3622)" />
    <path
       style="opacity:0.17720002;fill:#d45500;fill-opacity:1;stroke:#000000;stroke-width:0.00883883;stroke-miterlimit:4;stroke-opacity:1;stroke-dasharray:none"
       d="M 5.0210326,9.641014 C 3.8068571,9.5987482 3.5163459,9.5624657 3.3101081,9.4273336 3.1525676,9.3241091 3.0925214,9.2337313 3.1459699,9.1802828 3.2408319,9.0854208 9.7466448,9.1114378 9.842097,9.2070608 9.874282,9.2393028 9.833197,9.3685711 9.750804,9.4943229 L 9.6009935,9.7229626 8.042266,9.7074434 C 7.1849658,9.6989079 5.8254108,9.6690146 5.0210326,9.641014 z"
       id="path3086"
       inkscape:connector-curvature="0"
       transform="translate(0,1040.3622)" />
    <path
       style="opacity:0.17720002;fill:#d45500;fill-opacity:1;stroke:#000000;stroke-width:0.00883883;stroke-miterlimit:4;stroke-opacity:1;stroke-dasharray:none"
       d="M 6.5277326,9.6294161 C 3.8917232,9.5688677 3.3568301,9.5134683 3.2165393,9.2864729 3.1545383,9.1861533 9.3949318,9.1452234 9.6530094,9.244257 9.7613567,9.285834 9.7686039,9.337443 9.6902444,9.509422 9.6367314,9.6268693 9.5297274,9.7163041 9.4524568,9.7081659 9.3751858,9.7000259 8.0590601,9.6645899 6.5277321,9.6294159 z"
       id="path3088"
       inkscape:connector-curvature="0"
       transform="translate(0,1040.3622)" />
    <path
       style="opacity:0.17720002;fill:#d45500;fill-opacity:1;stroke:#000000;stroke-width:0.00883883;stroke-miterlimit:4;stroke-opacity:1;stroke-dasharray:none"
       d="M 5.2019074,9.5409151 C 2.8728587,9.4358021 2.9885141,9.3186128 5.4917915,9.2471864 c 1.824329,-0.052054 4.2179214,-0.00452 4.2179214,0.083771 0,0.013196 -0.024143,0.086909 -0.053651,0.1638052 C 9.6098078,9.6152998 9.399613,9.6326553 8.1313633,9.6206546 7.3222868,9.6129988 6.0040316,9.577116 5.2019074,9.5409151 z"
       id="path3090"
       inkscape:connector-curvature="0"
       transform="translate(0,1040.3622)" />
    <path
       style="opacity:0.17720002;fill:#d45500;fill-opacity:1;stroke:#000000;stroke-width:0.00883883;stroke-miterlimit:4;stroke-opacity:1;stroke-dasharray:none"
       d="M 7.4821041,9.5687466 C 7.8854744,9.5523315 8.5218705,9.5524231 8.8963176,9.56895 9.2707647,9.5854769 8.9407344,9.5989074 8.1629169,9.5987956 7.3850995,9.5986837 7.0787337,9.5851617 7.4821041,9.5687466 z"
       id="path3092"
       inkscape:connector-curvature="0"
       transform="translate(0,1040.3622)" />
    <path
       style="opacity:0.17720002;fill:#d45500;fill-opacity:1;stroke:#000000;stroke-width:0.00883883;stroke-miterlimit:4;stroke-opacity:1;stroke-dasharray:none"
       d="M 6.951041,9.6574302 C 7.2567809,9.6401212 7.734078,9.6402642 8.0117011,9.657748 8.2893241,9.675232 8.0391731,9.689394 7.4558102,9.689219 6.8724471,9.6890443 6.645301,9.6747393 6.951041,9.6574302 z"
       id="path3094"
       inkscape:connector-curvature="0"
       transform="translate(0,1040.3622)" />
    <path
       style="opacity:0.17720002;fill:#d45500;fill-opacity:1;stroke:#000000;stroke-width:0.00883883;stroke-miterlimit:4;stroke-opacity:1;stroke-dasharray:none"
       d="m 8.0524315,7.7131011 c 0.2795281,-0.017541 0.7369378,-0.017541 1.016466,0 0.2795281,0.017541 0.050823,0.031892 -0.508233,0.031892 -0.5590563,0 -0.7877611,-0.014352 -0.508233,-0.031892 z"
       id="path3096"
       inkscape:connector-curvature="0"
       transform="translate(0,1040.3622)" />
    <path
       style="opacity:0.17720002;fill:#d45500;fill-opacity:1;stroke:#000000;stroke-width:0.00883883;stroke-miterlimit:4;stroke-opacity:1;stroke-dasharray:none"
       d="m 8.2292082,7.7140309 c 0.182301,-0.019069 0.4806116,-0.019069 0.6629126,0 0.1823009,0.019069 0.033146,0.034671 -0.3314563,0.034671 -0.3646019,0 -0.5137573,-0.015602 -0.3314563,-0.034671 z"
       id="path3098"
       inkscape:connector-curvature="0"
       transform="translate(0,1040.3622)" />
    <path
       style="opacity:0.17720002;fill:#d45500;fill-opacity:1;stroke:#000000;stroke-width:0.00883883;stroke-miterlimit:4;stroke-opacity:1;stroke-dasharray:none"
       d="M 7.1266903,9.65813 C 7.334583,9.6394584 7.652781,9.6397211 7.833797,9.6587134 8.014813,9.6777064 7.8447189,9.6929832 7.4558102,9.6926622 7.0669015,9.6923411 6.9187975,9.6768017 7.1266903,9.65813 z"
       id="path3100"
       inkscape:connector-curvature="0"
       transform="translate(0,1040.3622)" />
    <path
       style="opacity:0.17720002;fill:#d45500;fill-opacity:1;stroke:#000000;stroke-width:0.00883883;stroke-miterlimit:4;stroke-opacity:1;stroke-dasharray:none"
       d="M 7.1669651,9.6598068 C 7.2997819,9.6396389 7.5384304,9.639233 7.6972952,9.6589048 7.85616,9.6785766 7.7474917,9.6950777 7.4558102,9.6955738 7.1641286,9.6960699 7.0341484,9.6799747 7.1669651,9.6598068 z"
       id="path3102"
       inkscape:connector-curvature="0"
       transform="translate(0,1040.3622)" />
    <path
       style="opacity:0.17720002;fill:#d45500;fill-opacity:1;stroke:#000000;stroke-width:0.00883883;stroke-miterlimit:4;stroke-opacity:1;stroke-dasharray:none"
       d="m 7.2127422,9.660584 c 0.1093806,-0.021068 0.288367,-0.021068 0.3977476,0 0.1093806,0.021068 0.019887,0.038305 -0.1988738,0.038305 -0.2187611,0 -0.3082543,-0.017237 -0.1988738,-0.038305 z"
       id="path3104"
       inkscape:connector-curvature="0"
       transform="translate(0,1040.3622)" />
    <path
       style="opacity:0.17720002;fill:#d45500;fill-opacity:1;stroke:#000000;stroke-width:0.00883883;stroke-miterlimit:4;stroke-opacity:1;stroke-dasharray:none"
       d=""
       id="path3106"
       inkscape:connector-curvature="0"
       transform="translate(0,1040.3622)" />
  </g>
</svg>
