<?xml version="1.0" encoding="UTF-8" standalone="no"?>
<!-- Created with Inkscape (http://www.inkscape.org/) -->

<svg
   xmlns:dc="http://purl.org/dc/elements/1.1/"
   xmlns:cc="http://creativecommons.org/ns#"
   xmlns:rdf="http://www.w3.org/1999/02/22-rdf-syntax-ns#"
   xmlns:svg="http://www.w3.org/2000/svg"
   xmlns="http://www.w3.org/2000/svg"
   xmlns:sodipodi="http://sodipodi.sourceforge.net/DTD/sodipodi-0.dtd"
   xmlns:inkscape="http://www.inkscape.org/namespaces/inkscape"
   width="12"
   height="12"
   id="svg4764"
   version="1.1"
   inkscape:version="0.48.4 r9939"
   sodipodi:docname="fire-station-12.svg">
  <defs
     id="defs4766" />
  <sodipodi:namedview
     id="base"
     pagecolor="#ffffff"
     bordercolor="#666666"
     borderopacity="1.0"
     inkscape:pageopacity="0.0"
     inkscape:pageshadow="2"
     inkscape:zoom="11.313709"
     inkscape:cx="5.6084938"
     inkscape:cy="5.0524314"
     inkscape:document-units="px"
     inkscape:current-layer="layer1"
     showgrid="true"
     showguides="true"
     inkscape:guide-bbox="true"
     inkscape:window-width="957"
     inkscape:window-height="704"
     inkscape:window-x="92"
     inkscape:window-y="-16"
     inkscape:window-maximized="0"
     inkscape:snap-bbox="true"
     inkscape:snap-nodes="false">
    <inkscape:grid
       type="xygrid"
       id="grid4772"
       empspacing="5"
       visible="true"
       enabled="true"
       snapvisiblegridlinesonly="true"
       spacingx="1px"
       spacingy="1px" />
    <sodipodi:guide
       orientation="0,1"
       position="2,12"
       id="guide4789" />
    <sodipodi:guide
       orientation="1,0"
       position="12,10"
       id="guide4791" />
    <sodipodi:guide
       orientation="0,1"
       position="10,0"
       id="guide4793" />
    <sodipodi:guide
       orientation="1,0"
       position="0,9"
       id="guide4795" />
    <sodipodi:guide
       orientation="0,1"
       position="5,11"
       id="guide4797" />
    <sodipodi:guide
       orientation="1,0"
       position="11,7"
       id="guide4799" />
    <sodipodi:guide
       orientation="0,1"
       position="9,2"
       id="guide4801" />
    <sodipodi:guide
       orientation="1,0"
       position="2,5"
       id="guide4803" />
  </sodipodi:namedview>
  <metadata
     id="metadata4769">
    <rdf:RDF>
      <cc:Work
         rdf:about="">
        <dc:format>image/svg+xml</dc:format>
        <dc:type
           rdf:resource="http://purl.org/dc/dcmitype/StillImage" />
        <dc:title />
      </cc:Work>
    </rdf:RDF>
  </metadata>
  <g
     inkscape:label="Layer 1"
     inkscape:groupmode="layer"
     id="layer1"
     transform="translate(0,-1040.3622)">
    <g
       style="display:inline"
       id="fire-station-12"
       inkscape:label="fire-station-12"
       transform="translate(-438,-33.999983)"
       inkscape:export-xdpi="89.996864"
       inkscape:export-ydpi="89.996864">
      <g
         transform="translate(-1,-1)"
         id="g21514">
        <path
           sodipodi:nodetypes="cccsssccc"
           inkscape:connector-curvature="0"
           id="path5434"
           d="m 445.5,1076.3622 -1.5,3 -1.5,-1.5 c -0.33139,0.5826 -1.5,2 -1.5,3.5 0,2.2092 2.29086,4 4.5,4 2.20914,0 4.5,-1.7908 4.5,-4 0,-1.5 -1.16861,-2.9174 -1.5,-3.5 l -1.5,1.5 z"
           style="opacity:0.3;color:#000000;fill:#ffffff;stroke:#ffffff;stroke-width:2;stroke-linecap:round;stroke-linejoin:round;stroke-miterlimit:4;stroke-opacity:1;stroke-dasharray:none;stroke-dashoffset:0;marker:none;visibility:visible;display:inline;overflow:visible;enable-background:accumulate" />
        <path
           style="color:#000000;fill:#444444;fill-opacity:1;fill-rule:nonzero;stroke:none;stroke-width:2;marker:none;visibility:visible;display:inline;overflow:visible;enable-background:accumulate"
           d="m 445.5,1076.3622 -1.5,3 -1.5,-1.5 c -0.33139,0.5826 -1.5,2 -1.5,3.5 0,2.2092 2.29086,4 4.5,4 2.20914,0 4.5,-1.7908 4.5,-4 0,-1.5 -1.16861,-2.9174 -1.5,-3.5 l -1.5,1.5 z m 0,4.5 c 0,0 1.5,1.3423 1.5,2.5 0,0.5 -0.5,1 -1.5,1 -1,0 -1.5,-0.5 -1.5,-1 0,-1.118 1.5,-2.5 1.5,-2.5 z"
           id="path10041-3-2"
           inkscape:connector-curvature="0"
           sodipodi:nodetypes="cccsssccccsssc" />
      </g>
      <rect
         style="opacity:0.5;color:#000000;fill:none;stroke:none;stroke-width:2;marker:none;visibility:visible;display:inline;overflow:visible;enable-background:accumulate"
         id="rect22292-6"
         width="11.999998"
         height="12.000007"
         x="438"
         y="1074.3622" />
    </g>
    <path
       style="opacity:0.17720002;fill:#ff0000;fill-opacity:1;stroke:#000000;stroke-width:0.00883883;stroke-miterlimit:4;stroke-opacity:1;stroke-dasharray:none"
       d="M 5.9046481,9.8918973 C 4.9851956,9.7611324 3.9526586,9.2574102 3.2342233,8.5891333 2.8120543,8.1964384 2.2983826,7.3142446 2.1463439,6.7207797 1.9774753,6.061621 2.0597366,5.2841792 2.3765562,4.5450689 2.5913934,4.0438741 3.4207412,2.6518951 3.5045183,2.6518951 c 0.032182,0 0.3843015,0.3240968 0.7824883,0.720215 L 5.0109825,4.0923252 5.7587506,2.5988607 6.5065188,1.1053962 7.244919,2.585416 7.9833191,4.0654358 8.7399951,3.3122655 9.4966712,2.5590953 10.039686,3.4672815 c 0.987123,1.6509521 1.138328,2.7376548 0.54825,3.9402332 C 9.7727485,9.0688662 7.7314871,10.151711 5.9046481,9.8918973 z M 7.3554203,8.8939842 C 8.3776843,8.4668551 8.2029736,7.3007173 6.8969552,5.8338755 L 6.5428163,5.4361279 6.1755414,5.7896813 C 5.6381235,6.3070209 5.1332472,7.1250426 5.0226946,7.6575714 c -0.1257157,0.6055693 0.036309,0.9484199 0.5607249,1.1865124 0.4442431,0.201693 1.3478117,0.227138 1.7720008,0.0499 l 0,0 z"
       id="path2996"
       inkscape:connector-curvature="0"
       transform="translate(0,1040.3622)" />
    <path
       style="opacity:0.17720002;fill:#ff0000;fill-opacity:1;stroke:#000000;stroke-width:0.00883883;stroke-miterlimit:4;stroke-opacity:1;stroke-dasharray:none"
       d="M 5.5270251,9.7604024 C 4.1928976,9.4373288 3.004867,8.5168213 2.4556835,7.3806715 2.183403,6.8173781 2.1564283,6.6893682 2.1545608,5.9516773 L 2.1525096,5.1414017 2.6617294,4.1397163 C 2.9418003,3.5887894 3.2483916,3.0385941 3.3430434,2.9170601 L 3.5151374,2.6960893 4.26306,3.4384014 5.0109825,4.1807135 5.7582986,2.6881518 6.5056147,1.19559 7.224301,2.6308493 c 0.3952774,0.7893926 0.7474522,1.4352593 0.7826107,1.4352593 0.035158,0 0.3881746,-0.3225658 0.7844803,-0.7168128 L 9.5119479,2.6324831 10.017778,3.5258522 C 10.836545,4.9719144 11.039201,5.9619847 10.719221,6.952745 10.296827,8.2606118 8.8691556,9.4471041 7.3235258,9.7747994 6.6155587,9.9248984 6.1923019,9.9215064 5.5270251,9.7604024 z M 7.4463357,8.8818451 C 8.038694,8.6007527 8.1880168,7.8968687 7.8210489,7.1155065 7.5614488,6.5627558 6.633903,5.3717618 6.4970603,5.4154691 6.4410096,5.4333716 6.1511287,5.7490194 5.8528803,6.1169086 4.7499475,7.4773759 4.6802035,8.6299408 5.683173,8.9214326 6.1316412,9.0517704 7.1357546,9.0292255 7.4463357,8.8818451 l 0,0 z"
       id="path2998"
       inkscape:connector-curvature="0"
       transform="translate(0,1040.3622)" />
    <path
       style="opacity:0.17720002;fill:#ff0000;fill-opacity:1;stroke:#000000;stroke-width:0.00883883;stroke-miterlimit:4;stroke-opacity:1;stroke-dasharray:none"
       d="M 5.2019074,9.6152333 C 3.9865805,9.188713 3.055271,8.4190002 2.5421419,7.4169786 2.2868272,6.9184086 2.2474281,6.7471187 2.2141569,5.991045 L 2.1763433,5.1317484 2.7302302,4.1113927 C 3.5499896,2.6012534 3.3896181,2.6624649 4.2618658,3.5267897 L 5.0109825,4.2691019 5.7562857,2.7805602 6.5015891,1.2920185 7.1996705,2.6569665 c 0.3839448,0.7507213 0.74521,1.3649479 0.8028117,1.3649479 0.057602,0 0.4220179,-0.2878904 0.8098139,-0.6397565 L 9.5173798,2.7424015 9.7351161,3.1169929 C 11.088994,5.4461912 11.146933,6.6386744 9.9780722,8.1173941 9.5499093,8.6590609 8.6365289,9.2917726 7.895682,9.5598957 7.0915739,9.8509141 5.9408156,9.8745538 5.2019074,9.6152333 z M 7.4987748,8.8610389 C 8.0006006,8.6093484 8.1642835,8.0263224 7.9292921,7.3275698 7.7947953,6.9276402 7.1418059,5.9438142 6.791227,5.6129046 L 6.5103004,5.3477396 6.0442179,5.8578063 C 4.862734,7.1507871 4.6171609,8.5047357 5.4948896,8.8864856 5.9123202,9.0680384 7.1165443,9.0527463 7.4987748,8.8610389 l 0,0 z"
       id="path3000"
       inkscape:connector-curvature="0"
       transform="translate(0,1040.3622)" />
    <path
       style="opacity:0.17720002;fill:#ff0000;fill-opacity:1;stroke:#000000;stroke-width:0.00883883;stroke-miterlimit:4;stroke-opacity:1;stroke-dasharray:none"
       d="M 5.5112666,9.6594998 C 4.7598846,9.4769151 3.6319895,8.7873326 3.126644,8.2015683 2.5775978,7.5651488 2.3698201,7.0579836 2.2738576,6.1199993 2.2264651,5.6567619 2.2116357,5.2139478 2.2409033,5.1359679 2.270171,5.057988 2.5364126,4.5467202 2.8325514,3.9998173 3.1799405,3.3582663 3.4222328,3.0054485 3.515419,3.0054485 c 0.079438,0 0.4207232,0.2784233 0.7584108,0.6187184 0.3376876,0.3402951 0.6553846,0.6187184 0.7059934,0.6187184 0.050609,0 0.4127145,-0.6428333 0.8046791,-1.4285185 L 6.4971654,1.3858483 7.0907576,2.513893 C 7.7330995,3.7345804 7.9312931,4.0661851 8.0184029,4.06597 8.049272,4.0658938 8.3927266,3.7888376 8.7816353,3.4502896 9.6036934,2.7346817 9.5044663,2.6986659 10.113003,3.9335261 10.854816,5.438835 10.931927,6.3160555 10.41283,7.3443805 9.9129189,8.3346991 8.7920999,9.2351408 7.6146076,9.5924118 7.2131604,9.7142176 5.9077872,9.7558537 5.5112666,9.6594998 z M 7.4470974,8.8926101 C 8.3421423,8.5186364 8.2179196,7.3353708 7.1417127,5.9837117 6.5386692,5.2263209 6.5420921,5.2265495 5.9672656,5.9052724 5.3575839,6.6251506 5.0093493,7.3003534 4.9635908,7.8513293 4.895152,8.6753964 5.3334751,9.0154927 6.4642803,9.0157185 c 0.388625,7.76e-5 0.8161639,-0.053476 0.9828171,-0.1231084 z"
       id="path3002"
       inkscape:connector-curvature="0"
       transform="translate(0,1040.3622)" />
    <path
       style="opacity:0.17720002000000001;fill:#800000;fill-opacity:1;stroke:#000000;stroke-width:0.00883883000000000;stroke-miterlimit:4;stroke-opacity:1;stroke-dasharray:none"
       d="M 5.022995,9.4294854 C 3.6104762,8.8483233 2.6679651,7.8475118 2.4168173,6.6620988 2.1688293,5.4916002 2.2161334,5.2057243 2.8381777,4.1156663 3.1416505,3.5838667 3.4360174,3.134302 3.4923265,3.1166335 c 0.056309,-0.017668 0.3917634,0.2285101 0.745454,0.5470636 0.3536908,0.3185535 0.6908736,0.5791882 0.7492954,0.5791882 0.058422,0 0.4229299,-0.6202848 0.810018,-1.3784105 l 0.7037968,-1.3784105 0.686792,1.2900222 c 0.3777357,0.7095121 0.7381419,1.2900221 0.8009027,1.2900221 0.062761,0 0.3997459,-0.2386485 0.7488558,-0.5303301 0.3491098,-0.2916815 0.6647493,-0.53033 0.701421,-0.53033 0.1384703,0 0.3478863,0.334678 0.6913338,1.1048543 0.609189,1.3660979 0.696671,2.0386944 0.376076,2.8914025 C 10.13252,7.9957973 8.9777593,9.0568402 7.8336689,9.4574062 7.087859,9.7185272 5.6918063,9.704659 5.022995,9.4294854 l 0,0 z M 7.7725876,8.6830051 C 7.9892351,8.4403766 8.0303344,8.3189472 8.0303344,7.9214826 c 0,-0.6145943 -0.45044,-1.5364516 -1.07034,-2.1905268 L 6.5130308,5.2593512 6.0349162,5.7894312 C 5.0727128,6.8562147 4.6815344,8.0545214 5.1163247,8.6033755 5.4045313,8.9671907 5.5864271,9.0148007 6.6014421,8.9920946 7.5109771,8.9717481 7.5159311,8.9704407 7.7725876,8.6830051 l 0,0 z"
       id="path3004"
       inkscape:connector-curvature="0"
       transform="translate(0,1040.3622)" />
    <path
       style="opacity:0.17720002;fill:#800000;fill-opacity:1;stroke:#000000;stroke-width:0.00883883;stroke-miterlimit:4;stroke-opacity:1;stroke-dasharray:none"
       d="M 3.1181018,5.8683045 C 3.1290029,4.641259 3.1332491,4.6157704 3.3808346,4.291169 3.5925021,4.0136587 3.6693947,3.9701318 3.8647701,4.0172255 c 0.1277557,0.030795 0.2738042,0.06102 0.3245522,0.067168 0.050748,0.00615 0.1474951,0.070297 0.2149933,0.1425545 0.1078784,0.1154842 0.069986,0.1245518 -0.31324,0.074959 C 3.8512953,4.2708773 3.6115172,4.2747346 3.5582353,4.3104786 3.4152119,4.4064257 3.3522968,4.7437343 3.2876609,5.7611182 3.197152,7.1857494 3.1058849,7.2434436 3.1181018,5.8683045 z"
       id="path3039"
       inkscape:connector-curvature="0"
       transform="translate(0,1040.3622)" />
    <path
       style="opacity:0.17720002;fill:#800000;fill-opacity:1;stroke:#000000;stroke-width:0.00883883;stroke-miterlimit:4;stroke-opacity:1;stroke-dasharray:none"
       d="M 3.1443478,6.3679634 C 3.0747246,6.101724 3.1682034,4.7673237 3.2764349,4.482433 3.4166228,4.1134255 3.6498772,3.9851889 4.0264192,4.0701129 c 0.1746058,0.03938 0.3414776,0.1102412 0.3708262,0.1574695 0.029349,0.047228 0.152798,0.1066935 0.274332,0.1321451 0.1215339,0.025452 -0.1041562,0.039247 -0.5015337,0.030657 L 3.4475392,4.3747656 3.3982582,4.6211707 C 3.3711536,4.7566935 3.3234825,5.2341485 3.2923223,5.682182 3.2611621,6.1302153 3.2257133,6.5083093 3.2135471,6.5223909 3.2013809,6.5364725 3.1702412,6.4669801 3.1443478,6.3679634 z M 3.9406913,4.2700213 c -0.085999,-0.02241 -0.2053232,-0.020936 -0.265165,0.00328 -0.059842,0.024212 0.010521,0.042547 0.1563618,0.040746 0.1458408,-0.0018 0.1948022,-0.021611 0.1088032,-0.044021 z"
       id="path3041"
       inkscape:connector-curvature="0"
       transform="translate(0,1040.3622)" />
  </g>
</svg>
