<?xml version="1.0" encoding="UTF-8" standalone="no"?>
<!-- Created with Inkscape (http://www.inkscape.org/) -->

<svg
   xmlns:dc="http://purl.org/dc/elements/1.1/"
   xmlns:cc="http://creativecommons.org/ns#"
   xmlns:rdf="http://www.w3.org/1999/02/22-rdf-syntax-ns#"
   xmlns:svg="http://www.w3.org/2000/svg"
   xmlns="http://www.w3.org/2000/svg"
   xmlns:sodipodi="http://sodipodi.sourceforge.net/DTD/sodipodi-0.dtd"
   xmlns:inkscape="http://www.inkscape.org/namespaces/inkscape"
   width="12"
   height="12"
   id="svg4764"
   version="1.1"
   inkscape:version="0.48.4 r9939"
   sodipodi:docname="fuel-12.svg">
  <defs
     id="defs4766" />
  <sodipodi:namedview
     id="base"
     pagecolor="#ffffff"
     bordercolor="#666666"
     borderopacity="1.0"
     inkscape:pageopacity="0.0"
     inkscape:pageshadow="2"
     inkscape:zoom="22.627417"
     inkscape:cx="8.7068106"
     inkscape:cy="4.7770366"
     inkscape:document-units="px"
     inkscape:current-layer="layer1"
     showgrid="true"
     showguides="true"
     inkscape:guide-bbox="true"
     inkscape:window-width="1366"
     inkscape:window-height="706"
     inkscape:window-x="-8"
     inkscape:window-y="-8"
     inkscape:window-maximized="1">
    <inkscape:grid
       type="xygrid"
       id="grid4772"
       empspacing="5"
       visible="true"
       enabled="true"
       snapvisiblegridlinesonly="true" />
    <sodipodi:guide
       orientation="0,1"
       position="2,12"
       id="guide4789" />
    <sodipodi:guide
       orientation="1,0"
       position="12,10"
       id="guide4791" />
    <sodipodi:guide
       orientation="0,1"
       position="10,0"
       id="guide4793" />
    <sodipodi:guide
       orientation="1,0"
       position="0,9"
       id="guide4795" />
    <sodipodi:guide
       orientation="0,1"
       position="5,11"
       id="guide4797" />
    <sodipodi:guide
       orientation="1,0"
       position="11,7"
       id="guide4799" />
    <sodipodi:guide
       orientation="0,1"
       position="9,2"
       id="guide4801" />
    <sodipodi:guide
       orientation="1,0"
       position="2,5"
       id="guide4803" />
  </sodipodi:namedview>
  <metadata
     id="metadata4769">
    <rdf:RDF>
      <cc:Work
         rdf:about="">
        <dc:format>image/svg+xml</dc:format>
        <dc:type
           rdf:resource="http://purl.org/dc/dcmitype/StillImage" />
        <dc:title />
      </cc:Work>
    </rdf:RDF>
  </metadata>
  <g
     inkscape:label="Layer 1"
     inkscape:groupmode="layer"
     id="layer1"
     transform="translate(0,-1040.3622)">
    <g
       style="display:inline"
       id="fuel-12"
       transform="translate(-126,-130)"
       inkscape:label="fuel-12"
       inkscape:export-xdpi="89.996864"
       inkscape:export-ydpi="89.996864">
      <g
         id="g21802">
        <path
           id="path9111"
           d="m 130.5,1171.3622 c -0.27701,0 -0.5,0.223 -0.5,0.5 l 0,8 c 0,0.25 0.25,0.5 0.5,0.5 l 4,0 c 0.25,0 0.5,-0.25 0.5,-0.5 l 0,-0.5 1.25,0 c 0.5,0 0.75,-0.25 0.75,-0.75 l 0,-2.75 c 0,-0.5 -1,-1 -1,-1.5 l 0,-0.25 0,-0.75 -1,-1 0,-0.5 c 0,-0.277 -0.223,-0.5 -0.5,-0.5 l -4,0 z m 0.5,1 3,0 0,2 -3,0 0,-2 z m 4,1.5 0.5,0 0,0.75 c 0,0.5 1,1 1,1.5 l 0,2.25 0,0.25 c 0,0.25 -0.25,0.25 -0.25,0.25 l -0.75,0 0,-1.5 -0.5,0 0,-3.5 z"
           style="opacity:0.3;color:#000000;fill:#ffffff;fill-opacity:1;fill-rule:nonzero;stroke:#ffffff;stroke-width:2;stroke-linecap:butt;stroke-linejoin:round;stroke-miterlimit:4;stroke-opacity:1;stroke-dasharray:none;stroke-dashoffset:0;marker:none;visibility:visible;display:inline;overflow:visible;enable-background:accumulate"
           inkscape:connector-curvature="0" />
        <path
           style="color:#000000;fill:#444444;fill-opacity:1;fill-rule:nonzero;stroke:none;stroke-width:2;marker:none;visibility:visible;display:inline;overflow:visible;enable-background:accumulate"
           d="m 130.5,1171.3622 c -0.27701,0 -0.5,0.223 -0.5,0.5 l 0,8 c 0,0.25 0.25,0.5 0.5,0.5 l 4,0 c 0.25,0 0.5,-0.25 0.5,-0.5 l 0,-0.5 1.25,0 c 0.5,0 0.75,-0.25 0.75,-0.75 l 0,-2.75 c 0,-0.5 -1,-1 -1,-1.5 l 0,-0.25 0,-0.75 -1,-1 0,-0.5 c 0,-0.277 -0.223,-0.5 -0.5,-0.5 l -4,0 z m 0.5,1 3,0 0,2 -3,0 0,-2 z m 4,1.5 0.5,0 0,0.75 c 0,0.5 1,1 1,1.5 l 0,2.25 0,0.25 c 0,0.25 -0.25,0.25 -0.25,0.25 l -0.75,0 0,-1.5 -0.5,0 0,-3.5 z"
           id="rect7223-2-4-9-3"
           inkscape:connector-curvature="0" />
      </g>
      <rect
         style="opacity:0.5;color:#000000;fill:none;stroke:none;stroke-width:2;marker:none;visibility:visible;display:inline;overflow:visible;enable-background:accumulate"
         id="rect22180"
         width="11.999998"
         height="12.000007"
         x="126"
         y="1170.3622" />
    </g>
    <path
       style="opacity:0.17720002;fill:#a02c2c;fill-opacity:1;stroke:#000000;stroke-width:0.00441942;stroke-miterlimit:4;stroke-opacity:1;stroke-dasharray:none"
       d="M 4.4042823,9.9519939 C 4.3300226,9.9299454 4.220642,9.8601539 4.1612144,9.7969015 L 4.0531641,9.6818972 4.0414536,5.5105364 4.0297432,1.3391755 4.1593356,1.1941064 4.288928,1.0490373 6.4358229,1.0367636 c 2.3906368,-0.013667 2.3584029,-0.01729 2.4821819,0.2789546 0.034545,0.082679 0.06281,0.2755841 0.06281,0.4286788 l 0,0.2783539 0.508233,0.5067912 0.508233,0.5067912 0,0.5657515 c 0,0.6575648 -0.0086,0.6367162 0.4740742,1.1487526 0.539355,0.5721604 0.497852,0.3907984 0.497964,2.176025 8.8e-5,1.7024909 -0.0053,1.7403843 -0.279095,1.9414024 -0.113051,0.083014 -0.198371,0.09289 -0.9170285,0.106157 l -0.7923807,0.014628 0,0.2630053 c 0,0.3204051 -0.07891,0.5232825 -0.2480871,0.6378324 -0.1215442,0.082298 -0.223493,0.086747 -2.1604954,0.094284 -1.1181126,0.00435 -2.09369,-0.010129 -2.1679497,-0.032177 l 0,0 z m 6.0068827,-1.5036401 0.116446,-0.091596 0,-1.3240372 c 0,-1.0805426 -0.01227,-1.3533939 -0.0667,-1.4836704 C 10.424227,5.4612519 10.225106,5.2051921 10.018421,4.9800284 9.8117352,4.7548647 9.6130448,4.4998355 9.5768865,4.4132968 9.5351592,4.3134294 9.5111446,4.1101429 9.5111446,3.8567868 l 0,-0.399167 -0.2651651,0 -0.265165,0 0,1.789864 0,1.7898641 0.2430679,0 0.243068,0 0,0.7513009 0,0.751301 0.4138846,0 c 0.351798,0 0.431353,-0.01374 0.53033,-0.091596 z m -2.4026223,-5.4326757 0,-1.016466 -1.524699,0 -1.524699,0 0,1.016466 0,1.016466 1.524699,0 1.524699,0 0,-1.016466 z"
       id="path2996"
       inkscape:connector-curvature="0"
       transform="translate(0,1040.3622)" />
    <path
       style="opacity:0.17720002;fill:#a02c2c;fill-opacity:1;stroke:#000000;stroke-width:0.00441942;stroke-miterlimit:4;stroke-opacity:1;stroke-dasharray:none"
       d="M 4.3183291,9.8850839 C 4.2454088,9.8473893 4.1625485,9.7928215 4.1341953,9.7638221 4.0958723,9.7246254 4.0788616,8.6394167 4.067904,5.534746 L 4.053164,1.3583965 4.1556103,1.2147655 4.2580565,1.0711344 6.387416,1.0713809 c 1.2968337,1.502e-4 2.1921679,0.017692 2.2900054,0.044868 0.1924828,0.053465 0.2408847,0.1556653 0.2821206,0.5957009 l 0.02899,0.3093592 0.504374,0.5123285 0.504374,0.5123284 0,0.5394779 c 0,0.6448865 0.010049,0.6696861 0.486921,1.201547 0.189467,0.2113155 0.368118,0.4576584 0.40125,0.5532847 0.08428,0.2432585 0.0743,3.0094381 -0.01177,3.2612362 -0.0854,0.2498571 -0.271651,0.3361855 -0.72529,0.3361855 -0.1971773,0 -0.5388133,0.012799 -0.7591919,0.028442 L 8.9885109,8.9945805 8.958066,9.2977367 C 8.9218232,9.6586263 8.7983036,9.8738868 8.6035023,9.9156428 8.5314958,9.9310772 7.5677058,9.9459362 6.4617466,9.9486621 4.7249034,9.9529445 4.4328463,9.944278 4.3183291,9.8850839 z m 6.0809289,-1.4209541 0.128353,-0.07582 0,-1.3398131 c 0,-1.083825 -0.01252,-1.369767 -0.06551,-1.4965897 C 10.426077,5.4656797 10.240009,5.2127544 10.048622,4.9898507 9.8572344,4.766947 9.6701053,4.5249091 9.6327789,4.4519887 9.5953955,4.3789567 9.5504774,4.1258669 9.5327732,3.888513 l -0.03214,-0.4308932 -0.2599095,0 -0.2599094,0 0,1.789864 0,1.7898641 0.2430679,0 0.243068,0 0,0.7513009 0,0.751301 0.4019774,0 c 0.3004264,0 0.4344024,-0.019154 0.5303304,-0.07582 z m -2.3907153,-5.4484517 0,-1.016466 -1.524699,0 -1.524699,0 0,1.016466 0,1.016466 1.524699,0 1.524699,0 0,-1.016466 z"
       id="path2998"
       inkscape:connector-curvature="0"
       transform="translate(0,1040.3622)" />
    <path
       style="opacity:0.17720002;fill:#a02c2c;fill-opacity:1;stroke:#000000;stroke-width:0.00441942;stroke-miterlimit:4;stroke-opacity:1;stroke-dasharray:none"
       d="M 5.0696301,9.9118187 C 4.3506969,9.8874717 4.2043953,9.8542651 4.1420114,9.7012746 4.1243911,9.6580624 4.1009947,7.7532935 4.0900194,5.4684547 L 4.0700643,1.3142024 4.186799,1.1859597 4.3035336,1.057717 6.4543488,1.082647 c 1.3211307,0.015313 2.196672,0.042661 2.2696909,0.070895 0.1309659,0.050641 0.2119009,0.2581795 0.212334,0.544482 3.977e-4,0.2686318 0.065809,0.3699585 0.5731326,0.8879496 l 0.485781,0.4959954 9.944e-4,0.5214762 c 0.00117,0.6133248 0.01469,0.6487196 0.4422343,1.1579024 0.510748,0.6082731 0.464743,0.394096 0.464743,2.1636146 0,1.7017519 -0.01081,1.782142 -0.256641,1.9092683 -0.09541,0.049338 -0.348674,0.079525 -0.8842388,0.1053912 -0.5405381,0.026107 -0.7608677,0.052548 -0.7874704,0.094502 -0.020316,0.032039 -0.038755,0.1378023 -0.040976,0.2350294 -0.00559,0.2448274 -0.094034,0.4671983 -0.2214071,0.5566995 -0.094446,0.066364 -0.277519,0.077515 -1.5215771,0.092677 -0.7778174,0.00948 -1.7324116,0.00646 -2.1213203,-0.00671 l 2.2e-6,0 z M 10.454662,8.4571988 c 0.06492,-0.05398 0.07295,-0.2110152 0.07295,-1.4270228 0,-1.5823516 0.0295,-1.4570925 -0.48746,-2.0699543 C 9.6698034,4.5211672 9.6064374,4.3933704 9.5743665,4.0208258 9.5229524,3.4235816 9.5429202,3.4576198 9.2439771,3.4576198 l -0.2631626,0 0,1.7875544 0,1.7875545 0.2320194,0.013358 0.2320194,0.013358 0.012135,0.744244 0.012135,0.744244 0.4562951,-0.01504 c 0.3024146,-0.00997 0.4808956,-0.035495 0.5292426,-0.075694 l 0,0 z m -2.4461193,-5.4415207 0,-1.016466 -1.524699,0 -1.524699,0 0,1.016466 0,1.016466 1.524699,0 1.524699,0 0,-1.016466 z"
       id="path3000"
       inkscape:connector-curvature="0"
       transform="translate(0,1040.3622)" />
    <path
       style="opacity:0.17720002;fill:#a02c2c;fill-opacity:1;stroke:#000000;stroke-width:0.00441942;stroke-miterlimit:4;stroke-opacity:1;stroke-dasharray:none"
       d="M 4.5881009,9.8642043 C 4.420487,9.8440924 4.2570162,9.8013054 4.2248325,9.7691215 4.1488624,9.6931517 4.1262351,8.7702129 4.097471,4.574207 L 4.0752842,1.3376681 4.1969695,1.2014787 4.3186547,1.0652893 6.5266249,1.1082338 c 2.547373,0.049546 2.3314151,0.00208 2.3871192,0.5246914 0.017587,0.1649976 0.052628,0.3397704 0.077868,0.3883839 0.025241,0.048614 0.2496463,0.2972059 0.4986791,0.5524272 l 0.4527861,0.4640388 0.031632,0.5523357 c 0.020149,0.3518199 0.056202,0.6005007 0.099311,0.6850097 0.03722,0.072971 0.21358,0.3129029 0.391905,0.5331827 0.25795,0.3186382 0.334361,0.4477562 0.373798,0.6316426 0.03284,0.1531391 0.04447,0.7195794 0.03446,1.6786217 -0.01344,1.2873082 -0.02366,1.4605224 -0.09234,1.565282 -0.101069,0.1541723 -0.281121,0.1976342 -0.9739053,0.235087 -0.8668025,0.046861 -0.8356482,0.033824 -0.8929654,0.3736683 -0.055785,0.3307585 -0.117918,0.4612409 -0.2555802,0.536725 -0.117477,0.064416 -3.5780416,0.094059 -4.0712929,0.034875 l 0,0 z M 10.291151,8.5144917 c 0.07655,-0.011591 0.161608,-0.048088 0.189009,-0.081104 0.03459,-0.041674 0.04973,-0.4737474 0.04952,-1.413065 C 10.529326,5.4626991 10.55437,5.5747035 10.07354,4.9791673 9.6967738,4.5125139 9.6469705,4.405824 9.590032,3.9433773 9.563485,3.7277669 9.5282146,3.5294335 9.5116528,3.5026363 9.4950915,3.4758392 9.3639055,3.4497761 9.220129,3.4447185 l -0.2614116,-0.0092 -0.011557,1.7869417 c -0.00906,1.4002179 5.082e-4,1.794601 0.044194,1.8223328 0.030663,0.019465 0.1402723,0.035696 0.2435762,0.036068 l 0.1878252,6.766e-4 6.011e-4,0.6518641 c 8.352e-4,0.903884 -0.020337,0.8591259 0.3916014,0.8277936 0.1853497,-0.014098 0.3996347,-0.035116 0.4761897,-0.046708 l 3e-6,0 z m -2.2605113,-5.4988136 0,-1.0385631 -1.546796,0 -1.5467961,0 -0.011921,0.9933688 c -0.00656,0.5463529 -0.00211,1.0189364 0.00988,1.0501856 0.017306,0.045098 0.3388116,0.054419 1.5587169,0.045194 l 1.5369143,-0.011623 0,-1.038563 z"
       id="path3002"
       inkscape:connector-curvature="0"
       transform="translate(0,1040.3622)" />
    <path
       style="opacity:0.17720002;fill:#a02c2c;fill-opacity:1;stroke:#000000;stroke-width:0.00441942;stroke-miterlimit:4;stroke-opacity:1;stroke-dasharray:none"
       d="M 4.4357686,9.8240119 C 4.3545195,9.8035867 4.2673322,9.7661644 4.2420191,9.7408513 4.184667,9.6834992 4.1288575,7.022294 4.1161026,3.7366809 l -0.0093,-2.3946865 0.1083222,-0.1287335 0.1083221,-0.1287336 1.8094004,0.034841 c 1.9946368,0.038407 2.5056572,0.063606 2.629046,0.1296423 0.04853,0.025972 0.092842,0.1122247 0.107558,0.2093604 0.085815,0.5664326 0.086899,0.5684788 0.5834815,1.1009179 l 0.4712244,0.5052503 0.037913,0.5286785 c 0.020852,0.2907731 0.054875,0.573292 0.075606,0.6278197 0.02073,0.054528 0.181586,0.2878977 0.357454,0.5185999 0.175868,0.2307023 0.347228,0.4834539 0.380798,0.5616703 0.04828,0.1124833 0.06012,0.4589264 0.05663,1.6572814 -0.0024,0.8332887 -0.01807,1.564103 -0.03478,1.6240321 -0.05559,0.1994262 -0.243266,0.2617895 -0.936364,0.3111477 -0.9190068,0.065446 -0.8859115,0.050555 -0.9739154,0.4382029 -0.1258252,0.5542502 0.06708,0.510281 -2.2833406,0.5204421 -1.1113694,0.0048 -2.0871481,-0.00798 -2.1683972,-0.028401 l 0,0 z M 10.42734,8.4710298 c 0.09554,-0.0626 0.100603,-0.094329 0.107312,-0.6723511 0.01034,-0.8908914 -0.0084,-2.0468328 -0.03541,-2.1882162 C 10.486282,5.5427261 10.3161,5.2746689 10.121057,5.0147796 9.7090377,4.4657743 9.7026167,4.4519517 9.6036889,3.9010016 9.52012,3.4355868 9.5114915,3.4268966 9.1239554,3.4178309 l -0.1883158,-0.00441 0.011539,1.8230097 0.011539,1.8230097 0.2320194,0.013358 0.2320194,0.013358 0,0.6790855 c 0,0.3734973 0.013112,0.7132559 0.029139,0.7550194 0.025882,0.067447 0.076418,0.072611 0.4521563,0.046199 0.2532173,-0.017799 0.4632673,-0.056108 0.5232893,-0.095435 l 0,0 z m -2.3746032,-5.4553517 0,-1.0606602 -1.5688931,0 -1.5688932,0 0,1.0311974 c 0,0.5671585 0.013258,1.0444556 0.029463,1.0606601 0.016204,0.016205 0.7222064,0.029463 1.5688932,0.029463 l 1.5394303,0 0,-1.0606601 z"
       id="path3004"
       inkscape:connector-curvature="0"
       transform="translate(0,1040.3622)" />
    <path
       style="opacity:0.17720002;fill:#a02c2c;fill-opacity:1;stroke:#000000;stroke-width:0.00441942;stroke-miterlimit:4;stroke-opacity:1;stroke-dasharray:none"
       d="M 4.3514748,9.7760096 C 4.2812527,9.7477836 4.2504148,9.6966691 4.2465136,9.6020339 4.2434753,9.5283304 4.237419,9.4531119 4.2330553,9.4348818 4.2104722,9.3405383 4.1607817,6.5979597 4.1367689,4.1205324 l -0.027201,-2.80633 0.1141409,-0.1059306 0.114141,-0.1059305 1.4928414,0.030045 c 1.683263,0.033878 2.4655046,0.061609 2.7436682,0.097266 0.215367,0.027607 0.2266215,0.045063 0.3359155,0.5210076 0.064375,0.2803384 0.096339,0.3327781 0.4126648,0.6770272 0.5972083,0.6499263 0.5836093,0.6278786 0.6117751,0.991846 0.057375,0.7414249 0.078318,0.8056504 0.4157492,1.2750096 0.485806,0.6757432 0.447919,0.4807254 0.446666,2.2991729 C 10.796525,7.8701953 10.7841,8.6066302 10.7695,8.6302378 10.69771,8.7464058 10.433603,8.814094 9.8244349,8.8724533 9.4645268,8.9069333 9.1200275,8.9541643 9.0588813,8.9774127 8.9675703,9.0121287 8.934453,9.0737637 8.8735274,9.3223765 8.7771734,9.7155553 8.7617917,9.7362576 8.5332009,9.780412 8.2733465,9.830605 4.477354,9.826608 4.3514704,9.776012 l 0,-8e-7 z M 10.384463,8.5141338 c 0.05659,-0.016391 0.114083,-0.07935 0.132583,-0.1451929 0.01796,-0.063939 0.03062,-0.6929872 0.02813,-1.3978843 C 10.539975,5.5006267 10.555494,5.5740558 10.128773,5.000903 9.7933571,4.5503874 9.7179724,4.3865161 9.6221294,3.8995615 9.5789468,3.6801626 9.5185922,3.5009329 9.477028,3.4686683 9.437887,3.4382848 9.3002831,3.4134256 9.1712414,3.4134256 l -0.2346211,0 0,1.8340582 0,1.8340582 0.1962654,0 c 0.1079461,0 0.2059838,0.015724 0.2178614,0.034943 0.011878,0.019218 0.034502,0.3324445 0.050275,0.6960582 0.015774,0.3636134 0.037547,0.6888679 0.048384,0.7227874 0.015823,0.049525 0.1000061,0.05636 0.4274204,0.034707 0.2242435,-0.01483 0.4526805,-0.039987 0.5076365,-0.055903 l 0,0 z m -2.3317262,-5.4984557 0,-1.0606602 -1.5688931,0 -1.5688932,0 0,1.0311974 c 0,0.5671585 0.013258,1.0444556 0.029463,1.0606601 0.016204,0.016205 0.7222064,0.029463 1.5688932,0.029463 l 1.5394303,0 0,-1.0606601 z"
       id="path3006"
       inkscape:connector-curvature="0"
       transform="translate(0,1040.3622)" />
    <path
       style="opacity:0.17720002;fill:#a02c2c;fill-opacity:1;stroke:#000000;stroke-width:0.00441942;stroke-miterlimit:4;stroke-opacity:1;stroke-dasharray:none"
       d="M 4.6868583,9.7913865 C 4.4699831,9.780128 4.3299252,9.751693 4.2972158,9.7122807 4.2347287,9.6369884 4.1812778,7.6688207 4.1405559,3.9437557 L 4.11181,1.3142024 4.224821,1.2082804 4.337832,1.1023584 5.6318087,1.1325151 c 2.556556,0.059582 3.0506125,0.088399 3.1287005,0.1824894 0.0267,0.032171 0.084705,0.2102657 0.1288998,0.3957661 0.044195,0.1855002 0.1187025,0.3809764 0.1655721,0.4343913 0.046869,0.053415 0.2295322,0.2545344 0.4059178,0.4469321 0.3966409,0.4326487 0.4299616,0.4972282 0.4693783,0.90972 0.060972,0.6380705 0.094108,0.7364803 0.3936458,1.1691031 0.489601,0.7071314 0.446756,0.4832035 0.446756,2.3349075 0,1.396805 -0.0093,1.6317311 -0.06629,1.6681714 C 10.581447,8.752655 10.331055,8.8069736 9.8647,8.8561547 9.6094786,8.8830707 9.3018681,8.9273437 9.1811213,8.9545407 L 8.9615794,9.0039886 8.8584987,9.3461227 C 8.7861338,9.5863083 8.7266644,9.7036456 8.6589214,9.7399003 8.5627637,9.7913626 5.4609053,9.8315687 4.6868583,9.7913865 l 0,0 z M 10.429756,8.500822 C 10.55503,8.4337773 10.590405,7.9439441 10.561,6.6835138 10.534349,5.5411634 10.534915,5.5434018 10.131614,4.9847447 9.8185694,4.5511108 9.7282741,4.3543658 9.6234327,3.8774644 9.5806841,3.6830101 9.5255523,3.4990518 9.5009176,3.4686683 9.4734116,3.4347431 9.3453758,3.4134256 9.1691223,3.4134256 c -0.2760677,0 -0.2859893,0.00379 -0.2603571,0.099437 0.014657,0.05469 0.02692,0.8773979 0.027252,1.8282392 l 6.032e-4,1.7288023 0.1804267,0.0242 c 0.099234,0.01331 0.1926473,0.036421 0.2075836,0.051358 0.014936,0.014936 0.044288,0.3198907 0.065227,0.677677 0.020938,0.3577859 0.047325,0.6782445 0.058638,0.7121308 0.016476,0.049351 0.1072125,0.056836 0.4560039,0.037617 C 10.143989,8.55969 10.380354,8.5272607 10.429756,8.500822 z m -2.3770192,-5.4851439 0,-1.0606602 -1.5688931,0 -1.5688932,0 0,1.0606602 0,1.0606601 1.5688932,0 1.5688931,0 0,-1.0606601 z"
       id="path3008"
       inkscape:connector-curvature="0"
       transform="translate(0,1040.3622)" />
    <path
       style="opacity:0.17720002;fill:#a02c2c;fill-opacity:1;stroke:#000000;stroke-width:0.00441942;stroke-miterlimit:4;stroke-opacity:1;stroke-dasharray:none"
       d="M 4.4288146,9.7403113 C 4.3363374,9.7127239 4.3135871,9.6716402 4.2892356,9.4882525 4.2637093,9.2960175 4.2342679,7.9113937 4.1440106,2.6583434 L 4.1215451,1.350834 4.2434893,1.234004 4.3654335,1.1171741 5.9991628,1.1613664 c 1.6715289,0.045215 2.6279454,0.098114 2.71189,0.1499952 0.025988,0.016061 0.097468,0.1938405 0.1588453,0.3950652 0.1028072,0.3370525 0.1432895,0.4021373 0.5140817,0.8265086 0.2213673,0.253355 0.420428,0.5075796 0.4423567,0.5649434 0.021928,0.057364 0.068303,0.3068491 0.1030547,0.5544119 0.079139,0.5637646 0.097406,0.610347 0.4294888,1.0952014 0.163048,0.238056 0.295639,0.4880913 0.330886,0.6239721 0.04294,0.1655533 0.05881,0.6042724 0.05881,1.6257965 0,0.769482 -0.01227,1.4604331 -0.02728,1.5354474 C 10.686556,8.7064451 10.604047,8.734253 9.7781675,8.8505752 8.894041,8.9751011 8.9673353,8.940543 8.8563244,9.2852209 8.688596,9.8060006 8.9350872,9.753969 6.5868481,9.7642804 5.4606966,9.7692253 4.4895816,9.7584393 4.4288146,9.7403113 z M 10.474689,8.4791691 c 0.06736,-0.06741 0.07502,-0.2159752 0.07502,-1.4545081 0,-1.5576859 0.02485,-1.4289938 -0.391663,-2.0282128 C 9.8815107,4.598613 9.7510345,4.3198435 9.6426191,3.8952167 9.5904784,3.6909986 9.5271875,3.4990518 9.5019729,3.4686683 9.4738884,3.4348273 9.3446793,3.4134256 9.1684532,3.4134256 l -0.2876744,0 0.032714,1.8230097 c 0.023065,1.2852744 0.047595,1.832587 0.083164,1.8554787 0.027747,0.017858 0.092761,0.032774 0.1444752,0.033146 0.051714,3.536e-4 0.1138093,0.025536 0.1379897,0.055919 0.02418,0.030383 0.068002,0.3431448 0.097381,0.6950255 0.029379,0.3518802 0.064459,0.657649 0.077955,0.6794863 0.013496,0.021837 0.2316902,0.03049 0.4848755,0.01923 0.3546838,-0.015774 0.4775548,-0.037705 0.5353558,-0.095552 z m -2.3998551,-5.463491 0,-1.0827573 -1.5661089,-0.011623 c -0.932698,-0.00692 -1.5828708,0.00514 -1.6075528,0.029821 -0.025306,0.025306 -0.028779,0.4467466 -0.00892,1.0823093 l 0.032524,1.0408654 0.7574365,0.013653 c 0.41659,0.00751 1.1253529,0.012941 1.5750286,0.012071 l 0.8175922,-0.00158 0,-1.0827572 z"
       id="path3010"
       inkscape:connector-curvature="0"
       transform="translate(0,1040.3622)" />
    <path
       style="opacity:0.17720002;fill:#a02c2c;fill-opacity:1;stroke:#000000;stroke-width:0.00441942;stroke-miterlimit:4;stroke-opacity:1;stroke-dasharray:none"
       d="M 4.3460959,9.6353965 C 4.2909206,9.487011 4.2388709,7.546436 4.1809228,3.477225 L 4.1500491,1.3092186 4.2591203,1.2233222 c 0.1034375,-0.08146 0.1625694,-0.084444 1.1448002,-0.057776 2.2700762,0.061633 3.2722313,0.1165244 3.3385725,0.182866 0.011681,0.01168 0.029814,0.068424 0.040296,0.1260963 0.058136,0.319859 0.2525798,0.6739584 0.5877153,1.0702814 0.1949794,0.2305779 0.3753906,0.4582522 0.4009141,0.505943 0.025524,0.047691 0.088319,0.3228211 0.1395462,0.6114008 0.095992,0.5407549 0.1101934,0.5748419 0.5170744,1.2411199 0.139429,0.2283178 0.233022,0.4390382 0.252401,0.5682697 0.02346,0.1564396 0.04298,2.3753111 0.02649,3.0121655 C 10.702864,8.6410431 10.541102,8.707828 9.9299405,8.8044811 9.6145289,8.8543626 9.263057,8.9164156 9.1488915,8.9423775 L 8.9413181,8.9895804 8.8273073,9.3319235 c -0.062706,0.1882889 -0.1383405,0.3481984 -0.168077,0.3553548 -0.029737,0.00716 -1.0039001,0.021153 -2.1648081,0.031104 L 4.3836804,9.7364743 4.3460959,9.6353965 z M 10.470901,8.4831289 c 0.07207,-0.072177 0.07881,-0.191104 0.07881,-1.3921165 0,-0.7222592 -0.01551,-1.3861357 -0.03447,-1.4752806 C 10.496288,5.5265864 10.374779,5.2978816 10.245223,5.1074987 9.9283018,4.6417804 9.7926062,4.3634323 9.6608665,3.9088264 9.5999598,3.6986501 9.5289769,3.5012038 9.5031273,3.4700567 9.4734695,3.4343212 9.3468554,3.4134256 9.159979,3.4134256 l -0.2961487,0 0.018596,1.2042913 c 0.010228,0.6623601 0.031578,1.4914406 0.047444,1.8424011 l 0.028847,0.6381104 0.1414554,0.036551 c 0.0778,0.020103 0.154254,0.057259 0.169897,0.08257 0.032221,0.052135 0.035909,0.079731 0.1108036,0.8291587 L 9.4353513,8.59163 9.9137223,8.576838 C 10.30081,8.564869 10.407131,8.546988 10.470901,8.483129 l 0,0 z m -2.37397,-5.4680021 0,-1.1054056 -1.6020388,0.0116 -1.6020388,0.0116 -0.013786,0.7071068 c -0.018517,0.949788 0.019803,1.4250281 0.1169802,1.4507643 0.04047,0.010718 0.7547249,0.021794 1.5872326,0.024614 l 1.5136505,0.00513 0,-1.1054056 z"
       id="path3012"
       inkscape:connector-curvature="0"
       transform="translate(0,1040.3622)" />
    <path
       style="opacity:0.17720002;fill:#a02c2c;fill-opacity:1;stroke:#000000;stroke-width:0.00441942;stroke-miterlimit:4;stroke-opacity:1;stroke-dasharray:none"
       d="M 4.3640341,9.6007328 C 4.3090161,9.3339432 4.2735943,7.9621839 4.1841498,2.634454 L 4.1617977,1.3030551 4.3137322,1.2309575 c 0.1582831,-0.07511 0.2780362,-0.075406 2.3910823,-0.00591 1.0843142,0.035661 1.9464316,0.093549 2.0138622,0.1352228 0.022642,0.013993 0.041705,0.059072 0.042362,0.1001741 0.00313,0.1958356 0.2763059,0.6919838 0.6041118,1.0972155 0.399632,0.4940224 0.4441227,0.5662576 0.4764865,0.7736242 0.1143794,0.7328723 0.1557655,0.8609387 0.438366,1.3565026 0.400258,0.7018858 0.378121,0.5822695 0.409213,2.2112044 0.01525,0.7987951 0.01472,1.5041611 -0.0012,1.5674798 -0.01589,0.063318 -0.07154,0.1379451 -0.12365,0.1658365 -0.05212,0.027892 -0.434103,0.1130473 -0.8488603,0.1892345 L 8.9614322,8.9600614 8.827493,9.2788224 C 8.7538266,9.4541412 8.6736663,9.6170259 8.6493595,9.6407886 8.6222265,9.6673144 7.7909281,9.6892723 6.4960053,9.6976674 L 4.386844,9.7113415 4.3640341,9.6007328 z M 10.422051,8.5161711 c 0.05132,-0.032243 0.106013,-0.1221187 0.121534,-0.1997232 0.03853,-0.1926636 0.02965,-2.3065514 -0.01088,-2.5907858 C 10.509978,5.5663059 10.434589,5.3917063 10.284635,5.151138 9.9332016,4.5873391 9.8334089,4.3858075 9.6867727,3.9437557 9.610174,3.7128411 9.5238243,3.4991796 9.4948838,3.4689524 9.4659432,3.4387251 9.3135794,3.4088941 9.1562967,3.4026612 L 8.870329,3.3913285 8.8805976,4.7613479 c 0.00565,0.7535107 0.022452,1.592587 0.037344,1.8646145 l 0.027075,0.4945951 0.1253307,0.027527 c 0.068932,0.01514 0.1446201,0.051108 0.168196,0.079929 0.023575,0.028821 0.065354,0.2811068 0.09284,0.5606349 0.027487,0.2795282 0.060517,0.5797255 0.0734,0.6671053 l 0.023425,0.1588719 0.4502639,-0.019916 C 10.142482,8.5830326 10.367335,8.5505436 10.42205,8.5161706 l 0,0 z m -2.32512,-5.500493 0,-1.1048544 -1.6165928,0 -1.6165929,0 0.014554,1.0496116 c 0.008,0.5772864 0.030643,1.0744709 0.050308,1.1048544 0.027495,0.042483 0.3975424,0.055243 1.6020388,0.055243 l 1.566285,0 0,-1.1048543 z"
       id="path3014"
       inkscape:connector-curvature="0"
       transform="translate(0,1040.3622)" />
    <path
       style="opacity:0.17720002;fill:#a02c2c;fill-opacity:1;stroke:#000000;stroke-width:0.00441942;stroke-miterlimit:4;stroke-opacity:1;stroke-dasharray:none"
       d="M 4.381239,9.5945916 C 4.3793793,9.5371347 4.3702942,9.4503498 4.3610499,9.4017362 4.3223394,9.1981663 4.2379465,5.3856145 4.1908417,1.7123806 l -0.0051,-0.3973169 0.1546796,-0.077624 c 0.1210788,-0.060762 0.2266815,-0.072991 0.4861359,-0.056298 0.182301,0.01173 0.7490913,0.032243 1.259534,0.045585 1.3718237,0.035857 2.2441165,0.078699 2.4969708,0.1226359 0.1113547,0.019349 0.1767749,0.0768 0.1768116,0.1552728 8.84e-5,0.1605315 0.2740843,0.640134 0.6336521,1.1090889 0.3205686,0.4180921 0.3840103,0.5291218 0.4256584,0.7449475 0.126215,0.6540574 0.1958509,0.8560044 0.4689939,1.3601018 0.157085,0.289907 0.296102,0.5771835 0.308926,0.6383922 0.07023,0.3351846 0.116861,2.9543006 0.0557,3.1283333 -0.01937,0.055127 -0.09027,0.1215264 -0.157552,0.1475555 -0.118899,0.046 -0.179495,0.061648 -0.409588,0.1057686 -0.06077,0.011652 -0.1594018,0.030995 -0.2191886,0.042985 -0.059787,0.01199 -0.2875238,0.052659 -0.5060825,0.090376 -0.2185583,0.037717 -0.4008884,0.072859 -0.4051775,0.078093 -0.00429,0.00523 -0.078541,0.1636435 -0.1650034,0.3520212 -0.086462,0.1883776 -0.1634702,0.3440167 -0.1711286,0.345864 -0.00766,0.00185 -0.9635466,0.014055 -2.1241961,0.027128 L 4.3846204,9.6990591 4.381239,9.5945916 z m 6.026953,-1.0622415 c 0.0437,-0.023083 0.09892,-0.093152 0.1227,-0.1557106 0.06723,-0.1768253 0.04893,-2.5964029 -0.02118,-2.7998865 C 10.478375,5.4857988 10.329158,5.1999569 10.178118,4.9415487 10.027078,4.6831404 9.8237808,4.2584595 9.7263463,3.9978133 9.6289123,3.7371671 9.5246203,3.4986654 9.4945863,3.4678097 9.4645524,3.4369539 9.3041059,3.3990202 9.1380388,3.3835126 L 8.836098,3.355317 8.8690227,5.1617824 c 0.018109,0.9935558 0.050178,1.8518442 0.071264,1.9073066 0.021373,0.056216 0.075544,0.1008414 0.1224103,0.1008414 0.1821428,0 0.2165749,0.1164145 0.2941092,0.9943689 0.044388,0.5026252 0.00515,0.4697266 0.5221617,0.4377968 0.2473731,-0.015277 0.4855241,-0.046663 0.5292241,-0.069746 l 0,0 z M 8.0969544,3.0046295 8.0969778,1.8887266 6.4749007,1.9013758 c -0.8921424,0.00696 -1.6253393,0.016901 -1.6293266,0.022097 -0.025337,0.033021 0.055277,2.0972207 0.083646,2.1418168 0.027031,0.042494 0.3966031,0.055243 1.6014262,0.055243 l 1.566285,0 2.34e-5,-1.1159029 z"
       id="path3016"
       inkscape:connector-curvature="0"
       transform="translate(0,1040.3622)" />
    <path
       style="opacity:0.17720002;fill:#a02c2c;fill-opacity:1;stroke:#000000;stroke-width:0.00441942;stroke-miterlimit:4;stroke-opacity:1;stroke-dasharray:none"
       d="M 4.3688398,9.3906876 C 4.3538791,9.2266168 4.3308116,8.6449109 4.3175787,8.098008 4.2679936,6.0487052 4.2148897,3.182246 4.2094154,2.2595381 l -0.00567,-0.9550136 0.1380963,-0.057201 c 0.1641786,-0.068005 1.9324128,-0.03503 3.7329881,0.069615 0.5809514,0.033763 0.6358079,0.049326 0.6696584,0.189977 0.055081,0.2288633 0.2818519,0.6215828 0.6507698,1.1269962 0.3124586,0.4280638 0.3826182,0.5552992 0.4233975,0.7678339 0.1025022,0.5342271 0.1968825,0.8025086 0.4715795,1.3404927 0.247099,0.4839331 0.288861,0.6015615 0.324493,0.9139823 0.06008,0.5267998 0.05841,2.7185781 -0.0022,2.8515535 -0.04052,0.088938 -0.109042,0.121149 -0.387492,0.1821595 -0.2959563,0.064847 -1.2287199,0.247764 -1.2634384,0.247764 -0.00698,0 -0.083953,0.1558795 -0.1710411,0.3463988 L 8.6322347,9.6304945 7.4696507,9.659656 C 6.8302297,9.6756945 5.8770862,9.6888582 5.351554,9.6889077 L 4.3960411,9.6889983 4.3688398,9.3906876 z M 10.193289,8.5872738 c 0.394259,-0.064705 0.38622,-0.029672 0.370255,-1.6135081 L 10.549708,5.6010372 10.332777,5.2032897 C 9.9502291,4.5018783 9.8093328,4.2315513 9.8145035,4.2089207 9.8243747,4.1657224 9.5458578,3.5229611 9.4933706,3.4678097 9.4640053,3.4369539 9.3038761,3.3989988 9.1375283,3.383465 L 8.8350771,3.3552217 8.8665655,5.156614 c 0.017318,0.9907657 0.049617,1.8490754 0.071774,1.9073542 0.022158,0.058279 0.066809,0.1059622 0.099225,0.1059622 0.1822152,0 0.2292506,0.1584423 0.3173257,1.0689298 0.037519,0.3878551 0.039314,0.3898469 0.3488073,0.3868435 0.1493167,-0.00145 0.3696325,-0.018742 0.4895905,-0.03843 l 0,0 z m -2.096358,-5.5928333 0,-1.1260919 -1.0496116,0.018825 C 6.470033,1.8975275 5.7347865,1.9070844 5.4134383,1.9084113 l -0.5842694,0.00241 0.021761,0.7844466 c 0.025539,0.9206283 0.050999,1.3242449 0.087231,1.3828699 0.015927,0.02577 0.6403509,0.042392 1.5924848,0.042392 l 1.566285,0 0,-1.1260919 z"
       id="path3018"
       inkscape:connector-curvature="0"
       transform="translate(0,1040.3622)" />
    <path
       style="opacity:0.17720002;fill:#a02c2c;fill-opacity:1;stroke:#000000;stroke-width:0.00441942;stroke-miterlimit:4;stroke-opacity:1;stroke-dasharray:none"
       d="M 4.4125393,9.6092053 C 4.375052,9.4734182 4.338547,8.2082274 4.2726626,4.7613479 4.2108368,1.5268059 4.2114509,1.355427 4.2850706,1.2983926 4.41283,1.1994151 8.3665041,1.2937394 8.6360389,1.4021952 c 0.041288,0.016614 0.1068041,0.125751 0.1455911,0.2425277 0.038787,0.1167767 0.2767523,0.5213127 0.5288125,0.898969 0.3765723,0.5642108 0.4671938,0.7325221 0.5082206,0.9439189 0.074165,0.3821476 0.2511459,0.8675664 0.4898029,1.3434215 0.116747,0.2327808 0.226396,0.5012604 0.243666,0.5966213 0.01727,0.095361 0.02155,0.1634399 0.0095,0.1512865 C 10.49221,5.508809 9.8967728,4.3379887 9.7367554,3.9569315 9.6326233,3.7089569 9.5207329,3.4839164 9.4881097,3.4568416 9.4314408,3.4098105 8.8513512,3.3071866 8.8199079,3.3386298 c -0.024013,0.024013 0.07174,3.6238978 0.098689,3.7102514 0.013358,0.042803 0.080151,0.106713 0.1484297,0.1420211 0.1356377,0.070141 0.1762384,0.2205426 0.2665002,0.9872227 0.023788,0.2020589 0.056307,0.3885035 0.072264,0.4143213 0.031077,0.050285 0.8641072,0.027356 0.9942992,-0.027367 0.154697,-0.065023 0.171715,-0.2239323 0.171715,-1.6034676 0,-0.7442648 0.01045,-1.3427576 0.02322,-1.3299843 0.03285,0.03285 0.03117,2.7861192 -0.0017,2.8719129 -0.03314,0.086366 -0.216742,0.1393301 -1.0158424,0.293044 l -0.6187648,0.119016 -0.166848,0.3383285 -0.166848,0.338328 -0.4518705,0.024915 C 7.9246226,9.6308737 6.9814659,9.6515367 6.0772475,9.6630886 4.5589758,9.682485 4.4316325,9.6783634 4.4125397,9.6092053 l -4e-7,0 z m 3.7064888,-6.5935272 0,-1.1269515 -1.3258252,-0.013457 C 6.063999,1.8678687 5.3201228,1.8748251 5.1401447,1.8907287 l -0.3272329,0.028915 0.029691,0.9568131 c 0.01633,0.5262472 0.04566,1.0164752 0.065178,1.0893956 l 0.035487,0.1325825 0.7702879,0.02415 c 0.4236583,0.013283 1.1382044,0.023226 1.5878801,0.022097 l 0.8175922,-0.00205 0,-1.1269514 z"
       id="path3020"
       inkscape:connector-curvature="0"
       transform="translate(0,1040.3622)" />
    <path
       style="opacity:0.17720002;fill:#a02c2c;fill-opacity:1;stroke:#000000;stroke-width:0.00441942;stroke-miterlimit:4;stroke-opacity:1;stroke-dasharray:none"
       d="M 4.4148941,9.3756276 C 4.3893533,9.1132083 4.3325799,6.7472317 4.259907,2.9166846 4.2353293,1.6212094 4.2405244,1.3331332 4.288798,1.3146458 c 0.1773337,-0.067913 3.7928029,0.00922 4.2240191,0.090118 0.1366988,0.025645 0.1693292,0.060376 0.2824835,0.3006726 0.070362,0.1494232 0.2773056,0.5003833 0.459874,0.7799115 0.4245911,0.6500871 0.490245,0.7832748 0.6044662,1.2262411 0.051687,0.20045 0.2146822,0.6334684 0.3622122,0.9622629 0.431089,0.9607533 0.27099,0.7920084 -0.2441448,-0.2573296 C 9.4602833,3.3625192 9.4868382,3.3931176 9.0444112,3.341119 l -0.2403734,-0.028251 0,0.5643307 c 0,0.3103819 0.020791,1.1533617 0.046202,1.8732884 l 0.046202,1.3089581 0.1261474,0.1104854 c 0.1434627,0.1256507 0.1970627,0.2962048 0.2708325,0.8617864 0.081021,0.6211734 0.059333,0.595863 0.514939,0.6009572 L 10.196153,8.6370142 9.7321147,8.738328 C 9.4768941,8.7940459 9.1972448,8.8519553 9.1106733,8.8670105 8.9674462,8.8919188 8.9395835,8.9226824 8.8013141,9.2085785 8.7047056,9.408333 8.6131561,9.5365434 8.5499659,9.5605802 8.4953001,9.5813744 7.5487486,9.6119979 6.446518,9.6286326 L 4.4424625,9.6588778 4.4148941,9.3756276 z m 3.7262311,-6.3599495 0,-1.1490486 -1.6241359,6.768e-4 c -0.8932748,3.712e-4 -1.6484339,0.016114 -1.6781314,0.034983 -0.041968,0.026664 -0.044566,0.2504741 -0.011662,1.0047407 0.023283,0.5337389 0.053979,1.0244218 0.068212,1.0904063 0.025705,0.119164 0.028759,0.1200688 0.4536038,0.1343817 0.2352487,0.00793 0.9597122,0.018572 1.609919,0.023659 l 1.1821942,0.00925 0,-1.1490485 z"
       id="path3022"
       inkscape:connector-curvature="0"
       transform="translate(0,1040.3622)" />
    <path
       style="opacity:0.17720002000000001;fill:#ff0000;fill-opacity:1;stroke:#000000;stroke-width:0.00441942000000000;stroke-miterlimit:4;stroke-opacity:1;stroke-dasharray:none"
       d="M 4.4628171,9.6176198 C 4.4335781,9.5674175 4.3597963,7.2387973 4.3187494,5.0707071 4.3063244,4.4144237 4.2850763,3.3305615 4.2715314,2.6621247 c -0.01611,-0.7950448 -0.00902,-1.238265 0.020509,-1.2816311 0.037499,-0.055074 0.1893667,-0.066291 0.8974989,-0.066291 1.7234854,0 3.3829735,0.076887 3.4558073,0.1601143 0.00802,0.00916 0.1045347,0.1757614 0.2144774,0.3702157 0.1099427,0.1944544 0.3411772,0.5806215 0.5138545,0.8581492 0.2463034,0.395861 0.3483323,0.6147086 0.4734752,1.0155873 0.087735,0.2810453 0.2478873,0.7076143 0.3558943,0.9479312 C 10.53484,5.4044422 10.37786,5.1939183 9.9440809,4.3189029 9.7181191,3.8630955 9.4934669,3.4645983 9.4448533,3.4333535 9.3962397,3.4021087 9.2315316,3.3581188 9.0788349,3.3355981 l -0.27763,-0.040947 0.00917,1.0206103 c 0.00504,0.5613357 0.022757,1.4025886 0.039366,1.869451 l 0.030198,0.8488401 0.1344175,0.1530931 c 0.1405954,0.1601291 0.198031,0.3548637 0.2814851,0.9543709 0.063662,0.4573244 0.085011,0.4873212 0.3468336,0.4873212 0.3672009,0 0.284576,0.070223 -0.1837249,0.1561478 -0.4998975,0.091722 -0.5257613,0.1096006 -0.7208092,0.49828 L 8.6059502,9.5461839 8.0089358,9.5730173 C 6.8110087,9.6268595 4.4852361,9.6561125 4.4628171,9.6176198 z M 8.1308123,3.0145222 8.1190281,1.8623509 6.4890077,1.8655188 c -0.8965112,0.00174 -1.6496697,0.015312 -1.6736856,0.030154 -0.056985,0.035219 0.015439,1.9009595 0.083272,2.1451893 0.02716,0.097788 0.1172533,0.1034569 1.8401016,0.1157851 l 1.4039007,0.010046 -0.011784,-1.1521714 0,0 z"
       id="path3024"
       inkscape:connector-curvature="0"
       transform="translate(0,1040.3622)" />
    <path
       style="opacity:0.17720002;fill:#ff0000;fill-opacity:1;stroke:#000000;stroke-width:0.00441942;stroke-miterlimit:4;stroke-opacity:1;stroke-dasharray:none"
       d="M 4.4557593,9.0000248 C 4.4062137,7.9972559 4.3446992,5.6085774 4.3123553,3.4314773 L 4.2820931,1.3944999 4.3885995,1.3660031 c 0.2559606,-0.068485 3.4555803,-0.0011 4.0488816,0.08527 l 0.1858704,0.027058 0.4609998,0.7797218 C 9.3379012,2.6869004 9.5747775,3.0974373 9.6107432,3.1703577 9.6895688,3.3301763 10.130251,4.5387765 10.12893,4.5915189 10.128417,4.6120045 9.9936946,4.3702295 9.8295468,4.0542411 9.4987777,3.4175038 9.43507,3.3600665 8.9966086,3.3032861 l -0.2272739,-0.029432 0.018235,0.8542323 c 0.010029,0.4698277 0.030008,1.3166819 0.044398,1.8818983 l 0.026164,1.0276661 0.1275311,0.160477 c 0.1444575,0.181776 0.1941993,0.3400349 0.2867702,0.9123835 0.03576,0.2210999 0.084588,0.4255792 0.1085051,0.4543983 0.023918,0.028819 0.1276328,0.067164 0.2304779,0.085211 l 0.1869909,0.032813 -0.3684623,0.083698 C 9.2272902,8.8126667 9.025946,8.8693493 8.9825129,8.8925941 8.9390797,8.9158389 8.8371865,9.0628424 8.7560831,9.2192695 8.6250437,9.4720089 8.5912046,9.5065515 8.4522136,9.5294564 8.3661887,9.5436326 7.4386288,9.5686297 6.3909692,9.5850059 L 4.4861337,9.6147799 4.4557593,9.0000248 z M 8.1466495,3.0156781 C 8.1392079,2.371548 8.1258214,1.8370906 8.1169019,1.827995 8.1079819,1.818895 7.3540633,1.826195 6.4415262,1.844203 l -1.6591582,0.032745 0,0.5187531 c 0,0.6604765 0.079088,1.644801 0.1367995,1.7025958 0.034278,0.034328 2.5894433,0.1081641 3.1541452,0.091145 0.08446,-0.00255 0.086492,-0.035069 0.073337,-1.1737636 l 0,0 z"
       id="path3026"
       inkscape:connector-curvature="0"
       transform="translate(0,1040.3622)" />
    <path
       style="opacity:0.17720002;fill:#ff0000;fill-opacity:1;stroke:#000000;stroke-width:0.00441942;stroke-miterlimit:4;stroke-opacity:1;stroke-dasharray:none"
       d="M 4.49965,9.373626 C 4.4379889,8.7929221 4.2734165,1.497358 4.3202681,1.4215505 c 0.035121,-0.056827 2.4847636,-0.052201 3.4547686,0.00652 0.4827176,0.029224 0.8054611,0.067587 0.8365496,0.099437 0.027839,0.028521 0.2586075,0.4098289 0.512819,0.8473512 0.400732,0.6896978 0.828681,1.6170722 0.828681,1.7957691 0,0.031218 -0.096414,-0.1114666 -0.2142542,-0.3170772 C 9.4975659,3.4325857 9.3898377,3.3488226 9.0138691,3.2898649 l -0.2540255,-0.039835 0.00176,0.5346882 c 9.679e-4,0.2940785 0.01902,1.1419502 0.040114,1.8841594 l 0.038354,1.3494714 0.1375022,0.2211949 c 0.099479,0.160028 0.168093,0.3673553 0.2481269,0.749752 0.1122868,0.5364982 0.1879627,0.6778679 0.3676787,0.6868623 0.039844,0.00199 -0.086655,0.046741 -0.2811094,0.099437 L 8.9587156,8.8714061 8.7508028,9.1868062 8.54289,9.5022059 7.4912689,9.5297919 C 6.9128772,9.5449642 6.0088114,9.5693709 5.4822336,9.5840292 L 4.5248213,9.6106809 4.49965,9.373626 z M 8.1608757,3.4576198 C 8.1595853,3.0565577 8.1546133,2.5245703 8.1498272,2.2754256 l -0.0087,-0.4529902 -1.2484854,2.298e-4 c -0.686667,1.237e-4 -1.4423874,0.013069 -1.6793786,0.028763 L 4.78237,1.8799622 4.7831358,2.5472578 c 8.539e-4,0.7437593 0.064797,1.4797336 0.134632,1.5495871 0.053189,0.053203 1.2379027,0.098878 2.4278643,0.093604 l 0.8175922,-0.00362 -0.00235,-0.7292039 z"
       id="path3028"
       inkscape:connector-curvature="0"
       transform="translate(0,1040.3622)" />
  </g>
</svg>
