<?xml version="1.0" encoding="UTF-8" standalone="no"?>
<!-- Created with Inkscape (http://www.inkscape.org/) -->

<svg
   xmlns:dc="http://purl.org/dc/elements/1.1/"
   xmlns:cc="http://creativecommons.org/ns#"
   xmlns:rdf="http://www.w3.org/1999/02/22-rdf-syntax-ns#"
   xmlns:svg="http://www.w3.org/2000/svg"
   xmlns="http://www.w3.org/2000/svg"
   xmlns:sodipodi="http://sodipodi.sourceforge.net/DTD/sodipodi-0.dtd"
   xmlns:inkscape="http://www.inkscape.org/namespaces/inkscape"
   width="12"
   height="12"
   id="svg4764"
   version="1.1"
   inkscape:version="0.48.4 r9939"
   sodipodi:docname="hospital-12.svg">
  <defs
     id="defs4766" />
  <sodipodi:namedview
     id="base"
     pagecolor="#ffffff"
     bordercolor="#666666"
     borderopacity="1.0"
     inkscape:pageopacity="0.0"
     inkscape:pageshadow="2"
     inkscape:zoom="22.627417"
     inkscape:cx="5.4435686"
     inkscape:cy="2.8129693"
     inkscape:document-units="px"
     inkscape:current-layer="layer1"
     showgrid="true"
     showguides="true"
     inkscape:guide-bbox="true"
     inkscape:window-width="957"
     inkscape:window-height="704"
     inkscape:window-x="207"
     inkscape:window-y="6"
     inkscape:window-maximized="0"
     inkscape:snap-bbox="true"
     inkscape:snap-nodes="false">
    <inkscape:grid
       type="xygrid"
       id="grid4772"
       empspacing="5"
       visible="true"
       enabled="true"
       snapvisiblegridlinesonly="true"
       spacingx="1px"
       spacingy="1px" />
    <sodipodi:guide
       orientation="0,1"
       position="2,12"
       id="guide4789" />
    <sodipodi:guide
       orientation="1,0"
       position="12,10"
       id="guide4791" />
    <sodipodi:guide
       orientation="0,1"
       position="10,0"
       id="guide4793" />
    <sodipodi:guide
       orientation="1,0"
       position="0,9"
       id="guide4795" />
    <sodipodi:guide
       orientation="0,1"
       position="5,11"
       id="guide4797" />
    <sodipodi:guide
       orientation="1,0"
       position="11,7"
       id="guide4799" />
    <sodipodi:guide
       orientation="0,1"
       position="9,2"
       id="guide4801" />
    <sodipodi:guide
       orientation="1,0"
       position="2,5"
       id="guide4803" />
  </sodipodi:namedview>
  <metadata
     id="metadata4769">
    <rdf:RDF>
      <cc:Work
         rdf:about="">
        <dc:format>image/svg+xml</dc:format>
        <dc:type
           rdf:resource="http://purl.org/dc/dcmitype/StillImage" />
        <dc:title />
      </cc:Work>
    </rdf:RDF>
  </metadata>
  <g
     inkscape:label="Layer 1"
     inkscape:groupmode="layer"
     id="layer1"
     transform="translate(0,-1040.3622)">
    <g
       style="display:inline"
       id="hospital-12"
       inkscape:label="hospital-12"
       transform="translate(-282,-81.999989)"
       inkscape:export-xdpi="89.996864"
       inkscape:export-ydpi="89.996864">
      <g
         id="g5579"
         transform="translate(0,-1)"
         style="opacity:0.3;color:#000000;fill:none;stroke:#ffffff;stroke-width:2;stroke-linecap:butt;stroke-linejoin:miter;stroke-miterlimit:4;stroke-opacity:1;stroke-dasharray:none;stroke-dashoffset:0;marker:none;visibility:visible;display:inline;overflow:visible;enable-background:accumulate">
        <path
           sodipodi:nodetypes="cscsccscsccscsccscscc"
           inkscape:connector-curvature="0"
           d="m 284,1128.3622 c 0,-0.554 0.446,-1 1,-1 l 2,0 0,-2 c 0,-0.554 0.446,-1 1,-1 l 1,0 c 0.554,0 1,0.446 1,1 l 0,2 2,0 c 0.554,0 1,0.446 1,1 l 0,1 c 0,0.554 -0.446,1 -1,1 l -2,0 0,2 c 0,0.554 -0.446,1 -1,1 l -1,0 c -0.554,0 -1,-0.446 -1,-1 l 0,-2 -2,0 c -0.554,0 -1,-0.446 -1,-1 z"
           style="color:#000000;fill:none;stroke:#ffffff;stroke-width:2;stroke-linecap:butt;stroke-linejoin:miter;stroke-miterlimit:4;stroke-opacity:1;stroke-dasharray:none;stroke-dashoffset:0;marker:none;visibility:visible;display:inline;overflow:visible;enable-background:accumulate"
           id="path5581" />
      </g>
      <g
         transform="translate(0,-1)"
         id="g21645">
        <path
           id="path5535"
           style="color:#000000;fill:#444444;fill-opacity:1;stroke:none;stroke-width:2;marker:none;visibility:visible;display:inline;overflow:visible;enable-background:accumulate"
           d="m 284,1128.3622 c 0,-0.554 0.446,-1 1,-1 l 2,0 0,-2 c 0,-0.554 0.446,-1 1,-1 l 1,0 c 0.554,0 1,0.446 1,1 l 0,2 2,0 c 0.554,0 1,0.446 1,1 l 0,1 c 0,0.554 -0.446,1 -1,1 l -2,0 0,2 c 0,0.554 -0.446,1 -1,1 l -1,0 c -0.554,0 -1,-0.446 -1,-1 l 0,-2 -2,0 c -0.554,0 -1,-0.446 -1,-1 z"
           inkscape:connector-curvature="0"
           sodipodi:nodetypes="cscsccscsccscsccscscc" />
      </g>
      <rect
         y="1122.3622"
         x="282"
         height="12.000007"
         width="11.999998"
         id="rect22304"
         style="opacity:0.5;color:#000000;fill:none;stroke:none;stroke-width:2;marker:none;visibility:visible;display:inline;overflow:visible;enable-background:accumulate" />
    </g>
    <path
       style="opacity:0.17720002;fill:#ff00ff;fill-opacity:1;stroke:#000000;stroke-width:0.00441942;stroke-miterlimit:4;stroke-opacity:1;stroke-dasharray:none"
       d="M 5.8147997,9.9516628 C 5.5298165,9.8959821 5.2876951,9.7083735 5.1427551,9.4309264 l -0.1234506,-0.2363111 0,-1.0998078 0,-1.0998078 -1.0054174,-0.00108 C 3.4609075,6.9933252 2.9189764,6.9724611 2.8095958,6.9475546 2.5275952,6.8833422 2.3038397,6.7211134 2.1601747,6.4767076 2.043088,6.2775174 2.0353324,6.2314096 2.0206261,5.6470774 2.0012156,4.8758349 2.0517148,4.6209113 2.2723924,4.3761418 2.565337,4.0512156 2.6377814,4.0360615 3.9034016,4.0349606 L 5.0193045,4.03399 5.019552,2.9622813 C 5.0196934,2.3431409 5.039599,1.8192669 5.066687,1.7217164 5.126589,1.5059946 5.3885997,1.2147697 5.6159257,1.1112376 c 0.147472,-0.067164 0.2939951,-0.08051 0.8838835,-0.08051 0.7794628,0 0.9385035,0.038762 1.1862975,0.2891258 0.2668489,0.2696164 0.2709002,0.2916423 0.2858342,1.5540398 l 0.013724,1.160097 1.1132274,9.705e-4 c 1.2626397,0.0011 1.3354877,0.016365 1.6283337,0.3411812 0.220678,0.2447695 0.271177,0.4996931 0.251767,1.2709357 -0.01471,0.5843322 -0.02246,0.63044 -0.139549,0.8296302 -0.143665,0.2444058 -0.36742,0.4066346 -0.649421,0.470847 -0.109381,0.024907 -0.6513121,0.045771 -1.2042917,0.046365 l -1.0054174,0.00108 0,1.0998078 0,1.0998078 -0.1234507,0.2363111 C 7.7058573,9.7199855 7.4681086,9.8954063 7.1456414,9.9556964 6.862332,10.008665 6.0946388,10.006339 5.8147997,9.9516615 l 0,1.3e-6 z"
       id="path2997"
       inkscape:connector-curvature="0"
       transform="translate(0,1040.3622)" />
    <path
       style="opacity:0.17720002;fill:#ff00ff;fill-opacity:1;stroke:#000000;stroke-width:0.00441942;stroke-miterlimit:4;stroke-opacity:1;stroke-dasharray:none"
       d="M 5.7103804,9.8912733 C 5.5135244,9.821096 5.3195364,9.6508176 5.1697249,9.4166977 5.0673978,9.2567841 5.0647291,9.2269257 5.0532004,8.1129695 L 5.0414016,6.9729026 3.8923531,6.9508055 2.7433046,6.9287084 2.5409617,6.8097532 C 2.4296731,6.7443281 2.2805177,6.6051165 2.2095054,6.500394 2.0826153,6.3132688 2.0801459,6.2982304 2.0661023,5.627091 2.0569551,5.189948 2.0707638,4.8765055 2.1044735,4.7561062 2.1593212,4.5602094 2.3945412,4.2493883 2.5593782,4.1549923 2.6259148,4.1168893 3.0171361,4.0935735 3.8481589,4.0781842 L 5.0414016,4.0560871 5.0634987,2.8815703 5.0855958,1.7070536 5.2053906,1.5261752 C 5.2712777,1.426692 5.3989239,1.2889974 5.4890489,1.2201871 5.6515284,1.0961341 5.6590881,1.094958 6.3841229,1.0809316 c 0.8773611,-0.016973 1.0282104,0.015794 1.2871025,0.2795866 0.235159,0.2396095 0.2603894,0.3624231 0.2632347,1.2813554 0.00121,0.3889087 0.014962,0.8711776 0.030572,1.0717087 l 0.028382,0.3646019 1.0872557,2.475e-4 c 0.6064815,1.37e-4 1.1594122,0.020287 1.2504362,0.045568 0.20864,0.057947 0.491959,0.3746667 0.563396,0.6298129 0.03445,0.1230372 0.04825,0.4319416 0.03901,0.8732789 -0.01404,0.6711393 -0.01651,0.6861777 -0.143403,0.8733029 -0.07101,0.1047226 -0.220167,0.2439342 -0.331456,0.3093593 L 10.256314,6.9287084 9.1072656,6.9508055 7.9582171,6.9729026 7.9464181,8.1129695 C 7.9346231,9.2526697 7.9345829,9.2530939 7.8207432,9.4334278 7.5479864,9.8655023 7.3131351,9.9567611 6.4808881,9.9540696 6.0882835,9.9528013 5.822121,9.9311077 5.7103804,9.8912733 z"
       id="path2999"
       inkscape:connector-curvature="0"
       transform="translate(0,1040.3622)" />
    <path
       style="opacity:0.17720002;fill:#ff00ff;fill-opacity:1;stroke:#000000;stroke-width:0.00441942;stroke-miterlimit:4;stroke-opacity:1;stroke-dasharray:none"
       d="M 5.7103804,9.8490236 C 5.5193766,9.7787571 5.3215806,9.6061258 5.1917635,9.3963882 5.1138621,9.2705281 5.102479,9.1423296 5.0774284,8.1087287 L 5.0496081,6.9608447 3.8964563,6.9286183 C 3.0912248,6.906115 2.7099698,6.879032 2.6328191,6.8388528 2.4758691,6.7571157 2.2045575,6.4649374 2.1493145,6.3181615 2.1235605,6.2497356 2.1024891,5.883126 2.1024891,5.5034737 c 0,-0.7776743 0.039658,-0.9214968 0.3323127,-1.2051488 L 2.5912965,4.1466444 3.8223811,4.1046884 5.0534657,4.0627325 5.0859033,2.8736711 5.1183408,1.6846097 5.2585116,1.5008335 C 5.5373034,1.1353129 5.593953,1.1171746 6.4567536,1.1171746 c 0.8471732,0 0.9645312,0.026661 1.2006329,0.2727591 0.1986762,0.2070876 0.2314731,0.3993454 0.2701086,1.5833962 0.018638,0.5712097 0.049265,1.0634223 0.068059,1.0938058 0.025907,0.041883 0.3098387,0.055243 1.1740752,0.055243 1.1111467,0 1.1436517,0.00253 1.2884297,0.1000906 0.08169,0.05505 0.208925,0.185947 0.282749,0.2908826 0.13369,0.1900318 0.134282,0.1935421 0.148514,0.8811217 0.0079,0.3796813 0.0017,0.7576975 -0.0138,0.8400361 -0.03049,0.162544 -0.321006,0.5090785 -0.506435,0.6040942 -0.07886,0.040409 -0.4595841,0.067481 -1.2659298,0.090015 L 7.9500107,6.9608447 7.9222925,8.1045072 C 7.8927249,9.3244856 7.8854134,9.3650444 7.6503362,9.613101 7.4173286,9.8589735 7.308485,9.8878045 6.5661006,9.9002973 6.0596518,9.9088201 5.8365919,9.8954545 5.7103804,9.8490236 l 0,0 z"
       id="path3001"
       inkscape:connector-curvature="0"
       transform="translate(0,1040.3622)" />
    <path
       style="opacity:0.17720002;fill:#ff00ff;fill-opacity:1;stroke:#000000;stroke-width:0.00441942;stroke-miterlimit:4;stroke-opacity:1;stroke-dasharray:none"
       d="M 5.6822171,9.7971622 C 5.4960779,9.7165361 5.3004373,9.5376633 5.2109527,9.366288 5.1616638,9.2718932 5.1350032,8.9591231 5.1038565,8.1098808 5.0810478,7.4879822 5.0542986,6.9710681 5.0444139,6.9611836 5.0345292,6.9512987 4.5326232,6.9252661 3.9290673,6.903333 3.3255114,6.8813999 2.7864449,6.8527727 2.7311419,6.8397173 2.6026712,6.8093886 2.2926377,6.5303329 2.2101135,6.3707486 2.1624779,6.2786316 2.1469249,6.068715 2.1476538,5.5277381 2.1487429,4.7194599 2.1866862,4.5727162 2.4616944,4.3132046 L 2.6107221,4.1725745 3.8216794,4.1260789 C 4.4877059,4.1005064 5.0415755,4.0706446 5.0525007,4.0597194 5.0634259,4.0487943 5.0885736,3.5119827 5.1083847,2.8668049 5.148028,1.5757568 5.1373438,1.622876 5.4600165,1.3160483 L 5.5994457,1.1834658 6.3806575,1.1686044 c 0.4841758,-0.00921 0.8428292,0.0036 0.9432676,0.033692 0.1970499,0.059038 0.4138333,0.2954468 0.4780612,0.5213404 0.026105,0.091815 0.069865,0.6243459 0.097244,1.1834022 0.027379,0.5590563 0.065403,1.0589203 0.084498,1.110809 0.033827,0.09192 0.064829,0.095179 1.2072209,0.1269101 l 1.1725018,0.032567 0.172723,0.1478442 c 0.289603,0.2478897 0.316761,0.3505351 0.316761,1.1972199 0,0.8186324 0.003,0.807343 -0.302446,1.1297143 -0.08951,0.094461 -0.214559,0.1755547 -0.291713,0.1891731 -0.07427,0.013111 -0.6189285,0.041418 -1.2103415,0.062906 -0.5914131,0.021488 -1.0833756,0.047147 -1.0932494,0.057021 -0.00987,0.00987 -0.03659,0.523674 -0.059369,1.1417777 C 7.8730371,8.721085 7.8348841,9.2765244 7.8110321,9.3372914 7.7404141,9.5171988 7.4338676,9.7821018 7.2458081,9.8257311 6.9520994,9.8938711 5.859393,9.8739061 5.6822173,9.7971631 z"
       id="path3003"
       inkscape:connector-curvature="0"
       transform="translate(0,1040.3622)" />
    <path
       style="opacity:0.17720002;fill:#ff00ff;fill-opacity:1;stroke:#000000;stroke-width:0.00441942;stroke-miterlimit:4;stroke-opacity:1;stroke-dasharray:none"
       d="M 5.7589575,9.786488 C 5.5939178,9.7468237 5.3450723,9.5414088 5.2579385,9.3729105 5.2036615,9.2679507 5.1722275,8.9664965 5.1261146,8.1087088 5.0928111,7.4892019 5.0560379,6.9728076 5.0443966,6.9611659 5.0327552,6.9495248 4.5003034,6.9116698 3.8611704,6.8770445 L 2.6991104,6.8140891 2.5444308,6.6905195 C 2.2100206,6.4233684 2.1907639,6.3605923 2.191848,5.5411049 2.1929284,4.7243435 2.2308693,4.5718787 2.4947333,4.3239658 L 2.632958,4.194097 3.4836265,4.1609619 c 0.4678676,-0.018224 1.0130998,-0.045953 1.2116271,-0.06162 L 5.0562123,4.0708566 5.0806277,3.8645981 C 5.0940561,3.7511559 5.1168725,3.3003667 5.1313308,2.8628444 5.1674544,1.7697092 5.1955143,1.6301672 5.4265405,1.3947688 l 0.1856915,-0.1892059 0.8460492,0 c 0.808419,0 0.8527281,0.0045 0.996216,0.1011473 0.3034686,0.2044065 0.3377964,0.3324202 0.4176367,1.557434 0.039499,0.6060447 0.090642,1.1370747 0.1136502,1.1800668 0.023009,0.042992 0.085881,0.078794 0.1397159,0.079561 0.053835,7.663e-4 0.5832274,0.019734 1.1764268,0.04215 l 1.0785442,0.040757 0.153114,0.1456747 c 0.249656,0.237527 0.275156,0.3453677 0.275156,1.1636267 0,0.4537114 -0.01885,0.7703525 -0.04942,0.8300601 -0.08532,0.1666536 -0.357544,0.422994 -0.476915,0.4490866 -0.06296,0.013763 -0.6076232,0.052036 -1.2103527,0.085051 -0.6027294,0.033015 -1.1050633,0.069219 -1.1162979,0.080454 -0.011234,0.011234 -0.049607,0.5452018 -0.085271,1.186595 -0.07148,1.285483 -0.062303,1.2501201 -0.3941665,1.5189621 L 7.3094983,9.8013297 6.5952948,9.8085851 C 6.2024826,9.8125758 5.8261309,9.8026317 5.7589575,9.786488 l 0,0 z"
       id="path3005"
       inkscape:connector-curvature="0"
       transform="translate(0,1040.3622)" />
    <path
       style="opacity:0.17720002;fill:#ff00ff;fill-opacity:1;stroke:#000000;stroke-width:0.00441942;stroke-miterlimit:4;stroke-opacity:1;stroke-dasharray:none"
       d="M 5.5420217,9.6335828 C 5.4368282,9.5534751 5.3237105,9.4318434 5.290649,9.3632899 5.2533993,9.2860522 5.1993555,8.8097698 5.1485505,8.1109905 5.1034578,7.4907788 5.0566308,6.9734002 5.0444906,6.9612601 5.0157351,6.9325047 3.4949454,6.8213868 3.1057118,6.8196014 2.7649366,6.8180383 2.6348401,6.764189 2.4118483,6.5323994 L 2.2571687,6.371617 2.2430228,5.6352939 C 2.2264988,4.7751852 2.2619084,4.5970417 2.4936366,4.3744688 L 2.6549162,4.2195612 3.8039648,4.1653637 C 4.4359414,4.135555 4.9855267,4.0943271 5.0252654,4.073746 5.0856608,4.0424666 5.1023937,3.9182831 5.1272314,3.3170026 5.1654368,2.3921119 5.2267434,1.7564312 5.289547,1.6339723 5.3168945,1.5806481 5.4004468,1.4723852 5.4752187,1.3933881 l 0.135949,-0.143631 0.8733531,0 0.8733534,0 0.1732517,0.1657281 c 0.2088453,0.1997755 0.2363173,0.3343951 0.3392305,1.6623082 0.037419,0.4828239 0.08739,0.9140275 0.1110463,0.9582303 0.023656,0.044203 0.077836,0.090192 0.1203986,0.1021975 0.042563,0.012006 0.5676905,0.035419 1.1669507,0.052028 l 1.089564,0.030199 0.15629,0.1608871 c 0.08596,0.088488 0.177362,0.216872 0.203116,0.2852981 0.07443,0.1977561 0.06074,1.5545477 -0.01721,1.7052816 C 10.611762,6.5435453 10.339507,6.7735327 10.22163,6.7764561 9.8861286,6.7847761 7.9779324,6.9384539 7.957596,6.9587907 7.943972,6.9724147 7.904057,7.3888539 7.868895,7.8842118 7.758277,9.4426018 7.78111,9.3279626 7.5332664,9.5693096 l -0.215573,0.2099223 -0.7922059,0 -0.7922061,0 -0.1912609,-0.1456498 0,0 z"
       id="path3007"
       inkscape:connector-curvature="0"
       transform="translate(0,1040.3622)" />
    <path
       style="opacity:0.17720002;fill:#ff00ff;fill-opacity:1;stroke:#000000;stroke-width:0.00441942;stroke-miterlimit:4;stroke-opacity:1;stroke-dasharray:none"
       d="M 5.5668079,9.625653 C 5.3019609,9.4168572 5.2909584,9.3751662 5.1742688,8.1382269 5.1142752,7.5022799 5.0561119,6.9728814 5.045017,6.9617864 5.0119969,6.9287663 4.3850725,6.8691696 3.5721241,6.8217696 3.1529303,6.7973275 2.7651264,6.7543487 2.7103378,6.7262602 2.6555491,6.6981717 2.5361444,6.6038994 2.4449939,6.5167666 l -0.1657281,-0.1584238 0,-0.7811286 c 0,-0.8592518 0.02705,-0.9855227 0.2583283,-1.2059056 C 2.6688316,4.2462538 2.6800607,4.2441068 3.3919517,4.207958 4.6235709,4.1454182 4.9684773,4.1149378 5.0376677,4.0625213 5.090109,4.0227934 5.1190191,3.7930445 5.171944,2.9954269 5.2564814,1.7213864 5.2622958,1.6893195 5.4481352,1.4722079 l 0.1525811,-0.1782566 0.8993193,0 0.8993192,0 0.134406,0.1630578 c 0.1692491,0.2053283 0.2020686,0.3699897 0.311724,1.5639701 0.04817,0.5244965 0.1004061,0.9870497 0.11608,1.027896 0.040694,0.1060461 0.099398,0.1132904 1.2957847,0.1599053 l 1.0781615,0.042008 0.130075,0.12362 c 0.238518,0.2266808 0.256764,0.3039312 0.257217,1.0890151 4.42e-4,0.7523705 -0.02659,0.9038226 -0.193219,1.0827843 C 10.368272,6.7194614 10.23262,6.7607122 9.725984,6.7905764 9.1099562,6.826889 8.1640519,6.9055326 8.0406401,6.930698 7.926034,6.9540675 7.9171413,7.0058074 7.8244983,8.1882424 7.7367274,9.3084966 7.7346021,9.3181619 7.5263362,9.5441037 L 7.3503386,9.7350385 6.5273264,9.7345483 C 5.7208461,9.7340666 5.7015521,9.731879 5.5668079,9.625653 z"
       id="path3009"
       inkscape:connector-curvature="0"
       transform="translate(0,1040.3622)" />
    <path
       style="opacity:0.17720002;fill:#ff00ff;fill-opacity:1;stroke:#000000;stroke-width:0.00441942;stroke-miterlimit:4;stroke-opacity:1;stroke-dasharray:none"
       d="M 5.5323774,9.5565828 C 5.3431976,9.3904808 5.3126031,9.2607461 5.1950705,8.1262472 5.0819377,7.0342185 5.0696487,6.9626221 4.9901027,6.9320972 4.9533645,6.9179997 4.4354505,6.8672273 3.8391826,6.8192695 3.1859595,6.766731 2.7263749,6.7105881 2.6828907,6.678017 2.6431979,6.6482853 2.5460881,6.564331 2.467091,6.4914513 l -0.1436311,-0.1325088 0,-0.7882453 c 0,-0.849114 0.027128,-0.9859881 0.2330283,-1.175728 C 2.687772,4.2739893 2.7093608,4.2709205 3.9985323,4.1899885 4.7040743,4.1456958 5.0058259,4.1106032 5.0485545,4.0678746 5.0902068,4.0262223 5.1362135,3.6732301 5.1992351,2.91176 5.2491316,2.3088746 5.3066527,1.7716894 5.3270597,1.718015 5.3474666,1.6643405 5.4176058,1.5569122 5.4829246,1.4792853 l 0.1187613,-0.1411399 0.8998029,0 0.899803,0 0.1072646,0.1436311 c 0.1558636,0.2087062 0.1956414,0.3745735 0.2729127,1.138 0.1271847,1.2565658 0.1598313,1.4580704 0.2434816,1.5028386 0.083507,0.044691 1.3482003,0.1312288 1.9279103,0.1319183 l 0.35946,4.287e-4 0.1587,0.1756625 c 0.178643,0.1977369 0.190452,0.2364529 0.222752,0.730318 0.0351,0.5366544 -0.03006,1.151688 -0.137238,1.295491 C 10.380772,6.6922488 10.267163,6.7235051 9.3256551,6.7950776 8.000438,6.8958196 7.9524126,6.9053456 7.9177383,7.0743441 7.9042498,7.1400861 7.8531295,7.6351258 7.8041376,8.174433 7.7551457,8.7137398 7.6939744,9.2109243 7.6682008,9.2792874 7.6424272,9.34765 7.5589961,9.4682175 7.4827983,9.5472145 l -0.1385413,0.1436311 -0.8294822,0 -0.8294821,0 -0.1529153,-0.1342615 0,-1.3e-6 z"
       id="path3011"
       inkscape:connector-curvature="0"
       transform="translate(0,1040.3622)" />
    <path
       style="opacity:0.17720002;fill:#ff00ff;fill-opacity:1;stroke:#000000;stroke-width:0.00441942;stroke-miterlimit:4;stroke-opacity:1;stroke-dasharray:none"
       d="M 5.5809007,9.560384 C 5.3834473,9.3870173 5.34931,9.2531929 5.2188557,8.1411018 5.0908269,7.0496869 5.073477,6.9515365 5.0040887,6.9261372 4.9759972,6.9158545 4.4595563,6.8575699 3.8564422,6.796616 3.2533281,6.7356621 2.7263126,6.6675018 2.6852966,6.6451484 2.6442806,6.6227955 2.5438933,6.5350294 2.4622138,6.4501125 L 2.3137055,6.2957179 2.3438576,5.5515531 C 2.376973,4.7342514 2.407083,4.5815283 2.5642033,4.4339214 2.6835471,4.3218038 2.8436195,4.2977045 4.176126,4.1912433 4.7084753,4.1487109 5.0101499,4.1062792 5.0477887,4.0686404 5.0847263,4.0317028 5.1457219,3.6233033 5.2180376,2.9287295 5.2800167,2.3334365 5.3395334,1.8066037 5.350297,1.7579901 5.3610606,1.7093765 5.4316501,1.5950241 5.5071626,1.5038736 l 0.1372954,-0.1657282 0.8508652,0 c 0.8267572,0 0.8535283,0.00283 0.944848,0.1000401 0.1694904,0.1804143 0.2240145,0.402361 0.3399336,1.3837447 0.1374607,1.1637531 0.1504158,1.2407841 0.2181186,1.2969728 0.070628,0.058615 1.0561153,0.1360579 1.7313952,0.1360579 l 0.5432264,0 0.156527,0.1657282 c 0.210033,0.2223776 0.263646,0.4952168 0.236646,1.2042912 -0.02399,0.6299336 -0.08838,0.837591 -0.299539,0.966006 -0.158573,0.096434 -0.267775,0.1133395 -1.3255047,0.2052059 -0.8928884,0.07755 -1.0425794,0.1007746 -1.097522,0.170285 -0.022006,0.027841 -0.092985,0.5453804 -0.1577299,1.150088 C 7.7209775,8.7212723 7.646394,9.2582315 7.6199823,9.3098079 7.5935705,9.3613838 7.5107833,9.4682161 7.4360117,9.5472132 l -0.1359488,0.1436311 -0.7852881,0 -0.7852879,0 L 5.5809007,9.560384 z"
       id="path3013"
       inkscape:connector-curvature="0"
       transform="translate(0,1040.3622)" />
    <path
       style="opacity:0.17720002;fill:#ff00ff;fill-opacity:1;stroke:#000000;stroke-width:0.00441942;stroke-miterlimit:4;stroke-opacity:1;stroke-dasharray:none"
       d="M 5.587048,9.5251161 C 5.3963384,9.3176271 5.3702495,9.2026891 5.1943379,7.7949774 5.1445282,7.3963809 5.0847173,7.0346467 5.0614247,6.9911243 5.0141667,6.9028221 4.998938,6.9000458 3.870256,6.7739572 2.6321054,6.6356401 2.7068035,6.6535246 2.5093909,6.4481374 L 2.3341286,6.2657958 2.3705071,5.5231187 C 2.4102189,4.7123927 2.468269,4.5004028 2.6777482,4.4011237 2.7389195,4.3721326 3.2815738,4.2993898 3.8836467,4.239473 4.4857196,4.1795562 5.0049509,4.1084356 5.0374939,4.0814274 5.1089017,4.0221641 5.1189474,3.9620462 5.2621399,2.737047 5.428483,1.3139967 5.3700924,1.3761806 6.5247515,1.3924112 l 0.8555123,0.012026 0.097836,0.1452465 c 0.1254072,0.1861791 0.164843,0.377422 0.3039203,1.4738586 0.062786,0.4949795 0.1252074,0.9443446 0.1387153,0.9985891 0.037102,0.1489893 0.2334204,0.1826943 1.3633072,0.2340594 l 1.0164654,0.046209 0.09953,0.1199119 c 0.205964,0.2481413 0.243108,0.4380138 0.223893,1.1445042 -0.01924,0.7075364 -0.06449,0.8716983 -0.278972,1.0122349 -0.07588,0.04972 -0.4102618,0.102583 -1.1149825,0.1762706 C 8.6763499,6.8132096 8.1907823,6.8609879 8.1509382,6.8614953 8.1110945,6.8620035 8.0376552,6.8972201 7.9877406,6.939757 7.9087483,7.0070735 7.8794967,7.1591912 7.7620352,8.113506 7.6878119,8.7165311 7.6046938,9.2534903 7.5773283,9.3067487 7.5499628,9.3600071 7.4765634,9.4582724 7.4142186,9.5251161 l -0.1133536,0.121534 -0.8010556,0 -0.8010556,0 -0.1117058,-0.121534 z"
       id="path3015"
       inkscape:connector-curvature="0"
       transform="translate(0,1040.3622)" />
  </g>
</svg>
