<?xml version="1.0" encoding="UTF-8" standalone="no"?>
<!-- Created with Inkscape (http://www.inkscape.org/) -->

<svg
   xmlns:dc="http://purl.org/dc/elements/1.1/"
   xmlns:cc="http://creativecommons.org/ns#"
   xmlns:rdf="http://www.w3.org/1999/02/22-rdf-syntax-ns#"
   xmlns:svg="http://www.w3.org/2000/svg"
   xmlns="http://www.w3.org/2000/svg"
   xmlns:sodipodi="http://sodipodi.sourceforge.net/DTD/sodipodi-0.dtd"
   xmlns:inkscape="http://www.inkscape.org/namespaces/inkscape"
   width="12"
   height="12"
   id="svg4764"
   version="1.1"
   inkscape:version="0.48.4 r9939"
   sodipodi:docname="pharmacy-12.svg">
  <defs
     id="defs4766" />
  <sodipodi:namedview
     id="base"
     pagecolor="#ffffff"
     bordercolor="#666666"
     borderopacity="1.0"
     inkscape:pageopacity="0.0"
     inkscape:pageshadow="2"
     inkscape:zoom="22.627417"
     inkscape:cx="5.4435686"
     inkscape:cy="2.8129693"
     inkscape:document-units="px"
     inkscape:current-layer="layer1"
     showgrid="true"
     showguides="true"
     inkscape:guide-bbox="true"
     inkscape:window-width="957"
     inkscape:window-height="704"
     inkscape:window-x="205"
     inkscape:window-y="-16"
     inkscape:window-maximized="0"
     inkscape:snap-bbox="true"
     inkscape:snap-nodes="false">
    <inkscape:grid
       type="xygrid"
       id="grid4772"
       empspacing="5"
       visible="true"
       enabled="true"
       snapvisiblegridlinesonly="true"
       spacingx="1px"
       spacingy="1px" />
    <sodipodi:guide
       orientation="0,1"
       position="2,12"
       id="guide4789" />
    <sodipodi:guide
       orientation="1,0"
       position="12,10"
       id="guide4791" />
    <sodipodi:guide
       orientation="0,1"
       position="10,0"
       id="guide4793" />
    <sodipodi:guide
       orientation="1,0"
       position="0,9"
       id="guide4795" />
    <sodipodi:guide
       orientation="0,1"
       position="5,11"
       id="guide4797" />
    <sodipodi:guide
       orientation="1,0"
       position="11,7"
       id="guide4799" />
    <sodipodi:guide
       orientation="0,1"
       position="9,2"
       id="guide4801" />
    <sodipodi:guide
       orientation="1,0"
       position="2,5"
       id="guide4803" />
  </sodipodi:namedview>
  <metadata
     id="metadata4769">
    <rdf:RDF>
      <cc:Work
         rdf:about="">
        <dc:format>image/svg+xml</dc:format>
        <dc:type
           rdf:resource="http://purl.org/dc/dcmitype/StillImage" />
        <dc:title />
      </cc:Work>
    </rdf:RDF>
  </metadata>
  <g
     inkscape:label="Layer 1"
     inkscape:groupmode="layer"
     id="layer1"
     transform="translate(0,-1040.3622)">
    <g
       style="display:inline"
       id="pharmacy-12"
       inkscape:label="pharmacy-12"
       transform="translate(-282,-105.99998)"
       inkscape:export-xdpi="89.996864"
       inkscape:export-ydpi="89.996864">
      <path
         style="opacity:0.3;color:#000000;fill:#ffffff;fill-opacity:1;fill-rule:nonzero;stroke:#ffffff;stroke-width:2;stroke-linecap:round;stroke-linejoin:round;stroke-miterlimit:4;stroke-opacity:1;stroke-dasharray:none;stroke-dashoffset:0;marker:none;visibility:visible;display:inline;overflow:visible;enable-background:accumulate"
         d="m 288.5,1147.8622 c -1.38071,0 -2.5,0.4477 -2.5,1 l 0,1.5 c 0,0.5523 1.11929,1 2.5,1 1.38071,0 2.5,-0.4477 2.5,-1 l 0,-1.5 c 0,-0.5523 -1.11929,-1 -2.5,-1 z m -2.5,3.5 0,5 c 0,0.5523 1.11929,1 2.5,1 1.38071,0 2.5,-0.4477 2.5,-1 l 0,-5 c 0,0.5523 -1.11929,1 -2.5,1 -1.38071,0 -2.5,-0.4477 -2.5,-1 z"
         id="path14819-7"
         inkscape:connector-curvature="0"
         sodipodi:nodetypes="ssssssscssscsc" />
      <g
         transform="translate(-1,-1)"
         id="g21659">
        <path
           style="color:#000000;fill:#444444;fill-opacity:1;stroke:none;stroke-width:2;marker:none;visibility:visible;display:inline;overflow:visible;enable-background:accumulate"
           d="m 289.5,1148.8622 c -1.38071,0 -2.5,0.4477 -2.5,1 l 0,1.5 c 0,0.5523 1.11929,1 2.5,1 1.38071,0 2.5,-0.4477 2.5,-1 l 0,-1.5 c 0,-0.5523 -1.11929,-1 -2.5,-1 z m -2.5,3.5 0,5 c 0,0.5523 1.11929,1 2.5,1 1.38071,0 2.5,-0.4477 2.5,-1 l 0,-5 c 0,0.5523 -1.11929,1 -2.5,1 -1.38071,0 -2.5,-0.4477 -2.5,-1 z m 1,2 c 0,0 0.5,0.25 1.5,0.25 1,0 1.5,-0.25 1.5,-0.25 l 0,2 c 0,0 -0.5,0.25 -1.5,0.25 -1,0 -1.5,-0.25 -1.5,-0.25 l 0,-2 z"
           id="path14819"
           inkscape:connector-curvature="0" />
      </g>
      <rect
         style="opacity:0.5;color:#000000;fill:none;stroke:none;stroke-width:2;marker:none;visibility:visible;display:inline;overflow:visible;enable-background:accumulate"
         id="rect22286-3"
         width="11.999998"
         height="12.000007"
         x="282"
         y="1146.3622" />
    </g>
    <path
       style="opacity:0.17720002;fill:#2b0000;fill-opacity:1;stroke:#000000;stroke-width:0.00441942;stroke-miterlimit:4;stroke-opacity:1;stroke-dasharray:none"
       d="M 5.7080042,10.923562 C 5.0036516,10.820836 4.3574538,10.553495 4.147124,10.277805 L 4.0249356,10.117647 4.0124646,7.6471848 3.9999935,5.1767227 4.1400599,5.3362494 c 0.2688519,0.3062055 0.756307,0.5048967 1.5200602,0.6195904 1.3351837,0.2005063 2.9180679,-0.1295817 3.2642448,-0.6807119 0.0666,-0.1060309 0.070959,0.062824 0.061021,2.3641663 l -0.010703,2.4783528 -0.1221885,0.160158 c -0.2168997,0.284301 -0.8527194,0.541887 -1.6013843,0.648759 -0.3663033,0.05229 -1.1747805,0.05072 -1.5431061,-0.003 l 0,-1e-6 z m 1.764077,-1.7405881 c 0.07292,-0.016667 0.2270475,-0.059968 0.3425048,-0.096225 l 0.2099224,-0.065921 0,-1.0180687 0,-1.0180687 -0.099437,0.029527 c -0.8931415,0.2652146 -1.9573828,0.2652146 -2.8505243,0 l -0.099437,-0.029527 0,1.0180687 0,1.0180687 0.2099223,0.066731 c 0.3151704,0.1001881 0.4802562,0.1284972 0.9170291,0.1572534 0.4023228,0.026488 1.1266122,-0.0062 1.3700194,-0.061839 z"
       id="path2996"
       inkscape:connector-curvature="0"
       transform="translate(0,1040.3622)" />
    <path
       style="opacity:0.17720002;fill:#2b0000;fill-opacity:1;stroke:#000000;stroke-width:0.00441942;stroke-miterlimit:4;stroke-opacity:1;stroke-dasharray:none"
       d="M 5.9915764,10.925618 C 5.1982316,10.868368 4.5020922,10.626944 4.1945023,10.302387 L 4.0547098,10.154883 4.0226398,7.6814471 3.9905698,5.2080112 4.2198126,5.4141202 C 5.0335454,6.145736 7.4144554,6.2320159 8.5875934,5.5724007 8.7149888,5.5007705 8.8492286,5.399323 8.8859041,5.3469619 8.945693,5.261601 8.952586,5.5053943 8.952586,7.705401 l 0,2.453641 -0.1657282,0.158963 C 8.3043522,10.780814 7.2277877,11.014829 5.9915764,10.925618 z M 7.7151491,9.1283624 8.0024113,9.0487481 8.0142874,8.0165636 8.0261635,6.9843792 7.925899,7.0076739 C 7.3021892,7.1525815 7.0645473,7.1815572 6.4998094,7.1815572 c -0.564738,0 -0.8023799,-0.028976 -1.4260897,-0.1738833 l -0.1002645,-0.023295 0.011876,1.0321844 0.011876,1.0321845 0.2872622,0.078853 c 0.6009099,0.1649487 1.8368668,0.1653358 2.4306795,7.614e-4 l 0,0 z"
       id="path2998"
       inkscape:connector-curvature="0"
       transform="translate(0,1040.3622)" />
    <path
       style="opacity:0.17720002000000001;fill:#ff00ff;fill-opacity:1;stroke:#000000;stroke-width:0.00441942000000000;stroke-miterlimit:4;stroke-opacity:1;stroke-dasharray:none"
       d="M 5.5862306,10.862157 C 4.9452461,10.754279 4.3442077,10.494765 4.1591233,10.245965 L 4.0584908,10.110689 4.0317124,7.6910579 c -0.014728,-1.330797 -0.014745,-2.419631 -3.68e-5,-2.419631 0.014708,0 0.1063146,0.07189 0.2035707,0.1597546 0.2271721,0.2052363 0.5299096,0.3420993 1.0271262,0.4643479 0.540981,0.1330088 1.7970011,0.1464402 2.3592023,0.025228 0.4484583,-0.096689 0.872875,-0.261639 1.1040206,-0.42908 l 0.171397,-0.1241594 0.027413,0.2281678 c 0.015077,0.1254923 0.027586,1.200301 0.027797,2.388464 l 3.977e-4,2.1602972 -0.1594596,0.150389 c -0.2954483,0.278631 -0.7741916,0.468921 -1.4315444,0.569003 -0.5062272,0.07707 -1.3119544,0.07631 -1.7753651,-0.0017 z M 7.5283111,9.178722 C 8.0718929,9.0664421 8.0245084,9.1785975 8.0245084,8.0042624 l 0,-1.0205595 -0.1657282,0.028003 c -0.091151,0.015401 -0.3248272,0.057024 -0.5192815,0.092495 -0.1944544,0.035471 -0.5723146,0.064492 -0.8396893,0.064492 -0.2673748,0 -0.645235,-0.029022 -0.8396893,-0.064492 -0.1944544,-0.035471 -0.428504,-0.077153 -0.5201103,-0.092627 l -0.1665569,-0.028135 0.011877,1.0331281 0.011877,1.0331282 0.173917,0.056952 c 0.3077016,0.100762 0.6065631,0.1318123 1.3194995,0.1370899 0.4836489,0.00358 0.8022347,-0.01638 1.0376872,-0.065014 z"
       id="path3000"
       inkscape:connector-curvature="0"
       transform="translate(0,1040.3622)" />
    <path
       style="opacity:0.17720002;fill:#2b0000;fill-opacity:1;stroke:#000000;stroke-width:0.00441942;stroke-miterlimit:4;stroke-opacity:1;stroke-dasharray:none"
       d="M 5.6601201,4.9209983 C 4.7675151,4.7766231 4.1563253,4.4603977 4.0437658,4.0847076 4.0137181,3.9844173 4.000877,3.6275862 4.0100742,3.1484785 4.0241249,2.4165403 4.0305507,2.3671376 4.1278612,2.2429243 4.3485338,1.9612437 4.8658916,1.7263835 5.5496346,1.5974946 c 0.3705923,-0.069859 1.5297572,-0.069859 1.9003495,0 0.683743,0.1288889 1.2011009,0.3637491 1.4217734,0.6454297 0.09731,0.1242133 0.1037366,0.173616 0.1177872,0.9055542 0.0092,0.4791077 -0.00365,0.8359388 -0.033692,0.9362291 C 8.8632696,4.3937227 8.4517211,4.6550508 7.7792474,4.8318366 7.5050415,4.9039223 7.2580582,4.9277775 6.654489,4.9404724 6.22912,4.9494193 5.781654,4.940658 5.6601201,4.9209983 z"
       id="path3008"
       inkscape:connector-curvature="0"
       transform="translate(0,1040.3622)" />
    <path
       style="opacity:0.17720002;fill:#2b0000;fill-opacity:1;stroke:#000000;stroke-width:0.00441942;stroke-miterlimit:4;stroke-opacity:1;stroke-dasharray:none"
       d="M 5.2080042,4.8089843 C 4.7266018,4.6843464 4.4076495,4.5212834 4.2037041,4.2955403 4.0686611,4.1460638 4.0531618,4.0995454 4.0260935,3.7624735 4.0097826,3.5593591 4.014434,3.1491472 4.03643,2.8508917 4.0831716,2.2170987 4.1180149,2.1588956 4.5918756,1.9230632 5.1709054,1.6348898 5.467359,1.5818765 6.4998094,1.5818765 c 1.0324503,0 1.328904,0.053013 1.9079336,0.3411867 0.4698928,0.2338576 0.5084593,0.2967785 0.5550881,0.9056206 0.048621,0.6348592 0.011119,1.230183 -0.08701,1.3812372 C 8.7169546,4.4544698 8.3880876,4.6433157 7.8643063,4.790765 7.5633595,4.8754843 7.387729,4.8904881 6.5661006,4.9016683 5.683714,4.9136752 5.5868236,4.9070629 5.2080042,4.8089843 z"
       id="path3010"
       inkscape:connector-curvature="0"
       transform="translate(0,1040.3622)" />
    <path
       style="opacity:0.17720002;fill:#2b0000;fill-opacity:1;stroke:#000000;stroke-width:0.00441942;stroke-miterlimit:4;stroke-opacity:1;stroke-dasharray:none"
       d="M 5.1854356,4.7899656 C 4.5153795,4.6048642 4.1185592,4.3127222 4.0666063,3.9662756 4.0187261,3.6469873 4.0686653,2.4388795 4.1355077,2.2994464 4.2473532,2.0661365 4.9160563,1.7390372 5.4623805,1.6504002 c 0.3696672,-0.059976 1.7051905,-0.059976 2.0748577,0 0.5759669,0.093446 1.2276043,0.4221984 1.3333044,0.6726544 0.043255,0.1024925 0.059946,0.3718473 0.059946,0.9673844 0,0.9529824 -0.00465,0.9663756 -0.4234465,1.2200659 -0.491126,0.2975038 -0.6892619,0.333476 -1.9188444,0.3483721 -0.9684028,0.011732 -1.1416465,0.00322 -1.4027621,-0.068911 l 0,0 z"
       id="path3012"
       inkscape:connector-curvature="0"
       transform="translate(0,1040.3622)" />
    <path
       style="opacity:0.17720002;fill:#ff00ff;fill-opacity:1;stroke:#000000;stroke-width:0.00441942;stroke-miterlimit:4;stroke-opacity:1;stroke-dasharray:none"
       d="M 5.7043142,4.8293045 C 5.0081753,4.7869173 4.4531692,4.566469 4.1969844,4.2305934 4.0937262,4.095215 4.0761462,4.0240744 4.0579839,3.6681031 4.0465484,3.443972 4.0593201,3.0430843 4.0863657,2.7772415 4.144337,2.2074145 4.168895,2.1701442 4.6377505,1.9404348 5.1959217,1.6669665 5.4124696,1.6301538 6.4777123,1.6276452 7.5614063,1.6250931 7.8351536,1.6715067 8.3830186,1.9506878 8.8835445,2.205746 8.8840488,2.206976 8.8986704,3.2084447 8.9143134,4.2798599 8.9119897,4.2858669 8.3780617,4.5543176 8.171454,4.6581967 7.8930307,4.7609822 7.7593433,4.7827297 7.4158797,4.8386024 6.2798612,4.8643488 5.7043142,4.8293045 l 0,0 z"
       id="path3009"
       inkscape:connector-curvature="0"
       transform="translate(0,1040.3622)" />
    <path
       style="opacity:0.17720002;fill:#ff00ff;fill-opacity:1;stroke:#000000;stroke-width:0.00441942;stroke-miterlimit:4;stroke-opacity:1;stroke-dasharray:none"
       d="M 5.5938288,4.8010237 C 5.0073971,4.7214019 4.4567568,4.4974827 4.2535639,4.2560015 4.0981874,4.0713471 4.0760471,3.9117784 4.1004248,3.1523056 4.1267367,2.3325733 4.1717438,2.2197671 4.5552657,2.0122869 5.1254026,1.7038505 5.319798,1.6695968 6.4998094,1.6696459 7.6852998,1.6696953 7.8259408,1.6935274 8.3930269,1.9904572 8.840145,2.224571 8.8395687,2.2230409 8.8564752,3.2211111 8.8739562,4.2531312 8.8669682,4.2740752 8.4320847,4.4930791 7.9070592,4.7574778 7.7443986,4.7867708 6.6986831,4.8052417 6.176087,4.8144726 5.6789026,4.8125745 5.5938288,4.8010237 z"
       id="path3011"
       inkscape:connector-curvature="0"
       transform="translate(0,1040.3622)" />
    <path
       style="opacity:0.17720002;fill:#ff00ff;fill-opacity:1;stroke:#000000;stroke-width:0.00441942;stroke-miterlimit:4;stroke-opacity:1;stroke-dasharray:none"
       d="M 5.2004382,4.6976264 C 4.8074514,4.5912776 4.3745153,4.3622827 4.2489666,4.1943599 4.167467,4.0853533 4.1559776,3.9978483 4.1433575,3.3900238 4.1239872,2.4570906 4.172216,2.2890164 4.5224187,2.0690211 5.022817,1.7546738 5.2503671,1.7137959 6.4998094,1.7137959 c 1.2205718,0 1.3239149,0.016512 1.8782523,0.3001018 C 8.8023236,2.2309431 8.8198506,2.2807482 8.819935,3.2695611 8.8199792,3.7905485 8.801754,4.1140794 8.768213,4.1876929 8.706123,4.3239657 8.3741106,4.5203348 7.980314,4.6536966 7.7226166,4.7409676 7.5816156,4.7527896 6.6102946,4.7685624 5.6315889,4.7844554 5.4961035,4.7776424 5.200438,4.6976264 z"
       id="path3013"
       inkscape:connector-curvature="0"
       transform="translate(0,1040.3622)" />
    <path
       style="opacity:0.17720002;fill:#ff00ff;fill-opacity:1;stroke:#000000;stroke-width:0.00441942;stroke-miterlimit:4;stroke-opacity:1;stroke-dasharray:none"
       d="M 5.1506374,4.6581462 C 4.7708308,4.5365837 4.353141,4.2959013 4.2616673,4.1459014 4.1914355,4.0307342 4.1799571,3.915582 4.1800269,3.3268833 4.1800716,2.9501279 4.1997588,2.5711372 4.2237762,2.4846817 4.2795743,2.283825 4.4411283,2.1325284 4.7849989,1.9590918 5.1280533,1.786067 5.5218527,1.7363691 6.5440035,1.7371038 c 1.0007026,7.193e-4 1.2824926,0.044162 1.7385932,0.2680365 0.4910665,0.2410367 0.4932126,0.2466601 0.4932126,1.2922665 0,0.963856 -0.00326,0.9715241 -0.5132097,1.2071353 C 7.8377496,4.7008349 7.5225857,4.7396286 6.3672268,4.7378447 5.5616405,4.7366009 5.3530694,4.7229374 5.1506374,4.6581462 z"
       id="path3015"
       inkscape:connector-curvature="0"
       transform="translate(0,1040.3622)" />
    <path
       style="opacity:0.17720002;fill:#ff00ff;fill-opacity:1;stroke:#000000;stroke-width:0.00441942;stroke-miterlimit:4;stroke-opacity:1;stroke-dasharray:none"
       d="M 5.0634987,4.5933066 C 4.6947798,4.4627276 4.6070954,4.4141751 4.3966761,4.2240738 L 4.2238094,4.0678991 4.2239746,3.2885951 C 4.2241653,2.3887915 4.247115,2.317431 4.6104146,2.0869852 5.002542,1.8382534 5.1610927,1.8112105 6.3451297,1.7911067 7.5830915,1.7700873 7.8284522,1.8048255 8.3397509,2.0735053 8.7323837,2.279828 8.7424683,2.3134876 8.7238489,3.3555134 8.7075001,4.2704776 8.7149561,4.2506051 8.3144369,4.4467202 7.877463,4.6606854 7.6131345,4.6956211 6.4335181,4.6953173 5.4164704,4.6950553 5.3333277,4.6888645 5.0634987,4.5933066 z"
       id="path3017"
       inkscape:connector-curvature="0"
       transform="translate(0,1040.3622)" />
    <path
       style="opacity:0.17720002;fill:#ff00ff;fill-opacity:1;stroke:#000000;stroke-width:0.00441942;stroke-miterlimit:4;stroke-opacity:1;stroke-dasharray:none"
       d="M 5.4060511,10.79917 C 4.9515521,10.700035 4.2877655,10.386835 4.1629839,10.212642 4.0819571,10.09953 4.0766534,9.9746482 4.0561017,7.6959371 L 4.0344769,5.2982495 4.2110091,5.4380656 c 0.5151081,0.4079731 1.2275664,0.5848775 2.3539321,0.5844845 0.856768,-2.989e-4 1.6511286,-0.1774419 2.0883866,-0.465712 0.090629,-0.059749 0.182308,-0.1086345 0.2037303,-0.1086345 0.021564,0 0.053567,1.0404524 0.071697,2.3309449 l 0.032747,2.3309445 -0.1701864,0.148136 C 8.557502,10.461749 8.168176,10.6519 7.7656858,10.759158 c -0.5061307,0.134876 -1.822388,0.157196 -2.3596352,0.04001 l 0,0 z M 7.70499,9.1629513 C 7.8297038,9.133033 7.9514173,9.0848473 7.9754646,9.0558722 8.0319089,8.9878609 8.095343,7.0160678 8.0420688,6.9855408 8.0202571,6.9730423 7.7935938,6.9991775 7.5383724,7.0436191 6.9252884,7.150375 6.0726097,7.150206 5.4612463,7.0432075 5.2060249,6.9985396 4.9872638,6.9743915 4.9751104,6.989545 4.962957,7.0046984 4.9590226,7.4792244 4.9663674,8.044047 l 0.013354,1.0269502 0.2518109,0.073902 C 5.7017746,9.2829081 7.1605742,9.2935547 7.70499,9.1629513 l 0,0 z"
       id="path3019"
       inkscape:connector-curvature="0"
       transform="translate(0,1040.3622)" />
    <path
       style="opacity:0.17720002;fill:#ff00ff;fill-opacity:1;stroke:#000000;stroke-width:0.00441942;stroke-miterlimit:4;stroke-opacity:1;stroke-dasharray:none"
       d="m 5.5275375,10.795874 c -0.450295,-0.06723 -1.2506828,-0.439857 -1.35607,-0.631329 -0.039255,-0.07132 -0.063466,-0.7356998 -0.088811,-2.4370492 -0.019164,-1.2864494 -0.029852,-2.3439894 -0.023753,-2.350089 0.0061,-0.0061 0.1249789,0.065467 0.2641763,0.1590368 C 4.8436109,5.8863492 5.452827,6.0227616 6.4945494,6.0226674 7.4356632,6.0225835 8.141865,5.8814146 8.6288385,5.596029 l 0.1878593,-0.1100928 0.024926,0.1026677 c 0.013709,0.056467 0.041861,1.0870929 0.062559,2.2902793 0.042501,2.4705908 0.072494,2.2418918 -0.3272477,2.4952858 -0.5593244,0.354553 -1.0891469,0.468269 -2.1434174,0.460042 -0.3767553,-0.0029 -0.7844466,-0.02019 -0.9059806,-0.03834 l 0,0 z M 7.5791341,9.201159 C 7.9646181,9.1360744 8.00628,9.090141 8.0398315,8.6932271 c 0.04146,-0.4904748 0.035622,-1.7424216 -0.00813,-1.7424216 -0.020348,0 -0.2341372,0.029714 -0.4750874,0.066031 -0.5603961,0.084465 -1.5521048,0.084634 -2.1112233,3.58e-4 -0.2396324,-0.036119 -0.4534217,-0.054715 -0.4750873,-0.041325 -0.044874,0.027733 -0.052997,1.3931398 -0.010938,1.838414 l 0.027826,0.2945857 0.2038795,0.053059 c 0.4472243,0.1163886 1.7994904,0.1386029 2.3880586,0.03923 l 0,1.6e-6 z"
       id="path3021"
       inkscape:connector-curvature="0"
       transform="translate(0,1040.3622)" />
    <path
       style="opacity:0.17720002;fill:#ff00ff;fill-opacity:1;stroke:#000000;stroke-width:0.00441942;stroke-miterlimit:4;stroke-opacity:1;stroke-dasharray:none"
       d="M 5.3286637,10.724642 C 5.0365308,10.642682 4.4197105,10.357123 4.2731356,10.23598 4.16867,10.14964 4.1674808,10.138876 4.1320144,8.9586522 4.0859988,7.4273725 4.0816559,5.4365841 4.1243725,5.4555693 c 0.01823,0.0081 0.1644264,0.089366 0.3248806,0.1805858 0.4713438,0.2679639 0.8611379,0.3494469 1.7945722,0.375139 1.1084474,0.030509 1.7055874,-0.061248 2.2823395,-0.350709 0.1422239,-0.071379 0.2657736,-0.1225956 0.274555,-0.1138141 0.031122,0.031122 0.1176219,3.6429289 0.097936,4.0893351 -0.023717,0.5378259 -0.045052,0.5707949 -0.5308357,0.8203549 -0.5336693,0.27416 -0.6927876,0.30245 -1.8017191,0.320337 -0.7989556,0.01289 -1.0421366,0.0026 -1.2374369,-0.05216 l 0,0 z M 7.6555196,9.2044652 C 8.0462609,9.119679 8.0444234,9.1253237 8.0613275,7.957785 L 8.0760495,6.9409556 7.707774,6.9790266 c -0.4736528,0.048964 -1.9405189,0.049162 -2.412256,3.252e-4 l -0.3646019,-0.037745 0,0.9960916 c 0,0.5478504 0.018651,1.0451478 0.041447,1.1051054 0.045147,0.1187442 0.1325691,0.1429856 0.7540482,0.2090898 0.4298342,0.04572 1.6365593,0.016052 1.9291083,-0.047428 l 0,0 z"
       id="path3023"
       inkscape:connector-curvature="0"
       transform="translate(0,1040.3622)" />
    <path
       style="opacity:0.17720002;fill:#ff00ff;fill-opacity:1;stroke:#000000;stroke-width:0.00441942;stroke-miterlimit:4;stroke-opacity:1;stroke-dasharray:none"
       d="M 5.2181783,10.66271 C 5.0723375,10.613623 4.7947975,10.489225 4.6014227,10.38627 4.3187933,10.235793 4.2423558,10.173073 4.2117147,10.066495 4.19075,9.9935744 4.1621545,8.9310097 4.148169,7.70524 L 4.1227409,5.4765679 4.3285155,5.5971598 C 4.922808,5.9454384 5.5087846,6.0453349 6.7504248,6.0100434 7.6718992,5.9838521 7.9300458,5.939583 8.444353,5.7195543 l 0.3093592,-0.1323487 0.03342,0.2067126 c 0.018381,0.1136919 0.038269,1.1242378 0.044194,2.2456575 0.012424,2.3512863 0.057538,2.1228733 -0.4720033,2.3897763 -0.5425851,0.273477 -0.6120965,0.285291 -1.7932226,0.304759 -0.9969986,0.01643 -1.1037594,0.01078 -1.3479223,-0.0714 z M 7.7814404,9.1931299 C 7.9198826,9.1439078 7.968886,9.0976181 8.007416,8.9796681 8.034476,8.8968321 8.068124,8.3944899 8.08219,7.8633513 L 8.107765,6.8976447 8.010894,6.9258987 c -0.1719857,0.050162 -2.1600746,0.07687 -2.6159385,0.035141 -0.2430679,-0.02225 -0.4481936,-0.035689 -0.4558348,-0.029865 -0.00764,0.00582 -0.012912,0.4839394 -0.011712,1.0624793 0.00182,0.8796734 0.013166,1.0628762 0.06928,1.1189895 0.123594,0.1235939 0.6978381,0.1784178 1.6798985,0.1603823 0.6518156,-0.011971 0.980699,-0.035753 1.1048544,-0.079896 l 0,0 z"
       id="path3025"
       inkscape:connector-curvature="0"
       transform="translate(0,1040.3622)" />
    <path
       style="opacity:0.17720002;fill:#ff00ff;fill-opacity:1;stroke:#000000;stroke-width:0.00441942;stroke-miterlimit:4;stroke-opacity:1;stroke-dasharray:none"
       d="M 5.0768251,10.581425 C 4.7018238,10.430294 4.4101141,10.265399 4.2973776,10.140827 4.2222574,10.05782 4.2134472,9.8884161 4.1760811,7.808503 4.1539202,6.5749544 4.1420281,5.5594477 4.1496542,5.5518216 c 0.00763,-0.00763 0.151727,0.054724 0.3202241,0.138557 0.573114,0.2851421 0.7430367,0.3105932 2.0520281,0.3073547 1.2545714,-0.0031 1.3275522,-0.01333 1.9770706,-0.2770288 l 0.2314003,-0.093947 0.02757,0.109849 c 0.015163,0.060417 0.030357,1.0501147 0.033764,2.1993284 0.00706,2.3819571 0.029487,2.2377581 -0.3803063,2.4454161 -0.5539087,0.280688 -0.6237279,0.292316 -1.8674023,0.31101 l -1.1490485,0.01727 -0.3181299,-0.12821 0,0 z M 7.811534,9.1934465 C 8.0371151,9.0962869 8.0639418,8.9686379 8.0980173,7.8302746 L 8.1265918,6.8756854 7.8214336,6.9170622 C 7.6535965,6.9398195 6.9371718,6.9517496 6.2293785,6.9435737 L 4.9424817,6.9287084 4.9135873,7.3758181 c -0.027215,0.4211211 -6.629e-4,1.4690432 0.042661,1.6836755 0.013954,0.069133 0.068263,0.110503 0.1850352,0.140953 0.301846,0.07871 0.4230541,0.084808 1.4690118,0.073898 0.8322303,-0.00868 1.0708821,-0.024752 1.2012392,-0.080898 z"
       id="path3027"
       inkscape:connector-curvature="0"
       transform="translate(0,1040.3622)" />
    <path
       style="opacity:0.17720002;fill:#ff00ff;fill-opacity:1;stroke:#000000;stroke-width:0.00441942;stroke-miterlimit:4;stroke-opacity:1;stroke-dasharray:none"
       d="M 5.0845169,4.5695301 C 4.7155515,4.4366167 4.5541842,4.3471426 4.404019,4.1922115 L 4.2608385,4.0444868 4.2754696,3.2165154 4.2901007,2.3885441 4.4621983,2.2398542 C 4.8685914,1.8887365 5.1896706,1.826186 6.5881977,1.8256813 7.6331742,1.8253042 7.8048411,1.8497718 8.2554398,2.0633128 8.6939135,2.2711077 8.696136,2.277515 8.679569,3.2860332 8.668234,3.9760282 8.651779,4.1696458 8.599033,4.2336393 8.510683,4.3408278 8.0593427,4.5415708 7.768217,4.6031618 7.629328,4.6325458 7.0807899,4.6520598 6.4202947,4.6511138 5.4594677,4.6497338 5.2760825,4.6385378 5.0845173,4.5695298 l 0,0 z"
       id="path3029"
       inkscape:connector-curvature="0"
       transform="translate(0,1040.3622)" />
    <path
       style="opacity:0.17720002;fill:#ff00ff;fill-opacity:1;stroke:#000000;stroke-width:0.00441942;stroke-miterlimit:4;stroke-opacity:1;stroke-dasharray:none"
       d="M 5.1518871,4.5655825 C 4.8615019,4.4727139 4.5846677,4.3236667 4.438036,4.181246 L 4.2766122,4.0244579 4.2997823,3.2226803 C 4.3261506,2.3102289 4.3289829,2.303014 4.750952,2.0733496 5.0482427,1.9115438 5.4197901,1.8703568 6.591225,1.8693509 c 1.0913417,-9.371e-4 1.2687232,0.024666 1.7064205,0.2463068 0.3396257,0.1719792 0.3455813,0.1910681 0.3455813,1.1076966 0,0.4426849 -0.01912,0.8551709 -0.042489,0.9166354 C 8.5528691,4.2658946 8.2666601,4.427009 7.8949531,4.5372943 7.6984011,4.5956112 7.4381815,4.6078261 6.4586424,4.6047157 5.8006939,4.6026264 5.212654,4.5850165 5.1518871,4.5655825 z"
       id="path3031"
       inkscape:connector-curvature="0"
       transform="translate(0,1040.3622)" />
    <path
       style="opacity:0.17720002;fill:#ff00ff;fill-opacity:1;stroke:#000000;stroke-width:0.00441942;stroke-miterlimit:4;stroke-opacity:1;stroke-dasharray:none"
       d="M 4.886722,4.4287722 C 4.7287278,4.3550697 4.5348259,4.2321914 4.4558288,4.1557094 L 4.3121978,4.0166512 4.3141384,3.5281361 C 4.3152058,3.2594529 4.3333076,2.8904658 4.3543647,2.7081648 4.3895794,2.4032951 4.4054216,2.3656585 4.5518711,2.2389469 4.867262,1.9660631 5.0676804,1.9347668 6.4998094,1.9347668 c 1.243845,0 1.2898284,0.00311 1.5596698,0.1055078 0.1529214,0.058029 0.3368796,0.1604734 0.4087961,0.2276535 l 0.1307573,0.1221456 0,0.8682626 0,0.8682625 -0.1155621,0.1070994 c -0.063559,0.058905 -0.22763,0.152296 -0.3646019,0.2075363 -0.237653,0.095845 -0.3106709,0.1009196 -1.5969622,0.1109897 L 5.1739841,4.5627767 4.886722,4.4287722 z"
       id="path3033"
       inkscape:connector-curvature="0"
       transform="translate(0,1040.3622)" />
    <path
       style="opacity:0.17720002;fill:#ff00ff;fill-opacity:1;stroke:#000000;stroke-width:0.00441942;stroke-miterlimit:4;stroke-opacity:1;stroke-dasharray:none"
       d="M 4.864098,4.3877196 C 4.718547,4.3114047 4.5447696,4.196875 4.4779259,4.1332093 4.3568369,4.0178772 4.3563919,4.0152262 4.3563919,3.4091785 c 0,-0.8011957 0.046612,-1.0146099 0.2575686,-1.1792755 C 4.9014426,2.0055038 4.9965305,1.9909391 6.3241978,1.9679452 7.7118712,1.943912 7.9204297,1.9675401 8.2948221,2.191202 l 0.2379193,0.1421328 0.011981,0.8999188 c 0.00782,0.5877402 -0.00431,0.9195503 -0.034986,0.9565108 C 8.4839037,4.22089 8.3492444,4.3026933 8.2104928,4.3715496 L 7.9582171,4.4967426 6.5434766,4.5116083 5.1287362,4.526474 4.864098,4.3877196 z"
       id="path3035"
       inkscape:connector-curvature="0"
       transform="translate(0,1040.3622)" />
    <path
       style="opacity:0.17720002;fill:#ff00ff;fill-opacity:1;stroke:#000000;stroke-width:0.00441942;stroke-miterlimit:4;stroke-opacity:1;stroke-dasharray:none"
       d="M 4.9053121,10.466054 C 4.6398662,10.339023 4.384918,10.192316 4.3387606,10.140038 4.2626128,10.053793 4.2516093,9.9313454 4.2199855,8.8183042 4.2008165,8.1436284 4.1838914,7.1396853 4.182374,6.5873193 l -0.00276,-1.0043016 0.3226822,0.147051 c 0.5584471,0.2544925 0.680783,0.2706509 2.0417061,0.2696725 L 7.7814404,5.9988516 8.2443285,5.8365452 C 8.498917,5.7472766 8.715437,5.6824589 8.7254836,5.6925057 c 0.010047,0.010047 0.020508,0.9890929 0.023248,2.1756579 0.00561,2.4313324 0.0223,2.3076614 -0.3360446,2.4904754 -0.4399937,0.224468 -0.6436534,0.265965 -1.4046445,0.286209 -0.4010622,0.01067 -0.9296558,0.02677 -1.1746526,0.03579 l -0.4454487,0.01639 -0.482629,-0.230965 z M 7.8167237,9.2137914 c 0.213498,-0.091003 0.2544628,-0.2753592 0.2996954,-1.3487336 0.022548,-0.5350692 0.035952,-0.9745834 0.029786,-0.9766983 -0.00617,-0.00211 -0.7311112,0.00247 -1.6109892,0.010187 l -1.5997783,0.014032 -0.02908,0.1939218 c -0.036626,0.2442362 -0.00159,1.8740317 0.0424,1.9726277 0.031164,0.069841 0.1655846,0.1397687 0.3578095,0.1861382 0.191425,0.046177 2.3866746,0.00116 2.510157,-0.051475 l 0,0 z"
       id="path3037"
       inkscape:connector-curvature="0"
       transform="translate(0,1040.3622)" />
    <path
       style="opacity:0.17720002;fill:#ff00ff;fill-opacity:1;stroke:#000000;stroke-width:0.00441942;stroke-miterlimit:4;stroke-opacity:1;stroke-dasharray:none"
       d=""
       id="path3039"
       inkscape:connector-curvature="0"
       transform="translate(0,1040.3622)" />
  </g>
</svg>
