<?xml version="1.0" encoding="UTF-8" standalone="no"?>
<!-- Created with Inkscape (http://www.inkscape.org/) -->

<svg
   xmlns:dc="http://purl.org/dc/elements/1.1/"
   xmlns:cc="http://creativecommons.org/ns#"
   xmlns:rdf="http://www.w3.org/1999/02/22-rdf-syntax-ns#"
   xmlns:svg="http://www.w3.org/2000/svg"
   xmlns="http://www.w3.org/2000/svg"
   xmlns:sodipodi="http://sodipodi.sourceforge.net/DTD/sodipodi-0.dtd"
   xmlns:inkscape="http://www.inkscape.org/namespaces/inkscape"
   width="12"
   height="12"
   id="svg4764"
   version="1.1"
   inkscape:version="0.48.4 r9939"
   sodipodi:docname="police-12.svg">
  <defs
     id="defs4766" />
  <sodipodi:namedview
     id="base"
     pagecolor="#ffffff"
     bordercolor="#666666"
     borderopacity="1.0"
     inkscape:pageopacity="0.0"
     inkscape:pageshadow="2"
     inkscape:zoom="11.313709"
     inkscape:cx="5.6084938"
     inkscape:cy="5.0524314"
     inkscape:document-units="px"
     inkscape:current-layer="layer1"
     showgrid="true"
     showguides="true"
     inkscape:guide-bbox="true"
     inkscape:window-width="957"
     inkscape:window-height="704"
     inkscape:window-x="92"
     inkscape:window-y="11"
     inkscape:window-maximized="0"
     inkscape:snap-bbox="true"
     inkscape:snap-nodes="false">
    <inkscape:grid
       type="xygrid"
       id="grid4772"
       empspacing="5"
       visible="true"
       enabled="true"
       snapvisiblegridlinesonly="true"
       spacingx="1px"
       spacingy="1px" />
    <sodipodi:guide
       orientation="0,1"
       position="2,12"
       id="guide4789" />
    <sodipodi:guide
       orientation="1,0"
       position="12,10"
       id="guide4791" />
    <sodipodi:guide
       orientation="0,1"
       position="10,0"
       id="guide4793" />
    <sodipodi:guide
       orientation="1,0"
       position="0,9"
       id="guide4795" />
    <sodipodi:guide
       orientation="0,1"
       position="5,11"
       id="guide4797" />
    <sodipodi:guide
       orientation="1,0"
       position="11,7"
       id="guide4799" />
    <sodipodi:guide
       orientation="0,1"
       position="9,2"
       id="guide4801" />
    <sodipodi:guide
       orientation="1,0"
       position="2,5"
       id="guide4803" />
  </sodipodi:namedview>
  <metadata
     id="metadata4769">
    <rdf:RDF>
      <cc:Work
         rdf:about="">
        <dc:format>image/svg+xml</dc:format>
        <dc:type
           rdf:resource="http://purl.org/dc/dcmitype/StillImage" />
        <dc:title />
      </cc:Work>
    </rdf:RDF>
  </metadata>
  <g
     inkscape:label="Layer 1"
     inkscape:groupmode="layer"
     id="layer1"
     transform="translate(0,-1040.3622)">
    <g
       style="display:inline"
       id="police-12"
       inkscape:label="police-12"
       transform="translate(-438,-81.999989)"
       inkscape:export-xdpi="89.996864"
       inkscape:export-ydpi="89.996864">
      <g
         transform="translate(-1,0)"
         id="g21526">
        <path
           inkscape:connector-curvature="0"
           id="rect7805-5-1"
           d="m 444,1124.3622 3,0 0,-1 -3,0 z m 0,0.75 c 0,0.9665 0.53351,1.75 1.5,1.75 0.96649,0 1.5,-0.7835 1.5,-1.75 l 0,-0.25 -3,0 z m -1,2.25 c -0.5,0 -1,1.5 -1,2 l 0,3 1.59375,0 3.40625,-5 z m 5,0 -3.40625,5 4.40625,0 0,-3 c 0,-0.5 -0.5,-2 -1,-2 z"
           style="opacity:0.3;color:#000000;fill:#ffffff;fill-opacity:1;fill-rule:nonzero;stroke:#ffffff;stroke-width:2;stroke-linecap:round;stroke-linejoin:round;stroke-miterlimit:4;stroke-opacity:1;stroke-dasharray:none;stroke-dashoffset:0;marker:none;visibility:visible;display:inline;overflow:visible;enable-background:accumulate"
           sodipodi:nodetypes="ccccccsccccsscccscccsc" />
        <path
           sodipodi:nodetypes="ccccccsccccsscccscccsc"
           style="color:#000000;fill:#444444;fill-opacity:1;stroke:none;stroke-width:2;marker:none;visibility:visible;display:inline;overflow:visible;enable-background:accumulate"
           d="m 444,1124.3622 3,0 0,-1 -3,0 z m 0,0.75 c 0,0.9665 0.53351,1.75 1.5,1.75 0.96649,0 1.5,-0.7835 1.5,-1.75 l 0,-0.25 -3,0 z m -1,2.25 c -0.5,0 -1,1.5 -1,2 l 0,3 1.59375,0 3.40625,-5 z m 5,0 -3.40625,5 4.40625,0 0,-3 c 0,-0.5 -0.5,-2 -1,-2 z"
           id="path5442"
           inkscape:connector-curvature="0" />
      </g>
      <rect
         y="1122.3622"
         x="438"
         height="12.000007"
         width="11.999998"
         id="rect22304-3"
         style="opacity:0.5;color:#000000;fill:none;stroke:none;stroke-width:2;marker:none;visibility:visible;display:inline;overflow:visible;enable-background:accumulate" />
    </g>
    <path
       style="opacity:0.17720002;fill:#0000ff;fill-opacity:1;stroke:#000000;stroke-width:0.00883883;stroke-miterlimit:4;stroke-opacity:1;stroke-dasharray:none"
       d="m 3.0805872,8.3225863 c 0,-1.8251698 0.1049911,-2.3671137 0.5789703,-2.9885324 l 0.2255212,-0.2956735 1.9916052,0 c 1.0953829,0 1.978347,0.03394 1.9621424,0.075423 -0.016204,0.041483 -0.7637486,1.155176 -1.6612091,2.4748736 l -1.6317463,2.3994501 -0.7326419,0 -0.7326418,0 0,-1.6655413 z"
       id="path2996"
       inkscape:connector-curvature="0"
       transform="translate(0,1040.3622)" />
    <path
       style="opacity:0.17720002;fill:#0000ff;fill-opacity:1;stroke:#000000;stroke-width:0.00883883;stroke-miterlimit:4;stroke-opacity:1;stroke-dasharray:none"
       d="m 5.7322375,9.9377568 c 0,-0.027704 0.7437464,-1.1412571 1.6527696,-2.4745625 L 9.0377768,5.0390026 9.2816166,5.2726159 C 9.7649611,5.7356894 9.9113302,6.3924141 9.9533773,8.286652 l 0.037768,1.7014756 -2.129454,0 c -1.1711998,0 -2.1294541,-0.022667 -2.1294541,-0.050371 z"
       id="path2998"
       inkscape:connector-curvature="0"
       transform="translate(0,1040.3622)" />
    <path
       style="opacity:0.17720002;fill:#0000ff;fill-opacity:1;stroke:#000000;stroke-width:0.00883883;stroke-miterlimit:4;stroke-opacity:1;stroke-dasharray:none"
       d="M 6.7695592,9.9221585 5.8181432,9.8937335 7.4207024,7.5045462 9.0232617,5.1153589 9.228925,5.3085695 C 9.6991417,5.7503152 9.8438233,6.4435169 9.9242874,8.6402054 L 9.9736614,9.9881276 8.8473183,9.9693555 C 8.2278296,9.959031 7.292838,9.9377922 6.7695592,9.9221585 z"
       id="path3000"
       inkscape:connector-curvature="0"
       transform="translate(0,1040.3622)" />
    <path
       style="opacity:0.17720002;fill:#0000ff;fill-opacity:1;stroke:#000000;stroke-width:0.00883883;stroke-miterlimit:4;stroke-opacity:1;stroke-dasharray:none"
       d="M 5.9644331,9.7892539 C 6.0006516,9.7284869 6.7021366,8.6704155 7.5232886,7.4379842 L 9.0162923,5.1971999 9.2275334,5.3956505 c 0.1161825,0.1091479 0.2708455,0.3816678 0.3436954,0.6055999 0.1648376,0.5066911 0.3152608,1.9706322 0.3152608,3.0681648 l 0,0.8303241 -1.9939541,0 c -1.5713587,0 -1.9799976,-0.023416 -1.9281024,-0.1104854 z"
       id="path3002"
       inkscape:connector-curvature="0"
       transform="translate(0,1040.3622)" />
    <path
       style="opacity:0.17720002;fill:#0000ff;fill-opacity:1;stroke:#000000;stroke-width:0.00883883;stroke-miterlimit:4;stroke-opacity:1;stroke-dasharray:none"
       d="M 6.816346,9.8339018 6.000105,9.804753 7.5065515,7.5476387 C 8.8374277,5.5535819 9.0295184,5.3041597 9.1547491,5.4075203 9.5429243,5.7279052 9.7368643,6.6761931 9.8429998,8.7727879 L 9.9000493,9.8997393 8.7663181,9.881395 C 8.1427659,9.8713056 7.2652784,9.8499337 6.816346,9.8339018 z"
       id="path3004"
       inkscape:connector-curvature="0"
       transform="translate(0,1040.3622)" />
    <path
       style="opacity:0.17720002;fill:#0000ff;fill-opacity:1;stroke:#000000;stroke-width:0.00883883;stroke-miterlimit:4;stroke-opacity:1;stroke-dasharray:none"
       d="M 6.139499,9.7008655 C 6.3860853,9.2761105 8.8650042,5.646232 8.9653852,5.5629232 9.3733091,5.2243764 9.672236,6.5123247 9.8232099,9.2589238 l 0.030366,0.5524271 -1.8891088,0 c -1.48657,0 -1.8754414,-0.023543 -1.8249678,-0.1104854 z"
       id="path3006"
       inkscape:connector-curvature="0"
       transform="translate(0,1040.3622)" />
    <path
       style="opacity:0.17720002;fill:#0000ff;fill-opacity:1;stroke:#000000;stroke-width:0.00883883;stroke-miterlimit:4;stroke-opacity:1;stroke-dasharray:none"
       d="M 6.9443323,9.7454924 6.1676893,9.7159855 7.4628341,7.7970276 C 8.8218527,5.7834304 8.9804965,5.5687104 9.1092038,5.5687104 c 0.2396083,0 0.5218555,1.4485939 0.650122,3.33666 l 0.061548,0.9059805 -1.0499493,-0.018176 c -0.577472,-0.01 -1.3994387,-0.031454 -1.8265922,-0.047683 l 0,0 z"
       id="path3008"
       inkscape:connector-curvature="0"
       transform="translate(0,1040.3622)" />
    <path
       style="opacity:0.17720002;fill:#0000ff;fill-opacity:1;stroke:#000000;stroke-width:0.00883883;stroke-miterlimit:4;stroke-opacity:1;stroke-dasharray:none"
       d="M 3.1180322,8.3346262 C 3.1894202,6.4484798 3.2626158,6.0493224 3.6454934,5.458225 l 0.2719502,-0.4198446 0.9736882,0.011245 c 0.5355285,0.00618 1.3972982,0.036016 1.9150437,0.066291 L 7.7475309,5.1709624 6.1381219,7.5574477 4.5287128,9.943933 3.7919382,9.96981 3.0551634,9.995687 l 0.062869,-1.6610615 0,0 z"
       id="path3010"
       inkscape:connector-curvature="0"
       transform="translate(0,1040.3622)" />
    <path
       style="opacity:0.17720002;fill:#0000ff;fill-opacity:1;stroke:#000000;stroke-width:0.00883883;stroke-miterlimit:4;stroke-opacity:1;stroke-dasharray:none"
       d="M 3.1374039,8.795204 C 3.2059806,6.9188037 3.3102971,6.2069542 3.5972712,5.6570988 L 3.8509895,5.1709629 5.1230698,5.1434406 c 0.6996441,-0.015137 1.5558777,-0.00223 1.9027413,0.028687 l 0.630661,0.056209 -1.5508725,2.3136043 C 5.2526196,8.8144231 4.5511872,9.8612759 4.5468609,9.86828 4.5425309,9.87528 4.2141855,9.895315 3.8171964,9.912793 L 3.095398,9.944571 3.137404,8.7952035 l 0,0 z"
       id="path3012"
       inkscape:connector-curvature="0"
       transform="translate(0,1040.3622)" />
    <path
       style="opacity:0.17720002;fill:#0000ff;fill-opacity:1;stroke:#000000;stroke-width:0.00883883;stroke-miterlimit:4;stroke-opacity:1;stroke-dasharray:none"
       d="M 3.1956315,8.5808599 C 3.2611602,6.9845111 3.3883039,6.1917224 3.6680745,5.6350017 l 0.2109857,-0.4198446 1.8648318,0 1.8648318,0 L 7.4504511,5.458225 C 7.3634011,5.5919124 6.6793856,6.6213825 5.9304166,7.7459363 4.4243194,10.007295 4.5481169,9.8962253 3.5308845,9.8987665 l -0.3893919,9.728e-4 0.054139,-1.3188794 z"
       id="path3014"
       inkscape:connector-curvature="0"
       transform="translate(0,1040.3622)" />
    <path
       style="opacity:0.17720002;fill:#0000ff;fill-opacity:1;stroke:#000000;stroke-width:0.00883883;stroke-miterlimit:4;stroke-opacity:1;stroke-dasharray:none"
       d="M 3.1697658,9.837837 C 3.1702004,9.7989629 3.2102795,9.1139933 3.2588304,8.3156825 3.3511079,6.7983862 3.4120435,6.4452888 3.7138208,5.6791959 l 0.1827929,-0.4640388 1.8016953,0 c 0.9909324,0 1.8016954,0.021493 1.8016954,0.047762 0,0.1364527 -2.8674096,4.3038975 -3.0323746,4.4072021 C 4.2488983,9.8070958 3.1685486,9.9467034 3.1697658,9.837837 z"
       id="path3016"
       inkscape:connector-curvature="0"
       transform="translate(0,1040.3622)" />
    <path
       style="opacity:0.17720002;fill:#0000ff;fill-opacity:1;stroke:#000000;stroke-width:0.00883883;stroke-miterlimit:4;stroke-opacity:1;stroke-dasharray:none"
       d="M 3.2365385,9.3915063 C 3.353778,7.3940597 3.458059,6.5430213 3.6549469,5.9768702 3.7720016,5.6402794 3.9061847,5.326476 3.9531314,5.2795293 4.0066362,5.2260245 4.6674691,5.2183763 5.7239944,5.259034 L 7.4094997,5.3238965 7.1929641,5.6893714 C 6.9394002,6.1173438 5.3410495,8.452265 4.8228501,9.1517088 4.4458324,9.6605916 4.1512278,9.8098573 3.521892,9.810858 l -0.3099961,4.929e-4 0.024643,-0.4198446 z"
       id="path3018"
       inkscape:connector-curvature="0"
       transform="translate(0,1040.3622)" />
    <path
       style="opacity:0.17720002;fill:#0000ff;fill-opacity:1;stroke:#000000;stroke-width:0.00883883;stroke-miterlimit:4;stroke-opacity:1;stroke-dasharray:none"
       d="M 3.2578074,9.6606765 C 3.2580513,9.5733999 3.3162844,8.8457083 3.3872143,8.0435841 3.5029652,6.7345931 3.6064591,6.2330032 3.9206562,5.458225 3.9766691,5.320103 4.1325725,5.3035454 5.3770921,5.3035454 c 0.7665396,0 1.5162684,0.024512 1.6660639,0.054471 l 0.2723556,0.054471 -0.31657,0.4979561 C 6.3836839,6.8782274 4.769925,9.1585673 4.5317351,9.3967573 4.2916002,9.6368921 4.2215074,9.6643455 3.5888201,9.7660694 3.309005,9.8110583 3.257433,9.794638 3.2578074,9.6606765 z"
       id="path3020"
       inkscape:connector-curvature="0"
       transform="translate(0,1040.3622)" />
    <path
       style="opacity:0.17720002;fill:#0000ff;fill-opacity:1;stroke:#000000;stroke-width:0.00883883;stroke-miterlimit:4;stroke-opacity:1;stroke-dasharray:none"
       d="M 5.8192468,4.2561921 C 5.4477698,4.0590191 5.1335719,3.5299758 5.0572504,2.97315 l -0.056148,-0.4096432 1.4704218,0 1.4704218,0 0,0.3348247 c 0,0.4512487 -0.3308668,1.0777103 -0.6980808,1.3217433 -0.3752963,0.249404 -0.9932658,0.2650709 -1.4246185,0.036117 l 0,0 z"
       id="path3022"
       inkscape:connector-curvature="0"
       transform="translate(0,1040.3622)" />
    <path
       style="opacity:0.17720002;fill:#0000ff;fill-opacity:1;stroke:#000000;stroke-width:0.00883883;stroke-miterlimit:4;stroke-opacity:1;stroke-dasharray:none"
       d="M 5.7946267,4.1742421 C 5.5330243,4.0128894 5.1646422,3.330515 5.0801452,2.8507689 l -0.050595,-0.2872621 1.4639672,0 1.4639671,0 -0.060451,0.3756504 C 7.8160112,3.4426339 7.4634617,4.0347585 7.1474029,4.1981989 6.8023803,4.3766169 6.1026477,4.3642252 5.7946267,4.1742421 z"
       id="path3024"
       inkscape:connector-curvature="0"
       transform="translate(0,1040.3622)" />
    <path
       style="opacity:0.17720002;fill:#0000ff;fill-opacity:1;stroke:#000000;stroke-width:0.00883883;stroke-miterlimit:4;stroke-opacity:1;stroke-dasharray:none"
       d="M 5.7772771,4.0509822 C 5.5089566,3.8399212 5.1157422,3.0755514 5.1143825,2.7623805 5.1135241,2.5646576 5.1214473,2.5635068 6.4835384,2.5635068 l 1.3700193,0 0,0.2478104 c 0,0.378991 -0.4227894,1.1519593 -0.7118443,1.3014355 C 6.7559511,4.312238 6.0699269,4.2811805 5.7772771,4.0509822 z"
       id="path3026"
       inkscape:connector-curvature="0"
       transform="translate(0,1040.3622)" />
    <path
       style="opacity:0.17720002;fill:#0000ff;fill-opacity:1;stroke:#000000;stroke-width:0.00883883;stroke-miterlimit:4;stroke-opacity:1;stroke-dasharray:none"
       d="M 6.0894386,4.1238943 C 5.7206381,4.000869 5.3086001,3.4518979 5.2323386,2.9819532 l -0.053561,-0.3300581 1.3390741,0 1.3390741,0 L 7.798403,2.894963 C 7.6917956,3.3377452 7.3430214,3.9374095 7.1326958,4.0395453 6.797669,4.2022372 6.4166424,4.2330438 6.0894386,4.1238943 l 0,0 z"
       id="path3028"
       inkscape:connector-curvature="0"
       transform="translate(0,1040.3622)" />
    <path
       style="opacity:0.17720002;fill:#0000ff;fill-opacity:1;stroke:#000000;stroke-width:0.00883883;stroke-miterlimit:4;stroke-opacity:1;stroke-dasharray:none"
       d="M 5.9978765,3.99968 C 5.6860409,3.8436616 5.3652687,3.3664854 5.2552524,2.894963 l -0.056713,-0.2430679 1.2833149,0 c 1.4727724,0 1.4503339,-0.016319 1.0585623,0.769864 C 7.1992779,4.1063356 6.6341978,4.3180459 5.9978765,3.99968 z"
       id="path3030"
       inkscape:connector-curvature="0"
       transform="translate(0,1040.3622)" />
    <path
       style="opacity:0.17720002;fill:#0000ff;fill-opacity:1;stroke:#000000;stroke-width:0.00883883;stroke-miterlimit:4;stroke-opacity:1;stroke-dasharray:none"
       d="M 5.9431771,3.8976384 C 5.6672171,3.7293632 5.2902958,3.0895681 5.2902958,2.7894224 c 0,-0.1498091 0.076054,-0.1561115 1.1711455,-0.09705 0.6441301,0.03474 1.1990339,0.089608 1.2331196,0.1219306 C 7.7894089,2.904244 7.4671971,3.5500139 7.1912426,3.823041 6.8909107,4.1201868 6.3601647,4.1519099 5.9431771,3.897639 z"
       id="path3032"
       inkscape:connector-curvature="0"
       transform="translate(0,1040.3622)" />
    <path
       style="opacity:0.17720002;fill:#0000ff;fill-opacity:1;stroke:#000000;stroke-width:0.00883883;stroke-miterlimit:4;stroke-opacity:1;stroke-dasharray:none"
       d="M 6.026388,3.8891257 C 5.8125359,3.802922 5.3786841,3.1228021 5.3786841,2.8737646 c 0,-0.1491777 0.077641,-0.1566784 1.1146245,-0.1076811 C 7.106352,2.7950497 7.6245366,2.835353 7.64483,2.8556463 7.7193209,2.9301372 7.5042542,3.3480104 7.2316039,3.6585419 6.9917176,3.9317573 6.8985851,3.9769134 6.5848675,3.9721177 6.3832958,3.9690364 6.13198,3.9316898 6.026388,3.8891257 l 0,0 z"
       id="path3034"
       inkscape:connector-curvature="0"
       transform="translate(0,1040.3622)" />
    <path
       style="opacity:0.17720002;fill:#0000ff;fill-opacity:1;stroke:#000000;stroke-width:0.00883883;stroke-miterlimit:4;stroke-opacity:1;stroke-dasharray:none"
       d="M 5.7359078,3.5268183 C 5.2744941,2.8898552 5.3267158,2.8284752 6.3288588,2.8298787 c 0.8858727,0.00124 1.2595339,0.054346 1.2595339,0.1790074 0,0.039165 -0.1310484,0.243343 -0.2912186,0.4537299 C 7.0209855,3.8253957 6.9801191,3.8465002 6.5053494,3.8715362 6.0082707,3.8977487 6.0028488,3.8953197 5.7359078,3.5268183 z"
       id="path3036"
       inkscape:connector-curvature="0"
       transform="translate(0,1040.3622)" />
    <path
       style="opacity:0.17720002;fill:#0000ff;fill-opacity:1;stroke:#000000;stroke-width:0.00883883;stroke-miterlimit:4;stroke-opacity:1;stroke-dasharray:none"
       d="M 5.8470784,3.6020698 C 5.6069307,3.3384095 5.4503762,3.0260515 5.5331247,2.9756684 c 0.093095,-0.056683 0.759865,-0.091382 1.4144525,-0.073608 0.643342,0.017468 0.6779405,0.087618 0.2808271,0.5693852 -0.2506789,0.304117 -0.3073642,0.329498 -0.7358936,0.329498 -0.3688933,0 -0.5015128,-0.040863 -0.6454323,-0.1988738 z"
       id="path3038"
       inkscape:connector-curvature="0"
       transform="translate(0,1040.3622)" />
    <path
       style="opacity:0.17720002;fill:#0000ff;fill-opacity:1;stroke:#000000;stroke-width:0.00883883;stroke-miterlimit:4;stroke-opacity:1;stroke-dasharray:none"
       d="M 6.2436453,3.7356541 C 6.0255301,3.7045333 5.5554608,3.26905 5.5554608,3.0981037 c 0,-0.101088 0.4701134,-0.1810436 1.0644796,-0.1810436 0.8450288,0 0.9856094,0.1400668 0.5486077,0.5466019 C 6.9069219,3.7070482 6.6247456,3.7900296 6.2436453,3.7356541 z"
       id="path3040"
       inkscape:connector-curvature="0"
       transform="translate(0,1040.3622)" />
    <path
       style="opacity:0.17720002;fill:#0000ff;fill-opacity:1;stroke:#000000;stroke-width:0.00883883;stroke-miterlimit:4;stroke-opacity:1;stroke-dasharray:none"
       d="m 5.0251307,1.5028466 0,-0.4419417 1.4584077,0 1.4584077,0 0,0.4419417 0,0.4419417 -1.4584077,0 -1.4584077,0 0,-0.4419417 z"
       id="path3042"
       inkscape:connector-curvature="0"
       transform="translate(0,1040.3622)" />
    <path
       style="opacity:0.17720002;fill:#0000ff;fill-opacity:1;stroke:#000000;stroke-width:0.00883883;stroke-miterlimit:4;stroke-opacity:1;stroke-dasharray:none"
       d="m 5.0251307,1.5028466 0,-0.4419417 1.4584077,0 1.4584077,0 0,0.4419417 0,0.4419417 -1.4584077,0 -1.4584077,0 0,-0.4419417 z"
       id="path3044"
       inkscape:connector-curvature="0"
       transform="translate(0,1040.3622)" />
    <path
       style="opacity:0.17720002;fill:#0000ff;fill-opacity:1;stroke:#000000;stroke-width:0.00883883;stroke-miterlimit:4;stroke-opacity:1;stroke-dasharray:none"
       d="M 5.0611881,1.8228742 C 5.0345061,1.7533419 5.0254215,1.5633975 5.0410001,1.4007754 l 0.028325,-0.2956763 1.4142135,0 1.4142135,0 0,0.3977475 0,0.3977476 -1.3940255,0.024351 c -1.1435511,0.019976 -1.4027423,0.00164 -1.4425385,-0.102071 z"
       id="path3046"
       inkscape:connector-curvature="0"
       transform="translate(0,1040.3622)" />
    <path
       style="opacity:0.17720002;fill:#0000ff;fill-opacity:1;stroke:#000000;stroke-width:0.00883883;stroke-miterlimit:4;stroke-opacity:1;stroke-dasharray:none"
       d="m 5.1135191,1.5028466 0,-0.3535533 1.3700193,0 1.3700193,0 0,0.3535533 0,0.3535534 -1.3700193,0 -1.3700193,0 0,-0.3535534 z"
       id="path3048"
       inkscape:connector-curvature="0"
       transform="translate(0,1040.3622)" />
    <path
       style="opacity:0.17720002;fill:#0000ff;fill-opacity:1;stroke:#000000;stroke-width:0.00883883;stroke-miterlimit:4;stroke-opacity:1;stroke-dasharray:none"
       d="M 5.1488602,1.7326192 C 5.1217337,1.6619288 5.1126285,1.5117054 5.1286263,1.3987893 5.1575845,1.1943963 5.1635827,1.1934874 6.4835384,1.1934874 l 1.3258252,0 0,0.3093592 0,0.3093592 -1.3055913,0.024471 C 5.4270937,1.8568566 5.1895334,1.838612 5.1488602,1.7326192 z"
       id="path3050"
       inkscape:connector-curvature="0"
       transform="translate(0,1040.3622)" />
    <path
       style="opacity:0.17720002;fill:#0000ff;fill-opacity:1;stroke:#000000;stroke-width:0.00883883;stroke-miterlimit:4;stroke-opacity:1;stroke-dasharray:none"
       d="m 5.2019074,1.5028466 0,-0.265165 1.281631,0 1.281631,0 0,0.265165 0,0.2651651 -1.281631,0 -1.281631,0 0,-0.2651651 z"
       id="path3052"
       inkscape:connector-curvature="0"
       transform="translate(0,1040.3622)" />
    <path
       style="opacity:0.17720002;fill:#0000ff;fill-opacity:1;stroke:#000000;stroke-width:0.00883883;stroke-miterlimit:4;stroke-opacity:1;stroke-dasharray:none"
       d="m 5.2181335,1.5249437 0.027968,-0.2430679 1.2595339,-0.024524 1.2595339,-0.024524 0,0.2675919 0,0.2675919 -1.2875019,0 -1.287502,0 0.027968,-0.243068 z"
       id="path3054"
       inkscape:connector-curvature="0"
       transform="translate(0,1040.3622)" />
    <path
       style="opacity:0.17720002;fill:#0000ff;fill-opacity:1;stroke:#000000;stroke-width:0.00883883;stroke-miterlimit:4;stroke-opacity:1;stroke-dasharray:none"
       d="m 5.2511256,1.5691379 c 0.033622,-0.1093806 0.066133,-0.2033251 0.072248,-0.2087655 0.00611,-0.00544 0.5580197,-0.033521 1.2264566,-0.062402 l 1.2153397,-0.05251 0,0.2612753 0,0.2612754 -1.2875873,0 -1.2875872,0 0.061131,-0.1988738 z"
       id="path3056"
       inkscape:connector-curvature="0"
       transform="translate(0,1040.3622)" />
    <path
       style="opacity:0.17720002;fill:#0000ff;fill-opacity:1;stroke:#000000;stroke-width:0.00883883;stroke-miterlimit:4;stroke-opacity:1;stroke-dasharray:none"
       d="m 5.8907841,1.7023047 c 0.3545754,-0.01682 0.9114219,-0.016707 1.2374368,2.507e-4 0.3260149,0.016958 0.035908,0.03072 -0.6446825,0.030582 C 5.8029482,1.7329995 5.5362087,1.7191248 5.8907841,1.7023047 z"
       id="path3058"
       inkscape:connector-curvature="0"
       transform="translate(0,1040.3622)" />
    <path
       style="opacity:0.17720002;fill:#0000ff;fill-opacity:1;stroke:#000000;stroke-width:0.00883883;stroke-miterlimit:4;stroke-opacity:1;stroke-dasharray:none"
       d="m 5.2902958,1.5593525 c 0,-0.1453399 0.6135109,-0.2314146 1.6572814,-0.2325143 0.6705344,-7.065e-4 0.7292038,0.013455 0.7292038,0.1760084 0,0.168047 -0.058925,0.1767767 -1.1932426,0.1767767 -0.9474466,0 -1.1932426,-0.024775 -1.1932426,-0.1202708 z"
       id="path3060"
       inkscape:connector-curvature="0"
       transform="translate(0,1040.3622)" />
  </g>
</svg>
