<?xml version="1.0" encoding="UTF-8" standalone="no"?>
<!-- Created with Inkscape (http://www.inkscape.org/) -->

<svg
   xmlns:dc="http://purl.org/dc/elements/1.1/"
   xmlns:cc="http://creativecommons.org/ns#"
   xmlns:rdf="http://www.w3.org/1999/02/22-rdf-syntax-ns#"
   xmlns:svg="http://www.w3.org/2000/svg"
   xmlns="http://www.w3.org/2000/svg"
   xmlns:sodipodi="http://sodipodi.sourceforge.net/DTD/sodipodi-0.dtd"
   xmlns:inkscape="http://www.inkscape.org/namespaces/inkscape"
   width="12"
   height="12"
   id="svg4764"
   version="1.1"
   inkscape:version="0.48.4 r9939"
   sodipodi:docname="restaurant-12.svg">
  <defs
     id="defs4766" />
  <sodipodi:namedview
     id="base"
     pagecolor="#ffffff"
     bordercolor="#666666"
     borderopacity="1.0"
     inkscape:pageopacity="0.0"
     inkscape:pageshadow="2"
     inkscape:zoom="11.313709"
     inkscape:cx="5.6084938"
     inkscape:cy="5.0524314"
     inkscape:document-units="px"
     inkscape:current-layer="layer1"
     showgrid="true"
     showguides="true"
     inkscape:guide-bbox="true"
     inkscape:window-width="957"
     inkscape:window-height="704"
     inkscape:window-x="110"
     inkscape:window-y="6"
     inkscape:window-maximized="0"
     inkscape:snap-bbox="true"
     inkscape:snap-nodes="false">
    <inkscape:grid
       type="xygrid"
       id="grid4772"
       empspacing="5"
       visible="true"
       enabled="true"
       snapvisiblegridlinesonly="true"
       spacingx="1px"
       spacingy="1px" />
    <sodipodi:guide
       orientation="0,1"
       position="2,12"
       id="guide4789" />
    <sodipodi:guide
       orientation="1,0"
       position="12,10"
       id="guide4791" />
    <sodipodi:guide
       orientation="0,1"
       position="10,0"
       id="guide4793" />
    <sodipodi:guide
       orientation="1,0"
       position="0,9"
       id="guide4795" />
    <sodipodi:guide
       orientation="0,1"
       position="5,11"
       id="guide4797" />
    <sodipodi:guide
       orientation="1,0"
       position="11,7"
       id="guide4799" />
    <sodipodi:guide
       orientation="0,1"
       position="9,2"
       id="guide4801" />
    <sodipodi:guide
       orientation="1,0"
       position="2,5"
       id="guide4803" />
  </sodipodi:namedview>
  <metadata
     id="metadata4769">
    <rdf:RDF>
      <cc:Work
         rdf:about="">
        <dc:format>image/svg+xml</dc:format>
        <dc:type
           rdf:resource="http://purl.org/dc/dcmitype/StillImage" />
        <dc:title />
      </cc:Work>
    </rdf:RDF>
  </metadata>
  <g
     inkscape:label="Layer 1"
     inkscape:groupmode="layer"
     id="layer1"
     transform="translate(0,-1040.3622)">
    <g
       style="display:inline"
       id="restaurant-12"
       inkscape:label="restaurant-12"
       transform="translate(-360,-9.9999826)"
       inkscape:export-xdpi="89.996864"
       inkscape:export-ydpi="89.996864">
      <g
         id="g21602">
        <path
           sodipodi:nodetypes="cccsccscccccccccccssccccc"
           style="opacity:0.3;color:#000000;fill:#ffffff;fill-opacity:1;fill-rule:nonzero;stroke:#ffffff;stroke-width:2;stroke-linecap:butt;stroke-linejoin:round;stroke-miterlimit:4;stroke-opacity:1;stroke-dasharray:none;stroke-dashoffset:0;marker:none;visibility:visible;display:inline;overflow:visible;enable-background:accumulate"
           d="m 363.5,1051.3622 -0.5,0 c 0,0.8333 0,2.1667 0,3 0,0.5 1,0.5 1,1 l 0,6 1,0 0,-6 c 0,-0.5 1,-0.5 1,-1 0,-0.8333 0,-2.1667 0,-3 l -0.5,0 0,2 -0.75,0 0,-2 -0.5,0 0,2 -0.75,0 z m 6.5,0 c -0.5,0 -1.43377,0.1176 -1.75,0.75 -0.25,0.5 -0.25,1.25 -0.25,2.25 l 0,2.5 1,0 0,4.5 1,0 z"
           id="path5523"
           inkscape:connector-curvature="0" />
        <path
           inkscape:connector-curvature="0"
           id="rect6396-8"
           d="m 363.5,1051.3622 -0.5,0 c 0,0.8333 0,2.1667 0,3 0,0.5 1,0.5 1,1 l 0,6 1,0 0,-6 c 0,-0.5 1,-0.5 1,-1 0,-0.8333 0,-2.1667 0,-3 l -0.5,0 0,2 -0.75,0 0,-2 -0.5,0 0,2 -0.75,0 z m 6.5,0 c -0.5,0 -1.43377,0.1176 -1.75,0.75 -0.25,0.5 -0.25,1.25 -0.25,2.25 l 0,2.5 1,0 0,4.5 1,0 z"
           style="color:#000000;fill:#444444;fill-opacity:1;fill-rule:nonzero;stroke:none;stroke-width:2;marker:none;visibility:visible;display:inline;overflow:visible;enable-background:accumulate"
           sodipodi:nodetypes="cccsccscccccccccccssccccc" />
      </g>
      <rect
         style="opacity:0.5;color:#000000;fill:none;stroke:none;stroke-width:2;marker:none;visibility:visible;display:inline;overflow:visible;enable-background:accumulate"
         id="rect22286-6"
         width="11.999998"
         height="12.000007"
         x="360"
         y="1050.3622" />
    </g>
    <path
       style="opacity:0.17720002;fill:#ff6600;fill-opacity:1;stroke:#000000;stroke-width:0.00883883;stroke-miterlimit:4;stroke-opacity:1;stroke-dasharray:none"
       d="m 9.0026062,8.7064966 0,-2.2539027 -0.4861359,0 -0.4861359,0 5.12e-4,-1.7456698 C 8.0314066,2.796489 8.1181212,2.0190126 8.3684384,1.6800984 8.5742454,1.4014483 9.0685952,1.1610966 9.5801122,1.0909854 l 0.3947658,-0.054109 0,4.9617614 0,4.9617612 -0.4861359,0 -0.4861359,0 0,-2.2539027 z"
       id="path2996"
       inkscape:connector-curvature="0"
       transform="translate(0,1040.3622)" />
    <path
       style="opacity:0.17720002;fill:#ff6600;fill-opacity:1;stroke:#000000;stroke-width:0.00883883;stroke-miterlimit:4;stroke-opacity:1;stroke-dasharray:none"
       d="m 9.0656066,10.905548 c -0.03465,-0.03465 -0.063,-1.0507392 -0.063,-2.257977 l 0,-2.1949771 -0.4447158,0 c -0.3235876,0 -0.4592978,-0.038 -0.4982529,-0.1395156 C 8.0301921,6.2363446 8.045761,5.2651257 8.0942352,4.1548139 8.1692793,2.4359106 8.2074022,2.0923212 8.3509027,1.841553 8.537243,1.5159217 9.1103961,1.1958655 9.6441613,1.1193804 l 0.3321959,-0.047602 -0.022837,4.9222132 -0.022837,4.9222124 -0.4010384,0.02617 c -0.2205711,0.0144 -0.4293886,-0.0022 -0.4640388,-0.03683 z"
       id="path2998"
       inkscape:connector-curvature="0"
       transform="translate(0,1040.3622)" />
    <path
       style="opacity:0.17720002;fill:#ff6600;fill-opacity:1;stroke:#000000;stroke-width:0.00883883;stroke-miterlimit:4;stroke-opacity:1;stroke-dasharray:none"
       d="M 9.0704152,8.6402054 9.0468004,6.4083997 8.5827616,6.3816834 8.1187228,6.3549673 8.120816,5.232635 C 8.1238891,3.5848859 8.2562275,2.0868936 8.4209297,1.8355264 8.594152,1.5711557 9.1210348,1.2718096 9.5550333,1.1911906 l 0.3314563,-0.061571 0,4.8711957 0,4.8711957 -0.3962298,0 -0.3962298,0 -0.023615,-2.2318056 0,0 z"
       id="path3000"
       inkscape:connector-curvature="0"
       transform="translate(0,1040.3622)" />
    <path
       style="opacity:0.17720002;fill:#ff6600;fill-opacity:1;stroke:#000000;stroke-width:0.00883883;stroke-miterlimit:4;stroke-opacity:1;stroke-dasharray:none"
       d="M 9.1541267,10.817292 C 9.119404,10.782569 9.0909945,9.7664202 9.0909945,8.5591827 l 0,-2.1949772 -0.4367253,0 c -0.2401989,0 -0.457031,-0.032855 -0.4818491,-0.073012 C 8.0948622,6.1657022 8.2832934,2.4485804 8.3850031,2.0976383 8.4981297,1.7073031 8.9348595,1.379194 9.5115895,1.2512495 l 0.3764009,-0.083502 -0.022847,4.8300349 -0.022847,4.8300356 -0.3125183,0.0263 c -0.1718851,0.01447 -0.3409278,-0.0021 -0.3756505,-0.03683 l 0,0 z"
       id="path3002"
       inkscape:connector-curvature="0"
       transform="translate(0,1040.3622)" />
    <path
       style="opacity:0.17720002;fill:#ff6600;fill-opacity:1;stroke:#000000;stroke-width:0.00883883;stroke-miterlimit:4;stroke-opacity:1;stroke-dasharray:none"
       d="M 9.133638,8.5806908 9.068927,6.3777588 8.6380189,6.3184938 8.2071108,6.2592288 l 0,-0.6917811 c 0,-1.2952992 0.1838248,-3.3799025 0.3215291,-3.6461933 C 8.6627359,1.6619418 9.4127,1.2402652 9.7428586,1.2385451 9.881432,1.2378231 9.8995351,1.2829395 9.853344,1.5138952 9.8229605,1.6658126 9.7981013,3.8136494 9.7981013,6.2868657 l 0,4.4967573 -0.2998763,0 -0.2998762,0 -0.064711,-2.2029322 0,0 z"
       id="path3004"
       inkscape:connector-curvature="0"
       transform="translate(0,1040.3622)" />
    <path
       style="opacity:0.17720002;fill:#ff6600;fill-opacity:1;stroke:#000000;stroke-width:0.00883883;stroke-miterlimit:4;stroke-opacity:1;stroke-dasharray:none"
       d="M 9.2372054,10.324214 C 9.2062481,10.066446 9.1770892,9.2589238 9.1724078,8.52972 9.1677264,7.8005161 9.1375497,7.005021 9.1053483,6.7619531 9.0469664,6.3212642 9.0457981,6.319932 8.693247,6.2920076 8.4987926,6.2766055 8.3102861,6.2352656 8.2743436,6.2001411 8.1893444,6.1170762 8.3506668,3.1665036 8.4811865,2.4170039 8.5771701,1.8658255 8.6005409,1.8272178 8.9862978,1.582578 9.208757,1.4414986 9.4827674,1.3260699 9.5952097,1.3260699 l 0.2044408,0 -0.022872,4.7066793 -0.022872,4.7066798 -0.2302079,0.02673 c -0.2166173,0.02515 -0.2335307,-9.37e-4 -0.2864938,-0.441941 z"
       id="path3006"
       inkscape:connector-curvature="0"
       transform="translate(0,1040.3622)" />
    <path
       style="opacity:0.17720002;fill:#ff6600;fill-opacity:1;stroke:#000000;stroke-width:0.00883883;stroke-miterlimit:4;stroke-opacity:1;stroke-dasharray:none"
       d="M 9.3262111,10.496361 C 9.2991993,10.38698 9.2494969,9.4821044 9.2157615,8.4855258 9.1820261,7.4889472 9.1227377,6.5879854 9.0840097,6.4833884 9.0336461,6.347366 8.9077525,6.2753301 8.6419003,6.2304146 l -0.3716947,-0.062797 0.0622,-1.3380165 C 8.4042464,3.2841795 8.5304852,2.166334 8.6606317,1.923153 8.7613413,1.7349753 9.6352035,1.2945162 9.7083432,1.3950673 c 0.025438,0.034972 0.033303,2.1418161 0.017478,4.6818761 -0.027392,4.3965266 -0.036497,4.6182906 -0.1896354,4.6182906 -0.093343,0 -0.1814765,-0.08347 -0.2099748,-0.198873 l 0,0 z"
       id="path3008"
       inkscape:connector-curvature="0"
       transform="translate(0,1040.3622)" />
    <path
       style="opacity:0.17720002;fill:#ff6600;fill-opacity:1;stroke:#000000;stroke-width:0.00883883;stroke-miterlimit:4;stroke-opacity:1;stroke-dasharray:none"
       d="M 9.4130049,10.538928 C 9.3899182,10.501573 9.3232622,9.5966969 9.2648806,8.5280929 9.2064989,7.4594888 9.1244227,6.5197155 9.0824888,6.4397076 9.0405549,6.3596997 8.8562713,6.2582848 8.6729695,6.2143412 L 8.3396936,6.1344435 8.3663959,5.343344 C 8.4000414,4.3465377 8.5391868,2.6046039 8.6157422,2.2218268 8.6746314,1.927381 9.0698937,1.5915386 9.5108392,1.46129 l 0.1988737,-0.058744 0,2.3339096 c 0,3.1431001 -0.1007621,6.8703904 -0.1857315,6.8703904 -0.03795,0 -0.08789,-0.03056 -0.1109765,-0.06792 z"
       id="path3010"
       inkscape:connector-curvature="0"
       transform="translate(0,1040.3622)" />
    <path
       style="opacity:0.17720002;fill:#ff6600;fill-opacity:1;stroke:#000000;stroke-width:0.00883883;stroke-miterlimit:4;stroke-opacity:1;stroke-dasharray:none"
       d="M 9.4581293,10.474264 C 9.4511814,10.42565 9.381496,9.5108306 9.3032731,8.4413316 9.2250501,7.3718326 9.1222182,6.4491042 9.0747575,6.3908239 9.0272969,6.3325436 8.8483075,6.2386034 8.6770032,6.1820679 L 8.365541,6.0792761 8.423254,5.0064011 C 8.5105261,3.3840309 8.6531193,2.1870411 8.7837671,1.9800976 8.9154892,1.7714524 9.515402,1.455704 9.6064057,1.5471233 c 0.07552,0.075865 0.016704,6.8566759 -0.070151,8.0874509 -0.036021,0.5104428 -0.071178,0.8883028 -0.078126,0.8396898 z"
       id="path3012"
       inkscape:connector-curvature="0"
       transform="translate(0,1040.3622)" />
    <path
       style="opacity:0.17720002;fill:#ff6600;fill-opacity:1;stroke:#000000;stroke-width:0.00883883;stroke-miterlimit:4;stroke-opacity:1;stroke-dasharray:none"
       d="M 9.4579225,9.6787684 C 9.4500131,9.6301548 9.3823922,8.8955599 9.3076536,8.0463352 9.161009,6.3800689 9.1133949,6.2452213 8.6345514,6.1400496 8.3780637,6.0837155 8.3740883,6.0741937 8.4202678,5.6268068 8.4461466,5.3760926 8.490269,4.8129901 8.5183176,4.3754678 8.5879536,3.2892367 8.7334318,2.2058233 8.8351816,2.0157021 8.9343939,1.8303222 9.4350905,1.5523949 9.5190531,1.6360978 c 0.095983,0.095686 0.1109405,2.9296286 0.02962,5.6119912 -0.042003,1.3854873 -0.082841,2.479293 -0.090751,2.4306794 z"
       id="path3014"
       inkscape:connector-curvature="0"
       transform="translate(0,1040.3622)" />
    <path
       style="opacity:0.17720002;fill:#ff6600;fill-opacity:1;stroke:#000000;stroke-width:0.00883883;stroke-miterlimit:4;stroke-opacity:1;stroke-dasharray:none"
       d="M 9.2961698,7.6016423 C 9.2388686,7.0425861 9.1654688,6.5167732 9.1330591,6.4331693 9.1006495,6.3495654 8.9387148,6.2321945 8.7732043,6.1723451 8.4973275,6.0725868 8.4722761,6.0332737 8.4722761,5.7000993 8.4722761,5.1740246 8.7285355,2.5654111 8.810204,2.2601339 8.8876749,1.9705477 9.2858142,1.6257147 9.435724,1.718364 9.542812,1.784548 9.5617298,7.254932 9.4579037,8.1319724 9.402673,8.598517 9.3961551,8.5771446 9.2961698,7.6016423 z"
       id="path3016"
       inkscape:connector-curvature="0"
       transform="translate(0,1040.3622)" />
    <path
       style="opacity:0.17720002;fill:#ff6600;fill-opacity:1;stroke:#000000;stroke-width:0.00883883;stroke-miterlimit:4;stroke-opacity:1;stroke-dasharray:none"
       d="M 9.3770891,7.9367091 C 9.3655779,7.8050076 9.3108659,7.3927186 9.255507,7.0205116 9.1606801,6.3829404 9.1369188,6.3331893 8.8449698,6.1609351 L 8.535085,5.9780986 8.5938118,4.8674241 C 8.6852699,3.1377163 8.8463102,2.150189 9.0740637,1.9224355 9.2049022,1.791597 9.2945594,1.7594445 9.3563265,1.8212117 c 0.059299,0.059299 0.082099,1.1708289 0.066106,3.2227372 -0.013428,1.7227197 -0.033832,3.0244619 -0.045343,2.8927602 z"
       id="path3018"
       inkscape:connector-curvature="0"
       transform="translate(0,1040.3622)" />
    <path
       style="opacity:0.17720002;fill:#ff6600;fill-opacity:1;stroke:#000000;stroke-width:0.00883883;stroke-miterlimit:4;stroke-opacity:1;stroke-dasharray:none"
       d="m 4.052859,7.9110015 c 0,-3.3865455 0.050795,-3.09735 -0.6187185,-3.5226329 L 3.1247813,4.1918598 3.1006447,2.6263824 C 3.0772023,1.105925 3.0816506,1.0609049 3.2553243,1.0609049 c 0.1686587,0 0.1788162,0.055229 0.1788162,0.9722718 l 0,0.9722718 0.4419418,0 0.4419417,0 0,-0.9722718 c 0,-0.9133462 0.010714,-0.9722718 0.1767767,-0.9722718 0.1660629,0 0.1767767,0.058926 0.1767767,0.9722718 l 0,0.9722718 0.4419417,0 0.4419417,0 0,-0.9722718 0,-0.9722718 0.2209709,0 0.2209708,0 0,1.4387407 c 0,1.5712368 -0.037047,1.7091241 -0.5273217,1.9626548 C 4.9114023,4.7512043 4.9367424,4.5870493 4.9367424,7.917315 l 0,3.043084 -0.4419417,0 -0.4419417,0 0,-3.0493975 z"
       id="path3020"
       inkscape:connector-curvature="0"
       transform="translate(0,1040.3622)" />
    <path
       style="opacity:0.17720002;fill:#ff6600;fill-opacity:1;stroke:#000000;stroke-width:0.00883883;stroke-miterlimit:4;stroke-opacity:1;stroke-dasharray:none"
       d="M 4.1159436,10.905633 C 4.0812471,10.870936 4.052859,9.5199762 4.052859,7.9034992 4.052859,6.2870223 4.0281859,4.9001531 3.9980298,4.8215677 3.9678738,4.7429825 3.7690001,4.5588322 3.5560881,4.4123449 l -0.3871126,-0.2663404 0,-1.4983557 c 0,-0.8240955 0.034023,-1.4983555 0.075607,-1.4983555 0.075805,0 0.1877519,0.9034331 0.1889297,1.5246989 l 6.283e-4,0.3314563 0.4293063,0 0.4293062,0 0.062265,-0.9040506 C 4.41438,1.2395021 4.446239,1.0712688 4.5335586,1.1585889 c 0.021317,0.021317 0.066778,0.4455812 0.1010239,0.942809 l 0.062266,0.9040506 0.4293061,0 0.4293063,0 0,-0.9308517 c 0,-0.7636302 0.024885,-0.9404009 0.1385237,-0.9840082 0.2891788,-0.11096831 0.3243423,0.097754 0.2573358,1.5274833 -0.064271,1.3713717 -0.069783,1.400409 -0.3076988,1.6210842 -0.1332403,0.123585 -0.3368518,0.2896641 -0.45247,0.3690645 l -0.2102149,0.1443646 -0.044194,3.08181 -0.044194,3.0818098 -0.35676,0.02626 c -0.196218,0.01444 -0.3851481,-0.0021 -0.4198446,-0.03683 z"
       id="path3022"
       inkscape:connector-curvature="0"
       transform="translate(0,1040.3622)" />
    <path
       style="opacity:0.17720002;fill:#ff6600;fill-opacity:1;stroke:#000000;stroke-width:0.00883883;stroke-miterlimit:4;stroke-opacity:1;stroke-dasharray:none"
       d="M 4.0976476,7.8206869 4.0322651,4.7693628 3.6730989,4.4619298 C 3.4755574,4.2928418 3.2813173,4.1544969 3.2414541,4.1544969 c -0.090402,0 -0.092979,-0.7764669 -0.00619,-1.8646736 l 0.066291,-0.8311708 0.044194,0.795495 0.044194,0.7954951 0.4517932,0.026292 0.4517932,0.026292 0.055467,-0.3356508 c 0.030507,-0.1846079 0.055905,-0.5468156 0.05644,-0.804906 6.014e-4,-0.2901106 0.034716,-0.4484006 0.089361,-0.4146282 0.048614,0.030045 0.088826,0.2412097 0.089361,0.4692552 5.392e-4,0.2280456 0.025933,0.5656711 0.05644,0.750279 L 4.6960655,3.1022266 5.1478587,3.0759346 5.599652,3.0496426 5.624739,2.0994679 C 5.646016,1.2936271 5.671534,1.1492933 5.792734,1.1492933 c 0.1275821,0 0.1375796,0.1459754 0.093226,1.3612036 C 5.858635,3.2591589 5.796635,3.9452734 5.7481816,4.0351958 5.6997286,4.1251178 5.5019023,4.3172419 5.3085682,4.4621373 l -0.3515165,0.2634461 -0.064937,3.0732138 -0.064937,3.0732138 -0.3320751,0 -0.3320751,0 -0.065383,-3.0513241 z"
       id="path3024"
       inkscape:connector-curvature="0"
       transform="translate(0,1040.3622)" />
    <path
       style="opacity:0.17720002;fill:#ff6600;fill-opacity:1;stroke:#000000;stroke-width:0.00883883;stroke-miterlimit:4;stroke-opacity:1;stroke-dasharray:none"
       d="M 4.1984112,10.195762 C 4.166971,9.8238261 4.1410415,8.8195135 4.14079,7.9639569 4.1405385,7.1084005 4.1145256,6.0186682 4.0829835,5.5423297 L 4.0256342,4.6762598 3.641499,4.4003948 3.2573639,4.1245298 3.2737141,3.1451445 c 0.00899,-0.5386619 0.03083,-0.7742751 0.048528,-0.5235849 L 3.354419,3.07736 3.8141244,3.1111863 c 0.2577098,0.018963 0.4882392,-0.00655 0.5246432,-0.058053 0.035716,-0.050534 0.065547,-0.3229315 0.066291,-0.6053286 8.422e-4,-0.3194845 0.034744,-0.492813 0.089742,-0.4588224 0.048614,0.030045 0.088997,0.2610971 0.089742,0.5134494 7.425e-4,0.2523524 0.030575,0.500168 0.066291,0.5507016 0.036526,0.05168 0.2679664,0.076951 0.5289765,0.057761 l 0.4640388,-0.034118 0.00509,-0.5880906 c 0.0028,-0.3234499 0.040585,-0.7471897 0.083962,-0.9416441 0.055167,-0.2473012 0.072261,0.068749 0.056881,1.0516559 L 5.7677978,4.003906 5.343998,4.3715632 4.9201983,4.7392203 4.8447945,7.7835186 c -0.041472,1.6743641 -0.077524,3.0542424 -0.080116,3.0663954 -0.00259,0.01215 -0.1182003,0.0221 -0.2569077,0.0221 -0.2503784,0 -0.2526071,-0.0049 -0.3093592,-0.676249 z"
       id="path3026"
       inkscape:connector-curvature="0"
       transform="translate(0,1040.3622)" />
    <path
       style="opacity:0.17720002;fill:#ff6600;fill-opacity:1;stroke:#000000;stroke-width:0.00883883;stroke-miterlimit:4;stroke-opacity:1;stroke-dasharray:none"
       d="M 4.2844734,10.452166 C 4.2574745,10.269865 4.2132019,9.1263413 4.1860899,7.9110015 4.1589779,6.6956618 4.1151116,5.4561345 4.0886091,5.1564965 4.0430113,4.6409639 4.0217658,4.5993534 3.6930876,4.3818444 3.3546558,4.1578809 3.3457522,4.13873 3.3457522,3.6347576 l 0,-0.5172312 0.508233,0.010252 0.508233,0.010252 0.049434,-0.3977476 c 0.051175,-0.4117595 0.1429294,-0.3476771 0.189834,0.1325826 0.025267,0.2587124 0.037329,0.2650656 0.4956839,0.2610814 0.3111454,-0.0027 0.4972362,-0.047476 0.5510737,-0.1325826 0.054634,-0.086365 0.081731,0.049952 0.082641,0.4157374 0.00134,0.5399312 -0.00206,0.5473014 -0.4296132,0.9317124 l -0.4309667,0.3874761 -0.065743,3.023666 -0.065743,3.0236659 -0.202628,0 c -0.1664956,0 -0.2113816,-0.05911 -0.251717,-0.331457 l 0,0 z"
       id="path3028"
       inkscape:connector-curvature="0"
       transform="translate(0,1040.3622)" />
    <path
       style="opacity:0.17720002;fill:#ff6600;fill-opacity:1;stroke:#000000;stroke-width:0.00883883;stroke-miterlimit:4;stroke-opacity:1;stroke-dasharray:none"
       d="M 4.4252489,10.673137 C 4.3721764,10.60884 4.2928458,9.4356626 4.2354839,7.8668074 4.1812716,6.3840929 4.1167335,5.0445343 4.0920661,4.8900106 4.0636116,4.7117641 3.9362694,4.5178949 3.7437208,4.3596805 3.4914561,4.1523982 3.4303297,4.0319722 3.3816017,3.646264 l -0.058624,-0.4640388 0.5417172,0 c 0.5189061,0 0.5417172,-0.0093 0.5417172,-0.2209709 0,-0.2749795 0.1542988,-0.2926706 0.1927263,-0.022097 0.025595,0.1802178 0.075921,0.198665 0.5364776,0.1966479 0.5446316,-0.00239 0.543627,-0.00343 0.5106504,0.5325559 C 5.6350964,3.849923 5.5048271,4.0618285 5.2330915,4.3404639 L 4.836231,4.7474014 4.7581141,7.743415 c -0.042964,1.6478075 -0.080011,3.005957 -0.082327,3.018111 -0.012167,0.06386 -0.1711723,0.0078 -0.2505384,-0.08839 l 0,0 z"
       id="path3030"
       inkscape:connector-curvature="0"
       transform="translate(0,1040.3622)" />
    <path
       style="opacity:0.17720002;fill:#ff6600;fill-opacity:1;stroke:#000000;stroke-width:0.00883883;stroke-miterlimit:4;stroke-opacity:1;stroke-dasharray:none"
       d="M 4.4621135,10.560766 C 4.4337333,10.486809 4.3469797,9.1642981 4.2693277,7.6218538 4.1636768,5.5232565 4.0965419,4.7729169 4.0025896,4.6406328 3.9335358,4.5434057 3.7927189,4.3587778 3.6896631,4.2303486 3.5079727,4.0039244 3.3226346,3.3231939 3.4169887,3.2288398 c 0.025638,-0.025638 0.2544912,-0.046615 0.5085626,-0.046615 0.358322,0 0.4753164,-0.034698 0.5215427,-0.1546796 0.056757,-0.147314 0.06373,-0.147314 0.1464311,0 0.06419,0.1143396 0.1993944,0.1546796 0.5184297,0.1546796 0.3437929,0 0.4422536,0.033587 0.4839948,0.1651022 C 5.675069,3.5966102 5.4955509,3.9816473 5.1165939,4.3754678 L 4.7763844,4.7290212 4.713094,7.7121278 c -0.03481,1.6407086 -0.093911,2.9831062 -0.1313353,2.9831062 -0.037425,0 -0.091265,-0.06051 -0.1196452,-0.134468 z"
       id="path3032"
       inkscape:connector-curvature="0"
       transform="translate(0,1040.3622)" />
    <path
       style="opacity:0.17720002;fill:#ff6600;fill-opacity:1;stroke:#000000;stroke-width:0.00883883;stroke-miterlimit:4;stroke-opacity:1;stroke-dasharray:none"
       d="m 4.4948007,10.500453 c 0,-0.07472 -0.081584,-1.3812743 -0.1812977,-2.9034519 L 4.1322053,4.8294055 3.8290898,4.3372716 C 3.6623762,4.066598 3.5011994,3.7201677 3.470919,3.5674266 L 3.4158639,3.2897155 3.889041,3.2260734 c 0.2602474,-0.035003 0.5193546,-0.1008946 0.5757935,-0.1464255 0.06396,-0.051598 0.1222666,-0.050989 0.1547784,0.00162 0.028689,0.04642 0.2509912,0.1117458 0.4940049,0.1451687 0.360274,0.04955 0.441843,0.092945 0.441843,0.2350622 0,0.2274218 -0.1352354,0.4757546 -0.5082408,0.9332826 L 4.7432385,4.7676411 4.6618477,7.6591467 c -0.044765,1.5903282 -0.1006633,2.9107783 -0.1242188,2.9343343 -0.023555,0.02355 -0.042828,-0.01831 -0.042828,-0.09303 z"
       id="path3034"
       inkscape:connector-curvature="0"
       transform="translate(0,1040.3622)" />
    <path
       style="opacity:0.17720002;fill:#ff6600;fill-opacity:1;stroke:#000000;stroke-width:0.00883883;stroke-miterlimit:4;stroke-opacity:1;stroke-dasharray:none"
       d="M 4.506254,9.5461859 C 4.495504,9.5218791 4.4155425,8.4479607 4.3285618,7.1597006 4.1722068,4.8439454 4.1674258,4.8124028 3.9065492,4.3754678 3.6069534,3.8736829 3.423773,3.3988321 3.5002834,3.3223217 c 0.02844,-0.028439 0.1618141,-0.051708 0.2963879,-0.051708 0.1345737,0 0.3498293,-0.039978 0.4783455,-0.08884 0.1716476,-0.06526 0.3608514,-0.051866 0.7128608,0.050466 0.6089736,0.1770334 0.6209176,0.3332494 0.080518,1.0531006 L 4.6715774,4.8139316 4.6604705,5.9205249 C 4.6489202,7.0712878 4.54037,9.6233252 4.506254,9.5461859 z"
       id="path3036"
       inkscape:connector-curvature="0"
       transform="translate(0,1040.3622)" />
    <path
       style="opacity:0.17720002;fill:#ff6600;fill-opacity:1;stroke:#000000;stroke-width:0.00883883;stroke-miterlimit:4;stroke-opacity:1;stroke-dasharray:none"
       d="M 4.4755939,8.2203607 C 4.4425074,8.0988268 4.3697263,7.3232191 4.3138582,6.496788 4.2139055,5.0182317 4.2065261,4.981809 3.8527232,4.220738 3.654967,3.7953415 3.5144821,3.4259742 3.5405346,3.3999217 3.5665871,3.3738692 3.8217859,3.3104786 4.107643,3.2590537 4.5104571,3.1865885 4.7069222,3.1923014 4.9809366,3.2844475 5.462915,3.4465282 5.4683505,3.6460199 5.0083191,4.2894396 L 4.6308319,4.8174095 4.5832915,6.6293706 C 4.5571443,7.6259491 4.5086804,8.3418947 4.4755939,8.2203607 z"
       id="path3038"
       inkscape:connector-curvature="0"
       transform="translate(0,1040.3622)" />
    <path
       style="opacity:0.17720002;fill:#ff6600;fill-opacity:1;stroke:#000000;stroke-width:0.00883883;stroke-miterlimit:4;stroke-opacity:1;stroke-dasharray:none"
       d="M 4.3703943,6.5851764 C 4.274827,5.2764585 4.1929532,4.8764584 3.8700658,4.1407891 3.6980644,3.7488996 3.6268125,3.4845279 3.6791014,3.4322391 3.8237677,3.2875727 4.7310776,3.2372011 5.0219564,3.357687 5.3758201,3.5042621 5.3617768,3.6629416 4.9367424,4.3205526 4.5885956,4.8592034 4.5830554,4.8807011 4.5744477,5.7263724 4.56964,6.1987146 4.5377358,6.8039375 4.5035496,7.0713123 4.4445631,7.5326537 4.4377717,7.507859 4.3703943,6.5851764 z"
       id="path3040"
       inkscape:connector-curvature="0"
       transform="translate(0,1040.3622)" />
    <path
       style="opacity:0.17720002;fill:#ff6600;fill-opacity:1;stroke:#000000;stroke-width:0.00883883;stroke-miterlimit:4;stroke-opacity:1;stroke-dasharray:none"
       d="M 4.4193712,6.6578633 C 4.3913355,5.859005 4.2056052,4.9021661 3.9472488,4.2255994 3.6309313,3.3972479 3.6500017,3.3624389 4.4212804,3.3603553 5.3206571,3.3579256 5.3930993,3.5087374 4.8866708,4.3292164 4.5858458,4.8165914 4.5682545,4.8899354 4.5018822,5.9335291 4.4636286,6.535003 4.4264987,6.8609535 4.4193712,6.6578633 z"
       id="path3042"
       inkscape:connector-curvature="0"
       transform="translate(0,1040.3622)" />
    <path
       style="opacity:0.17720002;fill:#ff6600;fill-opacity:1;stroke:#000000;stroke-width:0.00883883;stroke-miterlimit:4;stroke-opacity:1;stroke-dasharray:none"
       d="M 4.3708323,5.701293 C 4.2737641,5.1910844 4.0644782,4.427606 3.9160454,4.0422228 3.694107,3.4659938 3.7108256,3.4473902 4.4506065,3.4473902 c 0.608422,0 0.6629126,0.014828 0.6629126,0.1803974 0,0.099219 -0.1224409,0.4156598 -0.2720908,0.7032028 C 4.6601026,4.6793965 4.5474476,5.0541213 4.503717,5.4543212 4.4393195,6.0436545 4.4368429,6.0482572 4.3708323,5.701293 z"
       id="path3044"
       inkscape:connector-curvature="0"
       transform="translate(0,1040.3622)" />
    <path
       style="opacity:0.17720002;fill:#ff6600;fill-opacity:1;stroke:#000000;stroke-width:0.00883883;stroke-miterlimit:4;stroke-opacity:1;stroke-dasharray:none"
       d="M 4.3812257,5.4803221 C 4.2226632,5.027877 3.8760823,3.7976018 3.8760823,3.6871898 c 0,-0.1431523 0.3702852,-0.2152978 0.8617863,-0.1679082 0.3450627,0.03327 0.3617522,0.1603562 0.095027,0.7236037 C 4.729301,4.4616464 4.5957504,4.859394 4.5361161,5.1267687 4.4764819,5.3941435 4.4067812,5.5532425 4.3812257,5.4803221 z"
       id="path3046"
       inkscape:connector-curvature="0"
       transform="translate(0,1040.3622)" />
    <path
       style="opacity:0.17720002;fill:#ff6600;fill-opacity:1;stroke:#000000;stroke-width:0.00883883;stroke-miterlimit:4;stroke-opacity:1;stroke-dasharray:none"
       d="M 4.1484815,4.5596944 C 4.0337286,4.1505763 3.9640209,3.7528287 3.9935754,3.6758109 4.0574904,3.509251 4.8012347,3.4764185 4.899743,3.6358083 c 0.061525,0.09955 -0.4037858,1.6677371 -0.4948497,1.6677371 -0.026274,0 -0.141659,-0.3347329 -0.2564118,-0.743851 z"
       id="path3048"
       inkscape:connector-curvature="0"
       transform="translate(0,1040.3622)" />
    <path
       style="opacity:0.17720002;fill:#ff6600;fill-opacity:1;stroke:#000000;stroke-width:0.00883883;stroke-miterlimit:4;stroke-opacity:1;stroke-dasharray:none"
       d="M 4.3152703,4.9028029 C 4.1623923,4.5071141 4.0101215,3.7258299 4.0735236,3.6624278 4.142282,3.5936694 4.7531335,3.5878719 4.820599,3.6553375 4.8780333,3.7127718 4.6097931,4.8523188 4.4951901,5.0377503 4.4338997,5.1369202 4.3942272,5.1071642 4.3152703,4.9028029 z"
       id="path3050"
       inkscape:connector-curvature="0"
       transform="translate(0,1040.3622)" />
    <path
       style="opacity:0.17720002;fill:#ff6600;fill-opacity:1;stroke:#000000;stroke-width:0.00883883;stroke-miterlimit:4;stroke-opacity:1;stroke-dasharray:none"
       d="M 9.2456528,6.7462544 C 9.1857633,6.4127689 8.9285021,6.0902121 8.646031,5.9944422 8.5508476,5.962171 8.679934,3.8482481 8.8383943,2.8442953 c 0.09376,-0.5940309 0.338684,-1.1072209 0.467319,-0.9791733 0.029237,0.029104 0.042605,1.2223466 0.029705,2.6516503 -0.013562,1.5027022 -0.051421,2.4429998 -0.089766,2.2294821 z"
       id="path3052"
       inkscape:connector-curvature="0"
       transform="translate(0,1040.3622)" />
    <path
       style="opacity:0.17720002;fill:#ff6600;fill-opacity:1;stroke:#000000;stroke-width:0.00883883;stroke-miterlimit:4;stroke-opacity:1;stroke-dasharray:none"
       d="M 8.9363149,6.2020548 C 8.6869316,5.9461855 8.6491776,5.847118 8.6499991,5.4507539 8.651872,4.5471218 8.906992,2.5748791 9.0657473,2.2367509 l 0.1578298,-0.3361567 0.024662,1.1711455 c 0.013564,0.6441301 0.013564,1.6782737 0,2.298097 L 9.2235771,6.496788 8.9363149,6.2020548 z"
       id="path3054"
       inkscape:connector-curvature="0"
       transform="translate(0,1040.3622)" />
    <path
       style="opacity:0.17720002;fill:#ff6600;fill-opacity:1;stroke:#000000;stroke-width:0.00883883;stroke-miterlimit:4;stroke-opacity:1;stroke-dasharray:none"
       d=""
       id="path3056"
       inkscape:connector-curvature="0"
       transform="translate(0,1040.3622)" />
    <path
       style="opacity:0.17720002;fill:#ff6600;fill-opacity:1;stroke:#000000;stroke-width:0.00883883;stroke-miterlimit:4;stroke-opacity:1;stroke-dasharray:none"
       d=""
       id="path3058"
       inkscape:connector-curvature="0"
       transform="translate(0,1040.3622)" />
    <path
       style="opacity:0.17720002;fill:#ff6600;fill-opacity:1;stroke:#000000;stroke-width:0.00883883;stroke-miterlimit:4;stroke-opacity:1;stroke-dasharray:none"
       d=""
       id="path3060"
       inkscape:connector-curvature="0"
       transform="translate(0,1040.3622)" />
    <path
       style="opacity:0.17720002;fill:#ff6600;fill-opacity:1;stroke:#000000;stroke-width:0.00883883;stroke-miterlimit:4;stroke-opacity:1;stroke-dasharray:none"
       d=""
       id="path3062"
       inkscape:connector-curvature="0"
       transform="translate(0,1040.3622)" />
  </g>
</svg>
