<?xml version="1.0" encoding="UTF-8" standalone="no"?>
<!-- Created with Inkscape (http://www.inkscape.org/) -->

<svg
   xmlns:dc="http://purl.org/dc/elements/1.1/"
   xmlns:cc="http://creativecommons.org/ns#"
   xmlns:rdf="http://www.w3.org/1999/02/22-rdf-syntax-ns#"
   xmlns:svg="http://www.w3.org/2000/svg"
   xmlns="http://www.w3.org/2000/svg"
   xmlns:sodipodi="http://sodipodi.sourceforge.net/DTD/sodipodi-0.dtd"
   xmlns:inkscape="http://www.inkscape.org/namespaces/inkscape"
   width="12"
   height="12"
   id="svg4764"
   version="1.1"
   inkscape:version="0.48.4 r9939"
   sodipodi:docname="shop-12.svg">
  <defs
     id="defs4766" />
  <sodipodi:namedview
     id="base"
     pagecolor="#ffffff"
     bordercolor="#666666"
     borderopacity="1.0"
     inkscape:pageopacity="0.0"
     inkscape:pageshadow="2"
     inkscape:zoom="11.313709"
     inkscape:cx="5.6084938"
     inkscape:cy="5.0524314"
     inkscape:document-units="px"
     inkscape:current-layer="layer1"
     showgrid="true"
     showguides="true"
     inkscape:guide-bbox="true"
     inkscape:window-width="957"
     inkscape:window-height="704"
     inkscape:window-x="188"
     inkscape:window-y="-16"
     inkscape:window-maximized="0"
     inkscape:snap-bbox="true"
     inkscape:snap-nodes="false">
    <inkscape:grid
       type="xygrid"
       id="grid4772"
       empspacing="5"
       visible="true"
       enabled="true"
       snapvisiblegridlinesonly="true"
       spacingx="1px"
       spacingy="1px" />
    <sodipodi:guide
       orientation="0,1"
       position="2,12"
       id="guide4789" />
    <sodipodi:guide
       orientation="1,0"
       position="12,10"
       id="guide4791" />
    <sodipodi:guide
       orientation="0,1"
       position="10,0"
       id="guide4793" />
    <sodipodi:guide
       orientation="1,0"
       position="0,9"
       id="guide4795" />
    <sodipodi:guide
       orientation="0,1"
       position="5,11"
       id="guide4797" />
    <sodipodi:guide
       orientation="1,0"
       position="11,7"
       id="guide4799" />
    <sodipodi:guide
       orientation="0,1"
       position="9,2"
       id="guide4801" />
    <sodipodi:guide
       orientation="1,0"
       position="2,5"
       id="guide4803" />
  </sodipodi:namedview>
  <metadata
     id="metadata4769">
    <rdf:RDF>
      <cc:Work
         rdf:about="">
        <dc:format>image/svg+xml</dc:format>
        <dc:type
           rdf:resource="http://purl.org/dc/dcmitype/StillImage" />
        <dc:title />
      </cc:Work>
    </rdf:RDF>
  </metadata>
  <g
     inkscape:label="Layer 1"
     inkscape:groupmode="layer"
     id="layer1"
     transform="translate(0,-1040.3622)">
    <g
       style="display:inline"
       id="shop-12"
       inkscape:label="shop-12"
       transform="translate(-360,-57.999989)"
       inkscape:export-xdpi="89.996864"
       inkscape:export-ydpi="89.996864">
      <g
         id="g21582">
        <path
           style="opacity:0.3;color:#000000;fill:none;stroke:#ffffff;stroke-width:2;stroke-linecap:butt;stroke-linejoin:round;stroke-miterlimit:4;stroke-opacity:1;stroke-dasharray:none;stroke-dashoffset:0;marker:none;visibility:visible;display:inline;overflow:visible;enable-background:accumulate"
           d="m 365.17188,1099.8622 c -0.5,0 -0.92565,0.5056 -1,1 l -0.17188,1.5 -1,0 c -0.25,0 -0.5,0.25 -0.5,0.5 l -0.5,5 c 0,0.25 0.25,0.5 0.5,0.5 l 8,0 c 0.25,0 0.5,-0.25 0.5,-0.5 l -0.5,-5 c 0,-0.25 -0.25,-0.5 -0.5,-0.5 l -1,0 -0.17187,-1.5 c -0.0569,-0.4967 -0.5,-1 -1,-1 z m 0,0.5 2.65625,0 c 0.25,0 0.4679,0.2199 0.5,0.5 l 0.17187,1.5 -4,0 0.17188,-1.5 c 0.0285,-0.2483 0.25,-0.5 0.5,-0.5 z"
           id="path14991"
           inkscape:connector-curvature="0"
           sodipodi:nodetypes="cccccccccccccccccccccc" />
        <path
           sodipodi:nodetypes="cccccccccccccccccccccc"
           inkscape:connector-curvature="0"
           id="rect13131-6-6"
           d="m 365.17188,1099.8622 c -0.5,0 -0.92565,0.5056 -1,1 l -0.17188,1.5 -1,0 c -0.25,0 -0.5,0.25 -0.5,0.5 l -0.5,5 c 0,0.25 0.25,0.5 0.5,0.5 l 8,0 c 0.25,0 0.5,-0.25 0.5,-0.5 l -0.5,-5 c 0,-0.25 -0.25,-0.5 -0.5,-0.5 l -1,0 -0.17187,-1.5 c -0.0569,-0.4967 -0.5,-1 -1,-1 z m 0,0.5 2.65625,0 c 0.25,0 0.4679,0.2199 0.5,0.5 l 0.17187,1.5 -4,0 0.17188,-1.5 c 0.0285,-0.2483 0.25,-0.5 0.5,-0.5 z"
           style="color:#000000;fill:#444444;fill-opacity:1;fill-rule:nonzero;stroke:none;stroke-width:2;marker:none;visibility:visible;display:inline;overflow:visible;enable-background:accumulate" />
      </g>
      <rect
         style="opacity:0.5;color:#000000;fill:none;stroke:none;stroke-width:2;marker:none;visibility:visible;display:inline;overflow:visible;enable-background:accumulate"
         id="rect22298-4"
         width="11.999998"
         height="12.000007"
         x="360"
         y="1098.3622" />
    </g>
    <path
       style="opacity:0.17720002;fill:#782121;fill-opacity:1;stroke:#000000;stroke-width:0.00883883;stroke-miterlimit:4;stroke-opacity:1;stroke-dasharray:none"
       d="M 2.2354258,9.76972 C 2.0559703,9.5902645 2.0254754,9.4917414 2.0644382,9.2172929 2.0905191,9.0335821 2.2122336,7.8702309 2.3349149,6.6320681 2.5046226,4.9192895 2.5920357,4.3432225 2.700396,4.2234857 2.8105435,4.1017742 2.9799326,4.0661086 3.4478397,4.0661086 c 0.4317228,0 0.6050193,-0.032311 0.6050193,-0.1128042 0,-0.517316 0.2173122,-1.6554909 0.360238,-1.8867496 0.3139502,-0.5079822 0.6187314,-0.5824506 2.2473166,-0.5490966 1.3994605,0.028661 1.4517842,0.036463 1.6804591,0.2505535 0.3548298,0.3321996 0.4134877,0.4913208 0.5198714,1.4102553 l 0.097668,0.8436474 0.6366707,0.044194 c 0.3501689,0.024307 0.6811152,0.088763 0.7354372,0.1432352 0.115329,0.1156494 0.643129,5.1073917 0.571629,5.4062597 -0.02658,0.1111 -0.149241,0.2403679 -0.272581,0.2872621 -0.131957,0.05017 -1.8605982,0.085262 -4.1999954,0.085262 l -3.975739,0 L 2.2354258,9.76972 z M 8.5298587,3.7788465 C 8.502095,3.6208523 8.4526019,3.2416287 8.419874,2.9361273 8.3833468,2.5951612 8.2941696,2.2965118 8.1889363,2.1627292 8.0188527,1.946503 8.0058098,1.9447883 6.5311094,1.9447883 c -1.8160882,0 -1.8323367,0.00774 -1.9510104,0.9293162 -0.043733,0.3396139 -0.080816,0.7467478 -0.082406,0.904742 l -0.00289,0.2872621 2.0427687,0 2.0427687,0 -0.050479,-0.2872621 z"
       id="path2996"
       inkscape:connector-curvature="0"
       transform="translate(0,1040.3622)" />
    <path
       style="opacity:0.17720002;fill:#782121;fill-opacity:1;stroke:#000000;stroke-width:0.00883883;stroke-miterlimit:4;stroke-opacity:1;stroke-dasharray:none"
       d="M 2.3071892,9.7936605 C 2.1783378,9.6545721 2.1083154,9.4681165 2.1083154,9.2640992 c 0,-0.4902274 0.439376,-4.4083241 0.5345933,-4.7671887 0.093273,-0.3515372 0.2788554,-0.4308019 1.0086348,-0.4308019 l 0.3720826,0 0.1345598,-0.8233814 C 4.3132787,2.2937025 4.4402509,1.989498 4.7888469,1.7317667 5.0211799,1.5599934 5.1437946,1.5480164 6.5375413,1.5609541 c 2.014925,0.018704 2.10766,0.085531 2.300917,1.6580979 l 0.1040971,0.8470566 0.4056758,0.010458 c 0.8583268,0.022126 0.9243118,0.063576 1.0396298,0.653071 0.135162,0.6909375 0.4709,3.9021669 0.4709,4.5040166 0,0.3169202 -0.04468,0.5047452 -0.138617,0.5827055 C 10.612343,9.9058263 9.6838937,9.9399531 6.5437949,9.969868 L 2.5060629,10.008335 2.3071892,9.7936605 z M 8.555981,3.8672348 C 8.5430284,3.3172306 8.3119225,2.2862143 8.1652643,2.1241588 8.0144731,1.9575365 7.8978133,1.9447883 6.5238255,1.9447883 c -1.7664864,0 -1.8092069,0.01847 -1.942149,0.8396893 -0.047219,0.2916815 -0.086082,0.6993728 -0.086364,0.9059805 l -5.119e-4,0.3756505 2.0329319,0 2.0329319,0 -0.00468,-0.1988738 2e-7,0 z"
       id="path2998"
       inkscape:connector-curvature="0"
       transform="translate(0,1040.3622)" />
    <path
       style="opacity:0.17720002;fill:#782121;fill-opacity:1;stroke:#000000;stroke-width:0.00883883;stroke-miterlimit:4;stroke-opacity:1;stroke-dasharray:none"
       d="M 2.3882178,9.8733026 C 2.1289077,9.560853 2.1167599,9.282986 2.2900639,7.6281473 2.4984664,5.6381618 2.6738469,4.3549978 2.7474987,4.281346 2.8296752,4.1991694 3.4428836,4.0705877 3.7639129,4.0682173 4.0780845,4.0658971 4.0495875,4.1281124 4.2264815,3.05833 4.3439404,2.3479865 4.4888511,2.031825 4.8143138,1.775816 5.0295139,1.6065396 5.1597459,1.5916486 6.3849729,1.5962238 c 2.0359664,0.0076 2.1899478,0.1077831 2.4157049,1.5716607 0.1079676,0.7000946 0.1698866,0.9002965 0.2807111,0.9076197 0.078203,0.00517 0.2018503,0.018251 0.2747707,0.029075 0.07292,0.010824 0.2803384,0.026483 0.4609289,0.034799 0.2283605,0.010515 0.3573275,0.06927 0.4235165,0.1929464 0.106639,0.1992566 0.397875,2.3603703 0.48227,3.578677 0.03031,0.4375223 0.07712,0.9216537 0.104037,1.0758475 0.02691,0.1541938 0.02232,0.4015246 -0.01021,0.5496241 C 10.768952,9.7538728 10.703456,9.8140375 10.476705,9.848793 10.322235,9.87247 8.4600356,9.912856 6.3384849,9.938542 3.2880979,9.975472 2.4616846,9.961824 2.3882188,9.873303 l 0,0 z M 8.5588225,3.7346523 C 8.5558554,3.20077 8.3395473,2.3167394 8.1645737,2.1233958 8.014651,1.957733 7.8957374,1.9447883 6.5238255,1.9447883 c -1.2770157,0 -1.5051981,0.021134 -1.6700416,0.1546796 C 4.62251,2.2868308 4.4997352,2.7733599 4.4969093,3.5136814 l -0.00211,0.5524272 2.0329319,0 2.0329319,0 -0.00184,-0.3314563 z"
       id="path3000"
       inkscape:connector-curvature="0"
       transform="translate(0,1040.3622)" />
    <path
       style="opacity:0.17720002;fill:#782121;fill-opacity:1;stroke:#000000;stroke-width:0.00883883;stroke-miterlimit:4;stroke-opacity:1;stroke-dasharray:none"
       d="M 2.3342982,9.7032957 C 2.2540476,9.5887217 2.1967037,9.3216066 2.1967037,9.0623621 2.1967037,8.5698154 2.4900134,5.8638939 2.6454664,4.922313 2.7563973,4.2504027 2.794606,4.2170597 3.5597369,4.1244701 3.7989625,4.0955211 4.0198516,4.0311273 4.0506014,3.981373 4.0813513,3.9316187 4.1583656,3.582301 4.2217444,3.2051116 4.4744441,1.7012057 4.7132525,1.544669 6.6439034,1.6174088 c 1.7878268,0.067359 1.9046915,0.1528226 2.132167,1.5592672 0.07407,0.4579618 0.1851727,0.8647105 0.2468953,0.9038859 0.061723,0.039175 0.293551,0.071837 0.515174,0.072582 0.5868623,0.00197 0.6903893,0.1178671 0.8315003,0.9308437 0.192551,1.1093368 0.413646,3.4766134 0.383731,4.1086454 l -0.02719,0.5745243 -0.53033,0.056698 C 9.9041673,9.8550389 8.0469529,9.88487 6.0687057,9.8901461 L 2.4718927,9.8997393 2.3342982,9.7032957 z M 8.5781404,3.7567494 C 8.5274341,3.0721176 8.3576182,2.3771736 8.1884878,2.1621591 8.0190514,1.9467556 8.0041411,1.9447883 6.5409843,1.9447883 c -1.6672892,0 -1.8050007,0.042378 -1.9492838,0.5998574 -0.070861,0.273794 -0.1425372,1.3082216 -0.1070665,1.545189 0.00559,0.037356 0.9348099,0.057244 2.0649293,0.044194 L 8.6043259,4.1103028 8.5781404,3.7567494 z"
       id="path3002"
       inkscape:connector-curvature="0"
       transform="translate(0,1040.3622)" />
    <path
       style="opacity:0.17720002;fill:#782121;fill-opacity:1;stroke:#000000;stroke-width:0.00883883;stroke-miterlimit:4;stroke-opacity:1;stroke-dasharray:none"
       d="M 2.4158954,9.808472 C 2.1867902,9.4377721 2.2242499,8.354917 2.5562852,5.7501928 2.7401432,4.3078786 2.8361979,4.1544969 3.5555835,4.1544969 c 0.4420781,0 0.5466144,-0.1500006 0.7083808,-1.0164659 0.1548943,-0.8296578 0.32338,-1.1626778 0.6812986,-1.3466193 0.3133429,-0.1610331 2.7323866,-0.1507288 3.1249901,0.013311 0.383378,0.1601856 0.4576781,0.3087087 0.674965,1.34923 0.09839,0.4711579 0.1988996,0.8890267 0.2233556,0.9285973 0.024456,0.039571 0.1986277,0.071947 0.3870483,0.071947 0.6979681,0 0.8675891,0.1787081 1.0067291,1.0606602 0.04901,0.3106543 0.06864,0.4700328 0.228563,1.8561552 0.137949,1.1956329 0.146402,2.5628267 0.01634,2.643208 -0.06095,0.03767 -1.3319214,0.094686 -2.8243764,0.1267002 -3.8749139,0.08312 -5.3007503,0.07442 -5.3669842,-0.032749 z M 8.6490528,4.1166985 c 0,-0.020789 -0.042848,-0.3458625 -0.095217,-0.7223852 C 8.4437076,2.6025224 8.2534327,2.0698651 8.0532826,1.9930603 7.810705,1.8999745 5.1213842,1.9343594 4.937258,2.0329008 4.8419755,2.0838944 4.7163124,2.2141981 4.6580066,2.3224645 4.5513038,2.5205979 4.394823,3.9646895 4.4666721,4.0882057 c 0.039645,0.068153 4.1823807,0.096376 4.1823807,0.028493 z"
       id="path3004"
       inkscape:connector-curvature="0"
       transform="translate(0,1040.3622)" />
    <path
       style="opacity:0.17720002;fill:#782121;fill-opacity:1;stroke:#000000;stroke-width:0.00883883;stroke-miterlimit:4;stroke-opacity:1;stroke-dasharray:none"
       d="M 2.5749986,9.8076194 C 2.4670724,9.7652673 2.3520369,9.624106 2.3193643,9.4939276 2.1861223,8.9630493 2.5886093,5.0425961 2.8277148,4.5423037 2.9304011,4.327448 3.0314292,4.2709185 3.4664498,4.1849046 3.7506651,4.1287083 4.0120732,4.0491588 4.0473567,4.0081279 4.0826402,3.9670969 4.1758935,3.6254871 4.2545863,3.248995 4.3332791,2.872503 4.4610943,2.430795 4.53862,2.2674217 4.7702702,1.7792551 4.9738832,1.7238175 6.5351874,1.7238175 c 1.8702633,0 1.8842576,0.010381 2.2628997,1.6786527 l 0.1603249,0.7063809 0.4787553,0.068408 c 0.5590537,0.079881 0.6737257,0.1573017 0.7949967,0.5367353 0.231452,0.7241713 0.543248,4.2711376 0.418979,4.7662661 -0.05456,0.2173716 -0.08849,0.2280684 -0.874745,0.2757109 -1.4925579,0.090441 -7.0018542,0.1299532 -7.2013994,0.051648 z M 8.6483851,4.0440115 C 8.6465431,3.7392116 8.4537748,2.7408853 8.3341497,2.4166206 8.259511,2.2142992 8.1330359,2.0236645 8.0530939,1.9929879 7.9731519,1.9623113 7.2746641,1.9372122 6.5008988,1.9372122 c -1.5718324,0 -1.74806,0.051595 -1.9020421,0.5568725 -0.1131581,0.3713175 -0.2144061,1.4649814 -0.1458871,1.5758475 0.084407,0.136573 4.196244,0.1111687 4.1954155,-0.025921 z"
       id="path3006"
       inkscape:connector-curvature="0"
       transform="translate(0,1040.3622)" />
    <path
       style="opacity:0.17720002;fill:#782121;fill-opacity:1;stroke:#000000;stroke-width:0.00883883;stroke-miterlimit:4;stroke-opacity:1;stroke-dasharray:none"
       d="M 2.4280172,9.7396972 C 2.3627766,9.6341358 2.3548178,7.9119824 2.4173193,7.4248657 2.4391507,7.2547181 2.4803503,6.8967453 2.5088738,6.6293706 2.6161736,5.6235608 2.643217,5.4244058 2.732995,4.9788812 2.8262958,4.5158747 2.9737185,4.3142599 3.2497782,4.2721302 3.3333507,4.2593761 3.556224,4.19786 3.7450523,4.1354277 4.0821181,4.0239836 4.0919713,4.0082194 4.2855937,3.2706135 L 4.4828111,2.5193126 4.4324934,3.3294382 4.3821758,4.139564 5.4770512,4.1691275 c 0.6021816,0.01626 1.5676339,0.017121 2.1454496,0.00191 L 8.6730748,4.1433894 8.6183571,3.619879 C 8.5882624,3.3319484 8.4863627,2.8674667 8.3919132,2.5876976 8.2974637,2.3079284 8.2392949,2.0599184 8.2626491,2.0365642 c 0.085417,-0.085417 0.2036337,0.2308033 0.4351326,1.1639397 0.1535792,0.6190541 0.2781418,0.953993 0.3547866,0.953993 0.064962,0 0.3135335,0.04191 0.5523802,0.093134 0.3376807,0.07242 0.4581275,0.1455029 0.5415505,0.328595 0.260953,0.5727315 0.606796,4.4704221 0.439092,4.9486254 -0.06749,0.1924307 0.175195,0.1784166 -4.3325924,0.2501942 -2.6581611,0.042326 -3.7834031,0.031927 -3.8249814,-0.035348 z"
       id="path3008"
       inkscape:connector-curvature="0"
       transform="translate(0,1040.3622)" />
    <path
       style="opacity:0.17720002;fill:#782121;fill-opacity:1;stroke:#000000;stroke-width:0.00883883;stroke-miterlimit:4;stroke-opacity:1;stroke-dasharray:none"
       d="M 2.6166086,9.7573214 C 2.531568,9.7313078 2.4362435,9.6074443 2.4047764,9.4820694 2.2732339,8.9579625 2.5941805,5.4490943 2.8412289,4.7103891 2.9380496,4.4208832 3.0015694,4.3739055 3.5225289,4.2065154 L 4.0970531,4.0219144 4.2476958,3.4587929 C 4.3305492,3.149076 4.4172666,2.8767431 4.4404011,2.8536086 c 0.023135,-0.023134 0.019647,0.2543193 -0.00775,0.616564 l -0.049812,0.6586268 1.006155,0.044365 c 0.5533851,0.024401 1.513283,0.024813 2.1331062,9.157e-4 l 1.1269514,-0.04345 -0.00153,-0.275329 C 8.6466739,3.7038707 8.5875828,3.3042931 8.5162043,2.9673513 8.4448258,2.6304095 8.4031275,2.3380275 8.4235414,2.3176137 8.4612675,2.2798876 8.5240163,2.4934806 8.7874108,3.5562009 l 0.147457,0.5949467 0.4367239,0.057933 c 0.6286523,0.083394 0.7616783,0.230968 0.9068953,1.006076 0.174202,0.9298148 0.335843,2.9244326 0.30057,3.7089623 l -0.02965,0.6595645 -0.309359,0.064395 C 9.8714826,9.7247975 2.8396909,9.8255617 2.6166086,9.7573214 z"
       id="path3010"
       inkscape:connector-curvature="0"
       transform="translate(0,1040.3622)" />
    <path
       style="opacity:0.17720002;fill:#782121;fill-opacity:1;stroke:#000000;stroke-width:0.00883883;stroke-miterlimit:4;stroke-opacity:1;stroke-dasharray:none"
       d="M 2.4433908,9.568283 C 2.2858801,8.945101 2.6822046,4.9455019 2.9405349,4.55124 3.0147113,4.4380325 3.2437948,4.3104752 3.4937096,4.2432237 4.0348058,4.0976159 4.0660006,4.0673198 4.2477126,3.5109419 l 0.1506595,-0.4612993 -0.018077,0.5423433 -0.018077,0.5423433 0.53033,0.050714 c 0.4084837,0.039063 3.2724848,0.021708 3.7029948,-0.022438 0.04349,-0.00446 0.056886,-0.2765881 0.029769,-0.6047298 -0.049971,-0.6046878 0.00138,-0.5487828 0.197578,0.2150824 0.091661,0.3568774 0.1115027,0.373194 0.5694004,0.4682532 0.2609362,0.05417 0.542501,0.1737094 0.6256997,0.2656429 0.09074,0.1002611 0.19924,0.4788147 0.271141,0.9459603 0.160718,1.0441938 0.343359,3.6612109 0.274627,3.9350612 -0.05398,0.2150815 -0.07643,0.2203312 -1.183739,0.2768048 C 8.7592262,9.6963413 6.953321,9.7224071 5.3668958,9.7226042 2.6934851,9.7229363 2.4796266,9.7116476 2.4433908,9.568283 z"
       id="path3012"
       inkscape:connector-curvature="0"
       transform="translate(0,1040.3622)" />
    <path
       style="opacity:0.17720002;fill:#782121;fill-opacity:1;stroke:#000000;stroke-width:0.00883883;stroke-miterlimit:4;stroke-opacity:1;stroke-dasharray:none"
       d="M 2.4958455,9.5956262 C 2.3795633,9.2925997 2.5406728,6.5487978 2.7374862,5.4803221 2.9145181,4.5192382 2.9455793,4.4702643 3.5017909,4.2752494 3.9453545,4.1197303 4.0331361,4.0486504 4.2045867,3.7061703 L 4.4005088,3.3148077 4.3490644,3.7214318 4.29762,4.1280559 4.6392782,4.1844978 c 0.4333866,0.071595 3.5455754,0.073782 3.8109009,0.00268 0.1681568,-0.045064 0.200214,-0.1165506 0.2075513,-0.4628319 L 8.6664079,3.3148077 8.7705162,3.70464 c 0.1085354,0.4064095 0.1524026,0.4393224 0.8272691,0.620688 0.2058145,0.055311 0.4137847,0.174516 0.4621567,0.2648994 0.179753,0.335872 0.369739,1.8652274 0.419002,3.3729011 0.04795,1.4675565 0.04144,1.5584751 -0.116147,1.6215438 -0.09182,0.036748 -1.8862106,0.088745 -3.9875314,0.1155478 -3.5704574,0.045542 -3.8244351,0.038695 -3.8794201,-0.1045939 z"
       id="path3014"
       inkscape:connector-curvature="0"
       transform="translate(0,1040.3622)" />
    <path
       style="opacity:0.17720002;fill:#782121;fill-opacity:1;stroke:#000000;stroke-width:0.00883883;stroke-miterlimit:4;stroke-opacity:1;stroke-dasharray:none"
       d="M 2.4911729,9.4950614 C 2.3448048,9.1136321 2.7355012,5.1877748 2.9640414,4.7435107 3.0486455,4.5790467 3.2596563,4.4191296 3.5775927,4.278523 3.9409894,4.1178118 4.0933181,3.992602 4.1866476,3.7778976 l 0.124457,-0.2863132 0.00346,0.3297723 c 0.0028,0.2671459 0.041227,0.3390311 0.2023335,0.3785267 0.1093806,0.026815 1.0739184,0.037516 2.1434173,0.023781 L 8.6048592,4.1986914 8.6510632,3.8893322 8.6972672,3.579973 8.7981543,3.8586561 c 0.085025,0.2348663 0.1818733,0.3043519 0.6159748,0.4419417 0.3959315,0.1254917 0.5427198,0.2211319 0.6345359,0.4134328 0.162181,0.3396729 0.448885,3.0097769 0.428694,3.9924663 L 10.461019,9.501992 10.019077,9.56054 C 9.7760042,9.592741 7.9948356,9.6225721 6.0609197,9.6268309 2.9347155,9.6337154 2.538771,9.6190999 2.4911729,9.4950614 z"
       id="path3016"
       inkscape:connector-curvature="0"
       transform="translate(0,1040.3622)" />
    <path
       style="opacity:0.17720002;fill:#782121;fill-opacity:1;stroke:#000000;stroke-width:0.00883883;stroke-miterlimit:4;stroke-opacity:1;stroke-dasharray:none"
       d="M 3.8981793,9.6544269 2.5502571,9.6300854 2.5367608,9.3892619 C 2.4794914,8.3673652 2.6610554,6.0336776 2.8694742,5.1128135 L 3.0026645,4.524334 3.4837179,4.3290888 C 3.7482973,4.2217039 4.042993,4.0291099 4.1385975,3.9011023 l 0.1738262,-0.2327413 0.0028,0.2336114 c 0.00155,0.1294683 0.065128,0.2575287 0.1426117,0.2872621 0.076897,0.029508 1.0513779,0.053651 2.1655144,0.053651 l 2.0257029,0 0.00313,-0.2872621 0.00313,-0.2872622 0.1212181,0.2189696 c 0.077627,0.1402262 0.3228361,0.299454 0.6818776,0.4427809 0.5407682,0.2158709 0.5642536,0.2383429 0.6619756,0.6333997 0.169121,0.6837058 0.296431,2.1370463 0.296431,3.3839984 l 0,1.180876 -1.0827576,0.054642 C 7.9220003,9.6542889 5.5880902,9.6849442 3.8981793,9.6544269 z"
       id="path3018"
       inkscape:connector-curvature="0"
       transform="translate(0,1040.3622)" />
    <path
       style="opacity:0.17720002;fill:#782121;fill-opacity:1;stroke:#000000;stroke-width:0.00883883;stroke-miterlimit:4;stroke-opacity:1;stroke-dasharray:none"
       d="M 2.5914065,9.5412593 C 2.4369239,9.2913012 2.6815654,5.8569801 2.9172637,4.9668178 3.0073102,4.6267392 3.0717954,4.5588032 3.5186832,4.3332149 3.7939904,4.1942403 4.075832,4.0123468 4.1449978,3.9290071 4.2615794,3.7885348 4.2743776,3.7928448 4.3204258,3.9880857 l 0.049672,0.2106054 2.1394774,0.023669 c 2.0946554,0.023173 2.1394774,0.019932 2.1394774,-0.1546796 0,-0.098091 0.039775,-0.1783481 0.088388,-0.1783481 0.048614,0 0.088388,0.041438 0.088388,0.092085 0,0.050647 0.2561882,0.2070289 0.5693071,0.3475158 0.5436363,0.2439132 0.5752064,0.2752962 0.7001393,0.695991 0.157716,0.5310859 0.347598,2.8922256 0.306733,3.8141554 l -0.02938,0.6629125 -1.1490488,0.056215 c -1.9988833,0.09779 -6.5684774,0.086113 -6.6321727,-0.016948 z"
       id="path3020"
       inkscape:connector-curvature="0"
       transform="translate(0,1040.3622)" />
    <path
       style="opacity:0.17720002;fill:#782121;fill-opacity:1;stroke:#000000;stroke-width:0.00883883;stroke-miterlimit:4;stroke-opacity:1;stroke-dasharray:none"
       d="M 2.8596163,9.555247 2.5944513,9.4976338 2.6161818,8.3065701 C 2.6384764,7.0845868 2.8379836,5.2230262 2.9893071,4.8250154 3.0400053,4.6916691 3.2716598,4.4901153 3.5635692,4.3253718 3.8326755,4.1734976 4.0750894,4.0132583 4.1022668,3.9692844 c 0.082715,-0.133836 0.192573,-0.089767 0.2413676,0.096824 0.044615,0.1706062 0.1205631,0.1767767 2.1758233,0.1767767 1.883863,0 2.1295951,-0.016148 2.1295951,-0.1399482 0,-0.076971 0.029831,-0.1246118 0.066291,-0.1058673 0.03646,0.018745 0.333146,0.16093 0.6593018,0.3159677 0.5278247,0.2509007 0.6026921,0.3184049 0.6810854,0.6141002 0.136055,0.5131909 0.256264,1.7028775 0.320653,3.1734331 l 0.05861,1.3386177 -0.340545,0.052944 C 9.6062251,9.5680367 3.1766343,9.6241265 2.8596163,9.555247 z"
       id="path3022"
       inkscape:connector-curvature="0"
       transform="translate(0,1040.3622)" />
  </g>
</svg>
